<svg width="36" height="36" viewBox="0 0 36 36" fill="none" xmlns="http://www.w3.org/2000/svg">
<g clip-path="url(#clip0_284_994)">
<path d="M18 36C27.9414 36 36 27.9414 36 18C36 8.0586 27.9414 -2.74397e-06 18 -4.48218e-06C8.0586 -6.22038e-06 4.88543e-06 8.05859 3.14722e-06 18C1.40901e-06 27.9414 8.0586 36 18 36ZM18 33.84C9.252 33.84 2.16 26.748 2.16 18C2.16 9.252 9.252 2.15999 18 2.16C26.748 2.16 33.84 9.252 33.84 18C33.84 26.748 26.748 33.84 18 33.84ZM14.8851 18.18L20.8818 12.897C21.0009 12.7836 21.096 12.6476 21.1616 12.4968C21.2272 12.3461 21.2619 12.1837 21.2636 12.0193C21.2654 11.8549 21.2342 11.6919 21.1719 11.5397C21.1096 11.3876 21.0175 11.2495 20.9009 11.1336C20.7843 11.0177 20.6457 10.9263 20.4932 10.8649C20.3407 10.8034 20.1775 10.7732 20.0131 10.7759C19.8487 10.7786 19.6866 10.8142 19.5362 10.8807C19.3858 10.9471 19.2503 11.043 19.1376 11.1627L12.168 17.3619C11.6892 17.8443 11.691 18.6219 12.1725 19.1016L19.143 25.2018C19.3763 25.4215 19.6862 25.5414 20.0066 25.5361C20.327 25.5308 20.6328 25.4007 20.8587 25.1735C21.0847 24.9462 21.2131 24.6398 21.2165 24.3193C21.22 23.9989 21.0983 23.6897 20.8773 23.4576L14.8851 18.18Z" fill="white"/>
</g>
<defs>
<clipPath id="clip0_284_994">
<rect width="36" height="36" fill="white" transform="matrix(1 1.74846e-07 1.74846e-07 -1 0 36)"/>
</clipPath>
</defs>
</svg>
