<svg width="36" height="36" viewBox="0 0 36 36" fill="none" xmlns="http://www.w3.org/2000/svg">
<path d="M18 36C8.05861 36 6.22038e-06 27.9414 4.48217e-06 18C2.74396e-06 8.0586 8.0586 -2.74397e-06 18 -4.48218e-06C27.9414 -6.22038e-06 36 8.05859 36 18C36 27.9414 27.9414 36 18 36ZM18 33.84C26.748 33.84 33.84 26.748 33.84 18C33.84 9.252 26.748 2.15999 18 2.16C9.252 2.16 2.16 9.252 2.16 18C2.16001 26.748 9.25201 33.84 18 33.84ZM21.1149 18.18L15.1182 12.897C14.9991 12.7836 14.904 12.6476 14.8384 12.4968C14.7728 12.3461 14.7381 12.1837 14.7364 12.0193C14.7346 11.8549 14.7658 11.6919 14.8281 11.5397C14.8904 11.3876 14.9825 11.2495 15.0991 11.1336C15.2157 11.0177 15.3543 10.9263 15.5068 10.8649C15.6593 10.8034 15.8225 10.7732 15.9869 10.7759C16.1513 10.7786 16.3134 10.8142 16.4638 10.8807C16.6142 10.9471 16.7497 11.043 16.8624 11.1627L23.832 17.3619C24.3108 17.8443 24.309 18.6219 23.8275 19.1016L16.857 25.2018C16.6237 25.4215 16.3138 25.5414 15.9934 25.5361C15.673 25.5308 15.3672 25.4007 15.1413 25.1735C14.9153 24.9462 14.7869 24.6398 14.7835 24.3193C14.78 23.9989 14.9017 23.6897 15.1227 23.4576L21.1149 18.18Z" fill="white" />
</svg>
