<svg width="40" height="40" viewBox="0 0 40 40" fill="none" xmlns="http://www.w3.org/2000/svg">
<path d="M0 20C0 8.95431 8.95431 0 20 0C31.0457 0 40 8.95431 40 20C40 31.0457 31.0457 40 20 40C8.95431 40 0 31.0457 0 20Z" fill="#C0EE02"/>
<path d="M28.7486 12.4794C28.7486 12.4794 30.598 11.7582 30.4433 13.5095C30.3924 14.2307 29.9301 16.7552 29.5702 19.4853L28.3373 27.5732C28.3373 27.5732 28.2345 28.7581 27.3095 28.9642C26.3851 29.1699 24.9979 28.243 24.7408 28.0369C24.5352 27.8822 20.8877 25.5639 19.6034 24.4309C19.2435 24.1214 18.8322 23.5035 19.6548 22.7823L25.0493 17.6306C25.6658 17.0118 26.2822 15.5694 23.7135 17.3212L16.5206 22.2149C16.5206 22.2149 15.6984 22.7305 14.1575 22.2668L10.8176 21.2362C10.8176 21.2362 9.58463 20.4635 11.6911 19.6909C16.829 17.2698 23.1489 14.7977 28.7486 12.4794Z" fill="black"/>
</svg>
