<svg width="32" height="33" viewBox="0 0 32 33" fill="none" xmlns="http://www.w3.org/2000/svg">
<g id="Frame">
<path id="Vector" d="M12.9981 13.9974C14.7018 16.857 16.746 19.3118 19.1161 21.353C20.304 19.4345 21.2874 17.513 22.0808 15.7742C21.9347 15.6281 21.8134 15.4571 21.7184 15.2701C18.3109 15.1386 15.4032 14.6403 12.9981 13.9974ZM23.5946 16.3426C22.7427 18.2173 21.6761 20.301 20.3756 22.3788C21.6322 23.3388 22.9721 24.1921 24.3924 24.9373C26.647 22.709 28.0439 19.6142 28.0439 16.195C28.0439 15.8239 28.0264 15.4557 27.9942 15.0933C27.0386 15.1795 26.1093 15.238 25.2121 15.2701C24.9082 15.8721 24.3033 16.2959 23.5946 16.3426ZM11.2271 10.5899C11.2432 10.5899 11.2578 10.587 11.2739 10.587C12.3318 10.587 13.2012 11.3848 13.3181 12.412C15.6063 13.0316 18.384 13.5182 21.6571 13.6526C21.9493 12.941 22.6477 12.4383 23.466 12.4383C23.4719 12.4383 23.4777 12.4398 23.4835 12.4398C24.1265 10.7726 24.6247 9.27487 24.9886 8.08401C22.7354 5.51963 19.4317 3.90063 15.7495 3.90063C13.4496 3.90063 11.2958 4.53333 9.4547 5.6336C9.78347 6.861 10.3373 8.60711 11.2271 10.5899ZM27.7458 13.4977C27.439 12.1242 26.9013 10.8383 26.1765 9.67962C25.7984 10.8382 25.3887 11.9861 24.9476 13.1222C25.0835 13.28 25.1946 13.4597 25.2735 13.6555C26.0988 13.6233 26.9231 13.5706 27.7458 13.4977ZM19.5106 23.7085C18.3796 25.3757 17.0923 27.0078 15.6457 28.4865C15.6808 28.4865 15.7144 28.488 15.7495 28.488C18.5038 28.488 21.0477 27.5821 23.0963 26.0522C21.7959 25.3275 20.6021 24.5399 19.5106 23.7085ZM18.251 22.6973C15.1957 20.1037 13.0317 17.2179 11.5325 14.6856C11.4478 14.6959 11.3615 14.7032 11.2739 14.7032C10.1692 14.7032 9.27206 13.8323 9.22091 12.7408C9.19461 12.7306 9.16831 12.7203 9.14347 12.7101C7.38274 11.9927 5.95663 11.2197 4.84174 10.5183C3.95626 12.2162 3.45508 14.1479 3.45508 16.195C3.45508 22.2312 7.80356 27.2504 13.5402 28.2907C15.3418 26.6279 16.9082 24.6904 18.251 22.6973ZM9.73525 11.2095C8.93744 9.43122 8.39973 7.84145 8.04758 6.61259C7.14452 7.33913 6.34816 8.1891 5.68192 9.13752C6.72521 9.79652 8.07242 10.53 9.73525 11.2095Z" fill="url(#paint0_linear_1828_467)"/>
</g>
<defs>
<linearGradient id="paint0_linear_1828_467" x1="15.7495" y1="3.90063" x2="15.7495" y2="28.488" gradientUnits="userSpaceOnUse">
<stop stop-color="#8EEF3D"/>
<stop offset="1" stop-color="#E1FE56"/>
</linearGradient>
</defs>
</svg>
