<svg width="33" height="33" viewBox="0 0 33 33" fill="none" xmlns="http://www.w3.org/2000/svg">
<g id="Frame" clip-path="url(#clip0_1828_469)">
<path id="Vector" d="M30.0293 10.4446H2.0293C0.924734 10.4446 0.0292969 9.54914 0.0292969 8.44458V4.44458C0.0292969 3.34002 0.924734 2.44458 2.0293 2.44458H30.0293C31.1339 2.44458 32.0293 3.34002 32.0293 4.44458V8.44458C32.0293 9.54914 31.1339 10.4446 30.0293 10.4446ZM27.0293 4.94458C26.2009 4.94458 25.5293 5.61614 25.5293 6.44458C25.5293 7.27302 26.2009 7.94458 27.0293 7.94458C27.8577 7.94458 28.5293 7.27302 28.5293 6.44458C28.5293 5.61614 27.8577 4.94458 27.0293 4.94458ZM23.0293 4.94458C22.2009 4.94458 21.5293 5.61614 21.5293 6.44458C21.5293 7.27302 22.2009 7.94458 23.0293 7.94458C23.8577 7.94458 24.5293 7.27302 24.5293 6.44458C24.5293 5.61614 23.8577 4.94458 23.0293 4.94458ZM30.0293 20.4446H2.0293C0.924734 20.4446 0.0292969 19.5491 0.0292969 18.4446V14.4446C0.0292969 13.34 0.924734 12.4446 2.0293 12.4446H30.0293C31.1339 12.4446 32.0293 13.34 32.0293 14.4446V18.4446C32.0293 19.5491 31.1339 20.4446 30.0293 20.4446ZM27.0293 14.9446C26.2009 14.9446 25.5293 15.6161 25.5293 16.4446C25.5293 17.273 26.2009 17.9446 27.0293 17.9446C27.8577 17.9446 28.5293 17.273 28.5293 16.4446C28.5293 15.6161 27.8577 14.9446 27.0293 14.9446ZM23.0293 14.9446C22.2009 14.9446 21.5293 15.6161 21.5293 16.4446C21.5293 17.273 22.2009 17.9446 23.0293 17.9446C23.8577 17.9446 24.5293 17.273 24.5293 16.4446C24.5293 15.6161 23.8577 14.9446 23.0293 14.9446ZM30.0293 30.4446H2.0293C0.924734 30.4446 0.0292969 29.5491 0.0292969 28.4446V24.4446C0.0292969 23.34 0.924734 22.4446 2.0293 22.4446H30.0293C31.1339 22.4446 32.0293 23.34 32.0293 24.4446V28.4446C32.0293 29.5491 31.1339 30.4446 30.0293 30.4446ZM27.0293 24.9446C26.2009 24.9446 25.5293 25.6161 25.5293 26.4446C25.5293 27.273 26.2009 27.9446 27.0293 27.9446C27.8577 27.9446 28.5293 27.273 28.5293 26.4446C28.5293 25.6161 27.8577 24.9446 27.0293 24.9446ZM23.0293 24.9446C22.2009 24.9446 21.5293 25.6161 21.5293 26.4446C21.5293 27.273 22.2009 27.9446 23.0293 27.9446C23.8577 27.9446 24.5293 27.273 24.5293 26.4446C24.5293 25.6161 23.8577 24.9446 23.0293 24.9446Z" fill="url(#paint0_linear_1828_469)"/>
</g>
<defs>
<linearGradient id="paint0_linear_1828_469" x1="16.0293" y1="2.44458" x2="16.0293" y2="30.4446" gradientUnits="userSpaceOnUse">
<stop stop-color="#8EEF3D"/>
<stop offset="1" stop-color="#E1FE56"/>
</linearGradient>
<clipPath id="clip0_1828_469">
<rect width="32" height="32" fill="white" transform="translate(0.0292969 0.444702)"/>
</clipPath>
</defs>
</svg>
