<svg width="33" height="33" viewBox="0 0 33 33" fill="none" xmlns="http://www.w3.org/2000/svg">
<g id="Frame">
<path id="Vector" d="M25.5798 12.1114C25.1132 8.51141 22.0465 5.77808 18.3132 5.77808C15.1798 5.77808 12.5132 7.71141 11.4465 10.4447H10.9798C8.77982 10.4447 6.91315 11.9781 6.44648 14.0447C3.64648 14.8447 1.64648 17.4447 1.64648 20.4447C1.64648 24.1114 4.64648 27.1114 8.31315 27.1114H23.6465C27.7132 26.9114 30.9798 23.5781 30.9798 19.4447C30.9798 15.9781 28.7132 13.1114 25.5798 12.1114ZM16.9798 13.7781C16.9798 13.3781 17.2465 13.1114 17.6465 13.1114C18.0465 13.1114 18.3132 13.3781 18.3132 13.7781V15.1114H16.9798V13.7781ZM14.3132 13.7781C14.3132 13.3781 14.5798 13.1114 14.9798 13.1114C15.3798 13.1114 15.6465 13.3781 15.6465 13.7781V15.1114H14.3132V13.7781ZM12.3132 21.1114H10.9798C10.5798 21.1114 10.3132 20.8447 10.3132 20.4447C10.3132 20.0447 10.5798 19.7781 10.9798 19.7781H12.3132V21.1114ZM12.3132 18.4447H10.9798C10.5798 18.4447 10.3132 18.1781 10.3132 17.7781C10.3132 17.3781 10.5798 17.1114 10.9798 17.1114H12.3132V18.4447ZM15.6465 24.4447C15.6465 24.8447 15.3798 25.1114 14.9798 25.1114C14.5798 25.1114 14.3132 24.8447 14.3132 24.4447V23.1114H15.6465V24.4447ZM18.3132 24.4447C18.3132 24.8447 18.0465 25.1114 17.6465 25.1114C17.2465 25.1114 16.9798 24.8447 16.9798 24.4447V23.1114H18.3132V24.4447ZM19.6465 21.1114C19.6465 21.8447 19.0465 22.4447 18.3132 22.4447H14.3132C13.5798 22.4447 12.9798 21.8447 12.9798 21.1114V17.1114C12.9798 16.3781 13.5798 15.7781 14.3132 15.7781H18.3132C19.0465 15.7781 19.6465 16.3781 19.6465 17.1114V21.1114ZM21.6465 21.1114H20.3132V19.7781H21.6465C22.0465 19.7781 22.3132 20.0447 22.3132 20.4447C22.3132 20.8447 22.0465 21.1114 21.6465 21.1114ZM21.6465 18.4447H20.3132V17.1114H21.6465C22.0465 17.1114 22.3132 17.3781 22.3132 17.7781C22.3132 18.1781 22.0465 18.4447 21.6465 18.4447ZM17.6465 18.8447H16.7798C16.5132 18.8447 16.4465 18.9781 16.3798 19.1781C16.3798 19.4447 16.5132 19.5114 16.7798 19.5781H17.3132C17.3132 20.1114 16.9798 20.3781 16.3798 20.4447C15.7798 20.3781 15.4465 19.9781 15.3798 19.2447C15.4465 18.4447 15.7798 18.0447 16.3798 18.0447C16.6465 18.0447 16.9132 18.1114 17.1798 18.3114C17.3132 18.3781 17.4465 18.4447 17.5132 18.4447C17.7132 18.4447 17.8465 18.3114 17.8465 18.0447C17.7131 17.5781 17.2465 17.3781 16.3798 17.3114C15.2465 17.3781 14.6465 18.0447 14.5132 19.2447C14.5798 20.4447 15.1798 21.1114 16.3798 21.1781C17.4465 21.1114 18.0465 20.5781 18.1131 19.4447C18.1131 19.0447 17.9798 18.8447 17.6465 18.8447Z" fill="url(#paint0_linear_1828_459)"/>
</g>
<defs>
<linearGradient id="paint0_linear_1828_459" x1="16.3132" y1="5.77808" x2="16.3132" y2="27.1114" gradientUnits="userSpaceOnUse">
<stop stop-color="#8EEF3D"/>
<stop offset="1" stop-color="#E1FE56"/>
</linearGradient>
</defs>
</svg>
