<svg width="33" height="33" viewBox="0 0 33 33" fill="none" xmlns="http://www.w3.org/2000/svg">
<g id="Frame">
<path id="Vector" d="M8.59798 24.4448H24.598V8.44478H8.59798V24.4448ZM19.2646 27.1115H13.9313V29.7781H11.2646V27.1115H7.26465C6.91103 27.1115 6.57189 26.971 6.32184 26.7209C6.07179 26.4709 5.93132 26.1317 5.93132 25.7781V21.7781H3.26465V19.1114H5.93132V13.7781H3.26465V11.1115H5.93132V7.11145C5.93132 6.75783 6.07179 6.41869 6.32184 6.16864C6.57189 5.91859 6.91103 5.77812 7.26465 5.77812H11.2646V3.11145H13.9313V5.77812H19.2646V3.11145H21.9313V5.77812H25.9313C26.2849 5.77812 26.6241 5.91859 26.8741 6.16864C27.1242 6.41869 27.2646 6.75783 27.2646 7.11145V11.1115H29.9313V13.7781H27.2646V19.1114H29.9313V21.7781H27.2646V25.7781C27.2646 26.1317 27.1242 26.4709 26.8741 26.7209C26.6241 26.971 26.2849 27.1115 25.9313 27.1115H21.9313V29.7781H19.2646V27.1115ZM11.2646 11.1115H21.9313V21.7781H11.2646V11.1115Z" fill="url(#paint0_linear_1828_454)"/>
</g>
<defs>
<linearGradient id="paint0_linear_1828_454" x1="16.598" y1="3.11145" x2="16.598" y2="29.7781" gradientUnits="userSpaceOnUse">
<stop stop-color="#8EEF3D"/>
<stop offset="1" stop-color="#E1FE56"/>
</linearGradient>
</defs>
</svg>
