<svg width="33" height="33" viewBox="0 0 33 33" fill="none" xmlns="http://www.w3.org/2000/svg">
<g id="Frame">
<path id="Vector" d="M28.8825 5.77808H4.88249C3.41582 5.77808 2.21582 6.97808 2.21582 8.44474V24.4447C2.21582 25.9114 3.41582 27.1114 4.88249 27.1114H28.8825C30.3492 27.1114 31.5492 25.9114 31.5492 24.4447V8.44474C31.5492 6.97808 30.3492 5.77808 28.8825 5.77808ZM6.54915 13.1114C6.01582 13.1114 5.54915 12.6447 5.54915 12.1114C5.54915 11.5781 6.01582 11.1114 6.54915 11.1114C7.08249 11.1114 7.54915 11.5781 7.54915 12.1114C7.54915 12.6447 7.08249 13.1114 6.54915 13.1114ZM6.54915 9.77808C6.01582 9.77808 5.54915 9.31141 5.54915 8.77808C5.54915 8.24474 6.01582 7.77808 6.54915 7.77808C7.08249 7.77808 7.54915 8.24474 7.54915 8.77808C7.54915 9.31141 7.08249 9.77808 6.54915 9.77808ZM16.2158 23.7781C16.2158 24.5114 15.6158 25.1114 14.8825 25.1114H12.8825C12.1492 25.1114 11.5492 24.5114 11.5492 23.7781V9.11141C11.5492 8.37808 12.1492 7.77808 12.8825 7.77808H14.8825C15.6158 7.77808 16.2158 8.37808 16.2158 9.11141V23.7781ZM22.8825 23.7781C22.8825 24.5114 22.2825 25.1114 21.5492 25.1114H19.5492C18.8158 25.1114 18.2158 24.5114 18.2158 23.7781V9.11141C18.2158 8.37808 18.8158 7.77808 19.5492 7.77808H21.5492C22.2825 7.77808 22.8825 8.37808 22.8825 9.11141V23.7781ZM29.5492 23.7781C29.5492 24.5114 28.9492 25.1114 28.2158 25.1114H26.2158C25.4825 25.1114 24.8825 24.5114 24.8825 23.7781V9.11141C24.8825 8.37808 25.4825 7.77808 26.2158 7.77808H28.2158C28.9492 7.77808 29.5492 8.37808 29.5492 9.11141V23.7781Z" fill="url(#paint0_linear_1828_456)"/>
<path id="Vector_2" d="M13.8828 9.7782C13.3495 9.7782 12.8828 10.2449 12.8828 10.7782V14.1115C12.8828 14.6449 13.3495 15.1115 13.8828 15.1115C14.4161 15.1115 14.8828 14.6449 14.8828 14.1115V10.7782C14.8828 10.2449 14.4161 9.7782 13.8828 9.7782ZM20.5495 9.7782C20.0161 9.7782 19.5495 10.2449 19.5495 10.7782V14.1115C19.5495 14.6449 20.0161 15.1115 20.5495 15.1115C21.0828 15.1115 21.5495 14.6449 21.5495 14.1115V10.7782C21.5495 10.2449 21.0828 9.7782 20.5495 9.7782ZM27.2161 9.7782C26.6828 9.7782 26.2161 10.2449 26.2161 10.7782V14.1115C26.2161 14.6449 26.6828 15.1115 27.2161 15.1115C27.7495 15.1115 28.2161 14.6449 28.2161 14.1115V10.7782C28.2161 10.2449 27.7495 9.7782 27.2161 9.7782Z" fill="url(#paint1_linear_1828_456)"/>
</g>
<defs>
<linearGradient id="paint0_linear_1828_456" x1="16.8825" y1="5.77808" x2="16.8825" y2="27.1114" gradientUnits="userSpaceOnUse">
<stop stop-color="#8EEF3D"/>
<stop offset="1" stop-color="#E1FE56"/>
</linearGradient>
<linearGradient id="paint1_linear_1828_456" x1="20.5495" y1="9.7782" x2="20.5495" y2="15.1115" gradientUnits="userSpaceOnUse">
<stop stop-color="#8EEF3D"/>
<stop offset="1" stop-color="#E1FE56"/>
</linearGradient>
</defs>
</svg>
