<svg width="33" height="33" viewBox="0 0 33 33" fill="none" xmlns="http://www.w3.org/2000/svg">
<g id="Frame">
<path id="Vector" d="M7.57437 5.33804C7.66562 5.07699 7.83579 4.85078 8.0613 4.69073C8.28681 4.53067 8.5565 4.4447 8.83303 4.4447H23.4997C23.7762 4.4447 24.0459 4.53067 24.2714 4.69073C24.4969 4.85078 24.6671 5.07699 24.7584 5.33804L29.425 18.6714C29.4953 18.8724 29.5164 19.0872 29.4866 19.2981C29.4568 19.5089 29.3769 19.7095 29.2537 19.8831C29.1305 20.0567 28.9674 20.1983 28.7783 20.296C28.5891 20.3937 28.3793 20.4447 28.1664 20.4447H4.16637C3.95346 20.4447 3.74364 20.3937 3.55447 20.296C3.3653 20.1983 3.20228 20.0567 3.07905 19.8831C2.95582 19.7095 2.87595 19.5089 2.84614 19.2981C2.81633 19.0872 2.83744 18.8724 2.9077 18.6714L7.57437 5.33804ZM9.7797 7.11137L6.04637 17.778H26.2877L22.5544 7.11137H9.7797Z" fill="url(#paint0_linear_1828_461)"/>
<path id="Vector_2" d="M4.16699 19.1116H28.167V27.1116H4.16699V19.1116Z" fill="url(#paint1_linear_1828_461)"/>
<path id="Vector_3" d="M2.83301 19.1114C2.83301 18.7578 2.97348 18.4186 3.22353 18.1686C3.47358 17.9186 3.81272 17.7781 4.16634 17.7781H28.1663C28.52 17.7781 28.8591 17.9186 29.1091 18.1686C29.3592 18.4186 29.4997 18.7578 29.4997 19.1114V27.1114C29.4997 27.465 29.3592 27.8042 29.1091 28.0542C28.8591 28.3043 28.52 28.4447 28.1663 28.4447H4.16634C3.81272 28.4447 3.47358 28.3043 3.22353 28.0542C2.97348 27.8042 2.83301 27.465 2.83301 27.1114V19.1114ZM5.49967 20.4447V25.7781H26.833V20.4447H5.49967Z" fill="url(#paint2_linear_1828_461)"/>
<path id="Vector_4" d="M9.5 21.7782H16.1667V24.4449H9.5V21.7782Z" fill="#26272A"/>
<path id="Vector_5" d="M22.8327 23.1116C22.8327 23.2867 22.7982 23.4601 22.7312 23.6219C22.6643 23.7837 22.566 23.9307 22.4422 24.0545C22.3184 24.1783 22.1714 24.2766 22.0096 24.3436C21.8479 24.4106 21.6745 24.4451 21.4993 24.4451C21.3242 24.4451 21.1508 24.4106 20.9891 24.3436C20.8273 24.2766 20.6803 24.1783 20.5565 24.0545C20.4327 23.9307 20.3344 23.7837 20.2675 23.6219C20.2005 23.4601 20.166 23.2867 20.166 23.1116C20.1661 22.758 20.3066 22.4189 20.5566 22.1689C20.8067 21.9189 21.1458 21.7784 21.4993 21.7784C21.8529 21.7784 22.192 21.9189 22.4421 22.1689C22.6921 22.4189 22.8326 22.758 22.8327 23.1116Z" fill="#26272A"/>
</g>
<defs>
<linearGradient id="paint0_linear_1828_461" x1="16.1664" y1="4.4447" x2="16.1664" y2="20.4447" gradientUnits="userSpaceOnUse">
<stop stop-color="#8EEF3D"/>
<stop offset="1" stop-color="#E1FE56"/>
</linearGradient>
<linearGradient id="paint1_linear_1828_461" x1="16.167" y1="19.1116" x2="16.167" y2="27.1116" gradientUnits="userSpaceOnUse">
<stop stop-color="#8EEF3D"/>
<stop offset="1" stop-color="#E1FE56"/>
</linearGradient>
<linearGradient id="paint2_linear_1828_461" x1="16.1663" y1="17.7781" x2="16.1663" y2="28.4447" gradientUnits="userSpaceOnUse">
<stop stop-color="#8EEF3D"/>
<stop offset="1" stop-color="#E1FE56"/>
</linearGradient>
</defs>
</svg>
