<svg width="33" height="33" viewBox="0 0 33 33" fill="none" xmlns="http://www.w3.org/2000/svg">
<g id="Frame">
<path id="Vector" d="M7.68374 5.33804C7.775 5.07699 7.94516 4.85078 8.17067 4.69073C8.39618 4.53067 8.66588 4.4447 8.94241 4.4447H23.6091C23.8856 4.4447 24.1553 4.53067 24.3808 4.69073C24.6063 4.85078 24.7765 5.07699 24.8677 5.33804L29.5344 18.6714C29.6047 18.8724 29.6258 19.0872 29.596 19.2981C29.5662 19.5089 29.4863 19.7095 29.3631 19.8831C29.2398 20.0567 29.0768 20.1983 28.8876 20.296C28.6985 20.3937 28.4887 20.4447 28.2757 20.4447H4.27574C4.06283 20.4447 3.85301 20.3937 3.66385 20.296C3.47468 20.1983 3.31166 20.0567 3.18842 19.8831C3.06519 19.7095 2.98533 19.5089 2.95552 19.2981C2.92571 19.0872 2.94681 18.8724 3.01708 18.6714L7.68374 5.33804ZM9.88908 7.11137L6.15574 17.778H26.3971L22.6637 7.11137H9.88908Z" fill="url(#paint0_linear_1828_474)"/>
<path id="Vector_2" d="M4.27637 19.1116H28.2764V27.1116H4.27637V19.1116Z" fill="url(#paint1_linear_1828_474)"/>
<path id="Vector_3" d="M2.94238 19.1114C2.94238 18.7578 3.08286 18.4186 3.33291 18.1686C3.58296 17.9186 3.92209 17.7781 4.27572 17.7781H28.2757C28.6293 17.7781 28.9685 17.9186 29.2185 18.1686C29.4686 18.4186 29.6091 18.7578 29.6091 19.1114V27.1114C29.6091 27.465 29.4686 27.8042 29.2185 28.0542C28.9685 28.3043 28.6293 28.4447 28.2757 28.4447H4.27572C3.92209 28.4447 3.58296 28.3043 3.33291 28.0542C3.08286 27.8042 2.94238 27.465 2.94238 27.1114V19.1114ZM5.60905 20.4447V25.7781H26.9424V20.4447H5.60905Z" fill="url(#paint2_linear_1828_474)"/>
<path id="Vector_4" d="M9.60938 21.7782H16.276V24.4449H9.60938V21.7782Z" fill="#26272A"/>
<path id="Vector_5" d="M22.9421 23.1116C22.9421 23.2867 22.9076 23.4601 22.8406 23.6219C22.7736 23.7837 22.6754 23.9307 22.5516 24.0545C22.4278 24.1783 22.2808 24.2766 22.119 24.3436C21.9572 24.4106 21.7838 24.4451 21.6087 24.4451C21.4336 24.4451 21.2602 24.4106 21.0984 24.3436C20.9367 24.2766 20.7897 24.1783 20.6658 24.0545C20.542 23.9307 20.4438 23.7837 20.3768 23.6219C20.3098 23.4601 20.2754 23.2867 20.2754 23.1116C20.2754 22.758 20.4159 22.4189 20.666 22.1689C20.916 21.9189 21.2551 21.7784 21.6087 21.7784C21.9623 21.7784 22.3014 21.9189 22.5515 22.1689C22.8015 22.4189 22.942 22.758 22.9421 23.1116Z" fill="#26272A"/>
</g>
<defs>
<linearGradient id="paint0_linear_1828_474" x1="16.2757" y1="4.4447" x2="16.2757" y2="20.4447" gradientUnits="userSpaceOnUse">
<stop stop-color="#8EEF3D"/>
<stop offset="1" stop-color="#E1FE56"/>
</linearGradient>
<linearGradient id="paint1_linear_1828_474" x1="16.2764" y1="19.1116" x2="16.2764" y2="27.1116" gradientUnits="userSpaceOnUse">
<stop stop-color="#8EEF3D"/>
<stop offset="1" stop-color="#E1FE56"/>
</linearGradient>
<linearGradient id="paint2_linear_1828_474" x1="16.2757" y1="17.7781" x2="16.2757" y2="28.4447" gradientUnits="userSpaceOnUse">
<stop stop-color="#8EEF3D"/>
<stop offset="1" stop-color="#E1FE56"/>
</linearGradient>
</defs>
</svg>
