<svg width="33" height="33" viewBox="0 0 33 33" fill="none" xmlns="http://www.w3.org/2000/svg">
<g id="Frame">
<g id="Group 1597883756">
<path id="Vector" d="M16.4549 18.8827C16.7526 18.8827 17.0474 18.824 17.3224 18.7101C17.5974 18.5962 17.8472 18.4292 18.0577 18.2188C18.2682 18.0083 18.4352 17.7584 18.5491 17.4834C18.663 17.2084 18.7216 16.9137 18.7216 16.616C18.7216 16.3183 18.663 16.0236 18.5491 15.7486C18.4352 15.4736 18.2682 15.2237 18.0577 15.0132C17.8472 14.8027 17.5974 14.6358 17.3224 14.5219C17.0474 14.408 16.7526 14.3493 16.4549 14.3493C15.8538 14.3493 15.2773 14.5881 14.8522 15.0132C14.4271 15.4383 14.1883 16.0148 14.1883 16.616C14.1883 17.2171 14.4271 17.7937 14.8522 18.2188C15.2773 18.6438 15.8538 18.8827 16.4549 18.8827ZM16.4549 21.1493C17.6573 21.1493 18.8103 20.6717 19.6605 19.8215C20.5107 18.9714 20.9883 17.8183 20.9883 16.616C20.9883 15.4137 20.5107 14.2606 19.6605 13.4104C18.8103 12.5603 17.6573 12.0827 16.4549 12.0827C15.2526 12.0827 14.0996 12.5603 13.2494 13.4104C12.3992 14.2606 11.9216 15.4137 11.9216 16.616C11.9216 17.8183 12.3992 18.9714 13.2494 19.8215C14.0996 20.6717 15.2526 21.1493 16.4549 21.1493ZM25.5216 12.6493C25.6704 12.6493 25.8178 12.62 25.9553 12.5631C26.0928 12.5061 26.2178 12.4226 26.323 12.3174C26.4282 12.2121 26.5117 12.0872 26.5687 11.9497C26.6256 11.8122 26.6549 11.6648 26.6549 11.516C26.6549 11.3672 26.6256 11.2198 26.5687 11.0823C26.5117 10.9448 26.4282 10.8198 26.323 10.7146C26.2178 10.6094 26.0928 10.5259 25.9553 10.4689C25.8178 10.412 25.6704 10.3827 25.5216 10.3827C25.221 10.3827 24.9328 10.5021 24.7202 10.7146C24.5077 10.9271 24.3883 11.2154 24.3883 11.516C24.3883 11.8166 24.5077 12.1048 24.7202 12.3174C24.9328 12.5299 25.221 12.6493 25.5216 12.6493ZM25.5216 14.916C26.4233 14.916 27.2881 14.5578 27.9258 13.9202C28.5634 13.2825 28.9216 12.4177 28.9216 11.516C28.9216 10.6143 28.5634 9.74945 27.9258 9.11183C27.2881 8.4742 26.4233 8.11599 25.5216 8.11599C24.6199 8.11599 23.7551 8.4742 23.1174 9.11183C22.4798 9.74945 22.1216 10.6143 22.1216 11.516C22.1216 12.4177 22.4798 13.2825 23.1174 13.9202C23.7551 14.5578 24.6199 14.916 25.5216 14.916ZM25.5216 22.8493C25.8222 22.8493 26.1105 22.7299 26.323 22.5174C26.5355 22.3048 26.6549 22.0166 26.6549 21.716C26.6549 21.4154 26.5355 21.1271 26.323 20.9146C26.1105 20.7021 25.8222 20.5827 25.5216 20.5827C25.221 20.5827 24.9328 20.7021 24.7202 20.9146C24.5077 21.1271 24.3883 21.4154 24.3883 21.716C24.3883 22.0166 24.5077 22.3048 24.7202 22.5174C24.9328 22.7299 25.221 22.8493 25.5216 22.8493ZM25.5216 25.116C26.4233 25.116 27.2881 24.7578 27.9258 24.1202C28.5634 23.4825 28.9216 22.6177 28.9216 21.716C28.9216 20.8143 28.5634 19.9495 27.9258 19.3118C27.2881 18.6742 26.4233 18.316 25.5216 18.316C24.6199 18.316 23.7551 18.6742 23.1174 19.3118C22.4798 19.9495 22.1216 20.8143 22.1216 21.716C22.1216 22.6177 22.4798 23.4825 23.1174 24.1202C23.7551 24.7578 24.6199 25.116 25.5216 25.116ZM7.38828 22.8493C7.68886 22.8493 7.97713 22.7299 8.18967 22.5174C8.40221 22.3048 8.52161 22.0166 8.52161 21.716C8.52161 21.4154 8.40221 21.1271 8.18967 20.9146C7.97713 20.7021 7.68886 20.5827 7.38828 20.5827C7.0877 20.5827 6.79943 20.7021 6.58689 20.9146C6.37435 21.1271 6.25495 21.4154 6.25495 21.716C6.25495 22.0166 6.37435 22.3048 6.58689 22.5174C6.79943 22.7299 7.0877 22.8493 7.38828 22.8493ZM7.38828 25.116C8.29002 25.116 9.15482 24.7578 9.79244 24.1202C10.4301 23.4825 10.7883 22.6177 10.7883 21.716C10.7883 20.8143 10.4301 19.9495 9.79244 19.3118C9.15482 18.6742 8.29002 18.316 7.38828 18.316C6.48654 18.316 5.62174 18.6742 4.98412 19.3118C4.34649 19.9495 3.98828 20.8143 3.98828 21.716C3.98828 22.6177 4.34649 23.4825 4.98412 24.1202C5.62174 24.7578 6.48654 25.116 7.38828 25.116ZM7.38828 12.6493C7.53711 12.6493 7.68449 12.62 7.82199 12.5631C7.95949 12.5061 8.08443 12.4226 8.18967 12.3174C8.29491 12.2121 8.37839 12.0872 8.43534 11.9497C8.4923 11.8122 8.52161 11.6648 8.52161 11.516C8.52161 11.3672 8.4923 11.2198 8.43534 11.0823C8.37839 10.9448 8.29491 10.8198 8.18967 10.7146C8.08443 10.6094 7.95949 10.5259 7.82199 10.4689C7.68449 10.412 7.53711 10.3827 7.38828 10.3827C7.0877 10.3827 6.79943 10.5021 6.58689 10.7146C6.37435 10.9271 6.25495 11.2154 6.25495 11.516C6.25495 11.8166 6.37435 12.1048 6.58689 12.3174C6.79943 12.5299 7.0877 12.6493 7.38828 12.6493ZM7.38828 14.916C8.29002 14.916 9.15482 14.5578 9.79244 13.9202C10.4301 13.2825 10.7883 12.4177 10.7883 11.516C10.7883 10.6143 10.4301 9.74945 9.79244 9.11183C9.15482 8.4742 8.29002 8.11599 7.38828 8.11599C6.48654 8.11599 5.62174 8.4742 4.98412 9.11183C4.34649 9.74945 3.98828 10.6143 3.98828 11.516C3.98828 12.4177 4.34649 13.2825 4.98412 13.9202C5.62174 14.5578 6.48654 14.916 7.38828 14.916ZM16.4549 7.54932C16.7555 7.54932 17.0438 7.42992 17.2563 7.21738C17.4689 7.00484 17.5883 6.71657 17.5883 6.41599C17.5883 6.11541 17.4689 5.82714 17.2563 5.6146C17.0438 5.40206 16.7555 5.28266 16.4549 5.28266C16.1544 5.28266 15.8661 5.40206 15.6536 5.6146C15.441 5.82714 15.3216 6.11541 15.3216 6.41599C15.3216 6.71657 15.441 7.00484 15.6536 7.21738C15.8661 7.42992 16.1544 7.54932 16.4549 7.54932ZM16.4549 9.81599C17.3567 9.81599 18.2215 9.45778 18.8591 8.82015C19.4967 8.18253 19.8549 7.31773 19.8549 6.41599C19.8549 5.51425 19.4967 4.64945 18.8591 4.01183C18.2215 3.3742 17.3567 3.01599 16.4549 3.01599C15.5532 3.01599 14.6884 3.3742 14.0508 4.01183C13.4132 4.64945 13.0549 5.51425 13.0549 6.41599C13.0549 7.31773 13.4132 8.18253 14.0508 8.82015C14.6884 9.45778 15.5532 9.81599 16.4549 9.81599ZM16.4549 27.9493C16.7555 27.9493 17.0438 27.8299 17.2563 27.6174C17.4689 27.4048 17.5883 27.1166 17.5883 26.816C17.5883 26.5154 17.4689 26.2271 17.2563 26.0146C17.0438 25.8021 16.7555 25.6827 16.4549 25.6827C16.1544 25.6827 15.8661 25.8021 15.6536 26.0146C15.441 26.2271 15.3216 26.5154 15.3216 26.816C15.3216 27.1166 15.441 27.4048 15.6536 27.6174C15.8661 27.8299 16.1544 27.9493 16.4549 27.9493ZM16.4549 30.216C17.3567 30.216 18.2215 29.8578 18.8591 29.2202C19.4967 28.5825 19.8549 27.7177 19.8549 26.816C19.8549 25.9143 19.4967 25.0495 18.8591 24.4118C18.2215 23.7742 17.3567 23.416 16.4549 23.416C15.5532 23.416 14.6884 23.7742 14.0508 24.4118C13.4132 25.0495 13.0549 25.9143 13.0549 26.816C13.0549 27.7177 13.4132 28.5825 14.0508 29.2202C14.6884 29.8578 15.5532 30.216 16.4549 30.216Z" fill="url(#paint0_linear_1828_496)"/>
<path id="Vector_2" d="M15.1201 19.283H17.7868V26.6163H15.1201V19.283Z" fill="url(#paint1_linear_1828_496)"/>
<path id="Vector_3" d="M17.1201 19.9496H15.7868V25.9496H17.1201V19.9496ZM15.1201 19.283V26.6163H17.7868V19.283H15.1201Z" fill="url(#paint2_linear_1828_496)"/>
<path id="Vector_4" d="M15.1201 6.61572H17.7868V13.9491H15.1201V6.61572Z" fill="url(#paint3_linear_1828_496)"/>
<path id="Vector_5" d="M17.1201 7.28239H15.7868V13.2824H17.1201V7.28239ZM15.1201 6.61572V13.9491H17.7868V6.61572H15.1201Z" fill="url(#paint4_linear_1828_496)"/>
<path id="Vector_6" d="M26.3576 20.7936L25.0243 23.103L18.5303 19.3536L19.8636 17.0443L26.3576 20.7936Z" fill="url(#paint5_linear_1828_496)"/>
<path id="Vector_7" d="M24.7803 22.1923L25.4469 21.0376L20.1069 17.955L19.4403 19.1096L24.7803 22.1923ZM26.3576 20.7936L19.8636 17.0443L18.5303 19.3536L25.0243 23.103L26.3576 20.7936Z" fill="url(#paint6_linear_1828_496)"/>
<path id="Vector_8" d="M14.5798 13.9928L13.2464 16.3028L6.55176 12.4368L7.88509 10.1274L14.5798 13.9928Z" fill="url(#paint7_linear_1828_496)"/>
<path id="Vector_9" d="M13.0024 15.3921L13.6691 14.2368L8.12909 11.0381L7.46242 12.1928L13.0024 15.3921ZM14.5798 13.9928L7.88509 10.1274L6.55176 12.4368L13.2464 16.3028L14.5798 13.9928Z" fill="url(#paint8_linear_1828_496)"/>
<path id="Vector_10" d="M25.0243 10.1274L26.3577 12.4368L19.7503 16.2521L18.417 13.9428L25.0243 10.1274Z" fill="url(#paint9_linear_1828_496)"/>
<path id="Vector_11" d="M25.447 12.1928L24.7803 11.0381L19.327 14.1868L19.9937 15.3414L25.447 12.1928ZM25.0243 10.1274L18.417 13.9428L19.7503 16.2521L26.3577 12.4368L25.0243 10.1274Z" fill="url(#paint10_linear_1828_496)"/>
<path id="Vector_12" d="M12.8558 17.1523L14.1891 19.4617L7.88314 23.1023L6.5498 20.793L12.8565 17.153L12.8558 17.1523Z" fill="url(#paint11_linear_1828_496)"/>
<path id="Vector_13" d="M13.2785 19.2177L12.6118 18.063L7.46047 21.037L8.12714 22.1917L13.2785 19.2183V19.2177ZM12.8558 17.1523L6.5498 20.793L7.88314 23.1023L14.1898 19.4623L12.8565 17.1523H12.8558Z" fill="url(#paint12_linear_1828_496)"/>
</g>
</g>
<defs>
<linearGradient id="paint0_linear_1828_496" x1="16.4549" y1="3.01599" x2="16.4549" y2="30.216" gradientUnits="userSpaceOnUse">
<stop stop-color="#8EEF3D"/>
<stop offset="1" stop-color="#E1FE56"/>
</linearGradient>
<linearGradient id="paint1_linear_1828_496" x1="16.4535" y1="19.283" x2="16.4535" y2="26.6163" gradientUnits="userSpaceOnUse">
<stop stop-color="#8EEF3D"/>
<stop offset="1" stop-color="#E1FE56"/>
</linearGradient>
<linearGradient id="paint2_linear_1828_496" x1="16.4535" y1="19.283" x2="16.4535" y2="26.6163" gradientUnits="userSpaceOnUse">
<stop stop-color="#8EEF3D"/>
<stop offset="1" stop-color="#E1FE56"/>
</linearGradient>
<linearGradient id="paint3_linear_1828_496" x1="16.4535" y1="6.61572" x2="16.4535" y2="13.9491" gradientUnits="userSpaceOnUse">
<stop stop-color="#8EEF3D"/>
<stop offset="1" stop-color="#E1FE56"/>
</linearGradient>
<linearGradient id="paint4_linear_1828_496" x1="16.4535" y1="6.61572" x2="16.4535" y2="13.9491" gradientUnits="userSpaceOnUse">
<stop stop-color="#8EEF3D"/>
<stop offset="1" stop-color="#E1FE56"/>
</linearGradient>
<linearGradient id="paint5_linear_1828_496" x1="22.4439" y1="17.0443" x2="22.4439" y2="23.103" gradientUnits="userSpaceOnUse">
<stop stop-color="#8EEF3D"/>
<stop offset="1" stop-color="#E1FE56"/>
</linearGradient>
<linearGradient id="paint6_linear_1828_496" x1="22.4439" y1="17.0443" x2="22.4439" y2="23.103" gradientUnits="userSpaceOnUse">
<stop stop-color="#8EEF3D"/>
<stop offset="1" stop-color="#E1FE56"/>
</linearGradient>
<linearGradient id="paint7_linear_1828_496" x1="10.5658" y1="10.1274" x2="10.5658" y2="16.3028" gradientUnits="userSpaceOnUse">
<stop stop-color="#8EEF3D"/>
<stop offset="1" stop-color="#E1FE56"/>
</linearGradient>
<linearGradient id="paint8_linear_1828_496" x1="10.5658" y1="10.1274" x2="10.5658" y2="16.3028" gradientUnits="userSpaceOnUse">
<stop stop-color="#8EEF3D"/>
<stop offset="1" stop-color="#E1FE56"/>
</linearGradient>
<linearGradient id="paint9_linear_1828_496" x1="22.3873" y1="10.1274" x2="22.3873" y2="16.2521" gradientUnits="userSpaceOnUse">
<stop stop-color="#8EEF3D"/>
<stop offset="1" stop-color="#E1FE56"/>
</linearGradient>
<linearGradient id="paint10_linear_1828_496" x1="22.3873" y1="10.1274" x2="22.3873" y2="16.2521" gradientUnits="userSpaceOnUse">
<stop stop-color="#8EEF3D"/>
<stop offset="1" stop-color="#E1FE56"/>
</linearGradient>
<linearGradient id="paint11_linear_1828_496" x1="10.3695" y1="17.1523" x2="10.3695" y2="23.1023" gradientUnits="userSpaceOnUse">
<stop stop-color="#8EEF3D"/>
<stop offset="1" stop-color="#E1FE56"/>
</linearGradient>
<linearGradient id="paint12_linear_1828_496" x1="10.3698" y1="17.1523" x2="10.3698" y2="23.1023" gradientUnits="userSpaceOnUse">
<stop stop-color="#8EEF3D"/>
<stop offset="1" stop-color="#E1FE56"/>
</linearGradient>
</defs>
</svg>
