<svg width="160" height="36" viewBox="0 0 160 36" fill="none" xmlns="http://www.w3.org/2000/svg">
<mask id="mask0_638_302" style="mask-type:alpha" maskUnits="userSpaceOnUse" x="0" y="0" width="160" height="36">
<rect width="160" height="36" fill="#D9D9D9"/>
</mask>
<g mask="url(#mask0_638_302)">
<path d="M8.99432 31V27.7145L22.0597 9.3821H8.96875V4.81818H29.0142V8.10369L15.9361 26.4361H29.0398V31H8.99432ZM42.1339 31.3835C40.114 31.3835 38.3754 30.9744 36.918 30.1562C35.4691 29.3295 34.3526 28.1619 33.5685 26.6534C32.7844 25.1364 32.3924 23.3423 32.3924 21.2713C32.3924 19.2514 32.7844 17.4787 33.5685 15.9531C34.3526 14.4276 35.4563 13.2386 36.8796 12.3864C38.3114 11.5341 39.9904 11.108 41.9165 11.108C43.212 11.108 44.418 11.3168 45.5344 11.7344C46.6594 12.1435 47.6396 12.7614 48.4748 13.5881C49.3185 14.4148 49.9748 15.4545 50.4435 16.7074C50.9123 17.9517 51.1467 19.4091 51.1467 21.0795V22.5753H34.5657V19.2003H46.0202C46.0202 18.4162 45.8498 17.7216 45.5089 17.1165C45.168 16.5114 44.695 16.0384 44.0898 15.6974C43.4933 15.348 42.7987 15.1733 42.006 15.1733C41.1793 15.1733 40.4464 15.3651 39.8072 15.7486C39.1765 16.1236 38.6822 16.6307 38.3242 17.2699C37.9663 17.9006 37.783 18.6037 37.7745 19.3793V22.5881C37.7745 23.5597 37.9535 24.3991 38.3114 25.1065C38.6779 25.8139 39.1935 26.3594 39.8583 26.7429C40.5231 27.1264 41.3114 27.3182 42.2234 27.3182C42.8285 27.3182 43.3825 27.233 43.8853 27.0625C44.3881 26.892 44.8185 26.6364 45.1765 26.2955C45.5344 25.9545 45.8072 25.5369 45.9947 25.0426L51.0316 25.375C50.7759 26.5852 50.2518 27.642 49.4592 28.5455C48.6751 29.4403 47.6609 30.1392 46.4165 30.642C45.1808 31.1364 43.7532 31.3835 42.1339 31.3835ZM60.1467 19.6477V31H54.7006V11.3636H59.891V14.8281H60.1211C60.5558 13.6861 61.2844 12.7827 62.3072 12.1179C63.3299 11.4446 64.57 11.108 66.0273 11.108C67.391 11.108 68.5799 11.4062 69.5941 12.0028C70.6083 12.5994 71.3967 13.4517 71.9592 14.5597C72.5217 15.6591 72.8029 16.9716 72.8029 18.4972V31H67.3569V19.4688C67.3654 18.267 67.0586 17.3295 66.4364 16.6562C65.8143 15.9744 64.9577 15.6335 63.8668 15.6335C63.1339 15.6335 62.4862 15.7912 61.9237 16.1065C61.3697 16.4219 60.935 16.8821 60.6197 17.4872C60.3129 18.0838 60.1552 18.804 60.1467 19.6477ZM77.1974 31V4.81818H82.733V15.6207H93.9702V4.81818H99.4929V31H93.9702V20.1847H82.733V31H77.1974ZM103.955 31V11.3636H109.401V31H103.955ZM106.69 8.83239C105.881 8.83239 105.186 8.56392 104.607 8.02699C104.036 7.48153 103.75 6.82954 103.75 6.07102C103.75 5.32102 104.036 4.67756 104.607 4.14062C105.186 3.59517 105.881 3.32244 106.69 3.32244C107.5 3.32244 108.19 3.59517 108.761 4.14062C109.341 4.67756 109.631 5.32102 109.631 6.07102C109.631 6.82954 109.341 7.48153 108.761 8.02699C108.19 8.56392 107.5 8.83239 106.69 8.83239ZM132.07 11.3636L125.205 31H119.069L112.203 11.3636H117.956L122.034 25.4134H122.239L126.304 11.3636H132.07ZM143.173 31.3835C141.153 31.3835 139.414 30.9744 137.957 30.1562C136.508 29.3295 135.392 28.1619 134.608 26.6534C133.824 25.1364 133.431 23.3423 133.431 21.2713C133.431 19.2514 133.824 17.4787 134.608 15.9531C135.392 14.4276 136.495 13.2386 137.919 12.3864C139.35 11.5341 141.029 11.108 142.956 11.108C144.251 11.108 145.457 11.3168 146.574 11.7344C147.699 12.1435 148.679 12.7614 149.514 13.5881C150.358 14.4148 151.014 15.4545 151.483 16.7074C151.951 17.9517 152.186 19.4091 152.186 21.0795V22.5753H135.605V19.2003H147.059C147.059 18.4162 146.889 17.7216 146.548 17.1165C146.207 16.5114 145.734 16.0384 145.129 15.6974C144.532 15.348 143.838 15.1733 143.045 15.1733C142.218 15.1733 141.485 15.3651 140.846 15.7486C140.216 16.1236 139.721 16.6307 139.363 17.2699C139.005 17.9006 138.822 18.6037 138.814 19.3793V22.5881C138.814 23.5597 138.993 24.3991 139.35 25.1065C139.717 25.8139 140.233 26.3594 140.897 26.7429C141.562 27.1264 142.35 27.3182 143.262 27.3182C143.868 27.3182 144.422 27.233 144.924 27.0625C145.427 26.892 145.858 26.6364 146.216 26.2955C146.574 25.9545 146.846 25.5369 147.034 25.0426L152.071 25.375C151.815 26.5852 151.291 27.642 150.498 28.5455C149.714 29.4403 148.7 30.1392 147.456 30.642C146.22 31.1364 144.792 31.3835 143.173 31.3835Z" fill="white"/>
</g>
</svg>
