<svg width="37" height="43" viewBox="0 0 37 43" fill="none" xmlns="http://www.w3.org/2000/svg">
<g id="Group 1597883628">
<path id="Vector" d="M1.5415 1.54167C1.5415 1.33921 1.58138 1.13874 1.65886 0.951697C1.73633 0.764653 1.84989 0.594701 1.99305 0.451544C2.1362 0.308387 2.30616 0.194829 2.4932 0.117353C2.68024 0.0398765 2.88072 -5.93129e-09 3.08317 0H33.9165C34.119 -5.93129e-09 34.3194 0.0398765 34.5065 0.117353C34.6935 0.194829 34.8635 0.308387 35.0066 0.451544C35.1498 0.594701 35.2633 0.764653 35.3408 0.951697C35.4183 1.13874 35.4582 1.33921 35.4582 1.54167V9.25C35.4582 9.45246 35.4183 9.65293 35.3408 9.83997C35.2633 10.027 35.1498 10.197 35.0066 10.3401C34.8635 10.4833 34.6935 10.5968 34.5065 10.6743C34.3194 10.7518 34.119 10.7917 33.9165 10.7917H3.08317C2.88072 10.7917 2.68024 10.7518 2.4932 10.6743C2.30616 10.5968 2.1362 10.4833 1.99305 10.3401C1.84989 10.197 1.73633 10.027 1.65886 9.83997C1.58138 9.65293 1.5415 9.45246 1.5415 9.25V1.54167Z" fill="#434343"/>
<path id="Vector_2" d="M0 6.16667C-5.93128e-09 5.96421 0.0398763 5.76374 0.117352 5.5767C0.194828 5.38965 0.308387 5.2197 0.451544 5.07654C0.594701 4.93339 0.764653 4.81983 0.951696 4.74235C1.13874 4.66488 1.33921 4.625 1.54167 4.625H35.4583C35.6608 4.625 35.8613 4.66488 36.0483 4.74235C36.2353 4.81983 36.4053 4.93339 36.5485 5.07654C36.6916 5.2197 36.8052 5.38965 36.8826 5.5767C36.9601 5.76374 37 5.96421 37 6.16667V32.9639C36.9998 33.2502 36.92 33.5307 36.7694 33.7741C36.6189 34.0175 36.4035 34.2142 36.1475 34.3422L19.8783 42.4775C19.4503 42.6914 18.9784 42.8027 18.5 42.8027C18.0216 42.8027 17.5497 42.6914 17.1218 42.4775L0.852542 34.3422C0.5965 34.2142 0.381133 34.0175 0.23056 33.7741C0.0799862 33.5307 0.000152851 33.2502 0 32.9639V6.16667Z" fill="url(#paint0_linear_190_710)"/>
<path id="Vector_3" d="M17.9394 14.3195C17.9899 14.2238 18.0691 14.1431 18.168 14.0865C18.2669 14.03 18.3813 14 18.4982 14C18.6151 14 18.7296 14.03 18.8285 14.0865C18.9273 14.1431 19.0066 14.2238 19.057 14.3195L20.8524 17.731C20.8969 17.8154 20.964 17.8885 21.0475 17.9435C21.1311 17.9984 21.2284 18.0336 21.3307 18.0458L25.4617 18.5405C25.5776 18.5545 25.6868 18.5979 25.7767 18.6657C25.8666 18.7336 25.9335 18.8231 25.9696 18.924C26.0058 19.0249 26.0097 19.1331 25.981 19.2359C25.9523 19.3388 25.8921 19.4322 25.8074 19.5053L22.7854 22.1083C22.7103 22.1728 22.6542 22.2533 22.6222 22.3424C22.5901 22.4316 22.5832 22.5266 22.602 22.6188L23.3615 26.3361C23.3826 26.4405 23.3708 26.5481 23.3274 26.6466C23.284 26.7451 23.2108 26.8304 23.1162 26.8927C23.0216 26.9551 22.9095 26.9918 22.7928 26.9988C22.6762 27.0057 22.5598 26.9826 22.457 26.9321L18.7956 25.1285C18.7047 25.0836 18.6029 25.0601 18.4995 25.0601C18.396 25.0601 18.2942 25.0836 18.2033 25.1285L14.5419 26.9321C14.4391 26.9826 14.3227 27.0057 14.2061 26.9988C14.0894 26.9918 13.9773 26.9551 13.8827 26.8927C13.7881 26.8304 13.7149 26.7451 13.6715 26.6466C13.6281 26.5481 13.6163 26.4405 13.6374 26.3361L14.3957 22.6188C14.4146 22.5267 14.4079 22.4317 14.3761 22.3426C14.3443 22.2534 14.2884 22.1729 14.2136 22.1083L11.1927 19.5053C11.108 19.4322 11.0478 19.339 11.0191 19.2362C10.9903 19.1334 10.9941 19.0254 11.0302 18.9245C11.0662 18.8236 11.1329 18.734 11.2226 18.6661C11.3123 18.5982 11.4214 18.5546 11.5372 18.5405L15.6682 18.0458C15.7705 18.0336 15.8679 17.9984 15.9514 17.9435C16.0349 17.8885 16.102 17.8154 16.1465 17.731L17.9406 14.3195H17.9394Z" fill="black"/>
</g>
<defs>
<linearGradient id="paint0_linear_190_710" x1="-1.13983e-07" y1="34.8802" x2="32.668" y2="39.5301" gradientUnits="userSpaceOnUse">
<stop offset="0.489" stop-color="#E3FF57"/>
<stop offset="1" stop-color="#75EB36"/>
</linearGradient>
</defs>
</svg>
