<svg width="45" height="45" viewBox="0 0 45 45" fill="none" xmlns="http://www.w3.org/2000/svg">
<g id="Group 1597883627">
<circle id="Ellipse 3508" cx="22.5" cy="22.5" r="22.5" fill="url(#paint0_linear_190_703)"/>
<path id="Vector" d="M28.8532 14.6513C26.7628 12.0899 24.6616 10.4701 24.5731 10.4043C23.6621 9.70586 22.374 9.67093 21.4134 10.3721C21.3221 10.4379 19.1459 12.0416 16.975 14.5506C13.8944 18.1072 12.3286 21.6598 12.3286 25.1104C12.3286 30.9651 16.9468 35.7534 22.8114 35.7534C28.676 35.7534 33.2875 31.1357 33.2875 25.4368C33.2875 21.8855 31.7942 18.2577 28.8532 14.6553V14.6527V14.6513ZM22.8114 33.1155C18.3958 33.1155 14.9637 29.4917 14.9637 25.1104C14.9637 18.3705 22.9697 12.5009 22.9697 12.5009C22.9697 12.5009 25.9363 14.7682 28.1823 18.1811C25.0279 16.8782 21.5905 17.4222 19.1673 19.6263C17.0447 21.5524 16.2504 24.3797 17.1172 26.9961C19.1512 33.1195 28.1192 31.8059 28.5244 26.158C28.7297 23.2797 26.2811 21.9419 24.0606 22.4577C21.5516 23.0433 20.8565 25.6745 23.01 26.5502C23.0194 24.2951 25.9457 24.1903 25.9457 26.1513C25.9457 27.5052 24.5288 28.3299 23.2985 28.4602C19.6034 28.8497 18.0027 24.244 20.9384 21.5712C24.3141 18.5102 30.3867 20.4765 30.6497 25.5093C30.859 29.5132 27.1733 33.1155 22.8074 33.1155H22.8101H22.8114Z" fill="black"/>
</g>
<defs>
<linearGradient id="paint0_linear_190_703" x1="2.85749e-09" y1="30.8219" x2="33.4038" y2="36.8551" gradientUnits="userSpaceOnUse">
<stop offset="0.489" stop-color="#E3FF57"/>
<stop offset="1" stop-color="#75EB36"/>
</linearGradient>
</defs>
</svg>
