<svg width="27" height="27" viewBox="0 0 27 27" fill="none" xmlns="http://www.w3.org/2000/svg">
<path id="Vector" d="M26.1649 10.9785C26.6306 10.9785 27.0082 10.6009 27.0082 10.1353C27.0082 9.66963 26.6306 9.29205 26.1649 9.29205H24.478V7.60561H26.1649C26.6306 7.60561 27.0082 7.22803 27.0082 6.76238C27.0082 6.29674 26.6306 5.91916 26.1649 5.91916H24.478V3.38949C24.4782 3.1659 24.3894 2.95127 24.2314 2.79307C24.0732 2.63486 23.8586 2.54601 23.635 2.54627H21.1053V0.859824C21.1053 0.393916 20.7278 0.0166016 20.2621 0.0166016C19.7962 0.0166016 19.4189 0.39418 19.4189 0.859824V2.54627H17.7325V0.859824C17.7325 0.393916 17.3549 0.0166016 16.8892 0.0166016C16.4233 0.0166016 16.046 0.39418 16.046 0.859824V2.54627H14.3596V0.859824C14.3596 0.393916 13.982 0.0166016 13.5163 0.0166016C13.0504 0.0166016 12.6731 0.39418 12.6731 0.859824V2.54627H10.9867V0.859824C10.9867 0.393916 10.6091 0.0166016 10.1435 0.0166016C9.67781 0.0166016 9.30023 0.39418 9.30023 0.859824V2.54627H7.61378V0.859824C7.61378 0.393916 7.23621 0.0166016 6.77056 0.0166016C6.30492 0.0166016 5.92734 0.39418 5.92734 0.859824V2.54627H3.39767C3.17408 2.54627 2.95945 2.63486 2.80124 2.79307C2.64304 2.95127 2.55445 3.1659 2.55445 3.38949V5.91916H0.868003C0.402095 5.91916 0.0247803 6.29674 0.0247803 6.76238C0.0247803 7.22803 0.402358 7.60561 0.868003 7.60561H2.55445V9.29205H0.868003C0.402095 9.29205 0.0247803 9.66963 0.0247803 10.1353C0.0247803 10.6012 0.402358 10.9785 0.868003 10.9785H2.55445V12.6652H0.868003C0.402358 12.6652 0.0250439 13.0425 0.0250439 13.5082C0.0250439 13.9735 0.402358 14.3511 0.868003 14.3511H2.55445V16.0381H0.868003C0.402358 16.0381 0.0250439 16.4154 0.0250439 16.8811C0.0250439 17.3467 0.402358 17.724 0.868003 17.724H2.55445V19.411H0.868003C0.402358 19.411 0.0250439 19.7886 0.0250439 20.2539C0.0250439 20.7193 0.402358 21.0969 0.868003 21.0969H2.55445V23.6268C2.55435 23.7376 2.5761 23.8473 2.61845 23.9496C2.6608 24.052 2.72291 24.145 2.80124 24.2233C2.95945 24.3812 3.17408 24.4701 3.39767 24.4698H5.92734V26.1568C5.92734 26.6224 6.30492 27 6.77056 27C7.23647 27 7.61378 26.6224 7.61378 26.1568V24.4698H9.30023V26.1568C9.30023 26.6224 9.67781 27 10.1435 27C10.6094 27 10.9867 26.6224 10.9867 26.1568V24.4698H12.6731V26.1568C12.6731 26.6224 13.0507 27 13.5163 27C13.982 27 14.3596 26.6224 14.3596 26.1568V24.4698H16.046V26.1568C16.046 26.6224 16.4236 27 16.8892 27C17.3549 27 17.7325 26.6224 17.7325 26.1568V24.4698H19.4189V26.1568C19.4189 26.6224 19.7965 27 20.2621 27C20.7278 27 21.1053 26.6224 21.1053 26.1568V24.4698H23.635C23.8586 24.4703 24.0732 24.3815 24.2314 24.2233C24.3896 24.0651 24.4785 23.8504 24.478 23.6268V21.0969H26.1649C26.6303 21.0969 27.0079 20.7196 27.0079 20.2539C27.0079 19.7883 26.6306 19.411 26.1649 19.411H24.478V17.724H26.1649C26.6303 17.724 27.0079 17.3467 27.0079 16.8811C27.0079 16.4154 26.6306 16.0381 26.1649 16.0381H24.478V14.3511H26.1649C26.6303 14.3511 27.0079 13.9738 27.0079 13.5082C27.0079 13.0425 26.6306 12.6652 26.1649 12.6652H24.478V10.9785H26.1649ZM22.7921 22.7839H4.24089V4.23271H22.7921V22.7839ZM10.7267 15.304H12.815L13.2231 16.9272H15.0077L12.815 9.86501H10.7836L8.59095 16.9272H10.3185L10.7267 15.304ZM11.2013 13.3961C11.3817 12.6937 11.5715 11.8679 11.7424 11.1275H11.7803C11.9702 11.8489 12.1505 12.6937 12.3404 13.3961L12.4922 13.9941H11.0494L11.2013 13.3961ZM18.3964 16.9272H16.6973V9.86501H18.3964V16.9272Z" fill="#C0EE02"/>
</svg>
