<svg width="27" height="27" viewBox="0 0 27 27" fill="none" xmlns="http://www.w3.org/2000/svg">
<g id="Frame">
<path id="Vector" d="M9.1125 22.0219H17.8242C18.2883 22.0219 18.7102 22.3805 18.7102 22.9078C18.7102 23.3719 18.3516 23.7938 17.8242 23.7938H9.1125C8.64844 23.7938 8.22656 23.4352 8.22656 22.9078C8.22656 22.3805 8.58516 22.0219 9.1125 22.0219ZM17.107 25.1016H9.82969C9.70312 25.1016 9.66094 25.2703 9.76641 25.3969L12.4242 26.768C12.7195 26.8945 13.0781 27 13.5 27C13.8586 27 14.1539 26.8734 14.5125 26.768L17.1703 25.3969C17.2969 25.2914 17.2336 25.1016 17.107 25.1016ZM13.3313 5.86406C14.407 5.86406 15.3352 6.28594 16.2844 7.17188C17.2336 7.99453 17.6555 9.07031 17.6555 10.3781C17.6555 10.8 18.0141 11.2641 18.5414 11.2641C19.0055 11.2641 19.4273 10.8422 19.4273 10.3781C19.4273 8.47969 18.8367 7.00312 17.5922 5.88516C16.3477 4.76719 14.9344 4.21875 13.3313 4.21875C12.8672 4.21875 12.4453 4.57734 12.4453 5.10469C12.4875 5.44219 12.8461 5.86406 13.3313 5.86406Z" fill="#C0EE02"/>
<path id="Vector_2" d="M17.3391 20.5453H9.59768C8.71174 20.5453 7.99456 19.8914 7.88909 19.0055C7.76252 18.8367 7.46721 18.4148 7.36174 18.2883C4.8094 16.3266 3.33284 13.3734 3.33284 10.1672C3.31174 4.55625 7.86799 0 13.5 0C19.1321 0 23.6883 4.55625 23.6883 10.1883C23.6883 13.4367 22.2117 16.4109 19.5961 18.3516C19.4696 18.4781 19.1742 18.8156 19.0688 19.0687C18.9422 19.8281 18.2461 20.5453 17.3391 20.5453ZM9.82971 18.5414H17.1071C17.2758 17.8242 17.993 17.0016 18.3516 16.7062C20.4188 15.1664 21.6 12.7406 21.6 10.125C21.6 5.63203 17.9297 1.96172 13.4367 1.96172C8.94377 1.96172 5.27346 5.63203 5.27346 10.125C5.27346 12.7195 6.45471 15.1031 8.5219 16.643C8.88049 16.9383 9.63987 17.7609 9.82971 18.5414Z" fill="#C0EE02"/>
</g>
</svg>
