<svg width="29" height="29" viewBox="0 0 29 29" fill="none" xmlns="http://www.w3.org/2000/svg">
<g id="Frame" clip-path="url(#clip0_124_57)">
<path id="Vector" d="M27.347 9.05974L19.9404 1.65314C19.2867 1.07927 18.4388 0.776035 17.5694 0.80514C16.7 0.834245 15.8744 1.1935 15.2605 1.80981C14.6466 2.42611 14.2905 3.25317 14.2648 4.12268C14.2391 4.99219 14.5457 5.83883 15.1221 6.49034L15.6934 7.06309L13.2066 9.54984L12.5846 8.92924C11.805 8.15323 10.7498 7.71757 9.64977 7.71757C8.54979 7.71757 7.49458 8.15323 6.71497 8.92924L3.41332 12.2497C2.52108 13.1217 1.81074 14.1621 1.32346 15.3105C0.836176 16.459 0.581646 17.6928 0.574613 18.9403C0.567579 20.1879 0.808182 21.4244 1.28248 22.5783C1.75678 23.7322 2.45535 24.7805 3.33771 25.6625C4.22006 26.5445 5.26867 27.2426 6.42277 27.7164C7.57688 28.1902 8.81353 28.4302 10.0611 28.4227C11.3086 28.4151 12.5423 28.16 13.6905 27.6722C14.8388 27.1845 15.8788 26.4737 16.7504 25.581L20.0419 22.2982C20.8184 21.5186 21.2543 20.4631 21.2543 19.3627C21.2543 18.2624 20.8184 17.2068 20.0419 16.4272L19.4184 15.8066L21.9066 13.3184L22.4779 13.8839C23.1252 14.4928 23.984 14.8259 24.8726 14.8127C25.7612 14.7995 26.6098 14.441 27.2386 13.8131C27.8675 13.1851 28.2273 12.3371 28.2418 11.4486C28.2564 10.56 27.9245 9.70066 27.3166 9.05249L27.347 9.05974ZM26.0275 12.5731C25.8832 12.7176 25.7117 12.8323 25.523 12.9105C25.3343 12.9888 25.132 13.0291 24.9277 13.0291C24.7234 13.0291 24.5211 12.9888 24.3324 12.9105C24.1437 12.8323 23.9722 12.7176 23.8279 12.5731L22.5838 11.329C22.4154 11.1695 22.1936 11.0785 21.9617 11.0738C21.7149 11.0757 21.4787 11.1741 21.3034 11.3478L17.4841 15.1657C17.3967 15.2519 17.3273 15.3546 17.2799 15.4679C17.2325 15.5811 17.2081 15.7027 17.2081 15.8254C17.2081 15.9482 17.2325 16.0698 17.2799 16.183C17.3273 16.2963 17.3967 16.399 17.4841 16.4852L18.7282 17.7278C19.1552 18.1576 19.3948 18.7388 19.3948 19.3446C19.3948 19.9504 19.1552 20.5316 18.7282 20.9613L15.4324 24.263C14.0083 25.6531 12.0937 26.4259 10.1037 26.4139C8.11366 26.4018 6.20856 25.606 4.80137 24.1988C3.39418 22.7916 2.59832 20.8865 2.5863 18.8965C2.57428 16.9064 3.34708 14.9919 4.73717 13.5678L8.01997 10.2777C8.44973 9.85077 9.03093 9.61113 9.63672 9.61113C10.2425 9.61113 10.8237 9.85077 11.2535 10.2777L12.4976 11.5218C12.8615 11.8843 13.4517 11.8843 13.8171 11.5218L17.6335 7.70399C17.7209 7.61779 17.7903 7.51507 17.8377 7.40181C17.8851 7.28855 17.9095 7.16701 17.9095 7.04424C17.9095 6.92147 17.8851 6.79992 17.8377 6.68666C17.7903 6.5734 17.7209 6.47069 17.6335 6.38449L16.3908 5.14184C16.2454 4.99784 16.1299 4.82643 16.0511 4.63753C15.9723 4.44862 15.9317 4.24597 15.9317 4.04129C15.9317 3.8366 15.9723 3.63395 16.0511 3.44505C16.1299 3.25614 16.2454 3.08474 16.3908 2.94074C16.6868 2.659 17.0798 2.50187 17.4885 2.50187C17.8971 2.50187 18.2901 2.659 18.5861 2.94074L26.029 10.3778C26.3196 10.6692 26.4828 11.0639 26.4828 11.4754C26.4828 11.887 26.3196 12.2817 26.029 12.5731H26.0275Z" fill="#C0EE02"/>
<path id="Vector_2" d="M11.4782 16.2037L8.05185 19.63C7.95598 19.714 7.87832 19.8166 7.82369 19.9318C7.76905 20.0469 7.7386 20.172 7.7342 20.2993C7.7298 20.4267 7.75155 20.5536 7.79811 20.6722C7.84467 20.7908 7.91505 20.8986 8.00491 20.989C8.09476 21.0793 8.20218 21.1503 8.32054 21.1975C8.4389 21.2447 8.56568 21.2672 8.69305 21.2635C8.82042 21.2598 8.94568 21.23 9.0611 21.176C9.17652 21.122 9.27964 21.0449 9.3641 20.9495L12.7963 17.5217C12.971 17.3467 13.0692 17.1095 13.069 16.8622C13.0689 16.6149 12.9705 16.3777 12.7955 16.2029C12.6206 16.0282 12.3833 15.93 12.136 15.9302C11.8887 15.9303 11.6515 16.0287 11.4768 16.2037H11.4782Z" fill="#C0EE02"/>
</g>
<defs>
<clipPath id="clip0_124_57">
<rect width="29" height="29" fill="white"/>
</clipPath>
</defs>
</svg>
