<svg width="31" height="31" viewBox="0 0 31 31" fill="none" xmlns="http://www.w3.org/2000/svg">
<g id="Frame">
<path id="Vector" d="M15.5 26.7822C14.4691 26.7822 13.5171 26.1489 12.8883 25.0447L9.68255 19.4169C9.26529 18.6841 8.76371 17.8296 8.36087 17.1428C7.84875 16.27 7.59873 15.8428 7.51178 15.6678C7.3095 15.2615 7.05778 14.5488 6.92355 14.0845C6.84545 13.8124 6.76609 13.5407 6.68547 13.2693L6.68966 13.2681C6.66269 13.1844 6.64161 13.0931 6.62766 12.9939L6.60162 12.8031C6.58038 12.6461 6.55171 12.4295 6.5204 12.1913C6.51344 12.1379 6.50998 12.0841 6.51001 12.0302V11.5852C6.51001 6.64989 10.543 2.63477 15.5 2.63477C20.4571 2.63477 24.49 6.64989 24.49 11.5852V12.0302C24.49 12.0842 24.4866 12.1381 24.4795 12.1916C24.4483 12.4297 24.4195 12.6462 24.3984 12.8031L24.3724 12.9939C24.3584 13.0932 24.3373 13.1845 24.3104 13.2684L24.3144 13.2696C24.2939 13.3353 24.1943 13.6767 24.0762 14.0848C23.8906 14.728 23.2158 16.0506 23.1262 16.2162C22.9735 16.4983 22.1622 17.9336 21.3176 19.4163L18.1118 25.0447C17.4829 26.1489 16.5309 26.7822 15.5 26.7822ZM9.08131 12.6326C9.10161 12.6933 9.11758 12.7474 9.13044 12.7915C9.17586 12.9466 9.23816 13.1607 9.30621 13.3961C9.42897 13.821 9.63233 14.3625 9.732 14.5628C9.79446 14.6854 10.1693 15.3242 10.5 15.8877C10.9066 16.5807 11.4125 17.443 11.8377 18.1896L15.0434 23.8174C15.2715 24.2181 15.4704 24.3024 15.5002 24.3024C15.5298 24.3024 15.7286 24.2181 15.9568 23.8175L19.1628 18.1892C20.0576 16.6179 20.8204 15.2665 20.9452 15.0362C21.1113 14.7288 21.6059 13.701 21.6937 13.3966C21.762 13.1604 21.8243 12.9463 21.8699 12.7911C21.8828 12.7471 21.8987 12.693 21.9189 12.6324C21.9355 12.5131 21.97 12.2545 22.0102 11.9493V11.5854C22.01 8.01745 19.0897 5.11477 15.5 5.11477C11.9104 5.11477 8.99001 8.01745 8.99001 11.5852V11.9492C9.03015 12.2547 9.06472 12.5134 9.08131 12.6326Z" fill="#C0EE02"/>
<path id="Vector_2" d="M13.175 11.9109C13.175 12.2163 13.2352 12.5186 13.352 12.8007C13.4689 13.0828 13.6401 13.3391 13.856 13.555C14.0719 13.7709 14.3282 13.9421 14.6103 14.059C14.8924 14.1758 15.1947 14.2359 15.5 14.2359C15.8054 14.2359 16.1077 14.1758 16.3898 14.059C16.6719 13.9421 16.9282 13.7709 17.1441 13.555C17.36 13.3391 17.5312 13.0828 17.6481 12.8007C17.7649 12.5186 17.825 12.2163 17.825 11.9109C17.825 11.2943 17.5801 10.7029 17.1441 10.2669C16.708 9.83089 16.1167 9.58594 15.5 9.58594C14.8834 9.58594 14.292 9.83089 13.856 10.2669C13.42 10.7029 13.175 11.2943 13.175 11.9109Z" fill="#C0EE02"/>
</g>
</svg>
