<svg width="113" height="113" viewBox="0 0 113 113" fill="none" xmlns="http://www.w3.org/2000/svg">
<g id="Frame 1597883563">
<rect x="0.5" y="0.5" width="112" height="112" rx="19.5" stroke="url(#paint0_linear_75_794)"/>
<path id="Vector" d="M51.2981 58.3043C54.4479 60.2367 55.975 61.1063 57.7885 61.1063C59.6021 61.1063 61.2247 60.1401 64.279 58.3043L84.1322 46.7101C85.0866 46.0338 85.6593 45.1643 85.6593 44.1981C85.6593 43.2319 84.9912 41.9758 84.1322 41.3961L63.9927 29.8019C60.8429 27.8696 59.3157 27 57.5022 27C55.6887 27 54.0661 27.9662 51.0117 29.8019L33.9266 39.7536C33.9266 39.7536 33.6402 39.7536 33.6402 40.0435C27.7225 43.5217 24 50.1884 24 57.0483V57.7246C24 64.6812 27.7225 70.9614 33.6402 74.7295L33.9266 75.0193L44.8076 81.2995C51.0117 85.0676 54.4479 87 57.884 87C61.3201 87 64.3745 85.0676 70.9604 81.2995L82.4141 74.7295C85.5639 72.7971 87.091 71.9275 88.0455 70.285C89 68.7391 89 66.8068 89 63.0386V55.7923C89 54.8261 88.3319 53.8599 87.4728 53.2802C86.5184 52.6039 85.5639 52.6039 84.7048 53.2802L60.9383 67.0966C59.4112 68.0628 58.4567 68.3527 57.7885 68.3527C56.8341 68.3527 56.2614 68.0628 54.6388 67.0966L38.7944 57.628C37.5536 56.9517 37.2673 56.9517 36.8855 56.6618C36.2173 56.6618 35.3583 56.9517 34.9765 57.628V60.43C34.9765 61.1063 35.6446 61.686 35.931 62.3623C36.2173 63.0386 36.5991 63.0386 37.1718 63.6184L54.257 73.6667C55.7841 74.6329 56.7386 74.9227 57.4068 74.9227C58.3612 74.9227 58.9339 74.6329 60.5565 73.6667L81.3642 61.4928C82.0323 61.2029 82.3186 60.8164 82.3186 61.2029C82.605 61.2029 82.605 61.4928 82.605 62.1691V65.3575C82.605 66.3237 82.605 66.6135 82.3186 67.2899C82.0323 67.5797 81.6505 67.9662 80.7915 68.256L63.7063 78.1111C60.5565 80.0435 59.0294 80.913 57.2159 80.913C55.4024 80.913 53.7797 79.9469 50.7254 78.1111L34.5947 68.6425C31.4449 66.7101 29.6314 62.942 29.6314 58.8841V55.6957C29.6314 53.4734 30.8722 51.6377 32.7812 50.3816C34.3084 49.4155 36.5037 49.4155 38.0308 50.3816L51.2981 58.3043Z" fill="url(#paint1_linear_75_794)"/>
</g>
<defs>
<linearGradient id="paint0_linear_75_794" x1="-3.5" y1="-3.5" x2="119" y2="113" gradientUnits="userSpaceOnUse">
<stop stop-color="#75EB36"/>
<stop offset="0.68513" stop-color="#E3FF57" stop-opacity="0"/>
</linearGradient>
<linearGradient id="paint1_linear_75_794" x1="24" y1="80.1818" x2="91.0665" y2="77.4338" gradientUnits="userSpaceOnUse">
<stop stop-color="#C0EE02"/>
<stop offset="1" stop-color="#90FF6B"/>
</linearGradient>
</defs>
</svg>
