<svg width="113" height="113" viewBox="0 0 113 113" fill="none" xmlns="http://www.w3.org/2000/svg">
<g id="Frame 1597883440">
<rect x="0.5" y="0.5" width="112" height="112" rx="19.5" stroke="url(#paint0_linear_75_786)"/>
<path id="Vector" d="M33.1766 41.1344H44.5367V78.9117H33.1766V41.1344ZM38.8861 26C37.325 26 35.8278 26.6204 34.724 27.7248C33.6201 28.8292 33 30.3271 33 31.8889C33.0829 33.3939 33.7394 34.8098 34.8344 35.8451C35.9294 36.8804 37.3795 37.4562 38.8861 37.4539C40.3926 37.4562 41.8427 36.8804 42.9377 35.8451C44.0327 34.8098 44.6893 33.3939 44.7721 31.8889C44.7721 30.3271 44.152 28.8292 43.0481 27.7248C41.9443 26.6204 40.4471 26 38.8861 26ZM82.2957 46.14C81.1443 44.8116 79.6984 43.771 78.0734 43.1013C76.4484 42.4316 74.6894 42.1513 72.9369 42.2828C70.6718 42.2301 68.435 42.794 66.4653 43.9141C64.4956 45.0343 62.867 46.6687 61.7534 48.6428H61.5768V41.1344H52.0414C52.218 44.9917 52.0414 78.9117 52.0414 78.9117H63.4015V55.4444C63.6621 54.154 64.3809 53.0016 65.4251 52.2005C66.4694 51.3993 67.7683 51.0037 69.0815 51.0867C72.7603 51.0867 74.585 53.7661 74.585 58.9483V79H85.9745V57.5056C86.2028 53.3913 84.8913 49.3394 82.2957 46.14Z" fill="url(#paint1_linear_75_786)"/>
</g>
<defs>
<linearGradient id="paint0_linear_75_786" x1="113" y1="118" x2="-5.13371e-06" y2="-5.5" gradientUnits="userSpaceOnUse">
<stop offset="0.31487" stop-color="#E3FF57" stop-opacity="0"/>
<stop offset="1" stop-color="#75EB36"/>
</linearGradient>
<linearGradient id="paint1_linear_75_786" x1="33" y1="72.9773" x2="87.6986" y2="70.9084" gradientUnits="userSpaceOnUse">
<stop stop-color="#C0EE02"/>
<stop offset="1" stop-color="#90FF6B"/>
</linearGradient>
</defs>
</svg>
