<svg width="113" height="113" viewBox="0 0 113 113" fill="none" xmlns="http://www.w3.org/2000/svg">
<g id="Frame 21293">
<rect x="0.5" y="0.5" width="112" height="112" rx="19.5" stroke="url(#paint0_linear_75_788)"/>
<g id="Symbol">
<path id="Vector" d="M60.0117 56.6406C60.0117 67.4875 51.2786 76.2806 40.5062 76.2806C29.7339 76.2806 21 67.4875 21 56.6406C21 45.7937 29.7332 37 40.5062 37C51.2792 37 60.0117 45.7937 60.0117 56.6406Z" fill="url(#paint1_linear_75_788)"/>
<path id="Vector_2" d="M81.4095 56.6405C81.4095 66.8505 77.0429 75.1306 71.6564 75.1306C66.2699 75.1306 61.9033 66.8505 61.9033 56.6405C61.9033 46.4305 66.2693 38.1504 71.6558 38.1504C77.0423 38.1504 81.4089 46.4279 81.4089 56.6405" fill="url(#paint2_linear_75_788)"/>
<path id="Vector_3" d="M90.1634 56.6404C90.1634 65.7861 88.6279 73.2046 86.7332 73.2046C84.8385 73.2046 83.3037 65.7881 83.3037 56.6404C83.3037 47.4928 84.8392 40.0762 86.7332 40.0762C88.6273 40.0762 90.1634 47.4921 90.1634 56.6404Z" fill="url(#paint3_linear_75_788)"/>
</g>
</g>
<defs>
<linearGradient id="paint0_linear_75_788" x1="115" y1="110" x2="0" y2="0" gradientUnits="userSpaceOnUse">
<stop offset="0.31487" stop-color="#E3FF57" stop-opacity="0"/>
<stop offset="1" stop-color="#75EB36"/>
</linearGradient>
<linearGradient id="paint1_linear_75_788" x1="21" y1="71.8169" x2="61.2628" y2="70.3044" gradientUnits="userSpaceOnUse">
<stop stop-color="#C0EE02"/>
<stop offset="1" stop-color="#90FF6B"/>
</linearGradient>
<linearGradient id="paint2_linear_75_788" x1="61.9033" y1="70.9283" x2="82.0555" y2="70.5263" gradientUnits="userSpaceOnUse">
<stop stop-color="#C0EE02"/>
<stop offset="1" stop-color="#90FF6B"/>
</linearGradient>
<linearGradient id="paint3_linear_75_788" x1="83.3037" y1="69.44" x2="90.393" y2="69.3845" gradientUnits="userSpaceOnUse">
<stop stop-color="#C0EE02"/>
<stop offset="1" stop-color="#90FF6B"/>
</linearGradient>
</defs>
</svg>
