<svg width="106" height="60" viewBox="0 0 106 60" fill="none" xmlns="http://www.w3.org/2000/svg">
<mask id="mask0_390_3626" style="mask-type:alpha" maskUnits="userSpaceOnUse" x="0" y="0" width="106" height="60">
<rect width="106" height="60" fill="#D9D9D9"/>
</mask>
<g mask="url(#mask0_390_3626)">
<path d="M34.9269 25.5546V39.739H30.4057V21.9141L39.7446 21.9253C43.7046 21.9253 45.0582 24.7178 45.0582 27.2479V39.739H40.5481V27.2719C40.5481 26.207 39.9981 25.5571 38.6669 25.5571L34.9269 25.5546ZM65.6876 25.3436C64.1407 25.3436 62.9427 26.1341 62.4426 27.2093C62.1589 27.8162 62.0105 28.4773 62.0077 29.147H68.9687C68.8836 27.211 68.0079 25.3436 65.6876 25.3436ZM62.0077 32.2198C62.0077 34.5244 63.4489 36.2254 66.0176 36.2254C68.0139 36.2254 69.01 35.6767 70.165 34.5244L72.9588 37.1823C71.1713 38.9433 69.2901 40.0116 65.9849 40.0116C61.6562 40.0116 57.5149 37.6572 57.5149 30.7931C57.5149 24.9218 61.1243 21.6072 65.8801 21.6072C70.7038 21.6072 73.4865 25.4928 73.4865 30.5848V32.2086H62.0086L62.0077 32.2198ZM53.6923 39.7098C50.0073 39.7098 48.4398 37.1523 48.4398 34.623V17.0597H52.9602V21.9141H56.365V25.558H52.9559V34.3375C52.9559 35.3801 53.4509 35.9511 54.5285 35.9511H56.3659V39.7098H53.6923ZM26.3795 19.4526H21.8248V15.134H26.3795V19.4526ZM26.3907 39.919C22.9807 39.5949 21.8205 37.5321 21.8205 35.1451V21.9219H26.3855V39.931L26.3907 39.919ZM80.676 39.54C77.2712 39.2108 76.1162 37.1531 76.1162 34.7722V14.5253H80.676V39.5409V39.54ZM96.6098 17.4489C92.4848 -2.64534 53.383 -3.91854 28.1833 11.3856V13.0755C53.3572 0.17028 89.0628 0.247444 92.3138 18.7504C93.4035 24.8738 89.9488 31.2501 83.7724 34.9205V39.7167C91.2035 37.0056 98.8262 28.2098 96.6098 17.4498V17.4489ZM50.7997 52.6081C33.4084 54.208 15.2858 51.6899 12.7497 38.1305C11.5071 31.4473 14.5647 24.3577 18.6073 19.9542V17.605C11.3206 23.9847 7.3657 32.0569 9.64306 41.5935C12.5469 53.8299 28.1069 60.7601 51.8447 58.4554C61.2386 57.5449 73.5372 54.5269 82.0837 49.8457V43.201C74.3287 47.8069 61.4921 51.6187 50.7997 52.6081ZM85.9484 15.8654C85.9484 15.6459 85.8169 15.5747 85.5247 15.5747H85.2394V16.2006L85.5247 16.2057C85.8169 16.2057 85.9484 16.1123 85.9484 15.8988V15.8654ZM86.3884 17.4129H86.0549C86.0394 17.4132 86.0241 17.4093 86.0106 17.4016C85.9972 17.3939 85.986 17.3827 85.9784 17.3692L85.5212 16.5899C85.504 16.5716 85.4809 16.56 85.4559 16.5573H85.2462V17.3289C85.2472 17.3407 85.2457 17.3526 85.2418 17.3638C85.2379 17.375 85.2317 17.3853 85.2236 17.394C85.2156 17.4027 85.2058 17.4097 85.1949 17.4144C85.184 17.4191 85.1722 17.4215 85.1603 17.4215H84.8578C84.8363 17.4173 84.8168 17.4058 84.8029 17.3889C84.7889 17.372 84.7813 17.3508 84.7813 17.3289V15.3758C84.7813 15.2661 84.8251 15.2112 84.9188 15.2C85.105 15.1846 85.2921 15.1772 85.48 15.1778C86.0403 15.1778 86.3815 15.3424 86.3815 15.8697V15.9022C86.3815 16.2315 86.2165 16.3961 85.9638 16.4835L86.4425 17.2852C86.4425 17.3015 86.4588 17.3238 86.4588 17.3452C86.459 17.3544 86.4572 17.3634 86.4536 17.3719C86.45 17.3803 86.4447 17.3879 86.4379 17.3941C86.4312 17.4003 86.4232 17.4051 86.4145 17.408C86.4059 17.411 86.3966 17.4121 86.3875 17.4112V17.4164L86.3884 17.4129ZM85.5909 14.8177C85.2946 14.8189 85.0054 14.9074 84.7596 15.0722C84.5137 15.2371 84.3222 15.4707 84.2092 15.7439C84.0961 16.017 84.0666 16.3174 84.1243 16.6073C84.182 16.8971 84.3244 17.1635 84.5335 17.3728C84.7426 17.5821 85.0091 17.725 85.2994 17.7836C85.5897 17.8422 85.8909 17.8137 86.1651 17.7019C86.4393 17.5901 86.6741 17.3998 86.8402 17.1551C87.0062 16.9104 87.096 16.6221 87.0982 16.3266C87.0971 15.9269 86.9376 15.5438 86.6547 15.2609C86.3717 14.9779 85.9881 14.818 85.5874 14.8159L85.5909 14.8177ZM85.5909 18.1374C85.1095 18.1374 84.6478 17.9466 84.3074 17.607C83.9671 17.2675 83.7758 16.8069 83.7758 16.3266C83.7758 15.8464 83.9671 15.3858 84.3074 15.0462C84.6478 14.7066 85.1095 14.5159 85.5909 14.5159C86.0722 14.5159 86.5339 14.7066 86.8743 15.0462C87.2146 15.3858 87.4059 15.8464 87.4059 16.3266C87.4059 16.8069 87.2146 17.2675 86.8743 17.607C86.5339 17.9466 86.0722 18.1374 85.5909 18.1374Z" fill="white"/>
</g>
</svg>
