<svg width="27" height="27" viewBox="0 0 27 27" fill="none" xmlns="http://www.w3.org/2000/svg">
<path id="Vector" d="M26.1402 10.9775C26.6058 10.9775 26.9834 10.5999 26.9834 10.1343C26.9834 9.66865 26.6058 9.29107 26.1402 9.29107H24.4532V7.60463H26.1402C26.6058 7.60463 26.9834 7.22705 26.9834 6.76141C26.9834 6.29576 26.6058 5.91818 26.1402 5.91818H24.4532V3.38852C24.4535 3.16492 24.3646 2.95029 24.2067 2.79209C24.0485 2.63389 23.8338 2.54503 23.6102 2.54529H21.0806V0.858848C21.0806 0.392939 20.703 0.015625 20.2373 0.015625C19.7714 0.015625 19.3941 0.393203 19.3941 0.858848V2.54529H17.7077V0.858848C17.7077 0.392939 17.3301 0.015625 16.8645 0.015625C16.3985 0.015625 16.0212 0.393203 16.0212 0.858848V2.54529H14.3348V0.858848C14.3348 0.392939 13.9572 0.015625 13.4916 0.015625C13.0257 0.015625 12.6483 0.393203 12.6483 0.858848V2.54529H10.9619V0.858848C10.9619 0.392939 10.5843 0.015625 10.1187 0.015625C9.65303 0.015625 9.27545 0.393203 9.27545 0.858848V2.54529H7.589V0.858848C7.589 0.392939 7.21143 0.015625 6.74578 0.015625C6.28014 0.015625 5.90256 0.393203 5.90256 0.858848V2.54529H3.37289C3.1493 2.54529 2.93467 2.63389 2.77646 2.79209C2.61826 2.95029 2.52967 3.16492 2.52967 3.38852V5.91818H0.843223C0.377314 5.91818 0 6.29576 0 6.76141C0 7.22705 0.377578 7.60463 0.843223 7.60463H2.52967V9.29107H0.843223C0.377314 9.29107 0 9.66865 0 10.1343C0 10.6002 0.377578 10.9775 0.843223 10.9775H2.52967V12.6642H0.843223C0.377578 12.6642 0.000263672 13.0415 0.000263672 13.5072C0.000263672 13.9726 0.377578 14.3501 0.843223 14.3501H2.52967V16.0371H0.843223C0.377578 16.0371 0.000263672 16.4144 0.000263672 16.8801C0.000263672 17.3457 0.377578 17.723 0.843223 17.723H2.52967V19.41H0.843223C0.377578 19.41 0.000263672 19.7876 0.000263672 20.253C0.000263672 20.7183 0.377578 21.0959 0.843223 21.0959H2.52967V23.6259C2.52957 23.7366 2.55132 23.8463 2.59367 23.9487C2.63601 24.051 2.69813 24.144 2.77646 24.2223C2.93467 24.3802 3.1493 24.4691 3.37289 24.4688H5.90256V26.1558C5.90256 26.6214 6.28014 26.999 6.74578 26.999C7.21169 26.999 7.589 26.6214 7.589 26.1558V24.4688H9.27545V26.1558C9.27545 26.6214 9.65303 26.999 10.1187 26.999C10.5846 26.999 10.9619 26.6214 10.9619 26.1558V24.4688H12.6483V26.1558C12.6483 26.6214 13.0259 26.999 13.4916 26.999C13.9572 26.999 14.3348 26.6214 14.3348 26.1558V24.4688H16.0212V26.1558C16.0212 26.6214 16.3988 26.999 16.8645 26.999C17.3301 26.999 17.7077 26.6214 17.7077 26.1558V24.4688H19.3941V26.1558C19.3941 26.6214 19.7717 26.999 20.2373 26.999C20.703 26.999 21.0806 26.6214 21.0806 26.1558V24.4688H23.6102C23.8338 24.4693 24.0485 24.3805 24.2067 24.2223C24.3649 24.0641 24.4537 23.8495 24.4532 23.6259V21.0959H26.1402C26.6055 21.0959 26.9831 20.7186 26.9831 20.253C26.9831 19.7873 26.6058 19.41 26.1402 19.41H24.4532V17.723H26.1402C26.6055 17.723 26.9831 17.3457 26.9831 16.8801C26.9831 16.4144 26.6058 16.0371 26.1402 16.0371H24.4532V14.3501H26.1402C26.6055 14.3501 26.9831 13.9728 26.9831 13.5072C26.9831 13.0415 26.6058 12.6642 26.1402 12.6642H24.4532V10.9775H26.1402ZM22.7673 22.7829H4.21611V4.23174H22.7673V22.7829ZM10.7019 15.3031H12.7902L13.1984 16.9262H14.9829L12.7902 9.86403H10.7589L8.56617 16.9262H10.2937L10.7019 15.3031ZM11.1765 13.3951C11.3569 12.6927 11.5467 11.8669 11.7176 11.1265H11.7555C11.9454 11.8479 12.1257 12.6927 12.3156 13.3951L12.4675 13.9931H11.0246L11.1765 13.3951ZM18.3716 16.9262H16.6725V9.86403H18.3716V16.9262Z" fill="white"/>
</svg>
