<svg width="31" height="31" viewBox="0 0 31 31" fill="none" xmlns="http://www.w3.org/2000/svg">
<g id="Frame">
<path id="Vector" d="M15.4998 26.7822C14.4689 26.7822 13.5169 26.1489 12.888 25.0447L9.68231 19.4169C9.26505 18.6841 8.76347 17.8296 8.36062 17.1428C7.8485 16.27 7.59849 15.8428 7.51153 15.6678C7.30926 15.2615 7.05754 14.5488 6.92331 14.0845C6.84521 13.8124 6.76585 13.5407 6.68523 13.2693L6.68941 13.2681C6.66244 13.1844 6.64136 13.0931 6.62741 12.9939L6.60137 12.8031C6.58014 12.6461 6.55146 12.4295 6.52015 12.1913C6.5132 12.1379 6.50973 12.0841 6.50977 12.0302V11.5852C6.50977 6.64989 10.5427 2.63477 15.4998 2.63477C20.4568 2.63477 24.4898 6.64989 24.4898 11.5852V12.0302C24.4898 12.0842 24.4864 12.1381 24.4792 12.1916C24.4481 12.4297 24.4192 12.6462 24.3982 12.8031L24.3721 12.9939C24.3582 13.0932 24.3371 13.1845 24.3101 13.2684L24.3142 13.2696C24.2937 13.3353 24.194 13.6767 24.0759 14.0848C23.8904 14.728 23.2155 16.0506 23.1259 16.2162C22.9732 16.4983 22.162 17.9336 21.3174 19.4163L18.1115 25.0447C17.4827 26.1489 16.5307 26.7822 15.4998 26.7822ZM9.08106 12.6326C9.10137 12.6933 9.11733 12.7474 9.1302 12.7915C9.17561 12.9466 9.23792 13.1607 9.30597 13.3961C9.42873 13.821 9.63209 14.3625 9.73175 14.5628C9.79422 14.6854 10.169 15.3242 10.4998 15.8877C10.9063 16.5807 11.4123 17.443 11.8374 18.1896L15.0431 23.8174C15.2713 24.2181 15.4702 24.3024 15.4999 24.3024C15.5295 24.3024 15.7284 24.2181 15.9566 23.8175L19.1626 18.1892C20.0574 16.6179 20.8201 15.2665 20.9449 15.0362C21.1111 14.7288 21.6057 13.701 21.6934 13.3966C21.7618 13.1604 21.8241 12.9463 21.8696 12.7911C21.8825 12.7471 21.8985 12.693 21.9186 12.6324C21.9352 12.5131 21.9698 12.2545 22.0099 11.9493V11.5854C22.0098 8.01745 19.0894 5.11477 15.4998 5.11477C11.9101 5.11477 8.98977 8.01745 8.98977 11.5852V11.9492C9.02991 12.2547 9.06448 12.5134 9.08106 12.6326Z" fill="white"/>
<path id="Vector_2" d="M13.1748 11.9109C13.1748 12.2163 13.2349 12.5186 13.3518 12.8007C13.4686 13.0828 13.6399 13.3391 13.8558 13.555C14.0717 13.7709 14.328 13.9421 14.6101 14.059C14.8921 14.1758 15.1945 14.2359 15.4998 14.2359C15.8051 14.2359 16.1075 14.1758 16.3895 14.059C16.6716 13.9421 16.9279 13.7709 17.1438 13.555C17.3597 13.3391 17.531 13.0828 17.6478 12.8007C17.7647 12.5186 17.8248 12.2163 17.8248 11.9109C17.8248 11.2943 17.5798 10.7029 17.1438 10.2669C16.7078 9.83089 16.1164 9.58594 15.4998 9.58594C14.8832 9.58594 14.2918 9.83089 13.8558 10.2669C13.4198 10.7029 13.1748 11.2943 13.1748 11.9109Z" fill="white"/>
</g>
</svg>
