<svg width="27" height="27" viewBox="0 0 27 27" fill="none" xmlns="http://www.w3.org/2000/svg">
<g id="Frame">
<path id="Vector" d="M9.1125 22.0219H17.8242C18.2883 22.0219 18.7102 22.3805 18.7102 22.9078C18.7102 23.3719 18.3516 23.7938 17.8242 23.7938H9.1125C8.64844 23.7938 8.22656 23.4352 8.22656 22.9078C8.22656 22.3805 8.58516 22.0219 9.1125 22.0219ZM17.107 25.1016H9.82969C9.70312 25.1016 9.66094 25.2703 9.76641 25.3969L12.4242 26.768C12.7195 26.8945 13.0781 27 13.5 27C13.8586 27 14.1539 26.8734 14.5125 26.768L17.1703 25.3969C17.2969 25.2914 17.2336 25.1016 17.107 25.1016ZM13.3313 5.86406C14.407 5.86406 15.3352 6.28594 16.2844 7.17188C17.2336 7.99453 17.6555 9.07031 17.6555 10.3781C17.6555 10.8 18.0141 11.2641 18.5414 11.2641C19.0055 11.2641 19.4273 10.8422 19.4273 10.3781C19.4273 8.47969 18.8367 7.00312 17.5922 5.88516C16.3477 4.76719 14.9344 4.21875 13.3313 4.21875C12.8672 4.21875 12.4453 4.57734 12.4453 5.10469C12.4875 5.44219 12.8461 5.86406 13.3313 5.86406Z" fill="white"/>
<path id="Vector_2" d="M17.3393 20.5453H9.59792C8.71199 20.5453 7.9948 19.8914 7.88933 19.0055C7.76277 18.8367 7.46746 18.4148 7.36199 18.2883C4.80964 16.3266 3.33308 13.3734 3.33308 10.1672C3.31199 4.55625 7.86824 0 13.5003 0C19.1323 0 23.6886 4.55625 23.6886 10.1883C23.6886 13.4367 22.212 16.4109 19.5964 18.3516C19.4698 18.4781 19.1745 18.8156 19.069 19.0687C18.9425 19.8281 18.2464 20.5453 17.3393 20.5453ZM9.82996 18.5414H17.1073C17.276 17.8242 17.9932 17.0016 18.3518 16.7062C20.419 15.1664 21.6003 12.7406 21.6003 10.125C21.6003 5.63203 17.93 1.96172 13.437 1.96172C8.94402 1.96172 5.27371 5.63203 5.27371 10.125C5.27371 12.7195 6.45496 15.1031 8.52214 16.643C8.88074 16.9383 9.64011 17.7609 9.82996 18.5414Z" fill="white"/>
</g>
</svg>
