<svg width="29" height="29" viewBox="0 0 29 29" fill="none" xmlns="http://www.w3.org/2000/svg">
<g id="Frame" clip-path="url(#clip0_1201_4452)">
<path id="Vector" d="M27.3468 9.05925L19.9402 1.65265C19.2864 1.07878 18.4386 0.775546 17.5692 0.804651C16.6998 0.833756 15.8741 1.19301 15.2602 1.80932C14.6463 2.42563 14.2903 3.25268 14.2646 4.12219C14.2389 4.9917 14.5454 5.83835 15.1218 6.48985L15.6931 7.0626L13.2064 9.54935L12.5843 8.92875C11.8047 8.15274 10.7495 7.71708 9.64953 7.71708C8.54954 7.71708 7.49433 8.15274 6.71473 8.92875L3.41308 12.2492C2.52083 13.1212 1.81049 14.1616 1.32321 15.3101C0.835932 16.4585 0.581402 17.6923 0.574369 18.9398C0.567335 20.1874 0.807938 21.4239 1.28224 22.5778C1.75654 23.7317 2.4551 24.78 3.33746 25.662C4.21982 26.544 5.26843 27.2421 6.42253 27.7159C7.57663 28.1897 8.81328 28.4297 10.0608 28.4222C11.3084 28.4146 12.542 28.1595 13.6903 27.6717C14.8385 27.184 15.8786 26.4732 16.7502 25.5805L20.0417 22.2977C20.8181 21.5181 21.2541 20.4626 21.2541 19.3622C21.2541 18.2619 20.8181 17.2064 20.0417 16.4267L19.4182 15.8061L21.9064 13.3179L22.4777 13.8834C23.1249 14.4923 23.9838 14.8255 24.8724 14.8122C25.761 14.799 26.6095 14.4405 27.2384 13.8126C27.8672 13.1847 28.227 12.3366 28.2416 11.4481C28.2561 10.5595 27.9243 9.70017 27.3163 9.052L27.3468 9.05925ZM26.0273 12.5726C25.8829 12.7171 25.7115 12.8318 25.5228 12.9101C25.334 12.9883 25.1317 13.0286 24.9275 13.0286C24.7232 13.0286 24.5209 12.9883 24.3322 12.9101C24.1434 12.8318 23.972 12.7171 23.8276 12.5726L22.5835 11.3285C22.4151 11.169 22.1934 11.078 21.9615 11.0733C21.7147 11.0752 21.4784 11.1736 21.3032 11.3473L17.4839 15.1652C17.3965 15.2514 17.327 15.3541 17.2797 15.4674C17.2323 15.5806 17.2079 15.7022 17.2079 15.8249C17.2079 15.9477 17.2323 16.0693 17.2797 16.1825C17.327 16.2958 17.3965 16.3985 17.4839 16.4847L18.728 17.7273C19.1549 18.1571 19.3946 18.7383 19.3946 19.3441C19.3946 19.9499 19.1549 20.5311 18.728 20.9608L15.4321 24.2625C14.008 25.6526 12.0935 26.4254 10.1034 26.4134C8.11342 26.4014 6.20831 25.6055 4.80113 24.1983C3.39394 22.7911 2.59807 20.886 2.58605 18.896C2.57404 16.906 3.34684 14.9914 4.73693 13.5673L8.01973 10.2772C8.44948 9.85028 9.03068 9.61065 9.63648 9.61065C10.2423 9.61065 10.8235 9.85028 11.2532 10.2772L12.4973 11.5213C12.8613 11.8838 13.4514 11.8838 13.8168 11.5213L17.6332 7.7035C17.7206 7.6173 17.7901 7.51458 17.8374 7.40132C17.8848 7.28806 17.9092 7.16652 17.9092 7.04375C17.9092 6.92098 17.8848 6.79943 17.8374 6.68617C17.7901 6.57291 17.7206 6.4702 17.6332 6.384L16.3906 5.14135C16.2451 4.99735 16.1296 4.82594 16.0508 4.63704C15.972 4.44813 15.9315 4.24548 15.9315 4.0408C15.9315 3.83612 15.972 3.63346 16.0508 3.44456C16.1296 3.25565 16.2451 3.08425 16.3906 2.94025C16.6866 2.65851 17.0796 2.50138 17.4882 2.50138C17.8969 2.50138 18.2899 2.65851 18.5859 2.94025L26.0287 10.3773C26.3193 10.6687 26.4825 11.0634 26.4825 11.4749C26.4825 11.8865 26.3193 12.2812 26.0287 12.5726H26.0273Z" fill="white"/>
<path id="Vector_2" d="M11.478 16.2032L8.05161 19.6295C7.95573 19.7135 7.87808 19.8162 7.82345 19.9313C7.76881 20.0464 7.73835 20.1715 7.73395 20.2988C7.72955 20.4262 7.75131 20.5531 7.79787 20.6717C7.84443 20.7903 7.91481 20.8981 8.00466 20.9885C8.09452 21.0788 8.20194 21.1498 8.3203 21.197C8.43865 21.2442 8.56543 21.2667 8.6928 21.263C8.82018 21.2593 8.94544 21.2295 9.06086 21.1755C9.17627 21.1215 9.2794 21.0444 9.36386 20.949L12.796 17.5212C12.9708 17.3463 13.0689 17.109 13.0688 16.8617C13.0686 16.6144 12.9703 16.3772 12.7953 16.2025C12.6203 16.0277 12.3831 15.9296 12.1357 15.9297C11.8884 15.9298 11.6513 16.0282 11.4765 16.2032H11.478Z" fill="white"/>
</g>
<defs>
<clipPath id="clip0_1201_4452">
<rect width="29" height="29" fill="white"/>
</clipPath>
</defs>
</svg>
