<svg width="285" height="50" viewBox="0 0 285 50" fill="none" xmlns="http://www.w3.org/2000/svg">
<mask id="mask0_390_1646" style="mask-type:alpha" maskUnits="userSpaceOnUse" x="0" y="0" width="285" height="50">
<rect x="0.110413" width="284" height="50" fill="#D9D9D9"/>
</mask>
<g mask="url(#mask0_390_1646)">
</g>
<g clip-path="url(#clip0_390_1646)">
<path d="M118.185 22.7003V1.92822H123.781V22.7003H118.185ZM141.038 22.7003L133.83 10.3657V22.7003H128.411V1.92822H134.74L141.214 13.2076V1.92822H146.663V22.7003H141.038ZM161.077 7.11388V22.7003H155.569V7.11388H149.593V1.92822H167.084V7.11388H161.078H161.077ZM170.012 22.7003V1.92822H183.314V6.67455H175.463V9.9558H182.611V14.5256H175.463V17.8657H183.372V22.7003H170.012ZM187.268 22.7003V1.92822H196.027C200.246 1.92822 202.999 4.74072 202.999 8.60837C202.999 11.4209 201.446 13.5018 199.161 14.4098L203.088 22.7003H197.141L193.86 15.1709H192.716V22.7003H187.268ZM195.003 10.9521C196.645 10.9521 197.494 10.0146 197.494 8.6966C197.494 7.37859 196.645 6.4705 195.003 6.4705H192.718V10.9521H195.003ZM219.203 22.7003L211.996 10.3657V22.7003H206.575V1.92822H212.904L219.378 13.2076V1.92822H224.827V22.7003H219.202H219.203ZM229.457 22.7003V1.92822H242.759V6.67455H234.907V9.9558H242.056V14.5256H234.907V17.8657H242.817V22.7003H229.457ZM257.415 7.11388V22.7003H251.907V7.11388H245.931V1.92822H263.422V7.11388H257.417H257.415ZM122.176 38.6966C122.176 42.1543 124.637 44.1451 127.156 44.1451C130.027 44.1451 131.257 42.3584 131.696 40.8933L136.852 42.3878C136.032 45.4631 133.279 49.5073 127.126 49.5073C121.354 49.5073 116.492 45.3179 116.492 38.726C116.492 32.1341 121.444 27.8565 127.069 27.8565C133.045 27.8565 135.771 31.4889 136.621 34.5955L131.553 36.3234C131.172 34.9466 130.058 33.1304 127.128 33.1304C124.784 33.1304 122.178 34.9172 122.178 38.6966H122.176ZM149.275 27.8565C154.988 27.8565 159.939 31.9576 159.939 38.6966C159.939 45.4356 154.986 49.5367 149.275 49.5367C143.564 49.5367 138.611 45.4356 138.611 38.6966C138.611 31.9576 143.564 27.8565 149.275 27.8565ZM149.275 44.2334C151.707 44.2334 154.284 42.5054 154.284 38.6672C154.284 34.829 151.705 33.1598 149.275 33.1598C146.845 33.1598 144.266 34.8878 144.266 38.6672C144.266 42.4466 146.845 44.2334 149.275 44.2334ZM181.663 49.0679V36.2058L177.122 49.0679H172.786L168.275 36.3529V49.0679H163.06V28.2959H170.356L175.014 40.9521L179.468 28.2959H186.968V49.0679H181.665H181.663ZM197.043 41.9797V49.0698H191.595V28.2977H199.885C204.222 28.2977 207.181 31.1396 207.181 35.1525C207.181 39.1654 204.222 41.9797 199.885 41.9797H197.043ZM199.181 37.4393C200.617 37.4393 201.672 36.59 201.672 35.1837C201.672 33.7775 200.617 32.8988 199.181 32.8988H197.071V37.4393H199.181ZM210.021 41.4521V28.2977H215.499V41.2775C215.499 43.329 216.554 44.4117 218.371 44.4117C220.187 44.4117 221.213 43.3271 221.213 41.2775V28.2977H226.69V41.4521C226.69 46.6672 223.203 49.5385 218.371 49.5385C213.538 49.5385 210.021 46.6672 210.021 41.4521ZM241.106 33.4834V49.0698H235.599V33.4834H229.622V28.2977H247.113V33.4834H241.108H241.106ZM250.042 49.0679V28.2959H263.343V33.0422H255.492V36.3234H262.641V40.8933H255.492V44.2334H263.402V49.0679H250.042ZM267.481 49.0679V28.2959H276.24C280.459 28.2959 283.213 31.1084 283.213 34.976C283.213 37.7885 281.659 39.8694 279.374 40.7775L283.301 49.0679H277.354L274.073 41.5385H272.929V49.0679H267.481ZM275.216 37.3198C276.858 37.3198 277.707 36.3823 277.707 35.0643C277.707 33.7462 276.858 32.8381 275.216 32.8381H272.931V37.3198H275.216Z" fill="white"/>
<path d="M88.0599 41.5441C80.8319 41.5441 73.1996 36.8199 69.4532 33.3897C65.3576 29.6379 54.1021 17.432 54.0525 17.3768C46.672 9.13971 36.7473 0 26.8466 0C14.922 0 4.52308 8.25735 1.8172 19.1985C2.02492 18.4779 5.81352 8.45588 20.0451 8.45588C27.2731 8.45588 34.9054 13.1801 38.6518 16.6103C42.7473 20.3621 54.0029 32.568 54.0525 32.6232C61.433 40.8585 71.3576 49.9982 81.2584 49.9982C93.183 49.9982 103.582 41.7408 106.288 30.7996C106.08 31.5202 102.291 41.5423 88.0599 41.5423V41.5441Z" fill="#00ACE5"/>
<path d="M54.0542 32.6249C54.0285 32.5955 50.7877 29.0808 47.1535 25.2463C45.1902 27.5771 42.3594 30.7536 39.1057 33.6047C33.0432 38.919 29.102 40.033 26.8483 40.033C18.3447 40.033 11.409 33.2885 11.409 24.9999C11.409 16.7113 18.3373 10.0183 26.8483 9.96684C27.1571 9.96684 27.5303 9.99809 27.9844 10.079C25.4274 9.09736 22.7105 8.45581 20.0469 8.45581C5.82075 8.45581 2.02847 18.4724 1.82075 19.1966C1.35115 21.0947 1.11412 23.0428 1.11487 24.9981C1.11487 38.783 12.4862 49.9981 26.6663 49.9981C32.5781 49.9981 39.1994 46.9668 46.0193 40.9907C49.2435 38.1654 52.0395 35.1433 54.1388 32.7132C54.1112 32.6838 54.0836 32.6525 54.0579 32.6231L54.0542 32.6249Z" fill="url(#paint0_linear_390_1646)"/>
<path d="M54.0521 17.375C54.0779 17.4044 57.3187 20.9191 60.9529 24.7537C62.9161 22.4228 65.747 19.2463 69.0007 16.3952C75.0632 11.0809 79.0043 9.96691 81.258 9.96691C89.7617 9.96691 96.6974 16.7114 96.6974 25C96.6974 33.2426 89.7691 39.9816 81.258 40.0331C80.9492 40.0331 80.576 40.0018 80.122 39.921C82.679 40.9026 85.3959 41.5441 88.0595 41.5441C102.286 41.5441 106.078 31.5276 106.286 30.8033C106.747 28.9393 106.991 26.9963 106.991 25.0018C106.993 11.2151 95.4382 0 81.258 0C75.3463 0 68.9088 3.03125 62.0889 9.00735C58.8646 11.8327 56.0687 14.8548 53.9694 17.2849C53.997 17.3143 54.0246 17.3456 54.0503 17.375H54.0521Z" fill="url(#paint1_linear_390_1646)"/>
</g>
<defs>
<linearGradient id="paint0_linear_390_1646" x1="40.1902" y1="46.7297" x2="5.36487" y2="10.6672" gradientUnits="userSpaceOnUse">
<stop offset="0.22" stop-color="#FF0079"/>
<stop offset="0.89" stop-color="#592489"/>
</linearGradient>
<linearGradient id="paint1_linear_390_1646" x1="67.8941" y1="3.29228" x2="102.719" y2="39.3529" gradientUnits="userSpaceOnUse">
<stop offset="0.21" stop-color="#FF4B00"/>
<stop offset="0.68" stop-color="#FFAB00"/>
</linearGradient>
<clipPath id="clip0_390_1646">
<rect width="282.191" height="50" fill="white" transform="translate(1.11041)"/>
</clipPath>
</defs>
</svg>
