<svg width="76" height="28" viewBox="0 0 76 28" fill="none" xmlns="http://www.w3.org/2000/svg">
<g id="Group 1597883528">
<path id="Vector" d="M17.7671 5.17843C15.5195 2.40835 13.2604 0.656532 13.1652 0.585355C12.1857 -0.169989 10.8008 -0.207756 9.76788 0.550493C9.66978 0.62167 7.32988 2.35606 4.99574 5.06949C1.68352 8.91593 0 12.758 0 16.4897C0 22.8215 4.96545 28 11.2711 28C17.5767 28 22.5349 23.006 22.5349 16.8427C22.5349 13.0021 20.9293 9.07862 17.7671 5.18279V5.17988V5.17843ZM11.2711 25.1471C6.52346 25.1471 2.83328 21.228 2.83328 16.4897C2.83328 9.20064 11.4413 2.85284 11.4413 2.85284C11.4413 2.85284 14.6309 5.30481 17.0458 8.99582C13.6543 7.58682 9.9583 8.17511 7.35296 10.5588C5.07076 12.6418 4.21673 15.6995 5.14866 18.5291C7.33565 25.1515 16.978 23.7309 17.4137 17.6227C17.6344 14.5098 15.0016 13.0631 12.6141 13.6209C9.91647 14.2542 9.1692 17.0998 11.4846 18.0469C11.4947 15.608 14.641 15.4947 14.641 17.6155C14.641 19.0797 13.1176 19.9716 11.7947 20.1125C7.8218 20.5337 6.10078 15.5528 9.2572 12.6622C12.8868 9.35171 19.416 11.4783 19.6988 16.9211C19.9238 21.2513 15.961 25.1471 11.2667 25.1471H11.2696H11.2711Z" fill="url(#paint0_linear_2508_473)"/>
<path id="Union" fill-rule="evenodd" clip-rule="evenodd" d="M52.0793 21.44V21.0048H52.0777C52.0777 19.8222 51.1315 18.8647 49.9629 18.8647H45.5273L51.9462 8.61931L52.0874 8.40415C52.709 7.45484 52.0371 6.18689 50.9107 6.18689H43.5066C42.5653 6.18689 41.8009 6.96047 41.8009 7.91307V8.76056C41.8009 8.9675 41.9664 9.13338 42.1693 9.13338H48.0656L41.6467 19.3558C40.9326 20.3905 41.6629 21.8112 42.911 21.8112H51.7125C51.9154 21.8112 52.0793 21.6453 52.0793 21.44ZM39.9306 21.1253V13.3286C39.9306 12.0245 38.8749 10.9664 37.5737 10.9664C37.3808 10.9664 37.2249 11.1227 37.2249 11.316V12.2071C36.4701 11.2619 35.3372 10.6725 33.8061 10.6725C31.017 10.6725 28.7095 13.0889 28.7095 16.2214C28.7095 19.354 31.017 21.7719 33.8061 21.7719C35.3372 21.7719 36.4701 21.1841 37.2249 20.2374V21.1269C37.2249 21.3202 37.3823 21.478 37.5753 21.478H39.5787C39.7732 21.478 39.9306 21.3202 39.9306 21.1253ZM34.3092 13.2575C35.987 13.2575 37.2249 14.4548 37.2249 16.2214C37.2249 17.9865 35.9654 19.1854 34.3092 19.1854C32.6531 19.1854 31.4152 17.9865 31.4152 16.2214C31.4152 14.4564 32.6315 13.2575 34.3092 13.2575ZM58.4319 19.3138C59.0879 19.3138 59.6605 19.1421 60.1112 18.8637C60.6314 18.5434 61.2905 18.5589 61.8199 18.8637L62.6225 19.3277C62.8062 19.4345 62.8556 19.6805 62.7228 19.846C61.7304 21.0758 60.2471 21.7735 58.3902 21.7735C54.8665 21.7735 52.6423 19.3556 52.6423 16.223C52.6423 13.0904 54.8865 10.6725 58.1803 10.6725C61.2843 10.6725 63.4868 13.1322 63.4868 16.223C63.4868 16.5107 63.4652 16.7768 63.4297 17.0367C63.4066 17.2084 63.2584 17.3368 63.084 17.3368H55.4746C55.8527 18.7244 57.0057 19.3123 58.4319 19.3123V19.3138ZM60.7811 15.236C60.4462 13.7231 59.3132 13.1121 58.1803 13.1121C56.7325 13.1121 55.7478 13.8902 55.4329 15.236H60.7811ZM75.1704 21.4797V15.377C75.1704 12.5816 73.4293 11.0254 71.2067 11.0254C69.8006 11.0254 68.7109 11.5498 68.0812 12.4965V11.672C68.0812 11.4771 67.9237 11.3193 67.7292 11.3193H67.0655C66.1317 11.3193 65.3754 12.0773 65.3754 13.0132V21.4766C65.3754 21.6716 65.5329 21.8294 65.7273 21.8294H66.3879C67.3233 21.8294 68.0812 21.0698 68.0812 20.1323V16.1536C68.0812 14.325 69.0674 13.5469 70.3887 13.5469C71.6049 13.5469 72.4647 14.2833 72.4647 15.7127V21.4797C72.4647 21.6731 72.6205 21.8309 72.815 21.8309H74.82C75.013 21.8309 75.1704 21.6731 75.1704 21.4797Z" fill="#EAFF29"/>
</g>
<defs>
<linearGradient id="paint0_linear_2508_473" x1="2.65117" y1="3.32152" x2="22.5901" y2="27.9553" gradientUnits="userSpaceOnUse">
<stop stop-color="#EAFF29"/>
<stop offset="0.516197" stop-color="#DCFF30"/>
<stop offset="1" stop-color="#A9FF28"/>
</linearGradient>
</defs>
</svg>
