<svg width="24" height="24" viewBox="0 0 24 24" fill="none" xmlns="http://www.w3.org/2000/svg">
<rect width="24" height="24" rx="4" fill="#999999"/>
<path d="M13.3569 12.0175C13.3569 14.8627 11.0662 17.1692 8.24057 17.1692C5.41494 17.1692 3.12402 14.8627 3.12402 12.0175C3.12402 9.17235 5.41477 6.86572 8.24057 6.86572C11.0664 6.86572 13.3569 9.17235 13.3569 12.0175Z" fill="#151516"/>
<path d="M18.9701 12.0175C18.9701 14.6956 17.8247 16.8675 16.4118 16.8675C14.9989 16.8675 13.8535 14.6956 13.8535 12.0175C13.8535 9.33939 14.9987 7.16748 16.4116 7.16748C17.8245 7.16748 18.9699 9.33869 18.9699 12.0175" fill="#151516"/>
<path d="M21.2651 12.0172C21.2651 14.4162 20.8624 16.3621 20.3654 16.3621C19.8684 16.3621 19.4658 14.4167 19.4658 12.0172C19.4658 9.61776 19.8686 7.67236 20.3654 7.67236C20.8622 7.67236 21.2651 9.61759 21.2651 12.0172Z" fill="#151516"/>
</svg>
