<svg width="24" height="24" viewBox="0 0 24 24" fill="none" xmlns="http://www.w3.org/2000/svg">
<rect width="24" height="24" rx="4" fill="#999999"/>
<path d="M19.4654 5.1236C19.4654 5.1236 21.1306 4.5176 20.9918 5.98931C20.9455 6.59532 20.5293 8.71632 20.2055 11.0105L19.0954 17.8064C19.0954 17.8064 19.0029 18.8019 18.1703 18.9751C17.3377 19.1482 16.0889 18.3691 15.8576 18.1959C15.6726 18.0661 12.3886 16.1182 11.2323 15.1659C10.9085 14.9062 10.5384 14.3868 11.2785 13.7808L16.1352 9.4522C16.6902 8.93276 17.2453 7.72076 14.9326 9.19248L8.45705 13.3046C8.45705 13.3046 7.71699 13.7375 6.3294 13.3479L3.32289 12.4822C3.32289 12.4822 2.2128 11.8329 4.10921 11.1836C8.73459 9.14916 14.4238 7.07144 19.4654 5.1236Z" fill="#151516"/>
</svg>
