<svg width="24" height="24" viewBox="0 0 24 24" fill="none" xmlns="http://www.w3.org/2000/svg">
<rect width="24" height="24" rx="4" fill="#999999"/>
<path d="M13.8277 13.501C12.9254 14.224 12.3624 14.5827 11.8007 14.5827C11.2614 14.5827 10.7167 14.2467 9.87435 13.5903L4.86035 18.0027H18.9807L13.885 13.458C13.8664 13.4717 13.8454 13.4887 13.8277 13.501Z" fill="#151516"/>
<path d="M7.88133 12.0477C6.691 11.1297 5.318 10.0674 4 9.02539V17.3431C4 17.3697 4.01267 17.3921 4.01533 17.4167L9.07033 12.9681C8.704 12.6821 8.311 12.3797 7.88133 12.0477Z" fill="#151516"/>
<path d="M19.961 17.5364C19.9813 17.476 20.0003 17.4127 20.0003 17.343V8.67236C18.418 9.90303 16.128 11.6867 14.6816 12.828L19.961 17.5364Z" fill="#151516"/>
<path d="M19 6.00391H5C4.635 6.00391 4 6.63957 4 7.00391V7.79191C5.47467 8.96591 7.07633 10.2016 8.43333 11.2482C9.18167 11.8259 9.85233 12.3449 10.3817 12.7582C11.8083 13.8772 11.8083 13.8772 13.2647 12.7129C14.5817 11.6602 18.125 8.90291 20 7.44457V7.00491C20 6.63857 19.3653 6.00391 19 6.00391Z" fill="#151516"/>
</svg>
