<svg width="24" height="24" viewBox="0 0 24 24" fill="none" xmlns="http://www.w3.org/2000/svg">
<rect width="24" height="24" rx="4" fill="#999999"/>
<path d="M5.04667 8.99778H8.04889V18.9767H5.04667V8.99778ZM6.55556 5C6.143 5 5.74733 5.16389 5.45561 5.45561C5.16389 5.74734 5 6.143 5 6.55556C5.0219 6.95311 5.1954 7.32713 5.48479 7.6006C5.77417 7.87407 6.1574 8.02616 6.55556 8.02556C6.95371 8.02616 7.33694 7.87407 7.62632 7.6006C7.91571 7.32713 8.08921 6.95311 8.11111 6.55556C8.11111 6.143 7.94722 5.74734 7.6555 5.45561C7.36378 5.16389 6.96811 5 6.55556 5ZM18.0278 10.32C17.7235 9.96911 17.3414 9.69423 16.9119 9.51732C16.4825 9.34041 16.0176 9.26637 15.5544 9.30111C14.9558 9.2872 14.3647 9.43614 13.8441 9.73203C13.3236 10.0279 12.8932 10.4597 12.5989 10.9811H12.5522V8.99778H10.0322C10.0789 10.0167 10.0322 18.9767 10.0322 18.9767H13.0344V12.7778C13.1033 12.4369 13.2933 12.1325 13.5693 11.9209C13.8452 11.7093 14.1885 11.6047 14.5356 11.6267C15.5078 11.6267 15.99 12.3344 15.99 13.7033V19H19V13.3222C19.0603 12.2354 18.7137 11.1651 18.0278 10.32Z" fill="#151516"/>
</svg>
