<svg width="144" height="31" viewBox="0 0 144 31" fill="none" xmlns="http://www.w3.org/2000/svg">
<g id="Group 1597883598">
<path id="Union" fill-rule="evenodd" clip-rule="evenodd" d="M14.6495 0.648072C14.7554 0.726875 17.2692 2.66639 19.7702 5.73326V5.73487V5.73809C23.2889 10.0513 25.0756 14.3951 25.0756 18.6473C25.0756 25.4709 19.5583 31 12.5418 31C5.52526 31 0 25.2667 0 18.2565C0 14.125 1.87332 9.87121 5.55897 5.61265C8.15626 2.60849 10.76 0.688277 10.8691 0.609475C12.0185 -0.230016 13.5595 -0.188202 14.6495 0.648072ZM3.1527 18.2565C3.1527 23.5017 7.25768 27.8401 12.5394 27.8415C17.7618 27.8401 22.17 23.5275 21.9196 18.7341C21.605 12.7081 14.3397 10.3537 10.3009 14.0188C6.78859 17.2192 8.70365 22.7338 13.1245 22.2674C14.5965 22.1114 16.2916 21.1239 16.2916 19.5028C16.2916 17.1548 12.7906 17.2803 12.7794 19.9805C10.2029 18.9319 11.0345 15.7814 14.0363 15.0802C16.693 14.4627 19.6225 16.0645 19.3769 19.5109C18.8921 26.2734 8.16268 27.8463 5.72912 20.5144C4.69213 17.3816 5.64244 13.9963 8.18194 11.6901C11.081 9.05102 15.1937 8.39969 18.9676 9.95966C16.2804 5.87318 12.7312 3.1585 12.7312 3.1585C12.7312 3.1585 3.1527 10.1864 3.1527 18.2565Z" fill="#EAFF29"/>
<g id="ZenHive">
<path id="Vector" d="M131.023 20.4282C131.59 22.5058 133.321 23.3873 135.462 23.3873C136.067 23.3873 136.626 23.2895 137.124 23.1173C138.37 22.6861 139.844 22.3075 140.986 22.9665L142.002 23.5527C142.142 23.6331 142.183 23.8159 142.087 23.9449C140.599 25.9353 138.305 27.0704 135.399 27.0704C130.11 27.0704 126.773 23.4502 126.773 18.7598C126.773 14.0694 130.142 10.4492 135.084 10.4492C139.743 10.4492 143.048 14.1323 143.048 18.7598C143.048 19.273 143.002 19.7399 142.929 20.2002C142.908 20.3323 142.793 20.4282 142.66 20.4282H131.023ZM130.96 17.2803H138.987C138.484 15.0137 136.784 14.1008 135.084 14.1008C132.912 14.1008 131.432 15.2656 130.96 17.2803Z" fill="#EAFF29"/>
<path id="Vector_2" d="M121.22 12.6468C121.587 11.5952 122.579 10.8906 123.692 10.8906H125.504C125.889 10.8906 126.156 11.2768 126.019 11.6375L120.456 26.275C120.375 26.4889 120.17 26.6303 119.941 26.6303H116.074C115.845 26.6303 115.64 26.4889 115.559 26.275L109.997 11.6375C109.86 11.2768 110.126 10.8906 110.512 10.8906H112.318C113.434 10.8906 114.428 11.5982 114.792 12.6531L117.992 21.9084L121.22 12.6468Z" fill="#EAFF29"/>
<path id="Vector_3" d="M105.713 9.00133C104.36 9.00133 103.227 7.86807 103.227 6.51445C103.227 5.16083 104.36 3.99609 105.713 3.99609C107.099 3.99609 108.232 5.16083 108.232 6.51445C108.232 7.86807 107.099 9.00133 105.713 9.00133ZM104.25 26.6298C103.945 26.6298 103.699 26.3831 103.699 26.0787V13.5079C103.699 12.0621 104.871 10.8901 106.317 10.8901H107.208C107.513 10.8901 107.76 11.1368 107.76 11.4412V24.012C107.76 25.4578 106.588 26.6298 105.142 26.6298H104.25Z" fill="#EAFF29"/>
<path id="Vector_4" d="M95.48 7.21153C95.48 5.76577 96.652 4.59375 98.0978 4.59375H99.2416C99.5459 4.59375 99.7927 4.84049 99.7927 5.14486V24.0116C99.7927 25.4573 98.6207 26.6294 97.1749 26.6294H96.0311C95.7267 26.6294 95.48 26.3826 95.48 26.0782V17.5003H87.2953V26.0782C87.2953 26.3826 87.0486 26.6294 86.7442 26.6294H85.5689C84.1232 26.6294 82.9512 25.4573 82.9512 24.0116V5.14486C82.9512 4.84049 83.1979 4.59375 83.5023 4.59375H84.6776C86.1233 4.59375 87.2953 5.76577 87.2953 7.21153V13.345H95.48V7.21153Z" fill="#EAFF29"/>
<path id="Vector_5" d="M73.345 10.4492C76.6819 10.4492 79.2946 12.7787 79.2946 16.9655V26.0785C79.2946 26.3829 79.0479 26.6296 78.7435 26.6296H75.7849C75.4805 26.6296 75.2338 26.3829 75.2338 26.0785V17.4691C75.2338 15.3285 73.9431 14.2267 72.1173 14.2267C70.1341 14.2267 68.6546 15.3915 68.6546 18.1302V24.0119C68.6546 25.4576 67.4826 26.6296 66.0368 26.6296H65.1449C64.8405 26.6296 64.5938 26.3829 64.5938 26.0785V13.5077C64.5938 12.062 65.7658 10.8899 67.2115 10.8899H68.1035C68.4079 10.8899 68.6546 11.1367 68.6546 11.441V12.6528C69.599 11.2362 71.2359 10.4492 73.345 10.4492Z" fill="#EAFF29"/>
<path id="Vector_6" d="M49.7341 20.4282C50.3007 22.5058 52.0321 23.3873 54.1727 23.3873C54.7779 23.3873 55.3366 23.2895 55.8345 23.1173C57.0808 22.6861 58.555 22.3075 59.6973 22.9665L60.7133 23.5527C60.8528 23.6331 60.8941 23.8159 60.7977 23.9449C59.3102 25.9353 57.0156 27.0704 54.1097 27.0704C48.8212 27.0704 45.4844 23.4502 45.4844 18.7598C45.4844 14.0694 48.8527 10.4492 53.7949 10.4492C58.4539 10.4492 61.7592 14.1323 61.7592 18.7598C61.7592 19.273 61.7129 19.7399 61.6401 20.2002C61.6192 20.3323 61.5044 20.4282 61.3707 20.4282H49.7341ZM49.6711 17.2803H57.6984C57.1947 15.0137 55.4948 14.1008 53.7949 14.1008C51.6229 14.1008 50.1433 15.2656 49.6711 17.2803Z" fill="#EAFF29"/>
<path id="Vector_7" d="M34.888 22.4741H41.6197C43.0654 22.4741 44.2374 23.6461 44.2374 25.0918V26.0782C44.2374 26.3826 43.9907 26.6294 43.6863 26.6294H32.0303C30.5487 26.6294 29.3477 25.4283 29.3477 23.9468C29.3477 23.4372 29.4928 22.9382 29.766 22.5081L38.5082 8.74904H30.1191C29.8148 8.74904 29.568 8.5023 29.568 8.19793V7.21153C29.568 5.76577 30.74 4.59375 32.1858 4.59375H42.0152C43.1382 4.59375 44.0486 5.5041 44.0486 6.62708C44.0486 7.54018 43.789 8.43448 43.3 9.20566L34.888 22.4741Z" fill="#EAFF29"/>
</g>
</g>
</svg>
