<svg width="130" height="50" viewBox="0 0 130 50" fill="none" xmlns="http://www.w3.org/2000/svg">
<mask id="mask0_390_3576" style="mask-type:alpha" maskUnits="userSpaceOnUse" x="0" y="0" width="130" height="50">
<rect width="130" height="50" fill="#D9D9D9"/>
</mask>
<g mask="url(#mask0_390_3576)">
<path d="M73.3033 5.87969L74.7253 8.77184L77.9066 9.22976C79.1117 9.42257 79.4612 10.2902 78.5333 11.194L76.2195 13.4716L76.7618 16.665C76.9787 17.87 76.2195 18.4605 75.0988 17.87L72.2428 16.3758L69.3869 17.87C68.1818 18.4726 67.507 17.9303 67.7239 16.665L68.2661 13.4716L65.9524 11.2181C65.0245 10.3143 65.3258 9.44667 66.5791 9.25386L69.7604 8.79594L71.1824 5.9038C71.809 4.69873 72.7369 4.69873 73.3033 5.9038" fill="#FAB418"/>
<path d="M81.0038 39.6077H82.5462C83.8598 39.6077 84.643 40.2705 84.643 41.3792C84.643 42.4878 83.7513 43.2591 82.4257 43.2591H81.6304V45.9343H81.0038V39.6077ZM82.5342 40.1621H81.6304V42.6927H82.4498C83.4018 42.6927 84.0044 42.2589 84.0044 41.3792C84.0044 40.4995 83.4862 40.1621 82.5462 40.1621H82.5342ZM88.4149 45.9343L88.3064 45.3559C87.9067 45.7775 87.3567 46.0243 86.776 46.0428C86.6098 46.0561 86.4427 46.0348 86.2852 45.9803C86.1277 45.9257 85.9832 45.8391 85.8609 45.7258C85.7385 45.6125 85.6411 45.4751 85.5746 45.3223C85.5081 45.1694 85.474 45.0044 85.4745 44.8377C85.4745 43.8375 86.294 43.3434 88.2823 43.1506V42.8855C88.295 42.7658 88.2799 42.6448 88.2382 42.5318C88.1965 42.4189 88.1293 42.3171 88.0419 42.2344C87.9544 42.1516 87.8491 42.0901 87.7341 42.0546C87.619 42.0192 87.4974 42.0107 87.3785 42.0299C86.8589 42.0523 86.3498 42.1837 85.8842 42.4155L85.7999 41.8733C86.3017 41.6352 86.8475 41.5039 87.4026 41.4876C88.3546 41.4876 88.8728 41.9215 88.8728 42.8253V45.9343H88.4149ZM88.2823 43.6447C86.5591 43.8014 86.1012 44.2352 86.1012 44.8498C86.0987 44.9501 86.1179 45.0498 86.1574 45.1421C86.1969 45.2343 86.2558 45.317 86.3301 45.3845C86.4044 45.4519 86.4924 45.5026 86.5881 45.533C86.6837 45.5634 86.7848 45.5729 86.8845 45.5607C87.4242 45.5238 87.931 45.2876 88.3064 44.898V43.5965L88.2823 43.6447ZM90.8973 43.2109V45.9343H90.2948V41.5961H90.7527L90.8973 42.4999C91.0529 42.2217 91.2755 41.9868 91.5448 41.8164C91.8142 41.6459 92.1218 41.5454 92.4398 41.5238L92.5482 42.0902C92.1984 42.1137 91.8611 42.2299 91.571 42.4269C91.2808 42.6238 91.0483 42.8944 90.8973 43.2109ZM94.8138 46.0066C94.1269 46.0066 93.693 45.7415 93.693 44.9462V42.1143H93.0182V41.5961H93.693V40.1018L94.2956 39.9934V41.5961H95.3078L95.3801 42.1143H94.2956V44.8016C94.2956 45.2354 94.4643 45.4282 94.9463 45.4282C95.0826 45.4414 95.2198 45.4414 95.356 45.4282L95.4404 45.9464C95.235 45.9938 95.0244 46.014 94.8138 46.0066ZM100.309 46.0066C99.2002 46.0066 98.3807 45.1872 98.3807 43.7411C98.3428 43.4633 98.3647 43.1805 98.4452 42.9119C98.5256 42.6433 98.6626 42.395 98.8469 42.1837C99.0313 41.9724 99.2588 41.8031 99.5141 41.6871C99.7693 41.571 100.046 41.511 100.327 41.511C100.607 41.511 100.884 41.571 101.14 41.6871C101.395 41.8031 101.622 41.9724 101.807 42.1837C101.991 42.395 102.128 42.6433 102.209 42.9119C102.289 43.1805 102.311 43.4633 102.273 43.7411C102.309 44.0218 102.285 44.3069 102.203 44.5777C102.121 44.8485 101.983 45.099 101.797 45.3127C101.612 45.5265 101.383 45.6988 101.127 45.8184C100.871 45.938 100.592 46.0021 100.309 46.0066ZM100.309 41.9697C99.4894 41.9697 98.9833 42.6204 98.9833 43.717C98.9833 44.8136 99.5255 45.4523 100.309 45.4523C101.092 45.4523 101.671 44.8016 101.671 43.717C101.671 42.6324 101.128 42.0058 100.309 42.0058V41.9697ZM104.972 39.909C104.563 39.909 104.31 40.1018 104.31 40.5959V41.5961H105.213L105.298 42.1143H104.31V46.0066H103.719V42.1143H103.032V41.5961H103.695V40.5597C103.673 40.3963 103.689 40.2301 103.742 40.074C103.795 39.9178 103.883 39.7759 104 39.6594C104.116 39.5428 104.258 39.4547 104.414 39.4018C104.57 39.349 104.737 39.3329 104.9 39.3547C104.999 39.3332 105.102 39.3332 105.201 39.3547L105.286 39.9211C105.184 39.8925 105.076 39.8884 104.972 39.909ZM112.179 43.8857H109.431L108.648 45.9343H107.985L110.492 39.5595H111.142L113.625 45.85L112.998 45.9825L112.179 43.8857ZM109.624 43.3193H111.962L110.757 40.2946L109.624 43.3193ZM118.939 46.0066H118.385L117.3 42.3914L116.288 46.0066H115.77L114.324 41.6563L114.926 41.5479L116.047 45.1631L117.131 41.5479H117.674L118.758 45.1631L119.831 41.5479H120.457L118.939 46.0066ZM121.771 40.5597C121.713 40.5631 121.654 40.5543 121.599 40.5338C121.544 40.5134 121.494 40.4818 121.453 40.441C121.411 40.4002 121.378 40.3511 121.356 40.2968C121.334 40.2426 121.323 40.1844 121.325 40.1259C121.342 40.0218 121.396 39.9271 121.477 39.8588C121.557 39.7906 121.659 39.7531 121.765 39.7531C121.871 39.7531 121.973 39.7906 122.053 39.8588C122.134 39.9271 122.187 40.0218 122.205 40.1259C122.206 40.1833 122.196 40.2405 122.175 40.2939C122.154 40.3473 122.122 40.3958 122.081 40.4364C122.041 40.477 121.992 40.5089 121.939 40.5301C121.886 40.5513 121.828 40.5614 121.771 40.5597ZM121.47 45.9343V41.5961H122.06V45.9343H121.47ZM126.398 45.9343V42.9337C126.398 42.3673 126.145 42.0299 125.579 42.0299C125.022 42.089 124.51 42.3663 124.157 42.8012V45.9343H123.518V41.5961H123.976L124.085 42.2589C124.499 41.8373 125.05 41.5768 125.639 41.5238C125.816 41.5086 125.994 41.5327 126.16 41.5943C126.327 41.6559 126.478 41.7536 126.602 41.8802C126.726 42.0068 126.821 42.1594 126.88 42.3269C126.938 42.4944 126.959 42.6728 126.941 42.8494V46.0066H126.35L126.398 45.9343ZM8.53143 35.3418C6.82147 35.4366 5.12778 34.9666 3.71119 34.0042C3.20602 33.5794 2.79347 33.0554 2.49912 32.4646C2.20477 31.8738 2.03489 31.2289 2 30.5698V30.3288H3.38582C3.59338 30.3325 3.79403 30.404 3.95719 30.5324C4.12036 30.6608 4.23709 30.8389 4.28961 31.0398C4.37305 31.3868 4.53035 31.7118 4.75079 31.9926C4.97123 32.2733 5.24962 32.5032 5.56698 32.6666C6.50986 33.1446 7.55956 33.3728 8.61578 33.3294C11.2308 33.3294 12.5081 32.5581 12.5081 30.9193C12.517 30.6786 12.4614 30.44 12.347 30.2281C12.2325 30.0162 12.0635 29.8387 11.8574 29.7142C11.302 29.3471 10.6919 29.0705 10.0498 28.8948C9.31472 28.6778 8.50732 28.4609 7.63968 28.2681C6.81497 28.0886 6.00828 27.8345 5.22956 27.5089C4.51888 27.2279 3.86547 26.8196 3.30147 26.3039C3.02634 26.0133 2.81212 25.6707 2.67139 25.2961C2.53066 24.9215 2.46628 24.5226 2.48203 24.1227C2.46979 23.5261 2.59621 22.9347 2.85132 22.3952C3.10643 21.8557 3.48328 21.3828 3.9522 21.0137C5.2057 20.1307 6.7245 19.7053 8.25426 19.8086C9.83408 19.7523 11.3858 20.2369 12.6527 21.1824C13.1296 21.5569 13.5182 22.0317 13.791 22.5731C14.0638 23.1146 14.2141 23.7095 14.2314 24.3155V24.5686H12.7853C12.5991 24.5675 12.4184 24.5057 12.2705 24.3927C12.1226 24.2796 12.0157 24.1213 11.9659 23.942C11.8168 23.4767 11.5421 23.0617 11.1721 22.7427C10.8021 22.4238 10.3512 22.2132 9.86904 22.1344C9.27524 21.9782 8.66339 21.9012 8.0494 21.9054C7.42923 21.8912 6.8108 21.9766 6.21771 22.1585C5.81633 22.2771 5.44043 22.4692 5.10905 22.7248C4.88448 22.9141 4.71401 23.1594 4.61498 23.4358C4.52799 23.7169 4.48331 24.0093 4.48242 24.3035C4.48478 24.4473 4.51707 24.5892 4.57724 24.7199C4.6374 24.8506 4.72413 24.9673 4.83189 25.0627C5.1349 25.3556 5.49623 25.5815 5.89234 25.7255C6.40404 25.9303 6.93213 26.0915 7.47097 26.2075L9.32677 26.6774C9.9534 26.8341 10.5318 27.0028 11.2067 27.2197C11.7936 27.405 12.353 27.6685 12.8696 28.003C13.3834 28.2968 13.8101 28.7214 14.1065 29.2336C14.4028 29.7459 14.5582 30.3275 14.5567 30.9193C14.588 31.5705 14.4542 32.2191 14.1677 32.8048C13.8812 33.3905 13.4512 33.8943 12.9178 34.2693C11.5989 35.0649 10.0686 35.439 8.53143 35.3418ZM27.5352 35.1611H26.2579C26.0351 35.158 25.8224 35.0681 25.6648 34.9106C25.5073 34.753 25.4174 34.5403 25.4143 34.3175V28.5091C25.4548 27.674 25.1746 26.8549 24.631 26.2195C24.3655 25.9395 24.0432 25.7194 23.6858 25.574C23.3283 25.4285 22.9439 25.361 22.5583 25.376C22.1508 25.3612 21.7447 25.4306 21.3652 25.5799C20.9858 25.7291 20.6412 25.9551 20.3531 26.2436C20.054 26.5383 19.8193 26.8917 19.6637 27.2817C19.5082 27.6716 19.4351 28.0896 19.4493 28.5091V35.1611H17.3284V19.1699H19.4493V24.9422C19.783 24.5877 20.1594 24.276 20.57 24.0143C21.1955 23.6139 21.9241 23.4045 22.6668 23.4117C23.344 23.3959 24.0183 23.5062 24.6551 23.7371C25.2158 23.9467 25.7194 24.2852 26.1253 24.7252C26.6087 25.2137 26.9865 25.7962 27.2353 26.4368C27.484 27.0774 27.5984 27.7622 27.5714 28.4489V35.1611H27.5352ZM35.6212 35.3418C34.8544 35.3634 34.092 35.2184 33.3867 34.9167C32.6815 34.615 32.05 34.1639 31.536 33.5945C30.5544 32.4082 30.0173 30.9166 30.0173 29.3768C30.0173 27.837 30.5544 26.3454 31.536 25.1591C32.0676 24.5825 32.7176 24.1278 33.4415 23.8262C34.1654 23.5246 34.946 23.3832 35.7296 23.4117C36.4075 23.3871 37.0825 23.5113 37.7071 23.7757C38.3317 24.0401 38.8907 24.4383 39.3448 24.9422V23.5804H41.4657V35.1611H39.3569V33.7873C38.8887 34.3076 38.3106 34.7171 37.6644 34.986C37.0182 35.2549 36.3202 35.3764 35.6212 35.3418ZM35.8381 25.4001C35.3251 25.3872 34.8156 25.4886 34.3466 25.6971C33.8776 25.9055 33.4609 26.2157 33.1267 26.6051C32.4538 27.3823 32.1007 28.3857 32.1386 29.4129C32.1084 30.4302 32.466 31.421 33.1388 32.1846C33.4682 32.5735 33.8806 32.8836 34.3456 33.0921C34.8107 33.3007 35.3165 33.4023 35.826 33.3896C36.3348 33.4095 36.8412 33.311 37.3054 33.1019C37.7697 32.8928 38.179 32.5788 38.5013 32.1846C39.119 31.3697 39.4534 30.3752 39.4534 29.3527C39.4534 28.3301 39.119 27.3356 38.5013 26.5208C38.1714 26.1443 37.7602 25.8478 37.2988 25.6537C36.8374 25.4595 36.3379 25.3728 35.8381 25.4001ZM46.9729 35.1611H44.8519V23.6045H46.9729V25.5206C47.4592 24.7783 48.1497 24.1925 48.9612 23.8335C49.5503 23.5635 50.1933 23.4316 50.8411 23.4479H51.2147V24.7614C51.2114 24.9661 51.1358 25.1631 51.0013 25.3175C50.8667 25.4719 50.6819 25.5737 50.4796 25.6049C50.0071 25.6435 49.5481 25.7815 49.1328 26.01C48.7174 26.2384 48.355 26.5521 48.0695 26.9305C47.3739 27.9313 47.0036 29.1221 47.009 30.3408V35.1611H46.9729ZM58.1076 35.3418C57.317 35.3686 56.5298 35.2267 55.7984 34.9254C55.0669 34.6241 54.4081 34.1704 53.8658 33.5945C53.3347 33.0312 52.9198 32.3688 52.6448 31.6451C52.3698 30.9214 52.2401 30.1506 52.2631 29.3768C52.2153 27.8291 52.7582 26.3212 53.7814 25.1591C54.3178 24.5888 54.9687 24.1383 55.6915 23.8371C56.4142 23.536 57.1924 23.391 57.9751 23.4117C58.759 23.3808 59.5404 23.521 60.2646 23.8228C60.9889 24.1246 61.6386 24.5806 62.1687 25.1591C63.2028 26.3155 63.7509 27.8263 63.6991 29.3768V30.3408H54.4322C54.5616 31.1521 54.9556 31.8977 55.5529 32.4617C55.8891 32.7822 56.2865 33.0317 56.7213 33.1953C57.1561 33.3588 57.6194 33.4331 58.0835 33.4137C58.6479 33.4492 59.2114 33.3313 59.7142 33.0725C60.2171 32.8137 60.6405 32.4236 60.9395 31.9436C61.0145 31.8233 61.1195 31.7245 61.2441 31.6569C61.3687 31.5893 61.5087 31.5552 61.6505 31.5579H63.446L63.3376 31.8833C62.9606 32.893 62.2993 33.772 61.4336 34.4139C60.4611 35.0891 59.2891 35.4161 58.1076 35.3418ZM54.4924 28.2561H61.4938C61.3593 27.5001 60.9728 26.812 60.3972 26.3039C59.7264 25.7278 58.8714 25.4111 57.9871 25.4111C57.1029 25.4111 56.2478 25.7278 55.577 26.3039C55.0243 26.8283 54.6457 27.5097 54.4924 28.2561ZM79.8951 35.1611H78.0996C77.9313 35.1598 77.767 35.1103 77.626 35.0185C77.485 34.9266 77.3734 34.7963 77.3042 34.6429L75.7256 30.9072H68.7603L67.1817 34.6429C67.1126 34.7963 67.0009 34.9266 66.8599 35.0185C66.719 35.1103 66.5546 35.1598 66.3864 35.1611H64.5908L70.6884 20.8088C70.7915 20.5753 70.9603 20.3768 71.1743 20.2377C71.3883 20.0986 71.6383 20.0249 71.8935 20.0255H72.5442C72.8005 20.0201 73.0525 20.0919 73.2674 20.2316C73.4823 20.3713 73.6502 20.5724 73.7493 20.8088L79.8951 35.1611ZM69.628 28.9309H74.9062L72.2671 22.6043L69.628 28.9309ZM87.6798 35.3418C85.9697 35.4384 84.2754 34.9682 82.8596 34.0042C82.3511 33.5823 81.9362 33.059 81.6416 32.4676C81.3469 31.8762 81.1789 31.2298 81.1484 30.5698V30.3288H82.5342C82.7428 30.3284 82.9455 30.3984 83.1095 30.5274C83.2735 30.6564 83.3892 30.8369 83.438 31.0398C83.5236 31.3859 83.6817 31.7099 83.9019 31.9904C84.1222 32.2708 84.3994 32.5013 84.7153 32.6666C85.6582 33.1446 86.7079 33.3728 87.7642 33.3294C90.3791 33.3294 91.6565 32.5581 91.6565 30.9193C91.6654 30.6786 91.6098 30.44 91.4953 30.2281C91.3809 30.0162 91.2119 29.8387 91.0058 29.7142C90.4564 29.3442 89.8497 29.0674 89.2102 28.8948C88.4751 28.6778 87.6557 28.4609 86.8001 28.2681C85.9752 28.0893 85.1684 27.8352 84.39 27.5089C83.6756 27.228 83.0182 26.8197 82.4498 26.3039C82.1769 26.0123 81.9649 25.6692 81.8262 25.2947C81.6876 24.9202 81.6251 24.5217 81.6424 24.1227C81.6274 23.5256 81.7525 22.9333 82.0079 22.3934C82.2632 21.8534 82.6416 21.3809 83.1126 21.0137C84.3653 20.1289 85.8847 19.7033 87.4147 19.8086C89.0112 19.7229 90.5877 20.1959 91.8734 21.1462C92.3438 21.5305 92.7238 22.0137 92.9862 22.5615C93.2486 23.1093 93.3871 23.7081 93.3918 24.3155V24.5686H91.9457C91.7611 24.5669 91.5821 24.5047 91.4363 24.3915C91.2905 24.2783 91.1858 24.1204 91.1383 23.942C90.9881 23.4774 90.713 23.0631 90.3432 22.7443C89.9734 22.4255 89.5231 22.2145 89.0415 22.1344C88.4431 21.9823 87.8272 21.9094 87.2098 21.9175C86.5936 21.9039 85.9793 21.9894 85.3902 22.1705C84.9852 22.2893 84.6054 22.4813 84.2695 22.7369C84.048 22.9264 83.8815 23.172 83.7874 23.4479C83.6965 23.7283 83.6478 24.0207 83.6428 24.3155C83.6452 24.4606 83.6787 24.6035 83.741 24.7344C83.8034 24.8654 83.8932 24.9815 84.0044 25.0747C84.3055 25.37 84.6674 25.5962 85.0648 25.7375C85.5753 25.9457 86.1037 26.1071 86.6434 26.2195C87.246 26.3641 87.8485 26.5208 88.4872 26.6895C89.1259 26.8582 89.6922 27.0149 90.3671 27.2318C90.955 27.4145 91.5147 27.6781 92.0301 28.0151C92.5463 28.3059 92.9751 28.7299 93.2719 29.2428C93.5686 29.7557 93.7223 30.3388 93.7171 30.9313C93.7476 31.5812 93.6146 32.2283 93.3304 32.8135C93.0462 33.3988 92.6199 33.9034 92.0903 34.2814C90.7647 35.0812 89.2242 35.4516 87.6798 35.3418ZM101.345 35.3418C100.578 35.3659 99.8149 35.2219 99.1093 34.9201C98.4036 34.6183 97.7725 34.1658 97.26 33.5945C96.2784 32.4082 95.7413 30.9166 95.7413 29.3768C95.7413 27.837 96.2784 26.3454 97.26 25.1591C97.7916 24.5825 98.4416 24.1278 99.1655 23.8262C99.8894 23.5246 100.67 23.3832 101.454 23.4117C102.131 23.3887 102.806 23.5137 103.43 23.778C104.054 24.0423 104.614 24.4396 105.069 24.9422V23.5804H107.19V35.1611H105.081V33.7873C104.613 34.3076 104.035 34.7171 103.388 34.986C102.742 35.2549 102.044 35.3764 101.345 35.3418ZM101.562 25.4001C101.048 25.3888 100.537 25.4909 100.066 25.6991C99.5954 25.9074 99.1764 26.2167 98.8387 26.6051C98.1743 27.3865 97.8261 28.388 97.8626 29.4129C97.8214 30.4386 98.1701 31.4418 98.8387 32.2207C99.1705 32.6099 99.585 32.9201 100.052 33.1285C100.519 33.337 101.027 33.4386 101.538 33.4258C102.045 33.4475 102.551 33.3498 103.013 33.1405C103.476 32.9312 103.883 32.6161 104.201 32.2207C104.819 31.4059 105.153 30.4114 105.153 29.3888C105.153 28.3663 104.819 27.3718 104.201 26.5569C103.878 26.1758 103.473 25.8735 103.016 25.673C102.558 25.4725 102.061 25.3791 101.562 25.4001ZM112.673 35.1611H110.552V19.1699H112.673V35.1611ZM121.253 35.3418C120.46 35.3688 119.671 35.227 118.938 34.9257C118.204 34.6245 117.544 34.1707 116.999 33.5945C116.468 33.0312 116.053 32.3688 115.778 31.6451C115.503 30.9214 115.373 30.1506 115.396 29.3768C115.348 27.8291 115.891 26.3212 116.915 25.1591C117.451 24.5888 118.102 24.1383 118.825 23.8371C119.547 23.536 120.325 23.391 121.108 23.4117C121.892 23.3808 122.673 23.521 123.398 23.8228C124.122 24.1246 124.772 24.5806 125.302 25.1591C126.336 26.3155 126.884 27.8263 126.832 29.3768V30.3408H117.577C117.703 31.1508 118.092 31.8966 118.686 32.4617C119.375 33.0944 120.282 33.4357 121.217 33.4137C121.783 33.4502 122.348 33.3327 122.853 33.0739C123.358 32.8151 123.784 32.4245 124.085 31.9436C124.156 31.8225 124.258 31.7229 124.381 31.655C124.504 31.5872 124.643 31.5537 124.784 31.5579H126.579L126.471 31.8833C126.094 32.893 125.432 33.772 124.567 34.4139C123.599 35.0891 122.431 35.4162 121.253 35.3418ZM117.638 28.2561H124.639C124.505 27.5001 124.118 26.812 123.542 26.3039C122.872 25.7278 122.017 25.4111 121.132 25.4111C120.248 25.4111 119.393 25.7278 118.722 26.3039C118.174 26.8336 117.793 27.5122 117.626 28.2561H117.638Z" fill="white"/>
</g>
</svg>
