<svg width="260" height="50" viewBox="0 0 260 50" fill="none" xmlns="http://www.w3.org/2000/svg">
<mask id="mask0_390_3589" style="mask-type:alpha" maskUnits="userSpaceOnUse" x="0" y="0" width="260" height="50">
<rect width="260" height="50" fill="#D9D9D9"/>
</mask>
<g mask="url(#mask0_390_3589)">
</g>
<g clip-path="url(#clip0_390_3589)">
<path d="M53.2396 16.2799C53.1396 16.0599 52.9196 15.9199 52.6796 15.9199H50.6296C50.3896 15.9199 50.1796 16.0499 50.0796 16.2699L40.8996 35.4899C40.8096 35.6799 40.8196 35.8999 40.9296 36.0799C41.0396 36.2599 41.2396 36.3699 41.4496 36.3699H44.7096C44.9496 36.3699 45.1596 36.2399 45.2596 36.0199L47.5196 31.2799H55.3896L57.4796 35.9999C57.5796 36.2199 57.7996 36.3599 58.0396 36.3599H61.3196C61.5296 36.3599 61.7196 36.2499 61.8296 36.0799C61.9396 35.8999 61.9596 35.6799 61.8696 35.4999L53.2396 16.2799ZM53.6996 27.4099H49.3096L51.5796 22.6399L53.6996 27.4099Z" fill="white"/>
<path d="M78.5904 15.8999H65.0504C64.7104 15.8999 64.4404 16.1699 64.4404 16.5099V35.7499C64.4404 36.0899 64.7104 36.3599 65.0504 36.3599H68.0704C68.4104 36.3599 68.6804 36.0899 68.6804 35.7499V28.1299H75.8204C76.1604 28.1299 76.4304 27.8599 76.4304 27.5199V24.8799C76.4304 24.5399 76.1604 24.2699 75.8204 24.2699H68.6804V19.7899H78.5904C78.9304 19.7899 79.2004 19.5199 79.2004 19.1799V16.5099C79.2004 16.1699 78.9304 15.8999 78.5904 15.8999Z" fill="white"/>
<path d="M95.9996 15.8999H82.4596C82.1196 15.8999 81.8496 16.1699 81.8496 16.5099V35.7499C81.8496 36.0899 82.1196 36.3599 82.4596 36.3599H85.4796C85.8196 36.3599 86.0896 36.0899 86.0896 35.7499V28.1299H93.2296C93.5696 28.1299 93.8396 27.8599 93.8396 27.5199V24.8799C93.8396 24.5399 93.5696 24.2699 93.2296 24.2699H86.0896V19.7899H95.9996C96.3396 19.7899 96.6096 19.5199 96.6096 19.1799V16.5099C96.6096 16.1699 96.3396 15.8999 95.9996 15.8999Z" fill="white"/>
<path d="M102.88 15.8501H99.86C99.52 15.8501 99.25 16.1201 99.25 16.4601V35.6901C99.25 36.0301 99.52 36.3001 99.86 36.3001H102.88C103.22 36.3001 103.49 36.0301 103.49 35.6901V16.4701C103.49 16.1301 103.22 15.8601 102.88 15.8601V15.8501Z" fill="white"/>
<path d="M120.38 32.3899H111.11V16.5299C111.11 16.1899 110.84 15.9199 110.5 15.9199H107.48C107.14 15.9199 106.87 16.1899 106.87 16.5299V35.6599C106.87 35.9999 107.14 36.2699 107.48 36.2699H120.38C120.72 36.2699 120.99 35.9999 120.99 35.6599V32.9899C120.99 32.6499 120.72 32.3799 120.38 32.3799V32.3899Z" fill="white"/>
<path d="M127.47 15.8501H124.45C124.11 15.8501 123.84 16.1201 123.84 16.4601V35.6901C123.84 36.0301 124.11 36.3001 124.45 36.3001H127.47C127.81 36.3001 128.08 36.0301 128.08 35.6901V16.4701C128.08 16.1301 127.81 15.8601 127.47 15.8601V15.8501Z" fill="white"/>
<path d="M143.07 16.2799C142.97 16.0599 142.75 15.9199 142.51 15.9199H140.46C140.22 15.9199 140.01 16.0499 139.91 16.2699L130.73 35.4899C130.64 35.6799 130.65 35.8999 130.76 36.0799C130.87 36.2599 131.07 36.3699 131.28 36.3699H134.54C134.78 36.3699 134.99 36.2399 135.09 36.0199L137.34 31.2799H145.21L147.3 35.9999C147.4 36.2199 147.62 36.3599 147.86 36.3599H151.14C151.35 36.3599 151.54 36.2499 151.65 36.0799C151.76 35.8999 151.78 35.6799 151.69 35.4999L143.06 16.2799H143.07ZM143.53 27.4099H139.14L141.41 22.6399L143.53 27.4099Z" fill="white"/>
<path d="M164.69 15.9199H149.24C148.9 15.9199 148.63 16.1899 148.63 16.5299V19.1999C148.63 19.5399 148.9 19.8099 149.24 19.8099H155.21V35.6599C155.21 35.9999 155.48 36.2699 155.82 36.2699H158.86C159.2 36.2699 159.47 35.9999 159.47 35.6599V19.8099H164.69C165.03 19.8099 165.3 19.5399 165.3 19.1999V16.5299C165.3 16.1899 165.03 15.9199 164.69 15.9199Z" fill="white"/>
<path d="M182.15 15.9702H168.61C168.27 15.9702 168 16.2402 168 16.5802V35.7102C168 36.0502 168.27 36.3202 168.61 36.3202H182.15C182.49 36.3202 182.76 36.0502 182.76 35.7102V33.0402C182.76 32.7002 182.49 32.4302 182.15 32.4302H172.24V28.1702H179.91C180.25 28.1702 180.52 27.9002 180.52 27.5602V24.9202C180.52 24.5802 180.25 24.3102 179.91 24.3102H172.24V19.8302H182.15C182.49 19.8302 182.76 19.5602 182.76 19.2202V16.5802C182.76 16.2402 182.49 15.9702 182.15 15.9702Z" fill="white"/>
<path d="M187.06 36.3201C188.35 36.3201 189.39 35.2601 189.39 33.9501C189.39 32.6401 188.35 31.5801 187.06 31.5801C185.77 31.5801 184.73 32.6401 184.73 33.9501C184.73 35.2601 185.77 36.3201 187.06 36.3201Z" fill="white"/>
<path d="M200.33 17.78C203.21 17.78 205.93 19.41 207.42 22.04C207.53 22.23 207.73 22.35 207.95 22.35H208.94C209.16 22.35 209.35 22.24 209.47 22.05C209.58 21.86 209.58 21.63 209.48 21.45C207.66 18.12 204.07 15.96 200.34 15.96C194.74 15.96 190.01 20.63 190.01 26.15C190.01 31.67 194.64 36.24 200.34 36.24C204.16 36.24 207.66 34.18 209.48 30.87C209.59 30.68 209.58 30.45 209.48 30.26C209.37 30.07 209.17 29.96 208.95 29.96H207.96C207.74 29.96 207.54 30.08 207.43 30.27C205.93 32.86 203.22 34.47 200.34 34.47C195.83 34.47 192.16 30.74 192.16 26.15C192.16 21.56 195.83 17.78 200.34 17.78H200.33Z" fill="white"/>
<path d="M222.76 16.0098C217.16 16.0098 212.43 20.6498 212.43 26.1498C212.43 31.6498 217.16 36.2898 222.76 36.2898C228.36 36.2898 233.09 31.6498 233.09 26.1498C233.09 20.6498 228.36 16.0098 222.76 16.0098ZM222.76 34.5198C218.25 34.5198 214.58 30.7698 214.58 26.1498C214.58 21.5298 218.33 17.7298 222.76 17.7298C227.19 17.7298 230.94 21.5898 230.94 26.1498C230.94 30.7098 227.2 34.5198 222.76 34.5198Z" fill="white"/>
<path d="M256.81 16.16C256.69 16.05 256.52 15.98 256.37 15.98L255.48 16C255.27 16 255.08 16.11 254.97 16.29L246.68 29.57L238.23 16.25C238.12 16.07 237.92 15.96 237.71 15.96H236.83C236.49 15.96 236.22 16.23 236.22 16.57V35.71C236.22 36.05 236.49 36.32 236.83 36.32H237.76C238.1 36.32 238.37 36.05 238.37 35.71V20.22L245.75 31.94C245.86 32.12 246.06 32.23 246.27 32.23H247.13C247.34 32.23 247.54 32.12 247.65 31.94L254.8 20.28V35.72C254.8 36.06 255.07 36.33 255.41 36.33H256.37C256.71 36.33 256.98 36.06 256.98 35.72V16.59C256.98 16.43 256.91 16.27 256.8 16.15L256.81 16.16Z" fill="white"/>
<path d="M32.17 9H4.04C2.92 9 2 9.92 2 11.04V39.17C2 40.29 2.92 41.21 4.04 41.21H32.17C33.29 41.21 34.21 40.29 34.21 39.17V11.04C34.21 9.92 33.29 9 32.17 9ZM21.44 35.15C20.2 35.93 18.78 36.35 17.32 36.35C14.65 36.35 12.21 35.01 10.79 32.76C9.69 31.02 9.33 28.95 9.78 26.94C10.23 24.93 11.44 23.21 13.18 22.11C14.41 21.33 15.83 20.92 17.29 20.92C18.89 20.92 20.49 21.43 21.79 22.36C21.85 22.4 21.88 22.48 21.86 22.55C21.64 23.24 21.18 23.84 20.57 24.22C20.08 24.53 19.51 24.69 18.93 24.69C18.7 24.69 18.47 24.67 18.23 24.61C17.93 24.54 17.62 24.51 17.31 24.51C16.53 24.51 15.77 24.73 15.11 25.15C13.19 26.36 12.62 28.92 13.83 30.83C14.59 32.03 15.89 32.75 17.31 32.75C18.09 32.75 18.85 32.53 19.51 32.11C20.26 31.63 20.83 30.93 21.14 30.08C21.16 30.03 21.2 29.99 21.25 29.97C22.07 29.74 22.84 29.4 23.54 28.96C23.94 28.7 24.34 28.4 24.71 28.07C24.74 28.04 24.78 28.03 24.82 28.03C24.84 28.03 24.86 28.03 24.89 28.04C24.95 28.06 24.99 28.12 25 28.19C25.16 30.99 23.79 33.66 21.43 35.16L21.44 35.15ZM26.43 23.28C25.98 25.29 24.77 27.01 23.03 28.11C21.8 28.89 20.38 29.3 18.92 29.3C17.33 29.3 15.73 28.79 14.43 27.87C14.37 27.83 14.34 27.75 14.36 27.68C14.58 26.98 15.04 26.38 15.64 26C16.13 25.69 16.71 25.52 17.29 25.52C17.5 25.52 17.72 25.54 17.93 25.59C18.24 25.67 18.57 25.7 18.9 25.7C19.67 25.7 20.43 25.48 21.09 25.06C23.01 23.85 23.58 21.29 22.37 19.38C21.61 18.18 20.31 17.46 18.89 17.46C18.11 17.46 17.35 17.68 16.69 18.1C15.94 18.58 15.37 19.28 15.06 20.13C15.04 20.18 15 20.22 14.95 20.24C14.13 20.47 13.36 20.81 12.65 21.26C12.24 21.52 11.85 21.82 11.48 22.15C11.45 22.18 11.41 22.19 11.37 22.19C11.35 22.19 11.33 22.19 11.3 22.18C11.24 22.16 11.2 22.1 11.19 22.03C11.03 19.23 12.4 16.56 14.76 15.06C16 14.28 17.42 13.86 18.88 13.86C21.55 13.86 23.99 15.2 25.41 17.45C26.51 19.19 26.87 21.26 26.42 23.27L26.43 23.28Z" fill="white"/>
</g>
<defs>
<clipPath id="clip0_390_3589">
<rect width="255" height="32.21" fill="white" transform="translate(2 9)"/>
</clipPath>
</defs>
</svg>
