<svg width="260" height="50" viewBox="0 0 260 50" fill="none" xmlns="http://www.w3.org/2000/svg">
<mask id="mask0_390_3548" style="mask-type:alpha" maskUnits="userSpaceOnUse" x="0" y="0" width="260" height="50">
<rect width="260" height="50" fill="#D9D9D9"/>
</mask>
<g mask="url(#mask0_390_3548)">
</g>
<g clip-path="url(#clip0_390_3548)">
<path fill-rule="evenodd" clip-rule="evenodd" d="M78.5694 34.5365C77.7976 33.5074 73.4922 34.0391 71.5711 34.2964C70.9879 34.365 70.885 33.8333 71.4168 33.4388C74.8473 30.9002 80.4734 31.6377 81.1252 32.4782C81.777 33.3358 80.9536 39.2707 77.7289 42.1009C77.2315 42.5468 76.7684 42.3067 76.9914 41.7235C77.7118 39.8196 79.3413 35.5657 78.5694 34.5365Z" fill="white"/>
<path fill-rule="evenodd" clip-rule="evenodd" d="M75.7564 37.7786C69.753 42.4784 61.0223 44.9827 53.5265 44.9827C43.012 44.9827 33.5437 40.8661 26.3739 33.9879C25.8079 33.4561 26.3053 32.7186 26.9914 33.1302C34.7272 37.8987 44.2813 40.7803 54.1612 40.7803C60.8164 40.7803 68.1406 39.3052 74.8816 36.2863C75.8936 35.8403 76.7512 36.9896 75.7564 37.7786Z" fill="white"/>
<path fill-rule="evenodd" clip-rule="evenodd" d="M70.4562 14.8969V12.3583C70.4562 11.9638 70.7478 11.7065 71.108 11.7065H82.8747C83.2521 11.7065 83.5437 11.9638 83.5437 12.3412V14.5367C83.5437 14.8969 83.2178 15.3772 82.6517 16.1319L76.5625 24.571C78.8267 24.5196 81.2109 24.8455 83.2692 25.9776C83.7323 26.2348 83.8524 26.5951 83.8867 26.9724V29.6825C83.8867 30.0599 83.4579 30.4887 83.0119 30.2657C79.3927 28.4304 74.59 28.2246 70.5934 30.2829C70.1817 30.4887 69.7529 30.0599 69.7529 29.6825V27.1096C69.7529 26.698 69.7529 25.9947 70.1817 25.3601L77.2486 15.5316H71.108C70.7306 15.5316 70.439 15.2743 70.439 14.8969" fill="white"/>
<path fill-rule="evenodd" clip-rule="evenodd" d="M32.7375 31.6894H29.3069C28.981 31.6722 28.7238 31.4149 28.6895 31.089V12.7529C28.6895 12.3926 28.981 12.1011 29.3584 12.1011H32.5488C32.8747 12.1011 33.1491 12.3755 33.1663 12.7185V15.1028H33.2349C34.0582 12.7872 35.6363 11.7065 37.7461 11.7065C39.8558 11.7065 41.2452 12.7872 42.2058 15.1028C43.0291 12.7872 44.933 11.7065 46.9399 11.7065C48.3807 11.7065 49.9588 12.324 50.9193 13.7134C51.9999 15.2571 51.7769 17.487 51.7769 19.4595V31.0204C51.7769 31.3806 51.4682 31.6722 51.108 31.6722H47.6774C47.3344 31.6551 47.06 31.3635 47.06 31.0204V21.312C47.06 20.5402 47.1286 18.6191 46.957 17.8815C46.6997 16.6465 45.9279 16.3035 44.933 16.3035C44.0925 16.3035 43.2349 16.8866 42.8747 17.8129C42.5145 18.7391 42.5488 20.2829 42.5488 21.312V31.0204C42.5488 31.3806 42.2572 31.6722 41.8798 31.6722H38.4493C38.1063 31.6551 37.8318 31.3635 37.8318 31.0204V21.312C37.8318 19.2709 38.1406 16.2692 35.722 16.2692C33.3035 16.2692 33.355 19.2023 33.355 21.312V31.0204C33.355 31.3806 33.0634 31.6722 32.686 31.6722" fill="white"/>
<path fill-rule="evenodd" clip-rule="evenodd" d="M92.1887 11.7236C96.8199 11.7236 99.3071 15.8917 99.3071 21.1747C99.3071 26.4578 96.5455 30.3514 92.1887 30.3514C87.8319 30.3514 85.1904 26.1833 85.1904 21.0032C85.1904 15.8231 87.6947 11.7236 92.1887 11.7236ZM92.3431 15.0512C89.9589 15.0512 89.8045 18.396 89.8045 20.4886C89.8045 22.5813 89.7702 27.041 92.3088 27.041C94.8474 27.041 94.9331 23.4389 94.9331 21.2434C94.9331 19.8025 94.8645 18.0701 94.4529 16.7151C94.0927 15.5315 93.3723 15.0512 92.3431 15.0512Z" fill="white"/>
<path fill-rule="evenodd" clip-rule="evenodd" d="M104.641 30.3514H101.211C100.868 30.3343 100.593 30.0598 100.593 29.7339V12.6327C100.61 12.324 100.902 12.0838 101.245 12.0838H104.435C104.727 12.0838 104.984 12.2897 105.053 12.5641V15.1713H105.122C106.082 12.8386 107.437 11.7236 109.804 11.7236C111.348 11.7236 112.857 12.2554 113.818 13.7305C114.71 15.1027 114.71 17.4012 114.71 19.0478V29.8025C114.676 30.1113 114.401 30.3514 114.058 30.3514H110.61C110.302 30.3343 110.044 30.1113 109.993 29.8025V20.5229C109.993 18.6533 110.216 15.926 107.849 15.926C107.008 15.926 106.236 16.4578 105.859 17.2982C105.379 18.3446 105.31 19.3909 105.31 20.5401V29.7511C105.31 30.0941 105.001 30.3686 104.641 30.3686" fill="white"/>
<path fill-rule="evenodd" clip-rule="evenodd" d="M21.5025 23.0959C21.5025 24.4167 21.5368 25.5144 20.8507 26.6808C20.3018 27.6242 19.427 28.2074 18.4665 28.2074C17.1457 28.2074 16.3739 27.2297 16.3739 25.7546C16.3739 22.8729 18.9982 22.3412 21.5025 22.3412V23.0788V23.0959ZM24.7444 31.3978C24.5385 31.6036 24.2298 31.6208 23.9896 31.4664C22.9262 30.5059 22.7203 30.0599 22.1372 29.1336C20.3704 31.089 19.1183 31.6722 16.837 31.6722C14.1269 31.6722 12.0171 29.8541 12.0171 26.2348C12.0171 23.3875 13.4408 21.4664 15.4476 20.523C17.1972 19.6997 19.6329 19.5453 21.5025 19.3223V18.8592C21.5025 18.0359 21.5711 17.041 21.108 16.3206C20.7135 15.6688 19.9588 15.4115 19.307 15.4115C18.072 15.4115 16.9742 16.0976 16.7169 17.5041C16.6655 17.8129 16.4425 18.1388 16.1509 18.1559L13.0291 17.7786C12.7547 17.71 12.4802 17.487 12.5488 17.0582C13.2692 12.9587 16.6826 11.7065 19.7529 11.7065C21.3138 11.7065 23.3721 12.1525 24.6071 13.439C26.168 15.0342 26.0308 17.1439 26.0308 19.4424V24.8798C26.0308 26.5264 26.6483 27.2297 27.2487 28.1216C27.4545 28.4475 27.5059 28.8077 27.2487 29.0479C26.5797 29.6482 25.4133 30.746 24.7787 31.3635L24.7444 31.3978Z" fill="white"/>
<path fill-rule="evenodd" clip-rule="evenodd" d="M62.5831 23.0959C62.5831 24.4167 62.6174 25.5144 61.9313 26.6808C61.3825 27.6242 60.5077 28.2074 59.5471 28.2074C58.2264 28.2074 57.4545 27.2297 57.4545 25.7546C57.4545 22.8729 60.096 22.3412 62.5831 22.3412V23.0788V23.0959ZM65.0703 31.4664C64.0068 30.5059 63.801 30.0599 63.2178 29.1336C61.4511 31.089 60.1989 31.6722 57.9005 31.6722C55.1903 31.6722 53.0806 29.8541 53.0806 26.2348C53.0806 23.3875 54.5042 21.4664 56.5111 20.523C58.2607 19.6997 60.6963 19.5453 62.5831 19.3223V18.8592C62.5831 18.0359 62.6346 17.041 62.1886 16.3206C61.7941 15.6688 61.0394 15.4115 60.3704 15.4115C59.1355 15.4115 58.0548 16.0976 57.7804 17.5041C57.7289 17.8129 57.506 18.1388 57.2144 18.1559L54.0926 17.7786C53.8353 17.71 53.5437 17.487 53.6123 17.0582C54.3327 12.9587 57.7461 11.7065 60.8164 11.7065C62.3773 11.7065 64.4356 12.1525 65.6706 13.439C67.2315 15.0342 67.0943 17.1439 67.0943 19.4424V24.8798C67.0943 26.5264 67.7289 27.2297 68.3121 28.1216C68.518 28.4475 68.5694 28.8077 68.3121 29.0479C67.6603 29.6482 66.4768 30.746 65.8421 31.3635C65.6192 31.5693 65.3104 31.5865 65.0703 31.4321V31.4664Z" fill="white"/>
<path fill-rule="evenodd" clip-rule="evenodd" d="M128.398 30.3516L127.9 28.379C126.288 29.9399 124.59 30.7289 122.789 30.7289C121.211 30.7289 119.907 30.2315 118.895 29.2538C117.883 28.2761 117.386 26.9382 117.386 25.2744C117.386 23.0102 118.346 21.415 120.267 20.4888C121.211 19.9914 122.617 19.6998 124.521 19.6312L127.763 19.5111V18.3962C127.763 17.1097 127.42 16.132 126.751 15.4802C126.082 14.8284 125.19 14.5025 124.092 14.5025C122.514 14.5025 120.953 14.9828 119.41 15.9605L118.398 14.0222C120.199 12.8215 122.188 12.2384 124.384 12.2384C126.237 12.2384 127.712 12.7358 128.792 13.7306C129.89 14.7255 130.439 16.2349 130.439 18.2418V24.331C130.439 27.4356 130.542 29.4425 130.765 30.3344H128.432L128.398 30.3516ZM127.746 21.6209L124.761 21.7409C123.389 21.7581 122.326 21.9982 121.554 22.4099C120.576 22.9759 120.079 23.885 120.079 25.1372C120.079 26.1149 120.37 26.9039 120.936 27.5042C121.52 28.1217 122.274 28.4133 123.235 28.4133C124.813 28.4133 126.322 27.6414 127.729 26.0977V21.6209H127.746ZM132.274 29.2366L133.132 27.1097C134.47 27.9845 135.893 28.4133 137.386 28.4133C138.449 28.4133 139.307 28.1732 139.993 27.7101C140.679 27.2469 141.022 26.5265 141.022 25.5831C141.022 24.8799 140.748 24.2967 140.199 23.8164C139.65 23.3361 138.981 22.9245 138.192 22.5986C137.42 22.2727 136.631 21.9125 135.876 21.5351C135.104 21.1577 134.453 20.5746 133.904 19.837C133.355 19.0823 133.08 18.1903 133.08 17.1097C133.08 15.7203 133.578 14.554 134.59 13.6449C135.602 12.7186 137.008 12.2555 138.844 12.2555C140.285 12.2555 141.691 12.53 143.063 13.0788V15.4974C141.64 14.8456 140.285 14.5197 138.964 14.5197C136.785 14.5197 135.688 15.343 135.688 16.9896C135.688 17.7101 135.962 18.3104 136.511 18.8078C137.06 19.2881 137.729 19.6998 138.518 20.0085C139.29 20.3173 140.079 20.6603 140.885 21.0548C141.674 21.4322 142.343 22.0154 142.909 22.7701C143.458 23.5248 143.732 24.4511 143.732 25.5488C143.732 27.2469 143.149 28.5334 141.965 29.4082C140.782 30.3001 139.273 30.7289 137.42 30.7289C135.568 30.7289 133.818 30.2315 132.309 29.2366H132.274ZM144.641 29.2366L145.499 27.1097C146.837 27.9845 148.261 28.4133 149.753 28.4133C150.816 28.4133 151.674 28.1732 152.36 27.7101C153.046 27.2469 153.389 26.5265 153.389 25.5831C153.389 24.8799 153.115 24.2967 152.566 23.8164C152.017 23.3361 151.348 22.9245 150.559 22.5986C149.787 22.2727 148.998 21.9125 148.243 21.5351C147.472 21.1577 146.82 20.5746 146.271 19.837C145.722 19.0823 145.447 18.1903 145.447 17.1097C145.447 15.7203 145.945 14.554 146.957 13.6449C147.969 12.7186 149.375 12.2555 151.211 12.2555C152.652 12.2555 154.058 12.53 155.43 13.0788V15.4974C154.007 14.8456 152.652 14.5197 151.331 14.5197C149.152 14.5197 148.055 15.343 148.055 16.9896C148.055 17.7101 148.329 18.3104 148.878 18.8078C149.427 19.2881 150.096 19.6998 150.885 20.0085C151.657 20.3173 152.446 20.6603 153.252 21.0548C154.041 21.4322 154.71 22.0154 155.276 22.7701C155.825 23.5248 156.099 24.4511 156.099 25.5488C156.099 27.2469 155.516 28.5334 154.333 29.4082C153.149 30.3001 151.64 30.7289 149.787 30.7289C147.935 30.7289 146.185 30.2315 144.676 29.2366H144.641ZM165.379 30.7289C163.046 30.7289 161.159 29.8541 159.701 28.1046C158.243 26.355 157.523 24.1595 157.523 21.5179C157.523 18.8764 158.243 16.6466 159.684 14.897C161.125 13.1474 163.029 12.2727 165.413 12.2727C167.797 12.2727 169.633 13.1646 171.091 14.9313C172.549 16.698 173.269 18.8936 173.269 21.5351C173.269 24.1766 172.549 26.3721 171.091 28.1217C169.633 29.8713 167.729 30.7461 165.379 30.7461V30.7289ZM165.379 28.379C166.94 28.379 168.175 27.7444 169.101 26.4751C170.027 25.2058 170.49 23.542 170.49 21.5179C170.49 19.4939 170.027 17.813 169.101 16.5265C168.175 15.2401 166.94 14.6054 165.413 14.6054C163.887 14.6054 162.6 15.2401 161.674 16.5094C160.731 17.7787 160.267 19.4425 160.267 21.5179C160.267 23.5934 160.731 25.2058 161.657 26.4751C162.583 27.7444 163.818 28.379 165.379 28.379ZM182.909 30.7289C180.387 30.7289 178.415 29.8713 176.991 28.156C175.568 26.4408 174.847 24.2795 174.847 21.6895C174.847 19.0994 175.619 16.7838 177.163 14.9656C178.706 13.1474 180.765 12.2384 183.303 12.2384C184.864 12.2384 186.288 12.5986 187.557 13.319V15.7375C186.305 14.9485 184.933 14.5368 183.458 14.5368C181.674 14.5368 180.25 15.1886 179.187 16.4751C178.123 17.7615 177.592 19.4425 177.592 21.4836C177.592 23.6449 178.089 25.343 179.101 26.5437C180.113 27.7444 181.485 28.3619 183.235 28.3619C184.573 28.3619 185.945 27.9673 187.334 27.1612L188.158 29.0994C186.614 30.1629 184.864 30.7118 182.892 30.7118L182.909 30.7289ZM190.164 30.3516V12.6843H192.789V30.3516H190.164ZM191.468 8.70491C190.936 8.70491 190.508 8.53339 190.182 8.19033C189.856 7.84728 189.701 7.40131 189.701 6.88673C189.701 6.37215 189.873 5.92618 190.199 5.56597C190.542 5.20577 190.953 5.01709 191.451 5.01709C191.948 5.01709 192.411 5.18862 192.755 5.53167C193.098 5.87472 193.252 6.32069 193.252 6.86958C193.252 7.41846 193.08 7.83013 192.755 8.17318C192.411 8.51623 191.983 8.68776 191.451 8.68776L191.468 8.70491ZM206.648 30.3516L206.151 28.379C204.538 29.9399 202.84 30.7289 201.039 30.7289C199.461 30.7289 198.158 30.2315 197.146 29.2538C196.134 28.2761 195.636 26.9382 195.636 25.2744C195.636 23.0102 196.597 21.415 198.518 20.4888C199.461 19.9914 200.868 19.6998 202.772 19.6312L206.014 19.5111V18.3962C206.014 17.1097 205.67 16.132 205.002 15.4802C204.333 14.8284 203.441 14.5025 202.343 14.5025C200.765 14.5025 199.204 14.9828 197.66 15.9605L196.648 14.0222C198.449 12.8215 200.439 12.2384 202.634 12.2384C204.487 12.2384 205.962 12.7358 207.043 13.7306C208.14 14.7255 208.689 16.2349 208.689 18.2418V24.331C208.689 27.4356 208.792 29.4425 209.015 30.3344H206.682L206.648 30.3516ZM205.996 21.6209L203.012 21.7409C201.64 21.7581 200.576 21.9982 199.804 22.4099C198.827 22.9759 198.329 23.885 198.329 25.1372C198.329 26.1149 198.621 26.9039 199.187 27.5042C199.77 28.1217 200.525 28.4133 201.485 28.4133C203.063 28.4133 204.573 27.6414 205.979 26.0977V21.6209H205.996ZM217.077 30.7289C215.859 30.7289 214.916 30.3687 214.247 29.6655C213.595 28.9622 213.252 27.9502 213.252 26.6294V14.9313H210.37V12.6843H213.252V8.68776L215.876 7.79582V12.6843H220.953L220.164 14.9313H215.876V26.1663C215.876 27.6414 216.459 28.3619 217.643 28.3619C218.586 28.3619 219.496 28.036 220.422 27.3842L221.365 29.3224C220.147 30.2487 218.706 30.7118 217.077 30.7118V30.7289ZM236.048 21.9982H224.984C225.002 23.8679 225.516 25.3944 226.511 26.6123C227.506 27.813 228.878 28.4305 230.628 28.4305C232.017 28.4305 233.423 28.036 234.847 27.2298L235.67 29.168C234.127 30.2143 232.326 30.7289 230.267 30.7289C227.677 30.7289 225.688 29.837 224.315 28.0531C222.943 26.2692 222.24 24.0222 222.24 21.3121C222.24 18.602 222.892 16.4408 224.178 14.7598C225.482 13.0788 227.163 12.2384 229.221 12.2384C231.279 12.2384 233.029 13.0445 234.23 14.6569C235.43 16.2692 236.031 18.4819 236.031 21.295V21.9639L236.048 21.9982ZM224.984 19.8713H233.269C233.218 18.3962 232.857 17.144 232.171 16.0806C231.485 15.0171 230.525 14.4854 229.273 14.4854C228.02 14.4854 226.974 14.9999 226.219 16.0291C225.465 17.0583 225.036 18.3447 225.002 19.8541L224.984 19.8713ZM237.146 29.2366L238.003 27.1097C239.341 27.9845 240.765 28.4133 242.257 28.4133C243.321 28.4133 244.178 28.1732 244.864 27.7101C245.55 27.2298 245.893 26.5265 245.893 25.5831C245.893 24.8799 245.619 24.2967 245.07 23.8164C244.521 23.3361 243.852 22.9245 243.063 22.5986C242.291 22.2727 241.502 21.9125 240.748 21.5351C239.993 21.1577 239.324 20.5746 238.775 19.837C238.226 19.0823 237.952 18.1903 237.952 17.1097C237.952 15.7203 238.449 14.554 239.461 13.6449C240.473 12.7186 241.88 12.2555 243.715 12.2555C245.156 12.2555 246.562 12.53 247.935 13.0788V15.4974C246.511 14.8456 245.156 14.5197 243.835 14.5197C241.657 14.5197 240.559 15.343 240.559 16.9896C240.559 17.7101 240.833 18.3104 241.382 18.8078C241.931 19.2881 242.6 19.6998 243.389 20.0085C244.161 20.3173 244.95 20.6603 245.756 21.0548C246.545 21.4322 247.214 22.0154 247.78 22.7701C248.329 23.5248 248.604 24.4511 248.604 25.5488C248.604 27.2469 248.02 28.5334 246.837 29.4082C245.653 30.3001 244.144 30.7289 242.291 30.7289C240.439 30.7289 238.689 30.2315 237.18 29.2366H237.146Z" fill="#FFA724"/>
</g>
<defs>
<clipPath id="clip0_390_3548">
<rect width="236.552" height="40" fill="white" transform="translate(12 5)"/>
</clipPath>
</defs>
</svg>
