<svg width="168" height="50" viewBox="0 0 168 50" fill="none" xmlns="http://www.w3.org/2000/svg">
<mask id="mask0_390_3563" style="mask-type:alpha" maskUnits="userSpaceOnUse" x="0" y="0" width="168" height="50">
<rect width="168" height="50" fill="#D9D9D9"/>
</mask>
<g mask="url(#mask0_390_3563)">
<path d="M38.4575 10.698C38.4575 10.5307 38.2902 10.3635 38.1229 10.3635C37.9557 10.3635 34.443 10.0289 34.443 10.0289L31.7667 7.35262C31.4322 7.01808 30.9304 7.18535 30.7631 7.18535C30.7631 7.18535 30.2613 7.35262 29.4249 7.51989C28.5886 5.17812 27.2504 3.00362 24.7414 3.00362H24.5741C23.905 2.33454 23.0687 2 22.2324 2C16.5452 2 13.7016 9.19258 12.8653 12.8725C10.6908 13.5416 9.01808 14.0434 8.85081 14.2107C7.67992 14.5452 7.51266 14.5452 7.34539 15.7161C7.34539 16.7197 4 41.9774 4 41.9774L29.5922 46.8282L43.4756 43.8173C43.3083 43.8173 38.4575 11.0325 38.4575 10.698ZM28.0868 8.18896C27.4177 8.35623 26.7486 8.5235 25.9123 8.85804V8.35623C25.9123 7.01808 25.745 5.84719 25.4105 4.84358C26.7486 5.01085 27.585 6.51627 28.0868 8.18896ZM23.905 5.17812C24.2396 6.01446 24.4069 7.35262 24.4069 9.02531V9.35985C23.0687 9.86166 21.5633 10.1962 19.8906 10.698C20.8942 7.35262 22.3996 5.84719 23.905 5.17812ZM22.0651 3.50542C22.3996 3.50542 22.5669 3.67269 22.7342 3.83996C21.0615 4.67631 19.0542 6.85081 18.2179 11.1998C17.047 11.7016 15.8761 12.0362 14.7052 12.3707C15.7088 9.02531 18.0506 3.50542 22.0651 3.50542Z" fill="#95BF47"/>
<path d="M38.1238 10.3627C37.9565 10.3627 34.4439 10.0281 34.4439 10.0281L31.7676 7.35184C31.6003 7.18457 31.6003 7.18457 31.433 7.18457L29.4258 46.6601L43.3091 43.6493C43.3091 43.6493 38.4583 10.8645 38.4583 10.53C38.4583 10.53 38.2911 10.3627 38.1238 10.3627Z" fill="#5E8E3E"/>
<path d="M24.9094 18.0584L23.2367 23.0765C23.2367 23.0765 21.7313 22.2402 19.8913 22.2402C17.215 22.2402 17.0478 23.9129 17.0478 24.4147C17.0478 26.7564 23.0695 27.5928 23.0695 33.1127C23.0695 37.4617 20.3932 40.138 16.7132 40.138C12.3642 40.138 10.0225 37.4617 10.0225 37.4617L11.1933 33.6145C11.1933 33.6145 13.5351 35.6217 15.3751 35.6217C16.7132 35.6217 17.215 34.6181 17.215 33.949C17.215 30.9382 12.197 30.7709 12.197 25.7528C12.197 21.5711 15.2078 17.5566 21.2295 17.5566C23.7385 17.3894 24.9094 18.0584 24.9094 18.0584Z" fill="white"/>
<path d="M59.5339 27.5931C58.1958 26.9241 57.5267 26.255 57.5267 25.4186C57.5267 24.2478 58.5303 23.5787 60.0357 23.5787C61.8757 23.5787 63.3811 24.2478 63.3811 24.2478L64.552 20.4006C64.552 20.4006 63.3811 19.5642 60.0357 19.5642C55.3522 19.5642 52.0068 22.2405 52.0068 26.0877C52.0068 28.2622 53.5122 29.9349 55.6867 31.1058C57.3594 32.1094 57.8612 32.7785 57.8612 33.7821C57.8612 34.7857 57.0249 35.6221 55.5195 35.6221C53.1777 35.6221 51.0032 34.4512 51.0032 34.4512L49.665 38.2984C49.665 38.2984 51.6723 39.6365 55.0177 39.6365C59.8685 39.6365 63.3811 37.2948 63.3811 32.9458C63.3811 30.4367 61.7084 28.764 59.5339 27.5931ZM78.9372 19.3969C76.5954 19.3969 74.5882 20.5678 73.25 22.2405L75.2572 11.368H69.9046L64.552 39.1347H69.9046L71.7446 29.6004C72.4137 25.9204 74.2536 23.7459 76.0936 23.7459C77.2645 23.7459 77.7663 24.5823 77.7663 25.7532C77.7663 26.4222 77.7663 27.4259 77.599 28.0949L75.5918 38.9674H80.9444L83.1189 27.7604C83.2862 26.5895 83.4534 25.0841 83.4534 24.2478C83.4534 21.2369 81.7807 19.3969 78.9372 19.3969ZM95.8314 19.3969C89.3079 19.3969 84.9589 25.2514 84.9589 31.9421C84.9589 36.1239 87.6352 39.6365 92.486 39.6365C98.8422 39.6365 103.191 33.9494 103.191 27.0913C103.191 23.0769 100.849 19.3969 95.8314 19.3969ZM93.1551 35.2875C91.3151 35.2875 90.4787 33.7821 90.4787 31.7749C90.4787 28.5968 92.1514 23.5787 94.995 23.5787C97.0022 23.5787 97.5041 25.2514 97.5041 26.9241C97.5041 30.2694 95.9986 35.2875 93.1551 35.2875ZM117.075 19.3969C113.395 19.3969 111.387 22.5751 111.387 22.5751L111.722 19.7315H106.871C106.704 21.7387 106.202 24.7496 105.7 26.9241L101.853 46.8291H107.206L108.711 38.8002H108.878C108.878 38.8002 110.049 39.4693 112.056 39.4693C118.413 39.4693 122.594 32.9457 122.594 26.255C122.594 22.7423 121.089 19.3969 117.075 19.3969ZM111.889 35.4548C110.551 35.4548 109.715 34.6184 109.715 34.6184L110.551 29.6004C111.22 26.255 112.893 23.9132 114.9 23.9132C116.573 23.9132 117.075 25.4186 117.075 26.9241C116.907 30.4367 114.9 35.4548 111.889 35.4548ZM130.456 11.5353C128.783 11.5353 127.278 12.8734 127.278 14.7134C127.278 16.3861 128.282 17.3897 129.787 17.3897C131.46 17.3897 132.965 16.2188 132.965 14.2116C133.132 12.7062 132.129 11.5353 130.456 11.5353ZM122.762 39.1347H128.282L131.962 19.8987H126.442L122.762 39.1347ZM145.845 19.7315H141.998L142.165 18.8951C142.499 17.0552 143.67 15.3825 145.51 15.3825C146.514 15.3825 147.183 15.717 147.183 15.717L148.187 11.368C148.187 11.368 147.183 10.8662 145.176 10.8662C143.169 10.8662 141.329 11.368 139.823 12.7062C137.983 14.2116 137.147 16.5534 136.645 18.8951L136.478 19.7315H133.969L133.132 23.9132H135.641L132.798 39.1347H138.15L140.994 23.9132H144.674L145.845 19.7315ZM158.892 19.8987C158.892 19.8987 155.546 28.4295 154.041 33.113C153.874 31.6076 152.703 19.8987 152.703 19.8987H147.016L150.361 37.6293C150.361 37.9638 150.361 38.2984 150.194 38.4656C149.525 39.6365 148.521 40.8074 147.183 41.811C146.179 42.4801 145.009 42.9819 144.172 43.3164L145.678 48C146.848 47.8327 149.023 46.8291 151.03 44.9891C153.539 42.6474 155.881 39.1347 158.223 34.1166L164.914 19.8987H158.892Z" fill="white"/>
</g>
</svg>
