<svg width="164" height="50" viewBox="0 0 164 50" fill="none" xmlns="http://www.w3.org/2000/svg">
<mask id="mask0_1023_906" style="mask-type:alpha" maskUnits="userSpaceOnUse" x="0" y="0" width="164" height="50">
<rect width="164" height="50" fill="#D9D9D9"/>
</mask>
<g mask="url(#mask0_1023_906)">
<path fill-rule="evenodd" clip-rule="evenodd" d="M110.694 28.1883L117.079 34.4223H111.65L106.748 29.6462V34.4223H102.525V14.4131H106.748V26.6549L111.021 22.4821H116.501L110.694 28.1883ZM85.3059 19.9935C86.6884 19.9935 87.8196 18.9126 87.8196 17.5552C87.8196 16.1978 86.6884 15.1169 85.3059 15.1169C83.9233 15.1169 82.7921 16.223 82.7921 17.5552C82.7921 18.9126 83.9233 19.9935 85.3059 19.9935ZM87.342 34.4223H83.1189V22.4821H87.342V34.4223ZM75.8543 34.4223L68.5897 26.2778V34.4223H64.1152V15.2175H68.5897V23.0603L75.3516 15.2175H80.7812L72.863 24.3171L82.0129 34.4223H75.8543ZM97.0952 31.4058C95.4864 31.4058 94.1793 30.0987 94.1793 28.4396C94.1793 26.8057 95.4864 25.4986 97.0952 25.4986C98.3521 25.4986 99.1564 26.0516 99.1564 26.0516L100.589 23.2362C100.589 23.2362 99.2067 22.1302 96.4919 22.1302C92.9476 22.1302 89.7049 24.9707 89.7049 28.4899C89.7049 31.984 92.9476 34.7742 96.4919 34.7742C99.2067 34.7742 100.589 33.6933 100.589 33.6933L99.1564 30.8277C99.1313 30.8528 98.3521 31.4058 97.0952 31.4058ZM126.229 25.7751L127.612 23.0854C127.612 23.0854 125.877 22.1553 123.514 22.1553C120.297 22.1553 118.16 23.563 118.16 26.0013C118.16 27.7861 119.392 28.6407 120.649 29.2692C121.101 29.4954 121.554 29.6713 121.931 29.797C122.76 30.0987 123.364 30.3249 123.364 30.9031C123.364 31.7075 122.66 31.7577 122.056 31.7577C120.699 31.7577 119.015 30.3752 119.015 30.3752L117.305 33.1906C117.305 33.1906 119.065 34.7993 122.031 34.7993C124.545 34.7993 127.838 34.2463 127.838 30.7271C127.838 28.2888 125.726 27.409 124.118 26.9063C124.017 26.8811 123.891 26.8308 123.791 26.8057C122.886 26.5292 122.207 26.3281 122.207 25.7751C122.207 25.2221 122.584 25.0461 123.514 25.0461C124.796 25.021 126.229 25.7751 126.229 25.7751ZM130.653 18.0328H134.876V22.4821H137.465V25.6243H134.876V29.42C134.876 30.526 135.153 31.079 135.832 31.079C136.385 31.079 136.887 30.702 136.887 30.702L137.943 34.0201C137.943 34.0201 136.586 34.7742 134.851 34.7742C131.483 34.7742 130.678 32.3359 130.678 30.1992V25.6243H128.919V22.4821H130.678V18.0328H130.653ZM144.755 22.1302C146.389 22.1302 147.772 22.6581 148.777 23.6133V22.4821H153V34.4223H148.827V33.0649H148.777C147.872 34.0452 146.439 34.7742 144.755 34.7742C141.186 34.7742 138.672 31.9588 138.672 28.4648C138.672 24.9707 141.186 22.1302 144.755 22.1302ZM146.012 31.255C147.646 31.255 148.853 30.0987 148.853 28.4648C148.853 26.8057 147.596 25.6494 146.012 25.6494C144.403 25.6494 143.146 26.8057 143.146 28.4648C143.146 30.0987 144.303 31.255 146.012 31.255Z" fill="white"/>
<path d="M29.0732 7.07324H47.1469C47.1469 11.975 45.513 16.4494 42.1697 19.7424C38.8265 23.0605 34.2012 25.0715 29.0732 25.0715V7.07324Z" fill="#2093FF"/>
<path d="M29.0736 25.0713H11C11 29.973 12.6339 34.4475 15.9772 37.7404C19.3204 41.0585 23.9456 43.0946 29.0736 43.0946V25.0713Z" fill="#FFB500"/>
<path d="M47.1217 25.0713H29.0732C29.0732 29.973 30.7072 34.4475 34.0504 37.7404C37.3936 41.0585 42.0189 43.0695 47.1469 43.0695V25.0713H47.1217Z" fill="#00D876"/>
<path fill-rule="evenodd" clip-rule="evenodd" d="M11 7.40687C11.1704 7.31114 11.3319 7.20153 11.4831 7.07959C16.3944 7.20218 20.8347 9.18956 24.0965 12.4026C25.6628 13.9455 26.854 15.7476 27.6777 17.7315H11V7.40687ZM11 25.0718H29.0736C29.0736 24.7228 29.0653 24.3759 29.0487 24.0316V25.0716H11V25.0718Z" fill="#FF0059"/>
</g>
</svg>
