<svg width="27" height="27" viewBox="0 0 27 27" fill="none" xmlns="http://www.w3.org/2000/svg">
<g id="Frame 1597883563">
<rect x="0.5" y="0.5" width="25.4567" height="25.4567" rx="4.5" stroke="white" stroke-opacity="0.1"/>
<path id="Vector" d="M12.0104 13.6496C12.7479 14.102 13.1055 14.3056 13.5301 14.3056C13.9546 14.3056 14.3345 14.0794 15.0497 13.6496L19.6979 10.935C19.9214 10.7767 20.0554 10.5731 20.0554 10.3469C20.0554 10.1207 19.899 9.82661 19.6979 9.69088L14.9826 6.97633C14.2452 6.5239 13.8876 6.32031 13.463 6.32031C13.0384 6.32031 12.6585 6.54653 11.9434 6.97633L7.94325 9.30632C7.94325 9.30632 7.87621 9.30632 7.87621 9.37418C6.49068 10.1885 5.61914 11.7494 5.61914 13.3555V13.5139C5.61914 15.1426 6.49068 16.613 7.87621 17.4952L7.94325 17.5631L10.4908 19.0335C11.9434 19.9157 12.7479 20.3681 13.5524 20.3681C14.3569 20.3681 15.072 19.9157 16.614 19.0335L19.2956 17.4952C20.0331 17.0428 20.3906 16.8392 20.6141 16.4546C20.8376 16.0927 20.8376 15.6403 20.8376 14.758V13.0614C20.8376 12.8352 20.6812 12.609 20.48 12.4733C20.2566 12.3149 20.0331 12.3149 19.832 12.4733L14.2675 15.7081C13.91 15.9343 13.6865 16.0022 13.5301 16.0022C13.3066 16.0022 13.1725 15.9343 12.7926 15.7081L9.08296 13.4912C8.79244 13.3329 8.7254 13.3329 8.63601 13.265C8.47958 13.265 8.27846 13.3329 8.18907 13.4912V14.1473C8.18907 14.3056 8.3455 14.4413 8.41254 14.5997C8.47958 14.758 8.56897 14.758 8.70305 14.8938L12.7032 17.2464C13.0608 17.4726 13.2842 17.5405 13.4407 17.5405C13.6641 17.5405 13.7982 17.4726 14.1781 17.2464L19.0498 14.3961C19.2062 14.3282 19.2733 14.2378 19.2733 14.3282C19.3403 14.3282 19.3403 14.3961 19.3403 14.5544V15.301C19.3403 15.5272 19.3403 15.595 19.2733 15.7534C19.2062 15.8212 19.1169 15.9117 18.9157 15.9796L14.9156 18.287C14.1781 18.7394 13.8206 18.943 13.396 18.943C12.9714 18.943 12.5915 18.7168 11.8764 18.287L8.09968 16.0701C7.36222 15.6176 6.93763 14.7354 6.93763 13.7853V13.0388C6.93763 12.5185 7.22814 12.0887 7.67508 11.7947C8.03264 11.5684 8.54662 11.5684 8.90418 11.7947L12.0104 13.6496Z" fill="white"/>
</g>
</svg>
