<svg width="27" height="27" viewBox="0 0 27 27" fill="none" xmlns="http://www.w3.org/2000/svg">
<g id="Frame 1597883440">
<rect x="0.533203" y="0.5" width="25.4567" height="25.4567" rx="4.5" stroke="white" stroke-opacity="0.1"/>
<path id="Vector" d="M7.80111 9.62936H10.4608V18.4741H7.80111V9.62936ZM9.13787 6.08594C8.77237 6.08594 8.42185 6.2312 8.1634 6.48977C7.90496 6.74834 7.75977 7.09903 7.75977 7.4647C7.77917 7.81707 7.93288 8.14859 8.18925 8.39097C8.44562 8.63336 8.78513 8.76817 9.13787 8.76764C9.4906 8.76817 9.83011 8.63336 10.0865 8.39097C10.3429 8.14859 10.4966 7.81707 10.516 7.4647C10.516 7.09903 10.3708 6.74834 10.1123 6.48977C9.85389 6.2312 9.50336 6.08594 9.13787 6.08594ZM19.3014 10.8013C19.0318 10.4903 18.6933 10.2467 18.3128 10.0899C17.9323 9.93306 17.5205 9.86743 17.1102 9.89822C16.5799 9.88589 16.0562 10.0179 15.595 10.2802C15.1338 10.5424 14.7525 10.9251 14.4918 11.3873H14.4505V9.62936H12.2179C12.2593 10.5325 12.2179 18.4741 12.2179 18.4741H14.8777V12.9798C14.9387 12.6776 15.107 12.4078 15.3515 12.2203C15.5959 12.0327 15.9001 11.94 16.2075 11.9595C17.0688 11.9595 17.4961 12.5868 17.4961 13.8001V18.4948H20.1627V13.4623C20.2161 12.4991 19.9091 11.5504 19.3014 10.8013Z" fill="white"/>
</g>
</svg>
