<svg width="27" height="27" viewBox="0 0 27 27" fill="none" xmlns="http://www.w3.org/2000/svg">
<g id="Frame 21293">
<rect x="0.56543" y="0.5" width="25.4567" height="25.4567" rx="4.5" stroke="white" stroke-opacity="0.1"/>
<g id="Symbol">
<path id="Vector" d="M14.1162 13.2625C14.1162 15.8021 12.0715 17.8608 9.54941 17.8608C7.02728 17.8608 4.98242 15.8021 4.98242 13.2625C4.98242 10.7229 7.02712 8.66406 9.54941 8.66406C12.0717 8.66406 14.1162 10.7229 14.1162 13.2625Z" fill="white"/>
<path id="Vector_2" d="M19.1266 13.2627C19.1266 15.6532 18.1042 17.5918 16.8431 17.5918C15.5819 17.5918 14.5596 15.6532 14.5596 13.2627C14.5596 10.8722 15.5818 8.93359 16.8429 8.93359C18.1041 8.93359 19.1264 10.8716 19.1264 13.2627" fill="white"/>
<path id="Vector_3" d="M21.1754 13.261C21.1754 15.4023 20.8159 17.1392 20.3723 17.1392C19.9287 17.1392 19.5693 15.4027 19.5693 13.261C19.5693 11.1193 19.9288 9.38281 20.3723 9.38281C20.8157 9.38281 21.1754 11.1191 21.1754 13.261Z" fill="white"/>
</g>
</g>
</svg>
