<svg width="27" height="27" viewBox="0 0 27 27" fill="none" xmlns="http://www.w3.org/2000/svg">
<g id="Frame 21292">
<rect x="0.516602" y="0.5" width="25.4567" height="25.4567" rx="4.5" stroke="white" stroke-opacity="0.1"/>
<path id="Vector" d="M18.1919 7.59347C18.1919 7.59347 19.5564 7.09688 19.4427 8.30288C19.4048 8.79948 19.0637 10.5375 18.7983 12.4175L17.8887 17.9864C17.8887 17.9864 17.8129 18.8022 17.1306 18.9441C16.4483 19.086 15.425 18.4475 15.2355 18.3056C15.0838 18.1992 12.3928 16.603 11.4452 15.8227C11.1799 15.6099 10.8766 15.1842 11.4831 14.6876L15.4629 11.1406C15.9177 10.7149 16.3726 9.72173 14.4774 10.9277L9.17102 14.2975C9.17102 14.2975 8.56458 14.6522 7.42751 14.3329L4.96382 13.6235C4.96382 13.6235 4.05415 13.0915 5.60816 12.5594C9.39846 10.8922 14.0605 9.18964 18.1919 7.59347Z" fill="white"/>
</g>
</svg>
