<svg width="133" height="37" viewBox="0 0 133 37" fill="none" xmlns="http://www.w3.org/2000/svg">
<g id="Mask group">
<mask id="mask0_1384_7158" style="mask-type:alpha" maskUnits="userSpaceOnUse" x="0" y="0" width="133" height="37">
<rect id="Rectangle 346247393" x="0.618591" width="131.641" height="36.8311" fill="#D9D9D9"/>
</mask>
<g mask="url(#mask0_1384_7158)">
<g id="Group 1597883386">
<g id="&#229;&#155;&#190;&#229;&#177;&#130; 2">
<g id="&#229;&#155;&#190;&#229;&#177;&#130; 1">
<path id="&#232;&#183;&#175;&#229;&#190;&#132; 1" fill-rule="evenodd" clip-rule="evenodd" d="M103.565 22.509C102.706 22.3306 103.215 22.0548 103.08 21.345C102.962 20.7163 102.392 20.0999 102.408 19.6375C102.457 18.3802 104.07 18.4735 105.051 18.8588C105.287 19.0048 105.487 19.2035 105.633 19.4388C106.081 20.0836 106.615 21.0246 105.918 21.7627C105.308 22.3752 104.44 22.6631 103.585 22.5415" fill="white"/>
<path id="&#232;&#183;&#175;&#229;&#190;&#132; 2" fill-rule="evenodd" clip-rule="evenodd" d="M93.8209 21.2037L93.7395 21.1672V20.8955C94.6353 20.3845 95.5027 19.8248 96.3374 19.2164C97.05 18.7418 97.5753 18.0321 97.8115 17.2128C96.142 17.7603 94.562 18.9568 92.8355 19.1028C92.1677 18.8757 91.5284 18.5837 90.9217 18.2268V18.1335C90.0055 17.5535 89.9241 16.7748 90.9217 16.4422C92.6726 16.8275 95.3194 15.5864 96.9604 14.9659C97.5712 14.7631 98.1494 14.4711 98.6747 14.0939C99.0616 11.8104 98.8091 9.51485 98.9435 7.32876C99.5258 5.74294 100.495 6.81773 101.476 7.61267C101.545 7.7384 101.769 7.88441 101.965 8.19265H102.063C102.478 8.85375 102.592 9.15794 101.945 9.77442C101.501 10.8817 101.301 12.07 101.362 13.2624C102.531 13.0921 103.276 12.0538 104.665 12.0295C105.039 12.5932 104.897 13.3517 104.343 13.7451C103.333 14.2277 102.238 14.6576 101.093 15.1727C100.849 16.4381 100.32 17.6306 99.5461 18.6607C99.2937 18.9446 99.0208 19.2123 98.7236 19.4516C98.0354 19.9302 97.2903 20.3196 96.5044 20.6156C95.6411 20.9198 94.7412 21.1145 93.825 21.1956" fill="white"/>
<path id="&#232;&#183;&#175;&#229;&#190;&#132; 3" fill-rule="evenodd" clip-rule="evenodd" d="M72.3651 25.1007C71.5466 24.6099 70.8544 23.9326 70.3413 23.1296C70.4187 22.9105 70.492 22.6875 70.5816 22.4806C72.5646 21.1057 74.4499 19.5929 76.2172 17.9503C76.7547 17.131 77.4469 16.2752 78.0251 15.4681C78.0536 15.4478 78.0903 15.4357 78.1229 15.4316C78.1229 15.4032 78.1229 15.3748 78.1229 15.3424C78.6196 14.9571 78.8273 14.8557 79.2508 15.4884C79.2874 16.0238 78.3305 16.5875 78.0333 17.0864C77.6587 18.0354 77.2352 18.9967 76.7506 19.9944C76.4534 20.3554 76.1887 20.7447 75.9688 21.1584C75.3376 21.7546 74.8246 22.4644 74.4581 23.2512C73.8758 23.6041 73.5826 24.687 72.8415 25.0642C72.6868 25.0723 72.528 25.0885 72.3732 25.1169" fill="white"/>
<path id="&#232;&#183;&#175;&#229;&#190;&#132; 4" fill-rule="evenodd" clip-rule="evenodd" d="M83.8531 18.3085C82.6518 18.2558 82.3139 17.4933 81.6583 16.7957C81.6583 16.4834 81.8293 16.2969 81.8578 16.0738C82.0288 16.0495 82.1958 15.9886 82.3424 15.8953C82.8432 15.8264 83.0264 15.8548 83.568 15.8183C84.2643 15.6601 86.0316 14.4474 86.6261 14.9706C86.7116 16.4226 85.1276 17.8786 83.8531 18.3085Z" fill="white"/>
<path id="&#232;&#183;&#175;&#229;&#190;&#132; 5" fill-rule="evenodd" clip-rule="evenodd" d="M74.6335 16.0191C74.1774 15.6176 74.0838 13.7681 74.0512 13.1881C74.3892 12.1579 75.4357 12.1174 76.303 12.7866C76.9993 13.6951 77.4717 14.0723 76.7387 15.1106C76.1727 15.6581 75.4194 15.9745 74.6335 15.9988" fill="white"/>
<path id="&#232;&#183;&#175;&#229;&#190;&#132; 6" fill-rule="evenodd" clip-rule="evenodd" d="M83.5544 15.1243C83.4322 14.5444 84.2059 13.3803 83.986 13.0721C83.6928 13.1127 83.4037 13.2222 83.0942 13.2424C82.3694 12.8936 81.5754 12.0176 81.8686 11.3403C82.3979 10.7603 82.1943 10.8941 83.0372 10.8414C83.8313 10.4885 84.6253 10.1438 85.4316 9.79905C86.7794 9.54759 87.3983 10.2857 87.4798 11.5998C87.1866 12.4191 86.7224 13.1613 86.1157 13.7859C85.4031 14.1753 84.7556 14.6052 84.1082 15.0311C83.9249 15.0432 83.7417 15.0757 83.5666 15.1243" fill="white"/>
<path id="&#232;&#183;&#175;&#229;&#190;&#132; 7" fill-rule="evenodd" clip-rule="evenodd" d="M76.1606 11.3276C75.8755 11.0761 75.9896 10.9423 76.1606 10.6868C76.1239 10.1352 75.7941 9.68498 75.7574 9.15772C75.9366 8.18027 75.7574 7.82741 76.5637 7.35693C77.1949 7.63679 79.3897 8.75214 78.8969 9.97699C78.1843 10.7273 77.2356 11.2019 76.2054 11.3235" fill="white"/>
<path id="&#232;&#183;&#175;&#229;&#190;&#132; 8" fill-rule="evenodd" clip-rule="evenodd" d="M47.7426 26.0366C46.4355 25.5377 45.2994 22.9623 46.8712 22.3296C46.9201 22.0943 47.0789 21.8996 47.2988 21.8064C47.2988 21.7739 47.2988 21.7415 47.2988 21.709C48.5652 20.4882 49.3918 18.801 50.4627 17.4382C50.7355 16.9272 50.8821 16.4324 51.4644 16.2742C51.7617 16.5297 51.6558 17.1178 51.5744 17.564C51.7047 17.6816 52.1566 17.5924 52.4254 17.5112C53.3049 16.7487 54.4573 16.0876 55.345 15.2927C55.3898 14.9033 55.4305 14.514 55.4957 14.1287C54.8767 14.2747 52.8652 14.7452 53.3497 13.6136C54.1031 13.3175 55.2513 12.6726 55.683 11.8696C55.8744 11.0463 55.7644 10.1256 56.1838 9.54561C57.0308 9.11163 58.0325 10.1743 58.2035 11.0868C58.5415 11.6668 59.6043 10.9408 58.285 12.7943C58.004 12.9971 58.0162 13.3743 58.0692 13.8245H58.3623C59.1319 13.2567 59.9301 12.7294 60.7567 12.2427C60.9033 11.1355 61.2372 10.0607 61.7502 9.06296C62.5728 8.48298 63.6885 9.10758 64.4866 9.7484C65.0689 9.68756 65.6186 9.44016 66.0502 9.04674C66.2538 8.98185 66.4697 8.96157 66.6814 8.98185C66.8524 9.2982 66.942 9.65106 66.9379 10.012C66.547 11.2207 63.0696 11.6181 63.7414 13.0214C64.3237 12.9809 64.5517 12.3238 64.7798 11.8574C65.4557 11.4965 66.9257 11.9345 67.6342 12.4374C68.4283 13.3946 67.8134 13.7231 66.9379 14.3274C66.8443 14.4572 66.7588 14.5911 66.6814 14.7168C66.6434 16.0038 66.6434 17.5194 66.6814 19.2634C66.4452 19.8758 66.0828 20.4274 65.6186 20.8897V20.9709H65.472C65.134 21.5508 64.3034 22.1349 63.8269 21.5508C63.8269 19.4013 63.9369 17.1746 63.8636 15.1589C63.8269 15.1629 63.7903 15.1751 63.7577 15.1954C63.5989 16.2418 62.5483 18.2048 61.6525 18.8497C60.8788 18.9105 60.1622 18.4481 59.9015 17.7221C59.9871 17.5072 60.1459 17.4585 60.321 17.3085C60.7892 16.3553 60.6467 14.5992 60.6467 13.6623C59.9708 13.7596 58.8388 15.2765 58.3135 15.8402C57.9755 16.112 57.6294 16.3797 57.2996 16.6555C57.0593 17.4504 56.872 18.2372 56.6643 19.089C56.4852 19.4661 56.3019 19.8677 56.1146 20.253H56.021C55.7074 20.7802 54.6853 22.1714 54.0786 21.2994V20.9546C54.5958 20.184 54.9052 19.2917 54.9704 18.367C54.1478 18.6388 53.5981 19.3891 52.7715 19.4418C52.3317 19.3648 51.9083 19.2269 51.5051 19.0362C51.5051 19.0038 51.5051 18.9754 51.5051 18.9429C51.3015 18.8172 51.0979 18.6428 50.9758 18.6874C50.8251 19.1457 50.6785 19.6284 50.5401 20.107C49.7012 21.8672 49.0212 23.6964 48.5041 25.5742C48.3168 25.8054 48.0521 25.9595 47.7589 26.0122" fill="white"/>
<path id="&#232;&#183;&#175;&#229;&#190;&#132; 9" fill-rule="evenodd" clip-rule="evenodd" d="M49.368 15.7842C49.1114 15.4111 49.425 14.9284 49.4372 14.4985C49.0341 13.2817 48.7124 12.3773 49.4901 11.3552L49.8647 11.3187C50.5651 11.8784 51.1841 12.5274 51.7134 13.2493C52.2957 14.7013 50.4226 15.3543 49.3802 15.7761" fill="white"/>
<path id="&#232;&#183;&#175;&#229;&#190;&#132; 10" fill-rule="evenodd" clip-rule="evenodd" d="M50.5389 11.0849C50.2294 10.9794 50.2335 10.9105 50.1765 10.805C50.3231 10.5089 50.4615 10.3345 50.4045 10.0304C49.6594 8.86634 49.7001 7.12639 50.9868 6.57886C51.3655 6.62347 51.3737 6.94388 51.5691 7.45491C52.4079 8.27014 53.9716 9.27598 52.4894 10.3589C51.8664 10.6306 51.1864 10.8456 50.5633 11.0605" fill="white"/>
<path id="&#232;&#183;&#175;&#229;&#190;&#132; 11" fill-rule="evenodd" clip-rule="evenodd" d="M112.862 15.5409C111.693 15.18 111.909 13.2697 112.109 12.495C112.96 11.9556 114.08 13.075 114.145 14.0768C113.925 15.1759 113.933 15.3382 112.862 15.5409Z" fill="white"/>
<path id="&#232;&#183;&#175;&#229;&#190;&#132; 12" fill-rule="evenodd" clip-rule="evenodd" d="M119.177 24.3633L119.079 24.3065C117.637 24.4201 116.184 24.2416 114.811 23.7833C114.759 23.6941 114.734 23.5886 114.742 23.4872C115.528 23.0289 116.644 23.1546 117.251 22.3232C117.361 21.7473 117.397 21.1632 117.356 20.5792C115.874 20.6684 115.08 21.7432 113.907 22.1366C112.906 22.1934 111.114 21.289 110.821 20.49C110.821 19.2043 111.09 19.7802 112.47 19.6991C114.115 19.4071 115.76 18.4621 117.352 17.7685C117.507 17.6266 117.686 17.513 117.882 17.4359C118.232 16.3652 118.464 16.1746 119.596 15.9596C119.887 15.8136 120.458 15.4837 121.31 14.97C121.339 14.8402 121.376 14.7145 121.42 14.5928C119.482 14.824 117.918 16.3895 116.371 17.4157C115.748 17.5982 115.08 17.5414 114.498 17.2575C114.16 17.3062 112.234 17.6468 113.166 16.8803C113.749 16.6613 114.176 16.2476 114.783 15.9799C116.237 15.0106 117.918 14.171 119.486 13.2787C119.482 13.1205 119.429 12.9664 119.335 12.8366C119.335 12.5771 119.392 12.3256 119.494 12.0863C119.201 12.1918 119.12 12.1674 119.063 12.3905C118.134 12.7961 117.739 13.6397 116.961 12.7515C116.819 13.5383 116.159 14.1264 115.357 14.1791C114.526 13.7533 114.506 12.3702 114.359 11.7335C114.302 11.6523 114.184 11.117 113.956 10.4964C113.578 9.73393 112.881 8.88221 113.346 8.17244C113.928 7.81147 114.176 7.67763 114.677 8.47257C115.206 8.85382 115.679 9.30402 116.082 9.81099H116.176C116.44 10.5127 117.088 11.4374 117.014 12.3337C117.45 12.0782 118.069 11.5793 117.751 11.0277C117.035 10.6424 117.442 9.97728 117.943 9.72988C118.216 9.75016 118.488 9.74204 118.761 9.70149C118.769 9.60009 118.729 9.49464 118.651 9.42975C118.069 9.21884 118.167 9.08095 118.326 8.59425C117.739 8.41579 117.409 7.79931 117.584 7.21932C117.597 7.17877 117.613 7.13415 117.629 7.09359C118.984 6.75561 119.976 6.48657 120.606 6.28649C121.237 5.50371 121.921 3.38252 123.147 3.7516C123.587 4.30724 123.794 5.0089 123.729 5.71056C123.538 6.00258 123.391 6.32299 123.297 6.65962H123.664C124.511 6.24187 124.902 5.74301 125.415 6.99625C126.237 7.43834 126.531 7.32072 126.221 8.50908C125.639 9.70149 124.983 10.975 124.324 12.1715C124.315 12.2242 124.315 12.281 124.324 12.3337C124.474 12.3621 124.629 12.3946 124.78 12.4392C124.865 13.0516 124.894 13.6721 124.865 14.2927C124.356 15.043 123.697 15.043 122.902 15.1485C121.868 15.6595 120.94 16.0854 119.987 16.6613C119.963 16.8762 119.987 17.0912 120.052 17.294H121.555C122.108 17.655 122.064 18.6608 121.718 19.2448C121.225 19.2773 120.744 19.4152 120.313 19.6504C120.26 19.9222 120.207 20.202 120.162 20.4859C120.199 21.5567 120.744 24.1402 119.164 24.3836M122.332 11.1981C122.845 10.7844 123.143 10.1598 123.139 9.50275C122.674 9.19451 122.117 9.05661 121.563 9.11339C121.412 9.50681 121.217 9.884 120.981 10.2369L121.139 10.3058C121.086 10.318 121.038 10.3423 120.993 10.3707C120.997 10.4031 121.009 10.4356 121.021 10.464C121.213 10.4559 121.388 10.3423 121.469 10.1679C122.251 10.0381 122.267 10.318 122.21 11.1494C122.247 11.1616 122.279 11.1819 122.308 11.2021" fill="white"/>
<path id="&#232;&#183;&#175;&#229;&#190;&#132; 13" d="M50.0255 30.9613L52.318 28.1425H50.2046V27.7004H52.9491V28.1304L50.6566 30.9532H52.9491V31.3993H50.0255V30.9613Z" fill="white"/>
<path id="&#232;&#183;&#175;&#229;&#190;&#132; 14" d="M54.0947 27.7004H54.5956V29.2173H56.5338V27.7004H57.0428V31.4034H56.5338V29.6594H54.5956V31.4034H54.0947V27.7004Z" fill="white"/>
<path id="&#232;&#183;&#175;&#229;&#190;&#132; 15" d="M58.3949 31.4034V27.7004H61.1149V28.1425H58.8957V29.2741H60.9195V29.7162H58.8957V30.9532H61.1353V31.3993H58.3949V31.4034Z" fill="white"/>
<path id="&#232;&#183;&#175;&#229;&#190;&#132; 16" d="M63.7158 27.7004H64.2167V30.3611C64.2371 30.6693 64.1393 30.9694 63.9357 31.2047C63.7321 31.4115 63.4471 31.521 63.1539 31.5007C62.8567 31.521 62.5676 31.4196 62.3477 31.2209C62.1522 31.0181 62.0585 30.7383 62.0871 30.4584V30.2029H62.5594V30.4584C62.5472 30.6247 62.6001 30.7869 62.706 30.9126C62.8119 31.0262 62.9666 31.0871 63.1213 31.0749C63.2883 31.0749 63.4471 31.0059 63.557 30.8843C63.667 30.7342 63.724 30.5476 63.7158 30.3611V27.7004Z" fill="white"/>
<path id="&#232;&#183;&#175;&#229;&#190;&#132; 17" d="M65.6016 27.7004H66.1025V31.4034H65.6016V27.7004Z" fill="white"/>
<path id="&#232;&#183;&#175;&#229;&#190;&#132; 18" d="M68.5661 27.7004H69.1484L70.4841 31.3953H69.9425L69.5516 30.3246H68.0694L67.6785 31.3953H67.1613L68.5661 27.7004ZM68.2322 29.8865H69.3968L68.8145 28.2399L68.2322 29.8865Z" fill="white"/>
<path id="&#232;&#183;&#175;&#229;&#190;&#132; 19" d="M71.9376 31.4034H71.4531V27.7004H72.0557L73.9166 30.7058V27.7004H74.4012V31.4034H73.8515L71.9376 28.3818V31.4034Z" fill="white"/>
<path id="&#232;&#183;&#175;&#229;&#190;&#132; 20" d="M77.4955 31.5017C77.015 31.5179 76.5548 31.3192 76.2413 30.9622C75.9155 30.5688 75.7445 30.0659 75.7689 29.5549C75.7404 29.0357 75.9155 28.5288 76.2535 28.1353C76.8724 27.4986 77.8701 27.4134 78.5867 27.9366C78.8718 28.1435 79.0591 28.4598 79.0998 28.8086H78.6153C78.5827 28.5734 78.4524 28.3625 78.261 28.2286C78.037 28.0867 77.7764 28.0177 77.5158 28.0299C77.1697 28.0218 76.8439 28.1759 76.6363 28.4476C76.1924 29.1209 76.1924 29.9889 76.6363 30.6621C76.8602 30.9298 77.2023 31.0758 77.5525 31.0555C77.9108 31.0636 78.2528 30.9095 78.4809 30.6378C78.5175 30.5932 78.5501 30.5486 78.5786 30.4999C78.6275 30.4147 78.6641 30.3214 78.6845 30.2281C78.713 30.1186 78.7252 30.0091 78.7252 29.8956V29.8469H77.5565V29.4251H79.1772V31.3841H78.8636L78.7456 30.9176C78.4524 31.2745 78.0085 31.4733 77.5443 31.4571" fill="white"/>
<path id="&#232;&#183;&#175;&#229;&#190;&#132; 21" d="M85.5636 30.0463C85.6328 30.7804 85.0912 31.4375 84.3542 31.5064C84.2727 31.5145 84.1872 31.5145 84.1058 31.5064C83.7067 31.5307 83.3158 31.3969 83.0145 31.1333C82.7457 30.8372 82.6114 30.4438 82.6399 30.0463V27.7183H83.1407V30.0422C83.1204 30.3262 83.2059 30.606 83.385 30.8291C83.7922 31.186 84.4071 31.186 84.8143 30.8291C84.9935 30.606 85.079 30.3262 85.0586 30.0422V27.7183H85.5595V30.0422L85.5636 30.0463Z" fill="white"/>
<path id="&#232;&#183;&#175;&#229;&#190;&#132; 22" d="M87.4714 31.4034H86.9827V27.7004H87.5894L89.4503 30.7058V27.7004H89.9349V31.4034H89.3852L87.4714 28.3818V31.4034Z" fill="white"/>
<path id="&#232;&#183;&#175;&#229;&#190;&#132; 23" d="M91.3166 27.7004H91.8174V31.4034H91.3166V27.7004Z" fill="white"/>
<path id="&#232;&#183;&#175;&#229;&#190;&#132; 24" d="M92.799 27.7004H93.3609L94.4277 30.864L95.4905 27.7004H96.0525L94.7006 31.4034H94.159L92.803 27.7004H92.799Z" fill="white"/>
<path id="&#232;&#183;&#175;&#229;&#190;&#132; 25" d="M97.009 31.4034V27.7004H99.7209V28.1425H97.5098V29.2741H99.5295V29.7162H97.5098V30.9532H99.7494V31.3993H97.009V31.4034Z" fill="white"/>
<path id="&#232;&#183;&#175;&#229;&#190;&#132; 26" d="M101.096 27.7006H102.847C103.169 27.6763 103.487 27.7696 103.747 27.9561C103.963 28.1427 104.077 28.4226 104.057 28.7065C104.073 29.0715 103.882 29.4122 103.56 29.5825L103.645 29.6231C103.873 29.761 104.008 30.0084 103.996 30.272V30.9453C103.996 31.0304 104.008 31.1116 104.044 31.1886C104.077 31.2454 104.13 31.286 104.191 31.3103V31.3914H103.572C103.548 31.3144 103.531 31.2332 103.531 31.1521C103.531 31.0102 103.527 30.8682 103.503 30.7263V30.4342C103.511 30.2558 103.45 30.0773 103.332 29.9394C103.181 29.8299 102.994 29.7772 102.807 29.7934H101.638V31.3874H101.137L101.096 27.6925V27.7006ZM101.597 29.3676H102.839C103.022 29.3838 103.206 29.327 103.352 29.2175C103.47 29.0836 103.527 28.9093 103.511 28.7349C103.527 28.5645 103.466 28.3942 103.34 28.2684C103.185 28.1508 102.994 28.0981 102.803 28.1184H101.593V29.3676H101.597Z" fill="white"/>
<path id="&#232;&#183;&#175;&#229;&#190;&#132; 27" d="M107.657 28.7709C107.645 28.56 107.543 28.3613 107.376 28.2315C107.185 28.0976 106.957 28.0328 106.725 28.0449C106.497 28.0287 106.269 28.0855 106.077 28.2072C105.931 28.3207 105.849 28.4992 105.857 28.6817C105.849 28.8074 105.906 28.9291 106.008 29.0021C106.191 29.1035 106.387 29.1724 106.59 29.213L107.238 29.3712C107.515 29.4158 107.771 29.5415 107.979 29.7321C108.138 29.9228 108.215 30.1661 108.199 30.4135C108.211 30.7258 108.064 31.0219 107.812 31.2085C107.511 31.4194 107.148 31.5248 106.778 31.5045C106.371 31.5289 105.967 31.4072 105.642 31.1598C105.373 30.9327 105.222 30.596 105.239 30.2472V30.2188H105.723C105.723 30.4622 105.833 30.6893 106.02 30.8394C106.248 30.9976 106.525 31.0706 106.802 31.0543C107.046 31.0746 107.291 31.0178 107.503 30.8962C107.657 30.7948 107.751 30.6163 107.743 30.4297C107.755 30.2797 107.694 30.1337 107.584 30.0363C107.393 29.9187 107.177 29.8376 106.953 29.797L106.305 29.6389C106.045 29.5983 105.8 29.4847 105.601 29.3184C105.458 29.1603 105.381 28.9494 105.397 28.7385C105.381 28.4181 105.515 28.1058 105.76 27.8949C106.037 27.6758 106.387 27.5663 106.741 27.5866C107.099 27.5663 107.454 27.6758 107.739 27.8949C107.987 28.1139 108.13 28.4262 108.134 28.7547L107.653 28.7669L107.657 28.7709Z" fill="white"/>
<path id="&#232;&#183;&#175;&#229;&#190;&#132; 28" d="M109.44 27.7004H109.941V31.4034H109.44V27.7004Z" fill="white"/>
<path id="&#232;&#183;&#175;&#229;&#190;&#132; 29" d="M112.258 28.1425H110.996V27.7004H114.013V28.1425H112.759V31.4034H112.258V28.1425Z" fill="white"/>
<path id="&#232;&#183;&#175;&#229;&#190;&#132; 30" d="M116.29 29.919L114.889 27.7004H115.471L116.538 29.4972L117.605 27.7004H118.187L116.786 29.9271V31.4034H116.285V29.923L116.29 29.919Z" fill="white"/>
<path id="&#232;&#183;&#175;&#229;&#190;&#132; 31" d="M23.086 2.20996C32.2317 2.20996 39.6427 9.59156 39.6427 18.6969C39.6427 27.8022 32.2317 35.1838 23.0901 35.1838C13.9485 35.1838 6.53345 27.8063 6.53345 18.6969C6.53345 9.59156 13.9444 2.20996 23.086 2.20996ZM23.086 2.867C14.3109 2.867 7.19311 9.95658 7.19311 18.6969C7.19311 27.4372 14.3109 34.5267 23.086 34.5267C31.8612 34.5267 38.979 27.4372 38.979 18.6969C38.983 9.95658 31.8652 2.867 23.086 2.867Z" fill="white"/>
<path id="&#232;&#183;&#175;&#229;&#190;&#132; 32" d="M17.2707 25.726C16.2283 24.8621 15.3854 23.7792 14.8072 22.5543C12.6653 17.9996 14.6361 12.573 19.209 10.4396C23.7818 8.30623 29.2301 10.2693 31.372 14.8239C33.1433 18.5959 32.1253 23.0816 28.8962 25.726L28.7048 25.4583C32.4592 22.3718 32.9926 16.8437 29.8938 13.1043C26.7951 9.3648 21.245 8.83349 17.4906 11.92C14.3878 14.4711 13.4105 18.7946 15.1207 22.4205C15.6745 23.5926 16.4807 24.6309 17.4784 25.4583L17.2666 25.726H17.2707Z" fill="white"/>
<path id="&#232;&#183;&#175;&#229;&#190;&#132; 33" fill-rule="evenodd" clip-rule="evenodd" d="M8.91629 24.2001L8.29327 22.5332L8.63125 22.4156L11.4898 22.8536L11.0581 21.6815L11.3961 21.5638L11.9662 23.0929L11.6201 23.2105L8.76562 22.7725L9.25426 24.0866L8.91629 24.2042V24.2001Z" fill="white"/>
<path id="&#232;&#183;&#175;&#229;&#190;&#132; 34" fill-rule="evenodd" clip-rule="evenodd" d="M9.99839 26.4803L9.83144 26.1437L11.1752 25.4583L10.7476 24.6268L9.40389 25.3204L9.22879 24.9878L12.1036 23.5115L12.2787 23.8481L11.0653 24.4646L11.4928 25.2879L12.7063 24.6714L12.8773 25.004L9.99839 26.4803Z" fill="white"/>
<path id="&#232;&#183;&#175;&#229;&#190;&#132; 35" fill-rule="evenodd" clip-rule="evenodd" d="M11.3668 28.2946L10.3447 26.871L13.0404 25.2041L14.0136 26.5587L13.7163 26.7372L12.9752 25.707L12.1364 26.2262L12.8205 27.1752L12.5232 27.3618L11.8391 26.4127L10.8741 27.013L11.66 28.1121L11.3627 28.2987L11.3668 28.2946Z" fill="white"/>
<path id="&#232;&#183;&#175;&#229;&#190;&#132; 36" fill-rule="evenodd" clip-rule="evenodd" d="M13.6595 30.5244L13.3134 30.2405L15.3046 27.811L15.6426 28.0949L13.6595 30.5244Z" fill="white"/>
<path id="&#232;&#183;&#175;&#229;&#190;&#132; 37" fill-rule="evenodd" clip-rule="evenodd" d="M15.1995 31.5951L15.6027 30.7353L15.114 30.3825L14.377 31.0922L14.039 30.8367L16.3723 28.5452L16.8446 28.8291L15.5945 31.8507L15.1955 31.5951H15.1995ZM15.7818 30.3176L16.2664 29.2063L16.2216 29.1657L15.3828 30.0215L15.7859 30.3176H15.7818Z" fill="white"/>
<path id="&#232;&#183;&#175;&#229;&#190;&#132; 38" fill-rule="evenodd" clip-rule="evenodd" d="M17.5279 32.7219L17.1126 32.5232L17.3569 30.2925L16.4366 32.1703L16.0172 31.9797L17.475 29.1041L17.8537 29.2785L17.6786 31.3997L18.6314 29.6517L18.9816 29.7977L17.5279 32.726V32.7219Z" fill="white"/>
<path id="&#232;&#183;&#175;&#229;&#190;&#132; 39" fill-rule="evenodd" clip-rule="evenodd" d="M19.7019 33.3687L19.4291 33.2795V33.0239C19.3558 33.0848 19.2662 33.1172 19.1725 33.1294C19.0667 33.1456 18.9567 33.1375 18.859 33.101C18.6187 33.0158 18.4355 32.8212 18.3622 32.5778C18.2482 32.1925 18.2726 31.7829 18.4274 31.4138C18.5169 31.0001 18.7205 30.6148 19.0096 30.3025C19.2784 30.0673 19.653 29.9902 19.991 30.1038C20.3412 30.2133 20.5733 30.6391 20.4674 31.2272L20.048 31.1988C20.1172 30.9433 20.0846 30.5499 19.8363 30.4728C19.6286 30.3998 19.4006 30.4607 19.254 30.6229C19.0585 30.8946 18.9201 31.1988 18.8427 31.5233C18.7287 31.8113 18.692 32.1236 18.745 32.4318C18.7735 32.594 18.8875 32.7279 19.0422 32.7847C19.1685 32.8333 19.3069 32.813 19.4168 32.7319C19.5553 32.6103 19.6489 32.448 19.6897 32.2655L19.7467 32.0789L19.2499 31.9208L19.3476 31.5963L20.1661 31.864L19.706 33.3606L19.7019 33.3687Z" fill="white"/>
<path id="&#232;&#183;&#175;&#229;&#190;&#132; 40" fill-rule="evenodd" clip-rule="evenodd" d="M24.0022 32.6563C24.0103 32.9037 23.9248 33.1471 23.7701 33.3377C23.595 33.5121 23.3466 33.5973 23.0982 33.5648C22.8457 33.577 22.6055 33.4756 22.4386 33.285C22.296 33.0822 22.2309 32.8348 22.2512 32.5874L22.3205 30.3972H22.7073L22.6381 32.6036C22.6218 32.7658 22.6625 32.9321 22.7602 33.0619C22.8498 33.1592 22.9761 33.2201 23.1104 33.2201C23.2448 33.2282 23.371 33.1795 23.4647 33.0862C23.5706 32.9605 23.6235 32.8023 23.6154 32.6401L23.6846 30.4499H24.0755L23.9981 32.6563H24.0022Z" fill="white"/>
<path id="&#232;&#183;&#175;&#229;&#190;&#132; 41" fill-rule="evenodd" clip-rule="evenodd" d="M26.2125 33.2407L25.8623 33.2975L24.771 31.2007L24.942 33.4516L24.5267 33.5084L24.2864 30.353L24.7588 30.3124L25.6628 31.7806L25.4958 30.1989L25.8419 30.1421L26.2125 33.2407Z" fill="white"/>
<path id="&#232;&#183;&#175;&#229;&#190;&#132; 42" fill-rule="evenodd" clip-rule="evenodd" d="M27.395 32.9134L26.9918 33.0351L26.1449 30.05L26.5521 29.9283L27.395 32.9134Z" fill="white"/>
<path id="&#232;&#183;&#175;&#229;&#190;&#132; 43" fill-rule="evenodd" clip-rule="evenodd" d="M28.4891 29.1339L29.0021 32.4273L28.6072 32.626L26.8521 29.8234L27.239 29.6612L28.4565 31.5715L28.1185 29.2921L28.4931 29.1299L28.4891 29.1339Z" fill="white"/>
<path id="&#232;&#183;&#175;&#229;&#190;&#132; 44" fill-rule="evenodd" clip-rule="evenodd" d="M31.7478 30.9956L30.2738 31.7905L28.6613 29.0366L30.0661 28.2822L30.2412 28.5905L29.1662 29.1664L29.6671 30.0222L30.6525 29.4949L30.8316 29.795L29.8462 30.3264L30.4163 31.3079L31.5605 30.6914L31.7438 30.9956H31.7478Z" fill="white"/>
<path id="&#232;&#183;&#175;&#229;&#190;&#132; 45" fill-rule="evenodd" clip-rule="evenodd" d="M33.4329 29.8212L33.1071 30.0929L31.9385 29.1519L31.6412 29.4196L32.419 30.466L32.0932 30.8108L30.1957 28.1542L30.778 27.7243C30.9694 27.5742 31.2096 27.5012 31.4539 27.5134C31.9141 27.5215 32.2846 27.8987 32.2765 28.357C32.2765 28.3854 32.2765 28.4097 32.2724 28.4381C32.2724 28.5882 32.248 28.7342 32.2032 28.8761L33.4329 29.8212ZM31.3847 27.9514C31.1444 27.8865 30.9571 28.0731 30.8024 28.2069L31.4336 29.0384C31.6127 28.941 31.7593 28.795 31.8611 28.6206C31.9344 28.3327 31.7593 28.0366 31.4661 27.9636C31.4458 27.9595 31.4254 27.9555 31.4051 27.9514" fill="white"/>
<path id="&#232;&#183;&#175;&#229;&#190;&#132; 46" fill-rule="evenodd" clip-rule="evenodd" d="M34.455 27.2586C34.8744 27.5344 34.9884 28.0982 34.7115 28.5159C34.569 28.7268 34.345 28.8729 34.0926 28.9094C33.8768 28.9378 33.6609 28.9012 33.4696 28.7999L33.6162 28.4632C33.7505 28.5119 33.8971 28.5322 34.0437 28.52C34.3206 28.4876 34.5201 28.2361 34.4876 27.9562C34.4713 27.8062 34.3817 27.6683 34.2555 27.5872C34.1333 27.5101 33.9867 27.4817 33.8401 27.506C33.4614 27.5466 33.2171 27.8305 32.7977 27.8589C32.3661 27.8995 31.9833 27.5831 31.9385 27.1572C31.8978 26.9301 31.9466 26.6989 32.0729 26.5083C32.3294 26.1311 32.8466 26.0338 33.2252 26.2893C33.2293 26.2893 33.2375 26.2974 33.2415 26.3015L33.0949 26.6462C32.8628 26.5205 32.5778 26.561 32.3946 26.7517C32.3213 26.849 32.2928 26.9747 32.3172 27.0964C32.3335 27.3195 32.5289 27.4898 32.7529 27.4736C32.7651 27.4736 32.7733 27.4736 32.7855 27.4736C33.1927 27.4209 33.4696 27.0842 33.8768 27.1005C34.0926 27.1045 34.3002 27.1613 34.4876 27.2708" fill="white"/>
<path id="&#232;&#183;&#175;&#229;&#190;&#132; 47" fill-rule="evenodd" clip-rule="evenodd" d="M35.847 26.8532L35.6149 27.1452L32.8826 25.4418L33.1228 25.1498L35.847 26.8532Z" fill="white"/>
<path id="&#232;&#183;&#175;&#229;&#190;&#132; 48" fill-rule="evenodd" clip-rule="evenodd" d="M34.471 23.4105L34.1737 23.9702L36.7472 25.4831L36.5721 25.8035L33.9986 24.2988L33.6973 24.8504L33.3756 24.6638L34.1534 23.228L34.475 23.4146L34.471 23.4105Z" fill="white"/>
<path id="&#232;&#183;&#175;&#229;&#190;&#132; 49" fill-rule="evenodd" clip-rule="evenodd" d="M34.9434 21.2973L36.5111 22.6925L37.5617 23.1467L37.4355 23.4955L36.4663 23.1224L34.2267 23.0697L34.3367 22.7087L35.9003 22.733L34.7887 21.7191L34.9393 21.2932L34.9434 21.2973Z" fill="white"/>
<path id="&#232;&#183;&#175;&#229;&#190;&#132; 50" fill-rule="evenodd" clip-rule="evenodd" d="M13.4179 29.1239C13.2184 29.3591 12.9415 29.5092 12.6361 29.5497C12.3877 29.5538 12.1515 29.4524 11.9846 29.2658C11.8135 29.0995 11.7199 28.8684 11.7199 28.6331C11.7199 28.4993 11.7606 28.3695 11.8258 28.2559L12.18 28.4709C12.1515 28.5236 12.1352 28.5845 12.1352 28.6453C12.1271 28.767 12.1678 28.8846 12.2533 28.9698C12.347 29.0793 12.4854 29.1442 12.632 29.1401C12.8193 29.0955 12.9903 28.9941 13.1125 28.844L14.7046 27.2906L14.9978 27.5867L13.422 29.1279L13.4179 29.1239Z" fill="white"/>
<path id="&#232;&#183;&#175;&#229;&#190;&#132; 51" fill-rule="evenodd" clip-rule="evenodd" d="M18.7856 28.576L17.6658 27.8946L17.7635 27.7243L18.1707 27.9758L18.8222 26.8117L18.415 26.5603L18.5046 26.4102C18.6186 26.4873 18.7449 26.54 18.8793 26.5684C18.9729 26.5806 19.0625 26.5359 19.1114 26.4589L19.3679 26.6171L18.4883 28.1461L18.8915 28.3976L18.7856 28.576ZM22.0717 27.8825C22.088 27.7933 22.0513 27.7 21.978 27.6432C21.8722 27.5621 21.75 27.5134 21.6156 27.5053C21.4894 27.4769 21.3591 27.4769 21.2369 27.5053C21.1473 27.5337 21.0781 27.6067 21.0578 27.6959C21.0455 27.7567 21.0578 27.8216 21.0985 27.8703C21.1514 27.9352 21.2166 27.9879 21.2899 28.0204C21.3265 28.0204 21.3835 28.0731 21.465 28.1096C21.5383 28.1461 21.6156 28.1786 21.693 28.2029C21.7948 28.1745 21.8884 28.1258 21.9658 28.0569C22.0187 28.0001 22.0554 27.9311 22.0717 27.8541M21.9251 28.8356C21.9455 28.7666 21.9332 28.6977 21.8966 28.6369C21.8233 28.5598 21.7378 28.4949 21.6401 28.4503L21.469 28.3732L21.2247 28.2678C21.1148 28.2921 21.013 28.3367 20.9275 28.4057C20.8582 28.4665 20.8094 28.5436 20.789 28.6328C20.7646 28.7504 20.8053 28.8721 20.899 28.9451C21.0048 29.0465 21.1433 29.1073 21.2899 29.1195C21.4283 29.1479 21.5708 29.1438 21.7052 29.1073C21.8151 29.0668 21.8925 28.9694 21.9088 28.8559M21.2247 29.3385C21.0903 29.3223 20.956 29.2899 20.8297 29.2412C20.7239 29.2047 20.6221 29.1479 20.5365 29.0708C20.4673 29.0141 20.4144 28.9451 20.3777 28.8599C20.3533 28.7829 20.3533 28.6977 20.3777 28.6206C20.394 28.5111 20.451 28.4138 20.5365 28.3489C20.6628 28.2637 20.8053 28.211 20.956 28.1907C20.846 28.1339 20.7442 28.0569 20.6628 27.9636C20.6058 27.8906 20.5813 27.7933 20.6017 27.704C20.6465 27.5418 20.7727 27.4161 20.9356 27.3714C21.1555 27.2944 21.3876 27.2741 21.6197 27.3147C21.8477 27.3349 22.0676 27.4161 22.2549 27.5458C22.3852 27.627 22.4544 27.7811 22.43 27.9352C22.4056 28.0325 22.3445 28.1177 22.259 28.1786C22.145 28.2597 22.0106 28.3124 21.8722 28.3286C22.0065 28.3895 22.1287 28.4746 22.2346 28.5801C22.3079 28.6653 22.3364 28.7829 22.3119 28.8924C22.2631 29.0708 22.1246 29.2128 21.9455 29.2696C21.7093 29.3588 21.4527 29.3831 21.2044 29.3385M25.0198 28.1339C25.0239 28.0244 25.0035 27.9109 24.9628 27.8095C24.9302 27.7324 24.8813 27.6635 24.8121 27.6107C24.7592 27.5702 24.6981 27.5418 24.633 27.5215C24.5678 27.5134 24.5027 27.5134 24.4416 27.5215C24.3031 27.5134 24.1647 27.554 24.0507 27.6391C23.9529 27.7202 23.8959 27.846 23.9041 27.9758C23.9 28.0488 23.9163 28.1218 23.9529 28.1867C23.9896 28.2475 24.0466 28.2962 24.1117 28.3246C24.1647 28.353 24.2217 28.3692 24.2828 28.3773C24.4416 28.3854 24.6045 28.3773 24.7592 28.3408C24.8488 28.3246 24.9343 28.3002 25.0157 28.2637C25.0157 28.2475 25.0157 28.2272 25.0157 28.211C25.0157 28.1867 25.0157 28.1623 25.0157 28.1339M23.4887 27.9636C23.4887 27.8663 23.5172 27.7689 23.5661 27.6837C23.619 27.5986 23.6883 27.5256 23.7697 27.4688C23.8634 27.4079 23.9652 27.3593 24.071 27.3309C24.1891 27.3025 24.3113 27.2863 24.4334 27.2863C24.5597 27.2863 24.6859 27.3025 24.8081 27.3349C24.9099 27.3633 25.0076 27.4079 25.0931 27.4688C25.1949 27.5377 25.2804 27.6351 25.3333 27.7486C25.3944 27.8906 25.427 28.0407 25.4229 28.1948C25.4229 28.353 25.3944 28.5111 25.3415 28.6612C25.2885 28.7991 25.203 28.9248 25.0972 29.0262C24.975 29.1317 24.8366 29.2087 24.6818 29.2574C24.4945 29.3142 24.295 29.3426 24.0995 29.3385H23.7616V29.083C23.8104 29.1033 23.8634 29.1154 23.9204 29.1236H24.1321C24.352 29.1357 24.5678 29.0749 24.751 28.9492C24.9017 28.8315 24.9954 28.6531 25.0035 28.4625C24.9058 28.5071 24.804 28.5436 24.7022 28.5679C24.6004 28.5922 24.4945 28.6044 24.3886 28.6044C24.2868 28.6125 24.185 28.6125 24.0873 28.6044C23.9937 28.5882 23.9041 28.5557 23.8186 28.5111C23.7208 28.4665 23.6353 28.3976 23.5742 28.3083C23.5213 28.2151 23.4928 28.1137 23.4928 28.0082M27.8172 26.321L27.7399 28.353L27.4304 28.5517V26.6292L26.2618 27.2092L26.1559 26.9821L27.6544 26.2034L27.8132 26.3169L27.8172 26.321Z" fill="white"/>
<path id="&#232;&#183;&#175;&#229;&#190;&#132; 52" fill-rule="evenodd" clip-rule="evenodd" d="M28.489 9.83088C28.2447 9.71326 28.4117 9.66864 28.432 9.44557C28.4524 9.2225 28.3139 9.02782 28.3546 8.89398C28.4605 8.52896 28.9369 8.66686 29.1894 8.85342C29.2464 8.91426 29.2871 8.98727 29.3116 9.06838C29.4011 9.29145 29.4867 9.60375 29.2301 9.76598C29.0062 9.89983 28.7333 9.92416 28.489 9.83088Z" fill="white"/>
<path id="&#232;&#183;&#175;&#229;&#190;&#132; 53" fill-rule="evenodd" clip-rule="evenodd" d="M25.7082 8.74294C25.7082 8.7186 25.7082 8.69427 25.7082 8.66588C26.0095 8.5807 26.3068 8.47525 26.5959 8.35358C26.8443 8.27246 27.052 8.09806 27.1782 7.87093C26.6529 8.00072 26.1154 8.06561 25.5738 8.06967C25.3947 7.95205 25.2277 7.82226 25.073 7.67625C24.849 7.43696 24.8816 7.20578 25.2033 7.18144C25.6879 7.42074 26.5633 7.24634 27.0886 7.18144C27.2881 7.16928 27.4877 7.12466 27.6709 7.0476C27.903 6.39867 28.0985 5.74163 28.2532 5.07242C28.5342 4.64656 28.75 5.03186 28.9821 5.3401C28.9821 5.38066 29.0472 5.43744 29.088 5.54289C29.1653 5.77002 29.1775 5.8633 28.9414 6.0012C28.7296 6.29728 28.583 6.63391 28.5138 6.99082C28.8762 7.02732 29.1653 6.76775 29.5766 6.86509C29.6499 7.05571 29.5522 7.27067 29.3608 7.34773C29.0228 7.42479 28.6726 7.46941 28.2939 7.53836C28.1351 7.89527 27.8908 8.21162 27.5895 8.46308C27.4917 8.52798 27.3859 8.58476 27.28 8.63343C27.0438 8.72266 26.7954 8.78755 26.543 8.82C26.2661 8.8565 25.9851 8.8565 25.7082 8.82" fill="white"/>
<path id="&#232;&#183;&#175;&#229;&#190;&#132; 54" fill-rule="evenodd" clip-rule="evenodd" d="M17.6214 11.0901C17.316 11.0374 17.0309 10.9117 16.7825 10.7292C16.7785 10.6521 16.7785 10.5791 16.7825 10.502C17.2182 9.8531 17.6051 9.17577 17.9512 8.47412C18.0163 8.16588 18.1222 7.82519 18.2037 7.51694C18.3095 7.34254 18.3625 7.28576 18.5579 7.42366C18.6353 7.58184 18.4113 7.86574 18.3828 8.05231C18.391 8.393 18.3747 8.73369 18.338 9.07032C18.2973 9.22039 18.2647 9.37045 18.2444 9.52458C18.1263 9.78009 18.0571 10.0518 18.0408 10.3317C17.8942 10.5101 17.9471 10.8671 17.768 11.0698L17.6336 11.1388" fill="white"/>
<path id="&#232;&#183;&#175;&#229;&#190;&#132; 55" fill-rule="evenodd" clip-rule="evenodd" d="M20.2968 7.68519C19.9303 7.81093 19.7145 7.6203 19.458 7.49457C19.4132 7.40129 19.458 7.32017 19.458 7.25122C19.5068 7.22689 19.5516 7.19038 19.5801 7.14171C19.7267 7.0606 19.7837 7.04843 19.9425 6.97137C20.1013 6.89431 20.5248 6.26971 20.7651 6.35489C20.8954 6.84564 20.7243 7.36478 20.3294 7.68519" fill="white"/>
<path id="&#232;&#183;&#175;&#229;&#190;&#132; 56" fill-rule="evenodd" clip-rule="evenodd" d="M17.2474 8.08537C17.0601 8.01642 16.8158 7.50539 16.7344 7.3026C16.7344 6.9538 17.0276 6.8159 17.3655 6.91324C17.6791 7.10386 17.8745 7.1647 17.7809 7.57028C17.675 7.80147 17.4836 7.98398 17.2515 8.08537" fill="white"/>
<path id="&#232;&#183;&#175;&#229;&#190;&#132; 57" fill-rule="evenodd" clip-rule="evenodd" d="M19.8207 6.76578C19.7148 6.6076 19.8207 6.1858 19.7026 6.09657C19.6211 6.14118 19.5438 6.21419 19.4583 6.25474C19.1936 6.25474 18.876 6.06412 18.876 5.82483C18.876 5.58553 18.9167 5.65043 19.161 5.53281L19.7433 4.94877C20.1179 4.71759 20.3908 4.85954 20.5699 5.2489C20.5781 5.52875 20.5251 5.8086 20.4193 6.06818C20.2482 6.26691 20.1098 6.47376 19.9632 6.64816C19.9103 6.67655 19.8614 6.709 19.8125 6.74144" fill="white"/>
<path id="&#232;&#183;&#175;&#229;&#190;&#132; 58" fill-rule="evenodd" clip-rule="evenodd" d="M17.1499 6.48929C17.04 6.44874 17.04 6.39601 17.0726 6.27839C16.9911 6.11616 16.8405 6.02287 16.7672 5.8647C16.702 5.54429 16.6043 5.46317 16.7672 5.22388C16.9952 5.22388 17.7892 5.31311 17.773 5.74302C17.6508 6.05126 17.4228 6.31084 17.1255 6.46496" fill="white"/>
<path id="&#232;&#183;&#175;&#229;&#190;&#132; 59" fill-rule="evenodd" clip-rule="evenodd" d="M13.0812 17.3545C12.7351 17.5937 11.9125 17.4356 12.0184 16.9489C11.9655 16.8921 11.941 16.815 11.9614 16.738C11.8229 16.231 11.6478 15.7321 11.4443 15.2454C11.3628 15.0954 11.2651 14.9737 11.3262 14.8033C11.4443 14.775 11.5664 14.9007 11.6641 14.994C11.7089 14.994 11.77 14.8561 11.7904 14.7709C11.7537 14.4343 11.7904 14.0368 11.7334 13.692C11.6438 13.615 11.5583 13.542 11.4768 13.4609C11.4076 13.6353 11.1836 14.2112 10.9882 13.903C11.0656 13.619 11.0493 13.3149 10.9475 13.035C10.7724 12.8565 10.5321 12.7268 10.4588 12.524C10.4873 12.2401 10.9271 12.1752 11.1755 12.2847C11.3791 12.2847 11.3791 11.9197 11.6071 12.5564C11.6071 12.6538 11.713 12.7268 11.8311 12.7795L11.884 12.7146C11.8677 12.4307 11.8677 12.1468 11.884 11.8588C11.6356 11.6398 11.4239 11.3762 11.2651 11.0842C11.2651 10.7881 11.6031 10.6137 11.8962 10.5042C11.9818 10.3501 12.0103 10.1756 11.9858 10.0053C12.0062 9.94447 12.0388 9.88769 12.0795 9.83496C12.1854 9.85118 12.2872 9.89174 12.3767 9.95258C12.6088 10.2487 12.1202 11.1653 12.5803 11.2423C12.6699 11.0842 12.5437 10.9219 12.4745 10.7962C12.4745 10.5691 12.8491 10.2852 13.0975 10.2162C13.464 10.1797 13.4436 10.3906 13.4477 10.7029L13.5006 10.8286C13.8128 11.0531 14.1847 11.3113 14.6163 11.6033C14.7263 11.7655 14.8036 11.948 14.8403 12.1387C14.9299 12.3171 14.9339 12.6213 14.71 12.6456C14.1806 12.2928 13.6553 11.8832 13.1341 11.5546C13.1341 11.5668 13.1341 11.579 13.1341 11.5911C13.4273 11.9034 13.6187 12.3009 13.6838 12.7227C13.5658 12.9255 13.3255 13.0228 13.1015 12.962C13.0771 12.9093 13.069 12.8525 13.073 12.7917C12.8409 12.5077 12.5559 12.2725 12.2342 12.0941C12.1406 12.2725 12.3238 12.8079 12.3808 13.0309V13.4163C12.5396 13.6069 12.6943 13.7894 12.8694 13.9962L13.069 14.3288V14.3572C13.1463 14.5194 13.3133 15.0021 12.9997 15.0061C12.9672 14.9899 12.9387 14.9696 12.9102 14.9494C12.8084 14.6857 12.6373 14.4545 12.4134 14.2801C12.336 14.5235 12.4134 14.7871 12.3034 14.994C12.2098 15.0873 12.108 15.1684 11.994 15.2373C11.9329 15.2373 11.8718 15.2698 11.8433 15.3265C11.9329 15.4361 12.0225 15.5577 12.1161 15.6672C12.4134 16.1702 12.7514 16.6447 13.126 17.0868C13.1586 17.1679 13.1586 17.2612 13.126 17.3423" fill="white"/>
<path id="&#232;&#183;&#175;&#229;&#190;&#132; 60" fill-rule="evenodd" clip-rule="evenodd" d="M10.8336 15.2326C10.6951 15.2326 10.63 15.0744 10.5241 15.0014C10.1576 14.896 9.88073 14.823 9.75858 14.462L9.81151 14.3646C10.0721 14.2876 10.3449 14.247 10.6178 14.2349C11.0779 14.3403 10.9191 14.9081 10.8499 15.2367" fill="white"/>
<path id="&#232;&#183;&#175;&#229;&#190;&#132; 61" fill-rule="evenodd" clip-rule="evenodd" d="M9.87314 14.1589C9.7917 14.2157 9.77948 14.1995 9.73876 14.1995C9.69804 14.1995 9.67361 14.0494 9.5881 14.0129C9.18498 14.0129 8.76556 13.7006 8.83479 13.2869C8.91215 13.1977 8.99359 13.2504 9.14426 13.2869C9.49037 13.218 10.0034 13.0071 10.0197 13.5546C9.98308 13.7493 9.93422 13.944 9.87314 14.1346" fill="white"/>
<path id="&#232;&#183;&#175;&#229;&#190;&#132; 62" d="M30.8596 14.6781H26.8324C25.6637 14.6781 25.0815 15.8421 24.6091 16.8561L23.9332 15.3392L25.0692 14.9215C24.4055 14.2928 22.3247 13.944 22.0519 14.8931L21.5633 16.8561C21.1764 15.9719 20.6308 14.6781 19.397 14.6781H15.3128C15.8421 15.615 16.3511 15.9516 18.2283 15.8705L18.4726 16.5154H16.4122C16.9945 17.6307 17.3732 17.6754 19.0305 17.6307L19.3807 18.4054L17.76 18.4622C18.1102 19.2531 18.4767 19.5897 19.8652 19.5248L20.1381 20.2265H18.8473C19.3318 21.0214 19.5721 21.3905 20.5982 21.2972L20.871 22.0394H19.9711C20.1706 22.6316 20.7285 23.029 21.3556 23.0209C21.8442 23.098 21.9379 24.0146 21.3556 24.3107L23.1065 27.1133L24.8575 24.3107C24.2752 24.0146 24.3566 23.098 24.8575 23.0209C25.4846 23.029 26.0424 22.6316 26.242 22.0394H25.2851L25.5579 21.2972C26.5799 21.3864 26.8202 21.0255 27.3088 20.2265H26.018L26.2908 19.5451C27.6794 19.61 28.0418 19.2652 28.392 18.4825L26.7754 18.4257L27.1256 17.651C28.7829 17.6956 29.1331 17.651 29.7439 16.5357H27.6794L27.9318 15.8908C29.809 15.9719 30.318 15.6353 30.8514 14.6984" fill="white"/>
<path id="&#232;&#183;&#175;&#229;&#190;&#132; 63" d="M36.9915 12.7574V12.7209C37.0485 12.5749 37.0445 12.5181 37.0322 12.4937C36.9793 12.4532 36.9182 12.4248 36.8531 12.4126H36.7065V12.3721C36.6861 12.3518 36.6658 12.3315 36.6413 12.3153L36.564 12.2869L36.6617 12.2098C36.7228 12.1571 36.7961 12.1165 36.8734 12.0882H36.9142C37.0567 11.9624 37.1503 11.784 37.1666 11.5933C37.1096 11.5285 37.0241 11.496 36.9386 11.5041C36.7798 11.5203 36.621 11.5568 36.4703 11.6096C36.3685 11.6461 36.2626 11.6745 36.1568 11.6988H36.1201C35.8636 11.5771 35.8514 11.569 35.3139 11.2932C35.2732 11.3175 35.2406 11.3541 35.2243 11.3987C35.1876 11.4798 35.1876 11.569 35.2243 11.6501L35.2732 11.6866L35.1469 11.7556H35.1184L35.0818 11.7921C35.0777 11.8164 35.0777 11.8407 35.0818 11.861V11.9178C35.0818 11.9624 35.0614 12.003 35.0288 12.0354V12.1003L34.9515 12.0435C34.8863 11.9949 34.8252 11.9381 34.7642 11.8813H34.699C34.6501 11.8813 34.6053 11.8975 34.5728 11.934V12.0922C34.5728 12.1693 34.4913 12.295 34.2511 12.3031H34.1289C34.1004 12.295 34.0719 12.295 34.0393 12.3031C34.0393 12.4653 34.1086 12.4775 34.2837 12.5059C34.357 12.514 34.4343 12.5262 34.5036 12.5465H34.5565C34.5931 12.5465 34.6257 12.5627 34.6542 12.583L34.7804 12.6276H34.8212L34.6624 12.7046C34.6054 12.733 34.5483 12.7695 34.5036 12.8141C34.4913 12.8628 34.4669 12.9115 34.4343 12.948V12.9845H34.3692L34.0231 12.8953L33.8439 12.8506C33.5303 12.7695 33.1394 12.6641 32.7689 12.6073C32.6874 12.5749 32.6019 12.5546 32.5124 12.5424H32.3373V12.5951C32.3983 12.6438 32.4635 12.6844 32.5286 12.7249V12.7533C32.5856 12.9155 32.6997 13.0494 32.8503 13.1305L33.2697 13.1873C33.7339 13.1994 34.1859 13.3292 34.5809 13.5726L34.6746 13.6253H34.7031L34.5646 13.6943C34.5239 13.7145 34.4913 13.7389 34.4588 13.7713H34.4099C34.2104 13.7389 34.019 13.6902 33.8276 13.6253C33.6729 13.459 33.4123 13.4469 33.2372 13.5969H33.1679C33.1069 13.5766 33.0458 13.5645 32.9806 13.5604L32.5938 13.4306C32.207 13.3211 31.8323 13.1629 31.4862 12.9602C31.4048 12.8953 31.3355 12.8182 31.2704 12.7371C31.2704 12.7371 31.2419 12.7006 31.2297 12.7006V12.66C31.1808 12.6925 31.136 12.733 31.0953 12.7776C31.0709 13.1021 31.1808 13.4225 31.3966 13.6659C31.5229 13.7145 31.6572 13.751 31.7916 13.7713C32.0481 13.7997 32.2925 13.8971 32.4961 14.0512H32.5612L32.5042 14.1323C32.4228 14.2337 32.3332 14.3229 32.2355 14.404L32.1825 14.4203C32.154 14.4405 32.1255 14.4689 32.1011 14.4973H31.9545C31.7957 14.4851 31.6409 14.4324 31.5066 14.3472C31.4618 14.3189 31.417 14.2986 31.3681 14.2824V14.331C31.5636 14.6595 31.816 14.9475 32.1133 15.1827V15.2233C32.1499 15.2436 32.1907 15.2558 32.2355 15.2598C32.4676 15.2598 32.72 14.9353 32.9073 14.6798L33.0254 14.5338H33.0743C33.2494 14.4 33.2616 14.3959 33.2535 14.3878L33.3512 14.4243C33.4856 14.4649 33.6118 14.5257 33.7299 14.6028C33.8683 14.5379 34.0149 14.4 33.9986 14.2499L33.9335 14.1728L33.6769 13.9457H33.6362V13.8687C33.6688 13.8038 33.7136 13.7429 33.7706 13.6943H33.8276C34.0801 13.751 34.3 13.824 34.5728 13.9052L34.813 13.9863L34.87 14.0268C34.9759 14.1282 35.1143 14.1891 35.2609 14.2012C35.2894 14.2053 35.3179 14.2053 35.3505 14.2012C35.4686 14.0958 35.5663 13.9701 35.6437 13.8281C35.5948 13.7592 35.5745 13.7389 35.5663 13.7389L35.6071 13.6861C35.6274 13.6659 35.6518 13.6456 35.6763 13.6334C36.0835 13.5036 36.5233 13.3414 36.8449 13.2319C37.0445 13.1102 37.0608 13.0981 36.9915 12.9196C36.9793 12.879 36.963 12.8425 36.9427 12.802M35.3668 13.0413L35.432 12.9845C35.5215 12.9034 35.5582 12.8628 35.5704 12.8223C35.5826 12.7817 35.5704 12.7858 35.5053 12.7574H35.4401C35.3872 12.7574 35.3342 12.7371 35.3017 12.6925V12.5546L35.3912 12.5262C35.5093 12.4978 35.6274 12.4532 35.7374 12.3964V12.3558L35.7944 12.4086C35.9491 12.5302 36.055 12.6965 36.0957 12.8831V12.9196C35.945 13.0818 35.7333 13.167 35.5134 13.1508H35.4605V13.0616H35.4197L35.3668 13.0372V13.0413Z" fill="white"/>
<path id="&#232;&#183;&#175;&#229;&#190;&#132; 64" d="M33.6929 12.2888C33.6033 12.2888 33.5137 12.2604 33.4404 12.2077C33.4282 12.0049 33.5015 11.8102 33.6399 11.6601C33.6766 11.6074 33.7051 11.5709 33.7295 11.5304V11.4898L33.7662 11.4249C33.811 11.3397 33.8476 11.2546 33.8842 11.1694C33.9005 11.1248 33.9128 11.0802 33.925 11.0356C33.9901 10.7841 34.0349 10.63 34.1652 10.5894C34.2955 10.5489 34.3118 10.6178 34.3362 10.6543C34.3607 10.6908 34.3362 10.7435 34.3362 10.8328V10.8693C34.3444 10.9098 34.3444 10.9504 34.3362 10.9909C34.3566 11.1369 34.3566 11.283 34.3362 11.4249V11.506C34.3281 11.5547 34.3118 11.6034 34.2955 11.652C34.2548 11.8345 34.1693 12.0089 34.0431 12.1509L33.986 12.1955H33.9494C33.868 12.2523 33.7743 12.2807 33.6766 12.2847H33.701L33.6929 12.2888Z" fill="white"/>
<path id="&#232;&#183;&#175;&#229;&#190;&#132; 65" d="M33.6965 12.2788C33.7902 12.2748 33.8838 12.2423 33.9653 12.1896H34.0019L34.0589 12.145C34.1811 12.003 34.2666 11.8327 34.3032 11.6502C34.3236 11.6056 34.3358 11.5569 34.344 11.5042V11.4474C34.3684 11.3014 34.3684 11.1554 34.344 11.0134V10.8877V10.8512C34.3603 10.7944 34.3603 10.7336 34.344 10.6768C34.344 10.6403 34.2747 10.6322 34.1811 10.6119C34.0874 10.5916 34.0101 10.8106 33.953 11.0418C33.9571 11.0945 33.9449 11.1473 33.9123 11.1919C33.8675 11.273 33.8268 11.3541 33.7902 11.4433L33.7535 11.5123V11.5529C33.7291 11.5975 33.7006 11.638 33.6721 11.6826C33.5662 11.8327 33.4196 12.0355 33.4685 12.218C33.5377 12.2707 33.6232 12.2991 33.7128 12.2991" fill="white"/>
<path id="&#232;&#183;&#175;&#229;&#190;&#132; 66" d="M32.7898 12.0899C32.7165 12.0777 32.6473 12.0493 32.5862 12.0006C32.4518 11.6924 32.9364 11.3517 32.9934 11.3112C33.0667 11.3274 33.1237 11.3801 33.1441 11.4491C33.1929 11.6194 33.1603 11.806 33.0545 11.9479C32.9038 12.0453 32.8468 12.0858 32.7857 12.0858L32.7898 12.0899Z" fill="white"/>
<path id="&#232;&#183;&#175;&#229;&#190;&#132; 67" d="M32.7903 12.0517C32.8432 12.0517 32.9084 12.0111 33.0468 11.9138C33.1527 11.7719 33.1853 11.5893 33.1405 11.419C33.116 11.3541 33.0672 11.3054 33.002 11.2852C32.945 11.3257 32.4645 11.6705 32.5948 11.9665C32.6518 12.0111 32.7211 12.0436 32.7943 12.0558" fill="white"/>
</g>
</g>
</g>
</g>
</g>
</svg>
