<svg width="36" height="36" viewBox="0 0 36 36" fill="none" xmlns="http://www.w3.org/2000/svg">
<g id="Frame">
<path id="Vector" d="M17.808 32.232C25.632 32.232 32.016 25.872 32.016 18.024C32.016 10.2 25.656 3.81598 17.808 3.81598C9.96001 3.83998 3.60001 10.2 3.60001 18.048C3.60001 25.872 9.96001 32.232 17.808 32.232ZM17.808 5.61598C24.648 5.61598 30.24 11.184 30.24 18.048C30.24 24.912 24.672 30.48 17.808 30.48C10.968 30.48 5.37601 24.912 5.37601 18.048C5.37601 11.184 10.944 5.61598 17.808 5.61598ZM10.704 18.912H22.752L18.936 22.728C18.6 23.064 18.6 23.64 18.936 23.976C19.272 24.312 19.848 24.312 20.184 23.976L25.512 18.648C25.848 18.312 25.848 17.736 25.512 17.4L20.208 12.096C20.04 11.928 19.8 11.832 19.584 11.832C19.368 11.832 19.128 11.928 18.96 12.096C18.624 12.432 18.624 13.008 18.96 13.344L22.776 17.16H10.704C10.224 17.16 9.81601 17.568 9.81601 18.048C9.81601 18.528 10.2 18.912 10.704 18.912Z" fill="white"/>
</g>
</svg>
