<svg width="36" height="36" viewBox="0 0 36 36" fill="none" xmlns="http://www.w3.org/2000/svg">
<g id="Frame">
<path id="Vector" d="M18.192 3.76796C10.368 3.76796 3.98403 10.128 3.98403 17.976C3.98403 25.8 10.344 32.184 18.192 32.184C26.04 32.16 32.4 25.8 32.4 17.952C32.4 10.128 26.04 3.76796 18.192 3.76796ZM18.192 30.384C11.352 30.384 5.76003 24.816 5.76003 17.952C5.76003 11.088 11.328 5.51996 18.192 5.51996C25.032 5.51996 30.624 11.088 30.624 17.952C30.624 24.816 25.056 30.384 18.192 30.384ZM25.296 17.088L13.248 17.088L17.064 13.272C17.4 12.936 17.4 12.36 17.064 12.024C16.728 11.688 16.152 11.688 15.816 12.024L10.488 17.352C10.152 17.688 10.152 18.264 10.488 18.6L15.792 23.904C15.96 24.072 16.2 24.168 16.416 24.168C16.632 24.168 16.872 24.072 17.04 23.904C17.376 23.568 17.376 22.992 17.04 22.656L13.224 18.84L25.296 18.84C25.776 18.84 26.184 18.432 26.184 17.952C26.184 17.472 25.8 17.088 25.296 17.088Z" fill="white"/>
</g>
</svg>
