<svg width="131" height="30" viewBox="0 0 131 30" fill="none" xmlns="http://www.w3.org/2000/svg">
<g id="Group 1597883384">
<path id="Vector" d="M108.129 24.1127H111.823V10.2738H108.129V24.1115V24.1127ZM108.129 8.69479H111.823V5.09825H108.129V8.69479ZM102.489 24.1127H106.181V20.5161H102.489V24.1127ZM76.3672 22.2353C76.5827 22.7922 76.9122 23.2283 77.3023 23.569C77.6986 23.9133 78.1631 24.1827 78.7142 24.3362C79.2716 24.4896 79.8908 24.5488 80.5423 24.5488C81.2185 24.5488 81.8205 24.4799 82.3345 24.3458C82.8113 24.2202 83.2695 24.0438 83.6944 23.8191V21.2797C83.0181 21.5648 82.3852 21.6675 81.6632 21.7001C80.9002 21.7351 80.4494 21.5225 80.0741 21.1746C79.6815 20.8097 79.471 20.3349 79.471 19.5376V11.8492H83.6944V8.696H79.471V5.09705H76.0402V8.69359H73.9831V11.8467H76.039V20.1018C76.039 20.9547 76.1505 21.6723 76.3672 22.2341V22.2353ZM54.1084 13.3726H44.9123V17.0911H50.077C49.8189 18.1369 49.2774 19.0958 48.509 19.8674C47.3559 21.0151 45.757 21.6469 44.0069 21.6469C40.3756 21.6469 37.4205 18.7692 37.4205 15.2319C37.4205 11.6957 40.3756 8.81681 44.0069 8.81681C45.9514 8.81681 47.7411 9.62866 48.9809 11.0277L51.9372 8.67426C50.957 7.55672 49.7411 6.6587 48.3724 6.04155C47.0038 5.4244 45.5147 5.10264 44.0069 5.09825C38.2688 5.09825 33.6008 9.64437 33.6008 15.2319C33.6008 20.8194 38.2701 25.3655 44.0069 25.3655C46.7936 25.3655 49.3611 24.3869 51.2387 22.5192C52.8141 20.9523 53.8582 18.7644 54.0588 16.5729C54.1579 15.5037 54.1654 14.4418 54.1084 13.3726ZM93.1307 11.5592C95.2486 11.5592 97.0568 12.8555 97.7628 14.6786H88.4986C88.8546 13.7613 89.4885 12.9715 90.3159 12.4142C91.1434 11.857 92.1252 11.5588 93.1307 11.5592ZM101.42 17.6215C101.484 17.2113 101.516 16.7969 101.516 16.382C101.516 11.8733 97.7616 8.21759 93.1307 8.21759C88.5011 8.21759 84.7459 11.8733 84.7459 16.382C84.7459 20.8907 88.5011 24.5464 93.1307 24.5464C94.6367 24.5474 96.1153 24.1526 97.4109 23.4037C98.7065 22.6548 99.7714 21.5793 100.494 20.2902L97.3962 18.8272C96.9009 19.6482 96.1677 20.3079 95.2889 20.7234C94.41 21.1389 93.4249 21.2915 92.4573 21.1621C91.4898 21.0327 90.5831 20.627 89.8514 19.9962C89.1196 19.3653 88.5955 18.5374 88.345 17.6167H97.9151V17.6215H101.42ZM63.7218 21.1999C62.4103 21.2006 61.1522 20.6931 60.2242 19.7892C59.2961 18.8853 58.774 17.6589 58.7727 16.3796C58.7727 13.7169 60.9897 11.5592 63.7218 11.5592C64.3714 11.5586 65.0147 11.6828 65.615 11.9247C66.2154 12.1666 66.761 12.5215 67.2207 12.9691C67.6804 13.4168 68.0452 13.9483 68.2943 14.5335C68.5433 15.1187 68.6718 15.746 68.6722 16.3796C68.6722 19.0422 66.4553 21.1999 63.7218 21.1999ZM63.7218 8.23209C59.0922 8.23209 55.3395 11.8866 55.3395 16.3953C55.3395 20.9039 59.0922 24.5585 63.7218 24.5585C68.3515 24.5585 72.1042 20.9039 72.1042 16.3953C72.1042 11.8866 68.3515 8.23209 63.7218 8.23209Z" fill="white"/>
<path id="Vector_2" d="M68.674 24.1121H72.1072V8.68097H68.674V24.1121ZM122.129 21.1994C121.479 21.2 120.836 21.0758 120.236 20.8339C119.635 20.592 119.09 20.2371 118.63 19.7895C118.17 19.3418 117.805 18.8103 117.556 18.2251C117.307 17.6399 117.179 17.0126 117.178 16.379C117.178 13.7176 119.395 11.5587 122.129 11.5587C122.778 11.5582 123.421 11.6825 124.022 11.9245C124.622 12.1665 125.167 12.5214 125.627 12.969C126.086 13.4166 126.451 13.9482 126.7 14.5333C126.949 15.1183 127.078 15.7455 127.078 16.379C127.078 17.0125 126.949 17.6397 126.7 18.2248C126.451 18.8099 126.086 19.3414 125.627 19.789C125.167 20.2367 124.622 20.5916 124.022 20.8336C123.421 21.0756 122.778 21.1999 122.129 21.1994ZM122.129 8.21826C117.499 8.21826 113.744 11.874 113.744 16.3827C113.744 20.8913 117.499 24.5471 122.129 24.5471C126.758 24.5471 130.514 20.8913 130.514 16.3827C130.514 11.874 126.758 8.21826 122.129 8.21826Z" fill="white"/>
<path id="Vector_3" d="M15.3556 22.548C10.8338 22.548 7.16771 18.978 7.16771 14.5745C7.16771 10.1709 10.8338 6.60094 15.3544 6.60094V0.0771484C7.13427 0.0771484 0.468506 6.56711 0.468506 14.5745C0.468506 22.5806 7.13303 29.0718 15.3556 29.0718C23.577 29.0718 30.2427 22.5806 30.2427 14.5745H23.5423C23.5423 18.978 19.8763 22.548 15.3556 22.548Z" fill="white"/>
<path id="Vector_4" d="M15.3546 14.5715H23.5425V6.59802H15.3559V14.5715H15.3546Z" fill="white"/>
</g>
</svg>
