<svg width="81" height="49" viewBox="0 0 81 49" fill="none" xmlns="http://www.w3.org/2000/svg">
<g id="Mask group">
<mask id="mask0_1379_6116" style="mask-type:alpha" maskUnits="userSpaceOnUse" x="0" y="0" width="81" height="49">
<rect id="Rectangle 346247391" x="0.357056" y="0.0627441" width="79.8381" height="48.6732" fill="#D9D9D9"/>
</mask>
<g mask="url(#mask0_1379_6116)">
<g id="Group 1597883343">
<path id="Vector" d="M73.5941 47.1963C73.5941 47.9049 73.0608 48.3811 72.4288 48.3811V48.3763C71.7804 48.3811 71.2558 47.9049 71.2558 47.1954C71.2558 46.4868 71.7794 46.0125 72.4288 46.0125C73.0608 46.0125 73.5941 46.4868 73.5941 47.1954V47.1963ZM74.0664 47.1963C74.0664 46.2223 73.2922 45.6564 72.4288 45.6564C71.5597 45.6564 70.7855 46.2223 70.7855 47.1963C70.7855 48.1685 71.5597 48.7363 72.4288 48.7363C73.2922 48.7363 74.0664 48.1685 74.0664 47.1963ZM72.1569 47.3258H72.333L72.7395 48.0221H73.1847L72.7347 47.2965C72.967 47.2804 73.1586 47.1727 73.1586 46.8666C73.1586 46.4868 72.8905 46.3649 72.4366 46.3649H71.7785V48.0221H72.1569V47.3258ZM72.1569 47.0452V46.6465H72.4201C72.5634 46.6465 72.7579 46.6578 72.7579 46.8279C72.7579 47.013 72.6573 47.0452 72.4889 47.0452H72.1569ZM63.0369 38.7161L65.0791 44.1693H60.9319L63.0369 38.7161ZM60.8496 36.5923L56.1439 48.2318H59.4665L60.2118 46.175H65.7807L66.4853 48.2318H70.0925L65.351 36.5914L60.8506 36.5923H60.8496ZM51.4025 48.2365H54.7735V36.5895L51.4015 36.5885V48.2356L51.4025 48.2365ZM27.9962 36.5867L25.1827 45.8189L22.4882 36.5885L18.8511 36.5876L22.6992 48.2356H27.5558L31.4359 36.5867H27.9962ZM41.6234 39.1233H43.0732C45.1754 39.1233 46.5352 40.0445 46.5352 42.4357C46.5352 44.8269 45.1754 45.748 43.0732 45.748H41.6234V39.1233ZM38.2805 36.5876V48.2356H43.7459C46.6591 48.2356 47.6095 47.7632 48.6374 46.7032C49.3632 45.9587 49.8336 44.3252 49.8336 42.5396C49.8336 40.9014 49.4368 39.4417 48.7429 38.5319C47.4943 36.906 45.6951 36.5876 43.0103 36.5876H38.2805ZM6.34558 36.5725V48.2356H9.74561V39.3784L12.3801 39.3794C13.2531 39.3794 13.8744 39.5919 14.2945 40.0294C14.8268 40.5839 15.0445 41.4777 15.0445 43.114V48.2346H18.3391V41.7913C18.3391 37.1913 15.3359 36.5715 12.3975 36.5715H6.34558V36.5725ZM32.8567 36.5885L32.8577 48.2365H36.2277V36.5867H32.8567V36.5885Z" fill="white"/>
<path id="Vector_2" d="M15.4045 13.3988C15.4045 13.3988 19.7404 7.15389 28.3987 6.50767V4.24024C18.8103 4.99321 10.5043 12.9226 10.5043 12.9226C10.5043 12.9226 15.208 26.1956 28.3997 27.4105V25.0023C18.7183 23.8129 15.4035 13.3988 15.4035 13.3988H15.4045ZM28.3987 20.2114V22.4175C21.0828 21.1439 19.0522 13.7209 19.0522 13.7209C19.0522 13.7209 22.5655 9.92298 28.3987 9.30605V11.7265L28.3881 11.7256C25.3258 11.3666 22.9333 14.1584 22.9333 14.1584C22.9333 14.1584 24.2747 18.8595 28.3987 20.2114ZM28.3987 0.0625V4.24118C28.6803 4.2204 28.962 4.20339 29.2446 4.19395C40.1473 3.83494 47.2513 12.9217 47.2513 12.9217C47.2513 12.9217 39.0924 22.6055 30.5918 22.6055C29.8565 22.6055 29.1226 22.5422 28.3987 22.4165V25.0014C29.0046 25.077 29.6153 25.1157 30.226 25.1166C38.1362 25.1166 43.8561 21.1732 49.3951 16.5061C50.3135 17.2241 54.0736 18.971 54.8459 19.7353C49.5799 24.0396 37.3057 27.5088 30.347 27.5088C29.6762 27.5088 29.0317 27.4691 28.3987 27.4096V31.0413H58.4647V0.0625H28.3987ZM28.3987 9.30605V6.50767C28.6774 6.48877 28.9581 6.47366 29.2446 6.46515C37.0851 6.22424 42.2282 13.0407 42.2282 13.0407C42.2282 13.0407 36.6728 20.5733 30.7167 20.5733C29.8592 20.5733 29.0907 20.4391 28.3987 20.2114V11.7265C31.4513 12.0855 32.0649 13.4025 33.8999 16.388L37.9813 13.0294C37.9813 13.0294 35.0023 9.21536 29.9802 9.21536C29.4343 9.21536 28.9117 9.25315 28.3987 9.30605Z" fill="white"/>
</g>
</g>
</g>
</svg>
