<svg width="104" height="26" viewBox="0 0 104 26" fill="none" xmlns="http://www.w3.org/2000/svg">
<g id="amd_logo.svg" clip-path="url(#clip0_1379_6102)">
<g id="Group">
<path id="Vector" d="M24.5378 23.4563H18.7313L17.008 19.3016H7.41784L5.80698 23.4563H0.150269L8.76646 2.42529H14.9476L24.5378 23.4563ZM11.9882 7.42567L8.80392 15.6248H15.3972L11.9882 7.42567Z" fill="white"/>
<path id="Vector_2" d="M45.366 2.42542H50.0112V23.4564H44.6542V10.3672L38.8851 16.9486H38.061L32.2919 10.3304V23.4196H26.9723V2.42542H31.6175L38.5105 10.2569L45.366 2.42542Z" fill="white"/>
<path id="Vector_3" d="M63.5357 2.42542C71.3652 2.42542 75.411 7.20519 75.411 12.9777C75.411 19.0075 71.515 23.4564 62.9738 23.4564H54.0953V2.42542H63.5357ZM59.4524 19.5958H62.9363C68.2933 19.5958 69.9042 16.0294 69.9042 12.9409C69.9042 9.30093 67.9187 6.286 62.8614 6.286H59.4524V19.5958Z" fill="white"/>
<path id="Vector_4" d="M97.0636 7.42686H86.0124L79.2693 0.808716H103.807V24.8546L97.0636 18.2733V7.42686Z" fill="white"/>
<path id="Vector_5" d="M86.0132 18.2739V8.7511L79.0828 15.5531V25.0759H88.7853L95.7158 18.2739H86.0132Z" fill="white"/>
</g>
</g>
<defs>
<clipPath id="clip0_1379_6102">
<rect width="103.657" height="24.2665" fill="white" transform="translate(0.150269 0.808716)"/>
</clipPath>
</defs>
</svg>
