<svg width="126" height="37" viewBox="0 0 126 37" fill="none" xmlns="http://www.w3.org/2000/svg">
<g id="Group 1597883370">
<path id="Vector" d="M62.8651 7.00074C62.5544 6.84926 62.2436 6.77352 62.2436 6.84926C62.2436 6.84926 62.1659 6.925 62.3213 6.925C62.3213 6.925 63.0205 7.00074 63.0982 7.53093C63.0982 7.53093 63.2536 8.28834 62.399 9.04576V9.19724C62.399 9.34872 62.3213 9.42446 62.2436 9.65169C62.0882 9.80317 61.6221 10.4091 61.4667 10.5606C61.3113 10.7121 61.3113 10.7878 61.2336 10.9393C61.1559 11.0908 61.0006 11.0908 60.8452 11.2423C60.6898 11.318 60.5344 11.3937 60.3014 11.4695C60.0683 11.4695 59.7575 11.5452 59.6022 11.621C59.4468 11.6967 59.4468 11.621 59.3691 11.3937C59.3691 11.1665 59.2914 10.1819 59.2914 10.1061C59.2914 9.95465 59.2137 9.95465 59.2137 9.80317C59.2137 9.65169 59.3691 9.5002 59.3691 9.34872C59.3691 9.19724 59.3691 8.89427 59.6798 8.74279C59.9906 8.59131 60.6898 8.36408 61.0783 8.13686C61.4667 7.98538 61.8552 7.8339 62.0105 7.53093C62.0105 7.53093 62.0882 7.37945 62.1659 7.45519C62.2436 7.45519 62.1659 7.75815 62.3213 7.68241C62.399 7.60667 62.399 7.68241 62.399 7.53093C62.399 7.37945 62.4767 7.30371 62.6321 7.37945C62.6321 7.37945 63.0205 7.45519 63.0205 7.37945C63.0205 7.30371 62.7874 7.22797 62.6321 7.15223C62.4767 7.07648 62.3213 7.00074 62.2436 7.07648C62.2436 7.15223 62.1659 7.22797 62.0882 7.22797C62.0105 7.22797 61.8552 7.15223 61.8552 7.30371C61.9328 7.37945 61.9328 7.45519 61.8552 7.53093C61.7775 7.60667 61.7775 7.53093 61.6998 7.53093H61.4667C61.3113 7.53093 61.3113 7.53093 61.389 7.37945C61.389 7.22797 61.4667 7.22797 61.4667 7.15223C61.4667 7.07648 61.3113 7.00074 61.2336 7.07648C61.1559 7.07648 61.1559 7.15223 61.0006 7.22797C60.8452 7.15223 60.6898 7.22797 60.6898 7.22797C60.6898 7.22797 60.5344 7.15223 60.5344 7.22797C60.5344 7.30371 60.4567 7.30371 60.379 7.30371C60.3014 7.30371 60.3014 7.22797 60.379 7.15223C60.4567 7.15223 60.379 7.00074 60.3014 7.00074C60.2237 7.00074 60.2237 6.925 60.379 6.84926C60.5344 6.84926 60.6121 6.77352 60.6121 6.69778C60.6121 6.69778 60.6898 6.62204 60.4567 6.62204C60.3014 6.62204 59.4468 6.69778 59.2914 6.69778C59.136 6.69778 59.0583 6.69778 59.0583 6.77352C59.0583 6.84926 59.136 6.84926 59.136 6.84926C59.7575 6.77352 59.9906 6.84926 59.9906 6.925C59.9906 7.00074 59.5245 6.925 59.5245 6.925C59.2137 6.925 59.136 7.00074 59.0583 7.07648C58.9806 7.15223 58.9029 7.15223 58.9029 7.15223C58.7476 6.925 58.4368 6.925 58.2814 6.925H58.126C57.893 6.925 57.6599 6.5463 57.3491 6.24333C57.0384 5.94037 56.8053 5.41018 56.4946 4.87999C56.2615 4.3498 55.9507 4.04683 55.9507 4.04683C55.3292 3.21368 54.1639 3.13794 54.0085 3.13794C53.8531 3.13794 53.9308 3.36516 53.9308 3.36516C53.9308 3.36516 54.1639 3.66813 54.1639 3.89535L53.9308 3.97109C53.9308 3.97109 54.1639 4.3498 54.2416 4.65276C54.3192 4.95573 54.3192 5.56166 54.3192 5.94037C54.3192 6.31907 54.2416 6.77352 54.1639 6.925C54.1639 6.925 54.0085 7.22797 54.0862 7.45519C54.1639 7.60667 54.1639 7.90964 54.0862 8.13686C54.0085 8.36408 53.7754 8.51557 53.7754 8.66705C53.7754 8.81853 53.8531 8.81853 53.6977 8.89427C53.5423 8.97001 52.8431 9.19724 52.6101 9.34872C52.377 9.5002 52.1439 9.5002 51.9109 9.65169C51.6778 9.72743 51.6001 9.80317 51.367 9.95465C51.134 10.0304 50.6678 10.1819 50.5901 10.3334C50.5124 10.4848 50.4348 10.5606 49.9686 10.6363C49.9686 10.6363 49.8132 10.6363 49.9686 10.3334C50.124 10.0304 49.8909 9.95465 49.8132 9.65169C49.7355 9.34872 49.7355 9.34872 49.5802 9.04576C49.5025 8.74279 49.5025 8.66705 49.4248 8.43983C49.3471 8.28834 49.114 8.28834 49.0363 8.51557C49.0363 8.74279 48.9587 8.66705 48.8033 8.89427C48.7256 9.1215 48.4925 9.72743 48.3371 10.1061C48.1818 10.4848 47.9487 10.9393 47.871 11.318C47.7933 11.6967 47.5602 11.8482 47.4825 12.0754C47.4049 12.2269 47.4049 12.2269 47.4049 12.4541C47.4049 12.6056 47.3272 12.7571 47.2495 12.9843C47.1718 13.1358 47.0164 13.2873 46.9387 13.5902C46.861 13.8932 46.7833 14.3476 46.7833 14.7263C46.7833 15.1051 46.7056 15.4838 46.861 15.711C47.0164 15.8625 47.0164 15.8625 47.1718 16.2412C47.3272 16.5441 47.3272 16.6956 47.4825 16.7714C47.4825 16.7714 47.7933 17.3016 48.0264 17.3016C48.2594 17.3016 48.4148 17.2258 48.6479 17.1501C48.881 17.0743 49.0363 16.9228 49.114 17.2258C49.1917 17.5288 49.1917 18.2862 49.5802 18.4377C49.5802 18.4377 49.8132 18.4377 50.124 18.5134C50.4348 18.5892 50.6678 18.5892 50.9009 18.5134C51.134 18.4377 51.2893 18.2104 52.0662 18.1347C52.0662 18.1347 53.4647 17.9832 54.0862 17.6045C54.0862 17.6045 54.1639 17.8317 54.2416 18.1347C54.3192 18.3619 54.3969 18.7406 54.3192 18.9679C54.3192 19.1951 54.1639 19.801 54.3192 20.2555C54.3192 20.2555 54.4746 20.8614 54.4746 21.2401V22.3005C54.4746 22.6034 54.5523 22.9821 54.63 23.1336C54.7077 23.2851 54.7077 23.3608 54.63 23.5881C54.5523 23.8153 54.5523 24.2697 54.63 24.6485C54.63 24.6485 54.7854 25.1029 54.7854 25.3301C54.7854 25.5573 54.7854 25.7846 54.8631 25.7846C54.8631 25.7846 54.9408 25.8603 54.9408 25.7088V25.3301C54.9408 25.1786 54.8631 25.1786 55.0185 25.1786C55.0961 25.1786 55.0961 25.1786 55.1738 25.3301C55.1738 25.3301 55.0961 25.5573 55.2515 25.4816C55.3292 25.4816 55.4069 25.2544 55.2515 25.0272C55.0961 24.7999 55.0185 25.1029 55.0185 24.3455C55.0185 24.3455 55.0961 23.7396 55.2515 23.9668C55.2515 23.9668 55.64 24.7999 55.7177 25.4816C55.7177 25.4816 55.7954 25.5573 55.9507 25.4816C56.1061 25.4059 56.2615 25.4816 56.1061 25.6331C55.9507 25.7846 55.873 25.7088 55.873 26.1633C55.873 26.4662 55.7177 27.0722 55.9507 27.0722C55.9507 27.0722 56.0284 27.1479 56.1838 26.9964C56.1838 26.9964 56.3392 26.9207 56.4169 27.0722C56.4946 27.2237 56.4169 27.4509 56.5723 27.3751C56.5723 27.3751 56.5723 27.4509 56.6499 27.1479C56.6499 26.8449 56.6499 26.4662 56.8053 26.542C56.9607 26.6177 57.0384 26.6177 57.0384 26.4662C57.0384 26.4662 56.9607 26.1633 56.9607 26.0118C56.9607 25.7846 56.9607 25.5573 57.1161 25.9361C57.1161 25.9361 57.1938 26.0118 57.3491 25.7846C57.5045 25.5573 57.5822 25.5573 57.5045 25.0272C57.5045 25.0272 57.3491 24.4212 57.5045 24.1183C57.5822 23.7396 57.5822 23.5123 57.5822 23.2851C57.5822 23.0579 57.6599 22.8307 57.8153 22.6034C57.893 22.3762 58.4368 21.846 58.4368 20.3312C58.4368 20.3312 58.5145 19.6495 58.5145 19.3466C58.5145 19.0436 58.5145 18.7406 58.7476 18.5892C58.9806 18.4377 59.0583 18.2862 59.136 18.059C59.2137 17.8317 59.5245 16.6956 59.9129 16.2412L60.0683 15.9382C60.146 15.8625 60.379 15.711 60.6121 15.711C60.6121 15.711 61.4667 15.5595 61.8552 15.3323C61.8552 15.3323 62.2436 15.1808 62.1659 14.8778C62.1659 14.8778 62.4767 15.0293 62.6321 13.666L62.9428 11.8482C63.0205 11.4695 63.0982 11.1665 63.2536 11.0908C63.2536 11.0908 63.409 11.015 63.3313 10.8635C63.3313 10.7121 63.409 9.5002 63.642 8.66705C63.642 8.66705 63.7974 7.90964 63.4866 7.53093C63.1759 7.15223 63.0205 7.07648 62.8651 7.00074ZM54.0862 13.5902C53.9308 13.7417 53.6977 14.0447 53.5423 14.1962C53.387 14.4234 53.3093 14.4991 53.0762 14.5749C52.8431 14.7263 52.0662 14.8778 51.4447 14.9536C50.8232 15.0293 50.124 15.711 49.9686 15.8625C49.8909 16.0139 49.4248 16.0897 49.2694 16.0897C49.114 16.0897 49.114 15.8625 49.2694 15.711C49.3471 15.5595 49.3471 15.6352 49.3471 15.4838C49.3471 15.3323 49.3471 15.2565 49.4248 15.1051C49.5025 14.9536 49.5025 14.9536 49.6579 14.8021C49.8132 14.6506 49.9686 14.4991 49.9686 14.3476C50.0463 14.1204 50.0463 14.0447 50.124 13.8932C50.2017 13.666 50.3571 13.5145 50.5124 13.2873C50.6678 13.06 50.9786 12.6813 50.9786 12.6813C51.367 12.3026 51.8332 12.0754 51.9886 11.9997C52.2216 11.9239 52.2993 11.9239 52.9208 11.6967C53.5423 11.3937 53.7754 11.1665 53.8531 11.015C53.9308 10.8635 54.0085 10.9393 54.0085 10.9393C54.0085 10.9393 54.0862 11.3937 54.1639 11.7724C54.2416 12.1511 54.2416 12.2269 54.3192 12.4541L54.4746 12.9086C54.3192 13.4387 54.2416 13.4387 54.0862 13.5902Z" fill="white"/>
<path id="Vector_2" d="M61.1542 6.84651C61.3096 6.77077 61.2319 6.84651 61.3873 6.84651H61.698C61.8534 6.84651 61.8534 6.84651 61.9311 6.77077C62.0088 6.69503 61.7757 6.69503 61.6204 6.69503C61.5427 6.69503 61.465 6.61929 61.3873 6.61929C61.2319 6.61929 60.9988 6.54355 60.9988 6.54355C60.7658 6.54355 60.6881 6.77077 60.6881 6.77077C60.8435 6.99799 60.9988 6.84651 61.1542 6.84651ZM61.5427 7.22522C61.5427 7.3767 61.6204 7.3767 61.6204 7.3767C61.6204 7.30096 61.698 7.14948 61.698 7.14948H62.0865C62.1642 7.07373 61.7757 6.99799 61.6204 6.99799C61.465 6.99799 61.5427 7.14948 61.5427 7.22522ZM55.3275 26.4635C55.4052 26.312 55.4052 26.1605 55.3275 26.009C55.2498 25.8576 55.3275 25.8576 55.2498 25.7818C55.1721 25.7061 55.1721 25.7061 55.0944 25.7061C55.0944 25.7061 55.0167 25.7061 55.0167 25.8576C55.0167 25.9333 55.0167 26.0848 55.0944 26.2363C55.1721 26.312 55.2498 26.4635 55.2498 26.5392C55.2498 26.5392 55.3275 26.5392 55.3275 26.4635ZM55.6382 26.615C55.6382 26.4635 55.6382 25.8576 55.5606 25.9333C55.5606 25.9333 55.4829 25.8576 55.4829 26.009V26.615C55.4829 26.7665 55.6382 26.8422 55.6382 26.615ZM56.959 26.615C57.0367 26.5392 57.1143 26.5392 57.1143 26.2363C57.1143 26.009 57.192 25.7818 57.1143 25.7818C57.1143 25.7818 56.959 25.6303 56.959 25.8576C57.0367 26.0848 56.8813 26.615 56.959 26.615ZM70.3993 12.7543C70.2439 12.3756 70.3216 12.3756 70.3993 12.1484C70.477 11.9212 70.6324 11.6182 70.477 11.0123C70.477 11.0123 70.2439 10.6336 70.3216 10.1791C70.3993 9.72468 70.1662 9.49745 70.0885 9.19449C69.9332 8.74004 69.7001 8.74004 69.7001 8.43708C69.7001 8.20985 69.467 7.98263 69.467 7.98263C69.467 7.98263 69.3893 7.98263 69.3116 8.20985C69.234 8.43708 68.9232 9.19449 69.0786 9.72468C69.0786 9.72468 69.0009 9.9519 69.0786 10.2549C69.1563 10.5578 69.1563 10.7851 69.1563 10.9365C69.1563 11.088 69.234 11.1638 69.1563 11.391C69.0786 11.6182 69.1563 11.9969 69.0009 12.2999C68.8455 12.5271 68.6901 12.9058 68.6901 13.3603C68.7678 13.8904 68.7678 14.1934 68.6124 14.8751C68.6124 14.8751 68.3794 15.7082 68.3794 16.0112C68.4571 16.3899 68.3017 16.8444 68.224 17.1473C68.1463 17.4503 68.0686 18.0562 68.0686 18.3592C68.1463 18.5864 68.224 19.0408 68.1463 19.3438C68.0686 19.6468 68.0686 19.7225 67.9909 20.0255C67.9132 20.4042 67.9132 20.7829 68.1463 21.3888C68.3794 21.919 68.8455 22.222 69.0009 22.222C69.1563 22.1462 69.5447 21.4646 69.3893 20.5557C69.3893 20.5557 69.234 19.9497 69.3116 19.2681C69.3116 19.2681 69.5447 18.4349 69.3893 18.2077C69.3893 18.2077 69.1563 18.0562 69.3116 17.3745C69.3116 17.3745 69.3893 16.9958 69.3893 16.7686C69.3893 16.5414 69.3116 16.3142 69.5447 15.5568C69.7001 14.7993 69.7778 14.7236 69.9332 14.1934C70.0885 13.6632 70.0885 13.436 70.1662 13.2845C70.3993 13.133 70.477 13.133 70.3993 12.7543ZM80.8097 24.7214C80.9651 25.2516 81.0428 25.2516 81.3536 25.5546C81.742 25.7818 82.2858 26.0848 82.5966 26.2363C82.985 26.3877 83.4512 25.5546 83.4512 25.5546C83.7619 24.9487 83.6842 24.267 83.6842 23.964C83.6066 23.6611 83.6842 23.5096 83.7619 23.2066C83.8396 22.9037 83.8396 22.8279 83.8396 22.5249C83.8396 22.222 83.7619 21.919 83.6842 21.6918C83.6066 21.4646 83.5289 21.1616 83.6842 20.9344C83.8396 20.7829 83.7619 20.3284 83.7619 20.1012C83.6842 19.874 83.6842 19.6468 83.7619 19.4196C83.8396 19.1923 83.8396 18.3592 83.8396 18.0562C83.7619 17.7532 83.8396 17.526 83.8396 17.0716C83.8396 16.6171 83.8396 16.2384 83.7619 15.9355C83.6842 15.7082 83.7619 14.7236 83.6842 14.0419C83.6066 13.2845 83.6066 12.5271 83.6066 11.7697C83.6066 11.0123 83.5289 10.5578 83.4512 10.2549C83.3735 10.0276 83.3735 9.64894 83.5289 9.42171C83.6066 9.19449 83.6842 8.81578 83.6066 8.51282C83.5289 8.13411 83.4512 8.05837 83.4512 7.83115C83.3735 7.60392 83.4512 7.30096 83.5289 7.07373C83.6066 6.84651 83.6842 6.39206 83.6842 6.39206C83.6842 5.86187 83.4512 5.40743 83.1404 5.02872C82.8297 4.65001 82.5966 4.34705 82.5966 4.34705C82.1305 3.96834 81.742 4.04408 81.4312 4.11983C81.1982 4.19557 80.8097 4.19557 80.0328 4.27131C79.3336 4.34705 78.9452 4.49853 78.7898 4.65001C78.5567 4.8015 78.5567 4.8015 78.246 4.8015C78.0129 4.72576 77.8575 4.87724 77.6244 4.95298C77.3914 5.02872 76.9252 5.02872 76.9252 5.02872C76.4591 5.10446 75.3714 5.40743 75.3714 5.40743C74.7499 5.55891 74.3615 5.78613 74.1284 5.86187C73.8953 6.01336 73.5069 6.16484 73.5069 6.16484C73.1184 6.61929 72.4969 6.69503 72.4969 6.69503C72.0308 6.77077 70.7877 7.14948 70.7877 7.14948C70.5547 7.22522 70.5547 7.30096 70.5547 7.30096C70.5547 7.30096 71.0985 7.3767 71.2539 7.60392C71.4093 7.83115 71.4093 7.83115 71.72 7.90689C71.9531 7.98263 72.5746 7.90689 72.8854 7.83115C73.1961 7.7554 73.6623 7.60392 73.973 7.45244C74.2838 7.30096 74.5945 7.22522 75.0607 7.07373C75.4491 6.92225 76.1483 6.69503 76.5368 6.54355C77.0029 6.39206 77.3137 6.39206 77.6244 6.31632L78.5567 6.0891C78.8675 6.01336 79.3336 6.01336 79.6444 6.01336C79.9551 6.01336 80.0328 6.0891 80.3436 6.0891C80.6543 6.0891 80.8874 6.16484 81.1205 6.39206C81.3536 6.61929 81.5089 6.92225 81.5089 6.92225C81.6643 7.45244 81.5866 7.52818 81.5089 8.05837C81.4312 8.51282 81.3536 10.0276 81.3536 10.6336C81.3536 11.2395 81.1982 12.3756 81.1982 12.3756C81.0428 13.0573 81.1982 13.0573 81.2759 13.5117C81.3536 13.9662 81.1982 14.9508 81.1982 14.9508C81.0428 15.178 81.0428 15.6325 81.0428 15.8597C81.1205 16.0869 81.1205 16.2384 81.1205 16.2384C81.0428 16.6171 81.1982 17.9805 81.3536 18.5864C81.5089 19.1923 81.3536 19.4953 81.1982 19.6468C81.0428 19.7983 80.9651 20.4042 81.0428 20.7072C81.1205 21.0859 81.1205 21.4646 80.9651 21.616C80.8097 21.8433 80.732 21.616 80.499 21.3888C80.2659 21.1616 79.7998 20.7829 79.6444 20.8586C79.489 20.9344 79.7221 21.919 79.9551 22.222C80.1882 22.5249 80.1882 22.7522 80.3436 22.9794C80.4213 23.2066 80.732 23.5853 80.732 23.5853C80.5767 23.7368 80.6543 24.1913 80.8097 24.7214Z" fill="white"/>
<path id="Vector_3" d="M78.5578 8.51462C78.4024 8.13591 78.3247 7.98443 78.0916 7.75721C77.9362 7.52998 77.6255 7.52998 77.3147 7.60572C77.004 7.68147 76.3824 7.75721 76.3824 7.75721C75.9163 7.75721 75.4502 7.98443 75.1394 8.13591C74.8287 8.2874 74.3625 8.51462 74.0518 8.51462C73.6633 8.59036 73.5079 8.6661 73.1195 8.81758C72.731 8.96907 72.498 9.19629 72.2649 9.27203C72.0318 9.34777 71.8764 9.42351 71.7211 9.65074C71.488 9.87796 71.0995 10.0294 71.0995 10.0294C70.3226 10.2567 70.6334 10.5596 70.6334 10.5596L71.3326 10.7869C71.7988 10.9383 71.5657 10.9383 71.5657 10.9383C71.488 11.4685 71.7988 11.6958 72.1095 11.6958C72.4203 11.6958 72.8864 11.62 73.1972 11.62C73.4302 11.62 73.5079 11.5443 73.5856 11.8472C73.6633 12.1502 73.6633 12.3774 73.6633 12.3774C73.741 13.2863 73.1972 13.1348 73.1972 13.1348C71.4103 13.8922 71.0995 14.271 70.9442 14.4982C70.7888 14.7254 70.5557 15.1041 70.7111 15.2556C70.8665 15.4071 71.1772 15.6343 71.3326 15.6343C71.488 15.6343 71.5657 15.6343 71.7211 15.9373C71.8764 16.2402 71.9541 16.316 72.1872 16.2402C72.4203 16.1645 72.498 16.2402 72.498 16.2402C72.498 16.2402 72.498 16.4674 72.4203 16.6947C72.3426 16.9219 72.1872 17.3006 71.9541 17.4521C71.7988 17.5278 71.7211 17.6793 71.5657 17.9065C71.4103 18.1338 71.4103 18.058 71.3326 18.2852C71.2549 18.5125 71.1772 18.6639 71.1772 18.6639C70.9442 19.4214 71.3326 19.8001 71.5657 20.0273C71.7988 20.2545 72.6533 20.1788 72.9641 20.103C73.1972 20.0273 73.1972 20.103 73.5079 19.9515C73.741 19.8001 73.8964 19.8001 74.2848 19.7243C74.6733 19.5728 74.9063 19.4971 75.1394 19.2699C75.3725 19.0427 75.9163 18.8912 76.2271 18.6639C76.5378 18.4367 77.004 18.4367 77.237 18.2852C77.4701 18.2095 77.9362 17.9065 78.1693 17.6793C78.4024 17.4521 78.5578 17.5278 78.6355 17.3006L78.7908 16.8462H78.5578C78.4024 16.8462 78.7131 16.316 78.7131 16.316C78.4801 16.3917 78.1693 16.316 77.9362 16.2402C77.7809 16.1645 77.3147 16.1645 77.0817 16.2402C76.9263 16.316 77.004 15.8615 77.0817 15.6343C77.1593 15.4071 77.1593 15.2556 77.1593 15.2556C77.004 15.0284 77.5478 15.1041 77.5478 15.1041C77.8586 14.3467 78.1693 14.271 78.3247 14.0437C78.4801 13.8165 78.7131 13.665 78.7131 13.3621C78.7908 13.0591 78.6355 12.8319 78.3247 12.6046C78.0139 12.3774 77.7032 12.1502 77.237 11.8472C76.8486 11.5443 77.0817 11.4685 77.1593 11.1656C77.237 10.7869 77.5478 10.7869 77.9362 10.3324C78.3247 9.87796 78.1693 10.0294 78.3247 9.80222C78.4024 9.575 78.5578 9.49925 78.5578 9.49925C78.7131 9.12055 78.5578 9.12055 78.6355 8.89332C78.5578 8.74184 78.7131 8.89332 78.5578 8.51462Z" fill="white"/>
<path id="Vector_4" d="M78.4012 15.0293C78.4012 15.0293 78.3235 15.1051 78.2458 15.2566C78.0905 15.4838 78.0905 15.4838 78.4012 15.4838C78.6343 15.4838 78.6343 15.408 79.1004 15.3323C79.5666 15.2566 79.7219 15.1808 80.1881 15.1808C80.1881 15.1808 80.6542 15.2566 80.7319 14.5749C80.8873 13.8175 80.5765 13.666 80.2658 13.5903C80.0327 13.5145 79.8773 13.5145 79.7219 13.4388C79.4889 13.363 79.0227 13.1358 79.0227 13.1358C79.0227 13.1358 79.3335 13.7417 79.1004 14.0447C79.0227 14.1204 78.4789 14.7264 78.4012 15.0293ZM103.728 22.8307C103.806 22.6792 103.65 22.7549 103.883 22.6035C103.883 22.6035 103.961 22.5277 103.961 22.3762C104.039 22.2248 104.117 21.9975 104.35 21.9218C104.583 21.846 104.505 21.846 104.66 21.7703C104.816 21.7703 104.893 21.6946 104.893 21.5431C104.893 21.3916 104.893 21.3916 104.66 21.3159C104.427 21.3159 104.427 21.1644 104.427 21.1644C104.427 21.1644 104.505 21.0886 104.505 20.9372C104.583 20.7099 104.35 20.9372 104.35 20.7099C104.35 20.4827 104.194 20.8614 104.194 20.8614C104.194 20.8614 104.194 20.7857 104.117 20.7857C104.117 20.7099 104.117 20.6342 104.039 20.7099C103.961 20.7857 103.883 20.5584 104.039 20.4827C104.039 20.4827 103.883 20.407 103.806 20.2555C103.806 20.2555 103.728 20.2555 103.728 20.3312C103.728 20.4827 103.573 20.4827 103.573 20.3312C103.573 20.2555 103.728 20.1797 103.728 20.1797C103.728 20.1797 103.806 20.0283 103.573 20.1797C103.417 20.2555 103.417 20.1797 103.495 20.104C103.573 20.0283 103.417 20.0283 103.34 20.0283C103.184 20.0283 103.184 20.0283 103.107 20.1797C102.951 20.3312 102.873 20.407 102.718 20.4827C102.64 20.5584 102.485 20.5584 102.407 20.6342C102.252 20.7099 101.708 20.7857 101.32 20.8614C100.854 20.9372 99.999 21.1644 99.7659 21.2401C99.5328 21.3159 99.2998 21.3159 99.0667 21.3916C98.9113 21.3916 98.2898 21.3916 98.0567 21.4673C97.746 21.5431 97.5129 21.5431 97.3575 21.6188C97.2021 21.6188 97.0468 21.5431 97.0468 21.5431C97.0468 21.5431 96.736 21.4673 96.6583 21.4673L96.5029 21.2401C96.3475 21.0129 96.3475 20.9372 96.1922 20.4827C96.0368 20.1797 96.1922 19.9525 96.3475 19.7253C96.5029 19.5738 96.8137 19.1951 96.9691 19.0436C97.1244 18.8921 97.2798 18.8921 97.5906 18.8921C97.5906 18.8921 97.8237 18.8164 98.0567 18.8164C98.2898 18.8164 98.4452 18.7407 98.6006 18.6649C98.7559 18.5892 98.8336 18.5892 98.989 18.5892C99.1444 18.5892 99.3774 18.4377 99.5328 18.4377C99.6882 18.4377 99.999 18.3619 100.232 18.3619C100.543 18.3619 100.62 18.2862 100.854 18.2862C101.087 18.2862 101.164 18.2862 101.32 18.059C101.475 17.9075 101.475 17.6803 101.708 17.4531C101.941 17.2258 102.174 17.1501 102.097 16.9229V16.2412C102.097 16.2412 102.174 16.0897 102.019 15.7867C101.864 15.4838 101.708 15.408 101.63 15.1808C101.553 14.9536 101.397 14.8779 101.63 14.3477C101.864 13.8175 102.097 13.4388 102.174 13.1358C102.252 12.8328 102.174 12.8328 102.33 12.5299C102.407 12.3784 102.407 12.3027 102.485 11.9997C102.563 11.6967 102.563 11.7725 102.64 11.4695V11.0908V10.6363C102.64 10.4849 102.563 10.4091 102.563 10.2576C102.563 10.1062 102.563 10.3334 102.485 10.0304C102.407 9.72745 102.33 9.72745 102.252 9.57597C102.097 9.42448 101.941 9.19726 101.941 8.89429C101.941 8.89429 102.097 8.74281 101.63 8.43985C101.63 8.43985 101.397 8.28836 101.242 8.28836C101.087 8.28836 100.931 8.28836 100.776 8.13688C100.62 7.9854 100.31 7.9854 100.154 7.9854C99.999 7.9854 99.9213 7.9854 99.6882 7.90966C99.5328 7.83392 99.1444 7.9854 99.0667 8.06114C98.9113 8.13688 97.9013 8.59133 97.5129 8.81855C97.2021 9.04578 97.0468 9.12152 96.8137 9.19726C96.5806 9.273 96.5029 9.19726 96.5806 8.97004C96.6583 8.66707 96.736 8.21262 96.8137 7.75818C96.8914 7.22799 96.736 6.77354 96.3475 6.62206C95.9591 6.39483 95.493 6.01613 95.1045 6.09187C95.1045 6.09187 94.8714 6.01613 94.8714 6.24335C94.9491 6.47057 94.7938 6.62206 94.7161 6.84928C94.7161 6.84928 94.3276 7.37947 94.2499 7.9854C94.1722 8.59133 94.0169 9.19726 94.0169 9.50023C93.9392 9.80319 93.9392 10.0304 93.5507 10.2576C93.1623 10.4091 91.6085 11.318 91.5308 11.5452C91.5308 11.5452 91.9969 11.4695 92.0746 11.7725C92.1523 11.9997 92.3077 11.9239 92.6184 11.8482C92.8515 11.7725 93.1623 11.5452 93.24 11.7725C93.24 11.7725 93.3176 11.8482 93.3176 12.1512C93.3953 12.3784 93.3953 12.4541 93.24 12.6814C93.0846 12.9086 93.0846 12.9843 92.6184 13.5145C92.1523 14.0447 91.6862 14.3477 91.4531 14.4234C91.22 14.4991 91.22 14.4234 91.2977 14.1204C91.2977 14.1204 91.3754 13.2873 91.4531 12.9843C91.5308 12.7571 91.5308 12.6056 91.3754 12.3027C91.22 11.9997 90.987 11.8482 90.9093 11.6967C90.8316 11.5452 90.9093 11.621 90.6762 11.4695C90.4431 11.318 90.4431 11.0908 90.4431 10.9393C90.4431 10.7878 90.2101 10.6363 90.1324 11.015C90.0547 11.3938 89.6662 11.9997 89.5108 12.2269C89.3555 12.4541 89.1224 12.6814 89.2001 13.2115C89.2778 13.7417 89.2778 13.969 89.2778 14.5749C89.2001 15.1808 89.1224 16.1655 89.0447 16.6956C88.8893 17.2258 88.8116 17.2258 88.734 17.6045C88.6563 17.9832 88.5786 18.2105 88.967 18.5134C89.3555 18.8164 89.5108 18.8921 89.7439 18.8921C89.977 18.9679 89.977 19.0436 90.1324 19.1951C90.2101 19.3466 90.2878 19.4981 90.5985 19.6496C90.8316 19.801 91.1423 20.104 91.7639 20.104C91.7639 20.104 92.0746 20.0283 92.23 20.4827C92.3854 20.9372 92.4631 21.9218 92.8515 22.5277C92.8515 22.5277 93.0069 22.9822 93.24 22.9822C93.24 22.9822 93.473 23.2851 93.7838 23.4366C94.1722 23.5881 94.5607 23.8911 95.1822 23.9668C95.8037 24.0425 96.2699 24.1183 96.8137 24.1183C97.3575 24.1183 97.979 24.3455 99.0667 23.9668C99.0667 23.9668 99.6105 23.8153 99.9213 23.8153C100.232 23.8153 100.31 23.7396 100.931 23.5881C101.553 23.3609 102.873 23.0579 103.184 22.9822C103.417 22.9822 103.65 22.9822 103.728 22.8307ZM104.583 20.9372C104.583 21.0886 104.427 21.0886 104.427 20.9372C104.427 20.8614 104.583 20.9372 104.583 20.9372ZM99.2998 13.7417C99.1444 14.1962 99.1444 14.2719 99.0667 14.5749C99.0667 14.8779 98.8336 15.0293 98.5229 15.1808C98.2898 15.3323 97.9013 15.4838 97.5906 15.6353C97.2798 15.7867 96.9691 15.8625 96.736 15.7867C96.4252 15.6353 96.4252 15.408 96.4252 15.1808V14.7264C96.4252 14.4991 96.6583 14.3477 96.6583 14.3477C97.2021 13.7417 98.6006 13.4388 98.8336 13.363C99.1444 13.2873 99.3774 13.4388 99.2998 13.7417ZM96.2699 11.0908C96.3475 10.7878 96.8137 10.4849 96.8137 10.4849C97.2021 10.2576 97.9013 10.1819 98.0567 10.0304C98.2121 9.87893 98.4452 9.87893 98.6782 9.87893H99.1444C99.2998 9.95467 99.3774 9.95467 99.6105 9.95467C99.8436 9.95467 99.9213 10.0304 99.9213 10.0304C99.8436 10.1819 100.077 10.4849 100.077 10.4849C100.154 10.7878 99.7659 10.9393 99.7659 10.9393C99.4551 10.8636 99.2221 11.0908 98.8336 11.318C98.4452 11.5452 98.1344 11.7725 97.8237 11.7725C97.5129 11.7725 96.9691 11.9239 96.5806 11.7725C96.1922 11.6967 96.1922 11.4695 96.2699 11.0908ZM92.8515 16.3927C92.7738 16.6956 92.6961 16.9229 92.6184 17.2258C92.5407 17.5288 92.3077 17.6045 92.3077 17.6045C91.6085 17.756 90.987 18.2862 90.9093 18.2105C90.8316 18.1347 90.8316 18.059 90.9093 17.9075C90.987 17.6803 90.9093 17.6803 90.9093 17.6803C90.8316 17.3016 90.9093 17.6045 90.9093 17.3773C90.987 17.0743 90.9093 17.1501 90.987 16.9229C90.987 16.6956 91.22 16.3169 91.2977 16.0897C91.3754 15.8625 91.4531 15.9382 91.4531 15.9382C91.5308 15.7867 91.9969 15.711 92.23 15.6353C92.4631 15.5595 92.5407 15.5595 92.7738 15.711C92.8515 15.8625 92.8515 16.014 92.8515 16.3927ZM110.487 15.1051C110.565 15.0293 110.565 14.9536 110.798 14.9536C110.953 14.9536 111.264 15.2566 111.264 15.5595C111.342 15.8625 111.419 16.0897 111.419 16.3927C111.419 16.6956 111.497 17.4531 111.497 17.756C111.497 18.059 111.419 18.2105 111.342 18.4377C111.264 18.5892 111.264 18.9679 111.186 19.1951C111.186 19.4981 111.186 19.801 111.031 20.104C110.953 20.407 110.642 21.2401 110.642 22.2248C110.642 22.2248 110.565 22.8307 110.642 23.2851C110.72 23.7396 110.72 23.8911 110.953 24.1183C111.109 24.194 111.186 24.2698 111.264 24.194C111.342 24.1183 111.419 23.8911 111.652 23.8911C111.808 23.8911 111.963 23.9668 111.886 23.7396C111.886 23.7396 111.808 23.4366 111.963 23.2851C111.963 23.2851 112.119 23.2094 112.196 23.2094C112.274 23.2094 112.352 23.1336 112.429 23.0579C112.507 22.9064 112.585 22.9064 112.662 22.6035C112.74 22.3005 112.818 21.3916 112.818 20.7857C112.818 20.1797 112.973 19.3466 113.051 18.5892C113.129 17.756 113.206 17.1501 113.284 16.3927V15.3323C113.284 14.8021 113.129 14.5749 113.362 14.4234C113.362 14.4234 113.517 14.1962 113.517 13.8175C113.517 13.4388 113.595 13.2873 113.439 13.2115C113.284 13.1358 113.439 13.1358 113.206 13.0601C112.895 12.9086 112.973 12.8328 112.74 12.7571C112.507 12.6814 112.662 12.6056 112.429 12.6056C112.274 12.5299 111.886 12.4541 111.652 12.6056C111.652 12.6056 111.652 12.3784 111.808 12.0754C111.808 12.0754 111.886 12.0754 111.886 11.7725C111.886 11.4695 111.808 11.2423 111.886 11.1665C112.041 11.0908 112.041 10.6363 111.808 10.1819C111.575 9.72745 111.264 9.34874 111.264 9.04578C111.264 8.74281 110.876 8.13688 110.642 8.06114C110.642 8.06114 110.409 8.06114 110.409 8.28836C110.409 8.51559 110.332 8.51559 110.332 8.81855C110.332 9.12152 110.176 9.42448 110.176 9.65171C110.176 9.87893 110.099 9.80319 110.021 10.0304C109.943 10.2576 109.71 10.5606 109.633 10.9393C109.477 11.318 109.166 11.9239 109.011 12.3027L108.7 12.9086C108.545 13.2115 108.389 13.363 108.312 13.5145C108.312 13.5145 108.156 13.666 108.079 13.8175C107.923 13.969 107.923 13.969 107.846 14.2719C107.768 14.5749 107.69 14.8021 107.69 15.1808V15.8625C107.69 16.0897 107.613 16.1655 107.768 16.2412C107.923 16.3927 108.156 16.3169 108.156 16.7714C108.156 17.3016 108.156 17.756 108.079 17.9075C108.079 17.9075 108.312 17.756 108.234 17.4531C108.234 17.4531 108.312 17.6045 108.312 17.756C108.312 17.756 108.467 17.6045 108.545 17.3016C108.623 16.9986 108.778 16.8471 108.933 16.6956C109.089 16.6199 109.788 15.8625 109.943 15.711C110.254 15.3323 110.487 15.1808 110.487 15.1051ZM124.704 7.00076C124.471 6.92502 123.927 7.00076 123.617 7.00076H122.451C122.296 7.00076 122.141 7.00076 122.141 6.77354C122.141 6.62206 122.218 6.54632 122.141 6.31909C122.063 6.16761 122.141 5.94039 122.063 5.63742C122.063 5.4102 122.063 5.33446 121.985 5.25872C121.83 5.10723 121.752 5.03149 121.519 5.03149C121.364 5.03149 121.286 4.95575 121.131 4.88001C120.975 4.80427 120.975 4.72853 120.742 4.72853L120.276 4.5013C120.276 4.5013 119.732 4.19834 119.499 4.19834C119.188 4.19834 119.033 4.57704 119.033 4.80427C118.955 5.03149 118.878 4.95575 118.878 4.95575C118.722 4.80427 118.489 4.95575 118.411 5.10723C118.334 5.25872 118.256 5.18297 118.256 5.18297C118.101 5.25872 117.79 5.56168 117.635 5.63742C117.479 5.7889 117.712 5.7889 117.712 5.7889L117.557 5.94039C117.401 5.94039 117.168 6.09187 117.168 6.09187C117.168 6.09187 116.858 6.09187 116.935 6.24335C117.013 6.39483 117.401 6.39483 117.79 5.94039C117.79 5.94039 117.868 6.01613 118.178 5.94039C118.178 5.94039 118.878 5.7889 118.878 5.94039C118.878 5.94039 118.8 6.09187 118.567 6.09187C118.411 6.09187 117.868 6.09187 117.79 6.24335C117.79 6.24335 117.945 6.39483 118.256 6.39483C118.567 6.39483 118.8 6.31909 119.111 6.62206C119.421 6.92502 119.654 7.00076 119.577 7.22799C119.499 7.37947 119.266 7.60669 119.033 7.68244C118.8 7.75818 118.567 7.68244 118.334 7.75818C118.101 7.83392 117.868 7.90966 117.479 7.90966C117.091 7.90966 116.702 7.90966 116.625 7.9854C116.469 8.06114 116.081 8.21262 115.77 8.21262H115.148C114.915 8.28836 114.682 8.21262 114.372 8.36411C113.983 8.51559 113.828 8.81855 113.828 8.51559C113.828 8.28836 113.517 8.66707 113.517 8.89429C113.517 9.12152 113.517 9.273 113.75 9.34874C113.983 9.42448 114.139 9.42448 114.294 9.50023C114.449 9.65171 114.682 9.50023 114.915 9.42448C115.148 9.34874 115.459 9.19726 115.848 9.12152C116.236 9.12152 116.392 8.97004 116.625 8.97004C116.858 8.89429 117.635 8.74281 118.178 8.74281C118.722 8.74281 119.81 8.66707 120.509 8.66707H122.451C122.607 8.66707 122.84 8.66707 122.917 8.59133C123.073 8.51559 123.461 8.43985 123.694 8.51559C123.85 8.59133 123.85 8.59133 124.083 8.59133C124.316 8.59133 124.394 8.51559 124.549 8.43985C124.704 8.36411 124.627 8.06114 124.627 7.90966C124.627 7.75818 124.86 7.68244 125.093 7.53095C125.326 7.37947 125.326 7.22799 125.326 7.22799C125.17 7.15225 124.937 7.0765 124.704 7.00076ZM119.421 11.5452C119.654 11.6967 119.888 11.7725 120.198 11.9239C120.509 12.0754 120.742 12.2269 121.208 12.2269C121.752 12.3027 121.907 12.1512 122.218 12.3027C122.218 12.3027 122.451 12.3784 122.607 12.2269C122.762 12.0754 122.84 11.6967 122.995 11.5452L123.073 11.318C123.073 11.0908 123.151 10.7878 122.995 10.7878C122.84 10.7878 122.762 10.7121 122.684 10.4849C122.607 10.2576 122.529 10.2576 122.374 10.1819C122.218 10.1819 122.141 10.1819 122.063 10.0304C121.907 9.87893 121.674 9.72745 121.519 9.80319C121.364 9.80319 121.208 9.87893 120.898 9.80319C120.587 9.72745 119.888 9.65171 119.654 9.65171C119.499 9.72745 118.645 9.95467 118.334 10.1062C118.334 10.1062 118.023 10.2576 118.101 10.4849C118.101 10.6363 118.256 10.9393 118.567 11.015C118.8 11.1665 119.188 11.3938 119.421 11.5452ZM117.168 13.363C117.168 13.5903 117.246 13.666 117.479 14.0447C117.712 14.3477 118.023 14.6506 118.256 14.8779C118.489 15.1051 118.8 15.1808 119.266 15.1808C119.732 15.1808 120.121 15.2566 120.276 15.3323C120.431 15.4838 120.587 15.6353 120.82 15.5595C121.131 15.4838 121.053 15.4838 121.286 15.4838C121.519 15.4838 121.597 15.3323 121.83 15.3323C122.063 15.3323 122.141 15.2566 122.296 15.1051C122.451 14.9536 122.529 14.8779 122.607 14.4234C122.684 14.1204 122.607 13.8932 122.762 13.8932C122.762 13.8932 122.995 13.8932 123.073 13.5903C123.073 13.2873 122.995 13.2115 122.762 13.1358C122.529 13.1358 122.374 13.0601 122.141 13.1358C121.985 13.2115 121.907 13.2115 121.519 13.1358C121.053 12.9843 120.82 12.9843 120.509 12.9086C120.121 12.9086 119.499 12.9843 118.955 12.9843C118.334 12.9843 117.712 13.1358 117.479 13.1358C117.479 13.1358 117.168 13.1358 117.168 13.363ZM117.479 24.497C117.635 24.6485 117.635 24.8 117.79 24.6485C117.868 24.497 117.868 24.194 118.101 24.0425C118.101 24.0425 118.178 24.0425 118.178 23.7396C118.178 23.3609 118.256 23.1336 118.334 22.8307C118.411 22.5277 118.411 22.0733 118.489 21.6946C118.567 21.3916 118.567 21.2401 118.567 21.0129C118.567 20.7857 118.489 20.7099 118.411 20.4827C118.334 20.3312 118.334 20.3312 118.334 20.1797V19.8768C118.334 19.7253 118.256 19.6496 118.489 19.7253C118.722 19.7253 119.188 19.9525 119.499 19.5738C119.888 19.1951 120.276 18.8921 120.431 18.8164C120.587 18.7407 120.664 18.8164 120.742 19.1194C120.742 19.3466 120.82 19.801 120.742 19.9525C120.587 20.104 120.198 20.5584 119.888 20.7857C119.654 21.0886 119.266 21.2401 119.188 21.5431C119.111 21.846 119.111 21.9975 119.111 22.3762C119.111 22.7549 118.955 22.9064 119.266 23.0579C119.577 23.2094 119.654 23.2851 119.888 23.4366C120.043 23.5881 120.043 23.5124 120.354 23.5881C120.664 23.5881 121.053 23.6638 121.364 23.5881C121.674 23.4366 121.907 23.4366 122.218 23.5124C122.374 23.5124 122.374 23.5124 122.684 23.5881C122.995 23.6638 122.917 23.5881 123.228 23.5881H123.617C123.772 23.5124 124.005 23.3609 124.16 23.2851C124.394 23.2094 124.316 22.8307 124.316 22.6792C124.316 22.5277 124.471 22.452 124.471 22.149C124.471 21.9218 124.394 21.846 124.16 21.7703C124.005 21.7703 124.005 21.6188 123.772 21.4673C123.539 21.3159 123.694 21.0886 123.772 20.8614C123.85 20.7099 124.005 20.2555 124.16 19.9525C124.316 19.6496 124.16 19.1951 124.16 18.9679C124.16 18.7407 124.238 18.8164 124.238 18.4377C124.238 18.059 124.16 17.9832 123.85 17.6803C123.539 17.3773 123.694 17.3773 123.617 17.2258C123.539 17.0743 123.461 16.9986 123.306 16.8471C123.073 16.6956 122.995 16.6199 122.995 16.6199C122.684 16.4684 122.296 16.4684 122.063 16.4684C121.83 16.4684 121.674 16.3169 121.674 16.3169C121.519 16.3169 121.131 16.6199 120.82 16.8471C120.509 17.0743 120.121 17.1501 119.654 17.3773C119.188 17.6045 118.645 17.9832 118.334 17.9832C118.023 17.9832 117.868 18.059 117.712 17.9075C117.557 17.756 117.401 17.5288 117.324 17.3773C117.246 17.2258 117.168 17.0743 116.702 16.9986C116.236 16.9229 116.081 16.4684 116.081 16.4684C116.081 16.4684 115.848 16.3927 115.848 16.6956C115.848 16.9986 115.848 17.1501 115.77 17.3773C115.692 17.6045 115.692 17.9075 115.77 18.1347C115.848 18.3619 115.925 18.5892 115.925 19.0436C115.925 19.5738 115.848 20.1797 115.925 20.407C115.925 20.6342 116.003 20.7099 115.925 21.0129C115.848 21.3159 116.003 21.6946 116.003 21.9218C116.003 22.149 116.236 22.6035 116.314 22.8307C116.392 23.0579 116.392 23.1336 116.314 23.3609C116.314 23.5124 116.314 23.8153 116.547 23.8911C116.78 23.9668 116.858 23.8911 117.168 24.0425C117.324 24.4212 117.246 24.3455 117.479 24.497ZM79.5666 19.5738C79.5666 19.5738 79.4889 19.4981 79.3335 19.5738C79.1781 19.6496 79.1004 19.7253 78.712 19.801C78.3235 19.8768 78.1681 19.8768 78.0905 19.9525C77.9351 20.0283 77.9351 20.0283 77.7797 20.0283C77.6243 20.0283 77.5466 20.0283 77.3913 20.1797C77.2359 20.3312 77.1582 20.3312 76.8474 20.3312C76.6143 20.3312 76.3813 20.3312 76.1482 20.4827C75.9151 20.6342 75.7598 20.7099 75.449 20.7857C75.1382 20.8614 75.0606 20.8614 74.8275 20.9372C74.5944 21.0129 74.5167 21.0129 74.2837 21.0129C74.0506 21.0129 73.8952 21.0886 73.7398 21.1644C73.5844 21.2401 73.3514 21.4673 73.1183 21.3916C72.8852 21.2401 72.4968 21.3159 72.2637 21.4673C72.0307 21.6188 71.8753 21.6188 71.5645 21.6188C71.3314 21.6188 71.1761 21.4673 70.943 21.6188C70.7876 21.7703 70.4769 21.6188 70.3215 21.6188C70.3215 21.6188 70.6322 22.149 70.7876 22.452C70.943 22.7549 71.1761 23.2851 71.3314 23.2851C71.4868 23.2851 72.186 23.3609 73.4291 22.6792C73.4291 22.6792 73.5068 22.6035 73.8175 22.5277C74.1283 22.452 74.6721 22.2248 74.9052 22.149C75.1382 21.9975 75.2159 21.846 75.449 21.846C75.6044 21.846 75.9151 21.6946 76.1482 21.5431C76.3813 21.3916 76.8474 21.0886 77.0028 20.9372C77.1582 20.7857 77.6243 20.4827 78.1681 20.2555C78.1681 20.2555 78.7897 19.8768 78.945 19.801C79.3335 19.9525 79.5666 19.7253 79.5666 19.5738ZM60.6103 28.6628H62.3971V34.2676H60.6103V28.6628ZM93.7838 28.6628H92.0746V34.2676H96.6583V33.3587H93.7838V28.6628ZM68.6123 31.9196L65.0386 28.6628H64.0286V34.2676H65.3493V30.7078L69.2338 34.2676H69.933V28.6628H68.6123V31.9196ZM57.1142 30.935H55.172V28.6628H53.3851V34.2676H55.172V31.8439H57.1142V34.2676H58.9011V28.6628H57.1142V30.935ZM73.196 28.6628L70.5546 34.2676H72.0307L72.5745 32.9043H75.0606L75.6821 34.2676H77.4689L74.8275 28.6628H73.196ZM72.9629 32.0711L73.8175 30.0261L74.7498 32.0711H72.9629ZM80.1881 29.4959H81.8973V34.2676H83.6841V29.4959H85.3156V28.6628H80.1881V29.4959ZM87.8794 31.8439H90.1324V31.0107H87.8794V29.4959H90.8316V28.6628H86.0925V34.2676H90.987V33.3587H87.8794V31.8439ZM99.6105 31.8439H101.864V31.0107H99.6105V29.4959H102.563V28.6628H97.8237V34.2676H102.718V33.3587H99.6105V31.8439ZM120.975 32.677L118.101 28.7385H116.78V34.2676H118.023V31.0107L120.198 34.2676H121.053L123.461 31.0107V34.2676H125.093V28.7385H123.85L120.975 32.677ZM112.662 28.587C110.798 28.587 109.477 29.5717 109.477 31.4652C109.477 33.5102 110.876 34.3434 112.662 34.3434C114.449 34.3434 115.848 33.5102 115.848 31.4652C115.848 29.8746 114.993 28.587 112.662 28.587ZM114.061 32.2983C113.905 33.7374 112.585 33.5102 112.585 33.5102C111.575 33.5102 111.419 33.0558 111.419 33.0558C111.109 32.6013 111.264 31.0107 111.264 31.0107C111.264 29.1172 112.662 29.4202 112.662 29.4202C113.828 29.3444 113.983 30.1018 113.983 30.1018C114.216 30.935 114.061 32.2983 114.061 32.2983ZM103.495 31.4652C103.495 33.5102 105.049 34.3434 107.069 34.3434C107.69 34.3434 108.312 34.2676 108.778 34.0404V33.2072C108.389 33.3587 107.457 33.5102 107.457 33.5102C106.059 33.5102 105.36 32.9043 105.36 31.4652C105.36 30.1776 106.059 29.4202 107.457 29.4202C108.079 29.4202 108.467 29.4959 108.778 29.7231V28.8142C108.312 28.6628 107.768 28.6628 107.069 28.6628C104.893 28.587 103.495 29.6474 103.495 31.4652ZM46.9369 31.4652C46.9369 33.5102 48.4907 34.3434 50.5106 34.3434C51.1321 34.3434 51.7536 34.2676 52.2198 34.0404V33.2072C51.8313 33.3587 50.899 33.5102 50.899 33.5102C49.5006 33.5102 48.8014 32.9043 48.8014 31.4652C48.8014 30.1776 49.5006 29.4202 50.899 29.4202C51.5206 29.4202 51.909 29.4959 52.2198 29.7231V28.8142C51.7536 28.6628 51.2098 28.6628 50.5106 28.6628C48.3353 28.587 46.9369 29.6474 46.9369 31.4652ZM27.9806 0.865723L28.5244 2.91074C30.622 3.36518 32.0204 4.27408 32.3312 5.56168C33.1081 8.59133 27.9029 12.3027 20.7554 14.0447C20.2893 14.1204 19.8231 14.2719 19.357 14.3477C19.9008 9.50023 21.3769 6.16761 23.3969 6.16761C24.0184 6.16761 24.4845 6.47057 24.9507 6.92502L26.5821 6.47057C25.0284 3.13796 22.7754 1.09295 20.367 1.09295C16.4825 1.09295 12.9864 6.92502 12.0542 14.8021C9.02426 14.4991 6.84895 13.5145 6.38281 11.8482C5.76129 9.50023 8.79119 6.77354 13.5303 4.80427C13.3749 4.34982 13.2195 3.66815 13.1418 3.28944C5.06208 6.24335 -0.0654395 11.2423 1.02222 15.5595C1.8768 18.8164 6.14974 20.7857 11.8211 21.0886C12.2872 29.7989 15.9387 36.9943 20.4447 36.9943C24.3291 36.9943 27.8252 31.5409 28.8352 23.3609L26.0383 24.0425C25.4168 28.2841 24.1738 31.1622 22.7754 31.1622C20.9885 31.0865 19.4347 26.4663 19.2016 20.6342C20.2116 20.4827 21.2992 20.2555 22.3869 20.0283C32.7973 17.3773 40.2555 11.318 38.9348 6.24335C38.1579 2.98648 33.8073 1.09295 27.9806 0.865723Z" fill="white"/>
</g>
</svg>
