<svg width="145" height="19" viewBox="0 0 145 19" fill="none" xmlns="http://www.w3.org/2000/svg">
<g id="alibaba_cloud_logo.svg" clip-path="url(#clip0_1379_6123)">
<g id="&#229;&#155;&#190;&#229;&#177;&#130; 2">
<g id="&#229;&#155;&#190;&#229;&#177;&#130; 1">
<path id="Vector" d="M19.8029 8.2002H10.0811V10.3494H19.8029V8.2002Z" fill="white"/>
<path id="Vector_2" d="M24.6736 0.397461H18.2412L19.7932 2.55147L24.4833 3.98747C24.8973 4.1157 25.2583 4.371 25.5131 4.71572C25.7679 5.06045 25.9031 5.47637 25.8986 5.90214V12.7662C25.9015 13.1916 25.7658 13.6069 25.5112 13.9513C25.2566 14.2957 24.8964 14.5513 24.4833 14.6809L19.7932 16.0882L18.2412 18.2422H24.6736C25.3136 18.2428 25.9473 18.1193 26.5384 17.8787C27.1294 17.638 27.6661 17.2851 28.1175 16.8402C28.5688 16.3952 28.926 15.8671 29.1684 15.2862C29.4107 14.7053 29.5335 14.0832 29.5297 13.4555V5.18414C29.5297 3.91877 29.0188 2.70487 28.1089 1.80788C27.1989 0.910889 25.9638 0.403788 24.6736 0.397461Z" fill="white"/>
<path id="Vector_3" d="M5.22992 0.397461H11.6428L10.1104 2.55147L5.42026 3.98747C5.00578 4.11552 4.64413 4.37063 4.38849 4.71528C4.13284 5.05994 3.99669 5.47594 4.00005 5.90214V12.7662C3.99823 13.1921 4.13497 13.6074 4.3904 13.9517C4.64582 14.2961 5.0066 14.5515 5.42026 14.6809L10.1104 16.0882L11.6623 18.2422H5.22992C3.93555 18.2422 2.69419 17.7379 1.77893 16.8402C0.863675 15.9425 0.349487 14.725 0.349487 13.4555L0.349487 5.18414C0.349487 3.91463 0.863675 2.69712 1.77893 1.79945C2.69419 0.90177 3.93555 0.397461 5.22992 0.397461Z" fill="white"/>
<path id="Vector_4" d="M108.3 12.8421C108.269 13.5716 107.952 14.2613 107.415 14.7668C106.878 15.2724 106.163 15.5547 105.418 15.5547C104.674 15.5547 103.958 15.2724 103.421 14.7668C102.884 14.2613 102.567 13.5716 102.536 12.8421V6.03544C102.567 5.30592 102.884 4.61626 103.421 4.11071C103.958 3.60515 104.674 3.32285 105.418 3.32285C106.163 3.32285 106.878 3.60515 107.415 4.11071C107.952 4.61626 108.269 5.30592 108.3 6.03544V6.14074H110.506V6.05937C110.465 4.76266 109.911 3.53251 108.961 2.62947C108.012 1.72644 106.741 1.22144 105.418 1.22144C104.095 1.22144 102.825 1.72644 101.875 2.62947C100.925 3.53251 100.371 4.76266 100.33 6.05937V12.8421C100.33 14.1649 100.866 15.4336 101.82 16.3689C102.774 17.3043 104.067 17.8298 105.416 17.8298C106.764 17.8298 108.058 17.3043 109.012 16.3689C109.965 15.4336 110.501 14.1649 110.501 12.8421V12.7511H108.295L108.3 12.8421Z" fill="white"/>
<path id="Vector_5" d="M119.759 5.51549C118.636 5.50409 117.553 5.91851 116.734 6.67222C115.916 7.42592 115.426 8.46062 115.367 9.56023V13.739C115.475 14.8017 115.983 15.7869 116.79 16.5035C117.598 17.22 118.648 17.6167 119.737 17.6167C120.826 17.6167 121.876 17.22 122.684 16.5035C123.491 15.7869 123.999 14.8017 124.107 13.739V9.55544C124.05 8.46335 123.566 7.43481 122.757 6.68277C121.947 5.93074 120.874 5.5128 119.759 5.51549ZM121.921 13.4949C121.921 14.0573 121.693 14.5966 121.288 14.9943C120.882 15.392 120.332 15.6154 119.759 15.6154C119.186 15.6154 118.636 15.392 118.23 14.9943C117.825 14.5966 117.597 14.0573 117.597 13.4949V9.80435C117.597 9.24196 117.825 8.7026 118.23 8.30493C118.636 7.90726 119.186 7.68385 119.759 7.68385C120.332 7.68385 120.882 7.90726 121.288 8.30493C121.693 8.7026 121.921 9.24196 121.921 9.80435V13.4949Z" fill="white"/>
<path id="Vector_6" d="M113.796 1.1062H111.6V17.5149H113.796V1.1062Z" fill="white"/>
<path id="Vector_7" d="M53.2104 5.51526H51.0142V17.5155H53.2104V5.51526Z" fill="white"/>
<path id="Vector_8" d="M48.8166 1.1062H46.6204V17.5149H48.8166V1.1062Z" fill="white"/>
<path id="Vector_9" d="M41.0766 1.1062H38.368L33.9268 17.491H36.1181L37.2991 13.1351H42.1796L43.3558 17.4431H45.5471L41.0766 1.11577V1.1062ZM41.5646 11.0242H37.875L39.7198 4.22711L41.5646 11.0242Z" fill="white"/>
<path id="Vector_10" d="M132.252 13.7196C132.252 14.2833 132.024 14.8239 131.618 15.2224C131.211 15.621 130.66 15.8449 130.086 15.8449C129.511 15.8449 128.96 15.621 128.553 15.2224C128.147 14.8239 127.919 14.2833 127.919 13.7196V5.51526H125.718V14.0738C125.716 14.6566 125.855 15.2315 126.122 15.7522C126.389 16.2728 126.777 16.7244 127.255 17.0707C127.733 17.4169 128.287 17.648 128.873 17.7452C129.459 17.8424 130.06 17.8031 130.627 17.6303C130.837 17.5706 131.04 17.4888 131.232 17.3862C131.568 17.217 131.876 16.9991 132.145 16.74L132.243 16.6491V17.5298H134.458V5.51526H132.252V13.7196Z" fill="white"/>
<path id="Vector_11" d="M53.2104 1.1062H51.0142V3.26499H53.2104V1.1062Z" fill="white"/>
<path id="Vector_12" d="M60.3438 5.50037C59.354 5.50005 58.4038 5.88176 57.6986 6.56301L57.6059 6.65396V1.1062H55.4048V17.5149H57.6059V16.6342L57.6986 16.7251C58.2314 17.2352 58.9058 17.5799 59.6372 17.7161C60.3687 17.8523 61.1249 17.7741 61.8113 17.4911C62.4977 17.2081 63.0838 16.733 63.4964 16.1251C63.909 15.5172 64.1297 14.8036 64.131 14.0733V9.21483C64.1297 8.23008 63.7303 7.28603 63.0203 6.58971C62.3104 5.89339 61.3478 5.50164 60.3438 5.50037ZM61.9592 9.60734V13.6808C61.9592 14.2457 61.7304 14.7875 61.3231 15.187C60.9158 15.5865 60.3634 15.8109 59.7874 15.8109C59.2114 15.8109 58.659 15.5865 58.2517 15.187C57.8444 14.7875 57.6156 14.2457 57.6156 13.6808V9.60734C57.6156 9.04241 57.8444 8.50062 58.2517 8.10115C58.659 7.70168 59.2114 7.47727 59.7874 7.47727C60.3634 7.47727 60.9158 7.70168 61.3231 8.10115C61.7304 8.50062 61.9592 9.04241 61.9592 9.60734Z" fill="white"/>
<path id="Vector_13" d="M80.8228 5.50037C79.8313 5.49879 78.8791 5.8806 78.1727 6.56301L78.08 6.65396V1.1062H75.8838V17.5149H78.08V16.6342L78.1727 16.7251C78.7056 17.2352 79.3799 17.5799 80.1114 17.7161C80.8428 17.8523 81.599 17.7741 82.2854 17.4911C82.9718 17.2081 83.5579 16.733 83.9705 16.1251C84.3831 15.5172 84.6038 14.8036 84.6051 14.0733V9.21483C84.6038 8.23091 84.2051 7.28758 83.4962 6.5914C82.7873 5.89521 81.826 5.5029 80.8228 5.50037ZM82.4333 9.60734V13.676C82.4333 14.2409 82.2045 14.7827 81.7972 15.1822C81.3899 15.5817 80.8375 15.8061 80.2615 15.8061C79.6855 15.8061 79.1331 15.5817 78.7258 15.1822C78.3186 14.7827 78.0897 14.2409 78.0897 13.676V9.60734C78.0897 9.04241 78.3186 8.50062 78.7258 8.10115C79.1331 7.70168 79.6855 7.47727 80.2615 7.47727C80.8375 7.47727 81.3899 7.70168 81.7972 8.10115C82.2045 8.50062 82.4333 9.04241 82.4333 9.60734Z" fill="white"/>
<path id="Vector_14" d="M142.575 1.1062V6.65396L142.482 6.56301C141.95 6.05066 141.276 5.70395 140.543 5.56642C139.811 5.42889 139.054 5.5067 138.366 5.79005C137.679 6.07341 137.092 6.54968 136.68 7.15901C136.268 7.76835 136.049 8.48358 136.05 9.21483V14.0877C136.054 14.8167 136.277 15.5284 136.69 16.1341C137.104 16.7398 137.69 17.2127 138.376 17.4939C139.062 17.7751 139.817 17.8522 140.547 17.7155C141.277 17.5788 141.95 17.2343 142.482 16.7251L142.575 16.6342V17.5149H144.776V1.1062H142.575ZM142.575 9.60734V13.676C142.575 13.9557 142.519 14.2327 142.409 14.4912C142.3 14.7496 142.14 14.9844 141.939 15.1822C141.737 15.38 141.498 15.5369 141.234 15.6439C140.971 15.751 140.688 15.8061 140.403 15.8061C140.118 15.8061 139.835 15.751 139.572 15.6439C139.308 15.5369 139.069 15.38 138.867 15.1822C138.666 14.9844 138.506 14.7496 138.396 14.4912C138.287 14.2327 138.231 13.9557 138.231 13.676V9.60734C138.231 9.32761 138.287 9.05063 138.396 8.79219C138.506 8.53376 138.666 8.29895 138.867 8.10115C139.069 7.90336 139.308 7.74645 139.572 7.63941C139.835 7.53236 140.118 7.47727 140.403 7.47727C140.688 7.47727 140.971 7.53236 141.234 7.63941C141.498 7.74645 141.737 7.90336 141.939 8.10115C142.14 8.29895 142.3 8.53376 142.409 8.79219C142.519 9.05063 142.575 9.32761 142.575 9.60734Z" fill="white"/>
<path id="Vector_15" d="M74.3029 9.57256C74.2967 9.43143 74.2821 9.29078 74.259 9.15134V9.0939C74.1484 8.44653 73.8916 7.8316 73.5074 7.29411C73.1358 6.77416 72.6491 6.34345 72.0836 6.03424C71.5182 5.72504 70.8887 5.54536 70.2424 5.50868H69.9886C68.9644 5.50665 67.9717 5.85572 67.1821 6.49553C66.3925 7.13533 65.8557 8.02565 65.6646 9.01252H67.8217C67.9187 8.52964 68.1832 8.09458 68.5702 7.78131C68.9572 7.46805 69.4429 7.29589 69.9447 7.29411C70.502 7.30102 71.0354 7.51734 71.4349 7.8985C71.8344 8.27965 72.0697 8.7966 72.0921 9.3428V10.348H68.9735C68.0515 10.3424 67.1592 10.6673 66.4643 11.2616C65.7694 11.8559 65.3197 12.6786 65.1998 13.5752C65.08 14.4718 65.2981 15.3805 65.8133 16.1304C66.3284 16.8804 67.1052 17.4199 67.9974 17.6477H68.056L68.2658 17.6956L68.5294 17.7338H68.5831C68.7727 17.7535 68.9634 17.763 69.1541 17.7626C69.6023 17.7708 70.049 17.7078 70.4767 17.5759C71.0409 17.4019 71.5545 17.0983 71.975 16.6904L72.0726 16.5994V17.4802H74.2688V16.0441L74.3029 9.57256ZM69.3932 11.9659H72.0921V13.4833C72.0925 14.0428 71.893 14.5847 71.5284 15.0149C71.1637 15.4452 70.6569 15.7365 70.096 15.8383C69.936 15.8754 69.7723 15.8947 69.608 15.8958C69.2159 15.8925 68.8318 15.7867 68.4952 15.5894C68.3967 15.5371 68.3021 15.4779 68.2122 15.4123C68.088 15.3145 67.9751 15.2038 67.8754 15.082L67.851 15.0533C67.6266 14.7693 67.4882 14.4291 67.4517 14.0716C67.4151 13.7141 67.4818 13.3538 67.6442 13.0317C67.8066 12.7097 68.0582 12.4389 68.37 12.2505C68.6819 12.062 69.0415 11.9634 69.4079 11.9659H69.3932Z" fill="white"/>
<path id="Vector_16" d="M94.8056 9.58343C94.7994 9.4423 94.7847 9.30164 94.7617 9.1622V9.10476C94.651 8.45888 94.3942 7.84553 94.0101 7.30976C93.6375 6.79042 93.1506 6.35989 92.5854 6.05001C92.0203 5.74013 91.3913 5.55884 90.7451 5.51954H90.4913C89.4685 5.51709 88.4769 5.8648 87.6875 6.50271C86.8981 7.14061 86.3604 8.02871 86.1672 9.01382H88.3195C88.4187 8.50094 88.7073 8.04196 89.13 7.72479C89.5528 7.40761 90.08 7.25452 90.6106 7.29483C91.1413 7.33514 91.6381 7.56602 92.006 7.94325C92.3739 8.32049 92.587 8.81757 92.6045 9.33931V10.3445H89.4811C88.5612 10.3448 87.673 10.6739 86.9827 11.2701C86.2923 11.8663 85.8472 12.6888 85.7305 13.5837C85.6138 14.4785 85.8337 15.3845 86.3488 16.1318C86.864 16.8792 87.6392 17.4169 88.5294 17.6442H88.5879L88.7978 17.6921L89.0613 17.7304H89.115C89.3046 17.7516 89.4952 17.7628 89.686 17.7639C90.1343 17.7721 90.5809 17.7091 91.0086 17.5772C91.5711 17.3994 92.0839 17.0963 92.5069 16.6916L92.6045 16.6007V17.4814H94.8007V16.0454L94.8056 9.58343ZM89.8959 11.9768H92.5899V13.5133C92.5903 14.0728 92.3908 14.6147 92.0262 15.0449C91.6615 15.4752 91.1547 15.7665 90.5938 15.8683C90.4338 15.9055 90.2701 15.9247 90.1057 15.9258C89.7137 15.9225 89.3296 15.8167 88.993 15.6194C88.8934 15.5689 88.7987 15.5096 88.7099 15.4423C88.5843 15.3446 88.4698 15.2339 88.3683 15.112V15.0833C88.1057 14.7521 87.9631 14.3445 87.9632 13.9249C87.9593 13.418 88.1606 12.9302 88.5229 12.5685C88.8852 12.2069 89.379 12.001 89.8959 11.9959V11.9768Z" fill="white"/>
</g>
</g>
</g>
<defs>
<clipPath id="clip0_1379_6123">
<rect width="144.427" height="17.8447" fill="white" transform="translate(0.349487 0.397461)"/>
</clipPath>
</defs>
</svg>
