<svg width="240" height="50" viewBox="0 0 240 50" fill="none" xmlns="http://www.w3.org/2000/svg">
<mask id="mask0_390_3932" style="mask-type:alpha" maskUnits="userSpaceOnUse" x="0" y="0" width="240" height="50">
<rect width="240" height="50" fill="#D9D9D9"/>
</mask>
<g mask="url(#mask0_390_3932)">
</g>
<path d="M28.2548 8.49791C29.7503 8.49791 30.9627 7.28554 30.9627 5.79001C30.9627 4.29448 29.7503 3.08211 28.2548 3.08211C26.7592 3.08211 25.5469 4.29448 25.5469 5.79001C25.5469 7.28554 26.7592 8.49791 28.2548 8.49791Z" fill="white"/>
<path d="M21.1182 50C15.0319 46.4865 9.11715 43.0769 3.06206 39.579C4.47578 39.0904 4.69927 38.1185 4.69407 36.9023C4.66289 28.9397 4.66808 20.9823 4.68887 13.0198C4.69407 11.8711 4.52255 10.8888 3.00488 10.447C5.76996 8.85135 8.32713 7.38046 11.113 5.76923C11.113 6.71518 11.113 7.38046 11.113 8.04574C11.1182 17.5728 11.1182 27.1102 11.1182 36.6268C11.1078 38.0821 11.4924 38.8358 12.7918 39.5634C13.8469 40.1507 14.0028 40.2079 14.8084 40.6601C14.8084 40.0052 14.8136 39.6102 14.8084 39.1476C14.8084 27.7755 14.8292 16.5593 14.8084 4.97401C14.8032 4.01247 15.0267 3.42516 15.9103 2.96258C17.6255 2.0738 19.2783 1.05509 21.1182 0V50Z" fill="#33CC99"/>
<path fill-rule="evenodd" clip-rule="evenodd" d="M39.1283 41.9075C34.461 44.5998 29.8352 47.2713 25.1055 50V0C25.6512 0.317048 26.1866 0.628898 26.7063 0.930353C27.9381 1.65281 29.1075 2.33888 30.3134 2.96258C31.1969 3.41996 31.4204 4.00728 31.4152 4.97401C31.3996 12.7027 31.4048 20.2599 31.41 27.8118C31.41 31.5852 31.4152 35.3586 31.4152 39.1476C31.41 39.4439 31.4152 39.7089 31.4152 40.0364C31.4152 40.2235 31.4152 40.4262 31.4152 40.6653C31.7999 40.4522 32.0337 40.3274 32.2884 40.1923C32.5691 40.0416 32.8757 39.8805 33.4319 39.5738C34.7364 38.8462 35.1159 38.0873 35.1055 36.6372V36.6112C35.1055 27.0998 35.1055 17.5728 35.1107 8.05613V5.76923C36.2697 6.43971 37.3924 7.0842 38.5046 7.72869C40.0639 8.62786 41.6024 9.51663 43.2188 10.447C41.7011 10.894 41.5296 11.8711 41.5348 13.0198C41.5556 20.9823 41.5608 28.9397 41.5296 36.9023C41.5244 38.1185 41.7479 39.0904 43.1616 39.579L39.1283 41.9075ZM28.9672 4.95842L28.2604 3.52391L27.5535 4.95842L25.9683 5.18711L27.1117 6.30457L26.8414 7.88462L28.2604 7.14137L29.6793 7.88462L29.409 6.30457L30.5525 5.18711L28.9672 4.95842Z" fill="url(#paint0_linear_390_3932)"/>
<path d="M65.6301 26.9283C65.6301 28.3628 65.5105 29.527 65.2662 30.4158C64.944 31.554 64.3619 32.5468 63.5303 33.3888C62.0386 34.9064 60.0739 35.6705 57.6363 35.6705C56.4513 35.6705 55.3546 35.4989 54.3567 35.1559C53.2236 34.7661 52.2985 34.1892 51.576 33.4199C50.6872 32.4844 50.0947 31.4813 49.7985 30.4158C49.6685 29.9324 49.575 29.3919 49.523 28.789C49.4866 28.3056 49.4658 27.6871 49.4658 26.9283V14.1944H54.8452V26.9283C54.8452 27.4844 54.8712 27.9626 54.9284 28.3628C55.0012 28.8721 55.1259 29.3035 55.3026 29.6569C55.7288 30.5197 56.4876 30.9511 57.5843 30.9511C58.7174 30.9511 59.4762 30.5301 59.866 29.6881C60.022 29.3451 60.1363 28.9189 60.1987 28.4095C60.2351 28.0405 60.2558 27.5468 60.2558 26.9335V14.1996H65.6301V26.9283Z" fill="#20B486"/>
<path d="M68.925 35.2702V31.0862C69.6215 30.6341 70.1984 30.2494 70.661 29.9324C71.2743 29.5166 71.8253 29.1164 72.3138 28.737C73.4833 27.8378 74.4968 26.9126 75.3596 25.9563C75.713 25.5769 76.0352 25.1975 76.3315 24.818C76.6953 24.3555 77.0072 23.9033 77.2774 23.4719C77.9375 22.3856 78.265 21.4241 78.265 20.5821C78.265 19.2203 77.5997 18.5395 76.2743 18.5395C75.4011 18.5395 74.767 18.8981 74.372 19.6101C74.0758 20.1403 73.9043 20.8887 73.8575 21.8607H68.7275C68.7535 20.842 68.8471 20 69.003 19.3451C69.1901 18.5135 69.5124 17.739 69.9749 17.0218C70.661 15.9667 71.6018 15.1559 72.7972 14.5894C73.9095 14.0696 75.1309 13.8097 76.4666 13.8097C77.9115 13.8097 79.2057 14.106 80.344 14.6985C81.5966 15.3482 82.5113 16.2837 83.0986 17.5052C83.4625 18.3212 83.6392 19.1268 83.6392 19.922C83.6392 21.0083 83.4209 22.0842 82.9843 23.1496C82.6049 24.0956 82.0487 25.0519 81.3159 26.0135C80.713 26.8087 79.9645 27.6507 79.0654 28.5291C78.7016 28.8825 78.2961 29.2619 77.844 29.6673C77.5269 29.9636 77.1267 30.3222 76.6329 30.738H83.7795V35.2702H68.925Z" fill="#20B486"/>
<path d="M103.083 26.9283C103.083 28.3628 102.964 29.527 102.719 30.4158C102.397 31.554 101.815 32.5468 100.983 33.3888C99.4917 34.9064 97.5271 35.6705 95.0894 35.6705C93.9044 35.6705 92.8077 35.4989 91.8098 35.1559C90.6767 34.7661 89.7516 34.1892 89.0291 33.4199C88.1404 32.4844 87.5478 31.4813 87.2516 30.4158C87.1216 29.9324 87.0281 29.3919 86.9761 28.789C86.9397 28.3056 86.9189 27.6871 86.9189 26.9283V14.1944H92.2932V26.9283C92.2932 27.4844 92.3192 27.9626 92.3763 28.3628C92.4491 28.8721 92.5738 29.3035 92.7506 29.6569C93.1767 30.5197 93.9356 30.9511 95.0322 30.9511C96.1653 30.9511 96.9241 30.5301 97.314 29.6881C97.4699 29.3451 97.5842 28.9189 97.6466 28.4095C97.683 28.0405 97.7038 27.5468 97.7038 26.9335V14.1996H103.083V26.9283Z" fill="#20B486"/>
<path d="M128.718 35.2702L120.698 22.4532L120.63 22.4792L120.781 35.2702H115.625V14.1944H120.266L128.411 27.4428L128.468 27.3856L128.234 14.1944H133.39V35.2702H128.718Z" fill="#20B486"/>
<path d="M152.688 28.8046H140.843C141.139 30.7952 142.371 31.7932 144.543 31.7932C145.677 31.7932 146.633 31.3046 147.423 30.3171H152.262C151.555 31.9595 150.547 33.2641 149.232 34.236C147.833 35.2651 146.269 35.7796 144.549 35.7796C142.241 35.7796 140.271 34.9584 138.639 33.3212C136.997 31.6892 136.181 29.7194 136.181 27.4117C136.181 25.0936 136.981 23.1081 138.587 21.4449C140.209 19.7557 142.168 18.9137 144.465 18.9137C146.856 18.9137 148.852 19.7557 150.458 21.4449C152.023 23.1029 152.807 25.1404 152.807 27.5468C152.797 28.0094 152.761 28.4252 152.688 28.8046ZM148.073 25.6237C147.683 23.815 146.487 22.9106 144.486 22.9106C142.485 22.9106 141.29 23.815 140.9 25.6237H148.073Z" fill="#20B486"/>
<path d="M161.082 23.0509V35.2702H156.357V23.0509H154.023V19.4646H156.357V14.1944H161.082V19.4646H163.363V23.0509H161.082Z" fill="#20B486"/>
<path d="M182.855 35.2702H178.474L175.823 25.0519H175.766L173.125 35.2702H168.733L163.895 19.4646H168.791L171.155 29.293H171.213L173.811 19.4646H177.787L180.417 29.293H180.475L182.839 19.4646H187.704L182.855 35.2702Z" fill="#20B486"/>
<path d="M203.431 33.3627C201.809 34.9583 199.782 35.7535 197.355 35.7535C194.928 35.7535 192.906 34.9583 191.295 33.3627C189.663 31.767 188.847 29.766 188.847 27.3544C188.847 24.9375 189.663 22.9313 191.295 21.3357C192.906 19.74 194.928 18.9448 197.355 18.9448C199.782 18.9448 201.809 19.74 203.431 21.3357C205.063 22.9313 205.879 24.9375 205.879 27.3544C205.879 29.7712 205.063 31.7722 203.431 33.3627ZM200.078 24.5633C199.346 23.7681 198.436 23.3679 197.355 23.3679C196.279 23.3679 195.375 23.7681 194.642 24.5633C193.93 25.3325 193.571 26.2629 193.571 27.3596C193.571 28.4458 193.93 29.3762 194.642 30.1558C195.375 30.9458 196.279 31.3357 197.355 31.3357C198.441 31.3357 199.346 30.9406 200.078 30.1558C200.791 29.3762 201.149 28.4458 201.149 27.3596C201.149 26.2681 200.791 25.3325 200.078 24.5633Z" fill="#20B486"/>
<path d="M216.955 23.6746C215.739 23.711 214.86 23.8981 214.315 24.2307C213.592 24.6777 213.228 25.4574 213.228 26.58V35.2702H208.504V19.4646H212.937V21.1486H213.005C213.753 19.6673 215.074 18.9241 216.955 18.9241V23.6746Z" fill="#20B486"/>
<path d="M227.87 26.4137L233.655 35.2702H228.302L223.827 27.6663H223.769V35.2702H219.045V14.1944H223.769V25.1923H223.827L228.208 19.4646H233.821L227.87 26.4137Z" fill="#20B486"/>
<defs>
<linearGradient id="paint0_linear_390_3932" x1="25.1062" y1="25" x2="43.2235" y2="25" gradientUnits="userSpaceOnUse">
<stop stop-color="#07806D"/>
<stop offset="1" stop-color="#035663"/>
</linearGradient>
</defs>
</svg>
