<svg width="283" height="50" viewBox="0 0 283 50" fill="none" xmlns="http://www.w3.org/2000/svg">
<g clip-path="url(#clip0_390_3924)">
<path d="M117.075 22.7003V1.92824H122.67V22.7003H117.075ZM139.928 22.7003L132.72 10.3657V22.7003H127.301V1.92824H133.63L140.104 13.2076V1.92824H145.553V22.7003H139.928ZM159.966 7.1139V22.7003H154.459V7.1139H148.483V1.92824H165.974V7.1139H159.968H159.966ZM168.902 22.7003V1.92824H182.204V6.67456H174.352V9.95581H181.501V14.5257H174.352V17.8657H182.262V22.7003H168.902ZM186.158 22.7003V1.92824H194.917C199.136 1.92824 201.889 4.74074 201.889 8.60839C201.889 11.4209 200.336 13.5018 198.051 14.4099L201.977 22.7003H196.031L192.749 15.1709H191.606V22.7003H186.158ZM193.893 10.9521C195.534 10.9521 196.384 10.0146 196.384 8.69662C196.384 7.37861 195.534 6.47052 193.893 6.47052H191.608V10.9521H193.893ZM218.093 22.7003L210.886 10.3657V22.7003H205.465V1.92824H211.794L218.268 13.2076V1.92824H223.716V22.7003H218.091H218.093ZM228.347 22.7003V1.92824H241.648V6.67456H233.797V9.95581H240.946V14.5257H233.797V17.8657H241.707V22.7003H228.347ZM256.305 7.1139V22.7003H250.797V7.1139H244.821V1.92824H262.312V7.1139H256.306H256.305ZM121.066 38.6966C121.066 42.1543 123.527 44.1451 126.045 44.1451C128.917 44.1451 130.147 42.3584 130.586 40.8933L135.742 42.3878C134.922 45.4632 132.169 49.5073 126.016 49.5073C120.244 49.5073 115.382 45.3179 115.382 38.726C115.382 32.1341 120.334 27.8565 125.959 27.8565C131.935 27.8565 134.661 31.4889 135.511 34.5955L130.442 36.3235C130.062 34.9466 128.948 33.1304 126.018 33.1304C123.674 33.1304 121.067 34.9172 121.067 38.6966H121.066ZM148.165 27.8565C153.878 27.8565 158.829 31.9576 158.829 38.6966C158.829 45.4356 153.876 49.5367 148.165 49.5367C142.454 49.5367 137.501 45.4356 137.501 38.6966C137.501 31.9576 142.454 27.8565 148.165 27.8565ZM148.165 44.2334C150.597 44.2334 153.174 42.5054 153.174 38.6672C153.174 34.829 150.595 33.1599 148.165 33.1599C145.735 33.1599 143.156 34.8878 143.156 38.6672C143.156 42.4466 145.735 44.2334 148.165 44.2334ZM180.553 49.0679V36.2058L176.012 49.0679H171.676L167.165 36.3529V49.0679H161.95V28.2959H169.246L173.904 40.9521L178.358 28.2959H185.858V49.0679H180.555H180.553ZM195.933 41.9797V49.0698H190.485V28.2977H198.775C203.112 28.2977 206.071 31.1396 206.071 35.1525C206.071 39.1654 203.112 41.9797 198.775 41.9797H195.933ZM198.071 37.4393C199.507 37.4393 200.562 36.59 200.562 35.1838C200.562 33.7775 199.507 32.8988 198.071 32.8988H195.961V37.4393H198.071ZM208.911 41.4521V28.2977H214.389V41.2775C214.389 43.329 215.444 44.4117 217.261 44.4117C219.077 44.4117 220.102 43.3271 220.102 41.2775V28.2977H225.58V41.4521C225.58 46.6672 222.093 49.5385 217.261 49.5385C212.428 49.5385 208.911 46.6672 208.911 41.4521ZM239.996 33.4834V49.0698H234.488V33.4834H228.512V28.2977H246.003V33.4834H239.998H239.996ZM248.931 49.0679V28.2959H262.233V33.0422H254.382V36.3235H261.531V40.8933H254.382V44.2334H262.292V49.0679H248.931ZM266.371 49.0679V28.2959H275.13C279.349 28.2959 282.102 31.1084 282.102 34.976C282.102 37.7885 280.549 39.8694 278.264 40.7775L282.191 49.0679H276.244L272.963 41.5385H271.819V49.0679H266.371ZM274.106 37.3198C275.748 37.3198 276.597 36.3823 276.597 35.0643C276.597 33.7463 275.748 32.8382 274.106 32.8382H271.821V37.3198H274.106Z" fill="white"/>
<path d="M86.9497 41.5441C79.7217 41.5441 72.0894 36.8199 68.3431 33.3897C64.2475 29.6379 52.992 17.432 52.9423 17.3768C45.5618 9.13971 35.6372 0 25.7364 0C13.8118 0 3.41291 8.25735 0.707031 19.1985C0.914752 18.4779 4.70336 8.45588 18.935 8.45588C26.1629 8.45588 33.7953 13.1801 37.5416 16.6103C41.6372 20.3621 52.8927 32.568 52.9423 32.6232C60.3228 40.8585 70.2475 49.9982 80.1482 49.9982C92.0728 49.9982 102.472 41.7408 105.178 30.7996C104.97 31.5202 101.181 41.5423 86.9497 41.5423V41.5441Z" fill="#00ACE5"/>
<path d="M52.9442 32.6248C52.9185 32.5954 49.6777 29.0807 46.0435 25.2462C44.0803 27.577 41.2494 30.7535 37.9957 33.6046C31.9332 38.919 27.992 40.0329 25.7383 40.0329C17.2347 40.0329 10.299 33.2884 10.299 24.9998C10.299 16.7112 17.2273 10.0182 25.7383 9.96675C26.0472 9.96675 26.4203 9.998 26.8744 10.0789C24.3174 9.09726 21.6005 8.45572 18.9369 8.45572C4.71077 8.45572 0.918488 18.4723 0.710767 19.1965C0.241165 21.0946 0.00413046 23.0427 0.00488461 24.998C0.00488461 38.7829 11.3762 49.998 25.5564 49.998C31.4681 49.998 38.0894 46.9668 44.9093 40.9907C48.1336 38.1653 50.9295 35.1432 53.0288 32.7131C53.0012 32.6837 52.9736 32.6524 52.9479 32.623L52.9442 32.6248Z" fill="url(#paint0_linear_390_3924)"/>
<path d="M52.9421 17.375C52.9678 17.4044 56.2086 20.9191 59.8428 24.7537C61.8061 22.4228 64.637 19.2463 67.8906 16.3952C73.9531 11.0809 77.8943 9.96691 80.148 9.96691C88.6517 9.96691 95.5873 16.7114 95.5873 25C95.5873 33.2426 88.659 39.9816 80.148 40.0331C79.8392 40.0331 79.466 40.0018 79.012 39.921C81.5689 40.9026 84.2858 41.5441 86.9495 41.5441C101.176 41.5441 104.968 31.5276 105.176 30.8033C105.637 28.9393 105.881 26.9963 105.881 25.0018C105.883 11.2151 94.3281 0 80.148 0C74.2362 0 67.7987 3.03125 60.9789 9.00735C57.7546 11.8327 54.9586 14.8548 52.8594 17.2849C52.8869 17.3143 52.9145 17.3456 52.9403 17.375H52.9421Z" fill="url(#paint1_linear_390_3924)"/>
</g>
<defs>
<linearGradient id="paint0_linear_390_3924" x1="39.0803" y1="46.7296" x2="4.25489" y2="10.6671" gradientUnits="userSpaceOnUse">
<stop offset="0.22" stop-color="#FF0079"/>
<stop offset="0.89" stop-color="#592489"/>
</linearGradient>
<linearGradient id="paint1_linear_390_3924" x1="66.784" y1="3.29228" x2="101.609" y2="39.3529" gradientUnits="userSpaceOnUse">
<stop offset="0.21" stop-color="#FF4B00"/>
<stop offset="0.68" stop-color="#FFAB00"/>
</linearGradient>
<clipPath id="clip0_390_3924">
<rect width="282.191" height="50" fill="white"/>
</clipPath>
</defs>
</svg>
