<svg width="108" height="50" viewBox="0 0 108 50" fill="none" xmlns="http://www.w3.org/2000/svg">
<g clip-path="url(#clip0_390_3893)">
<path d="M8.66361 22.502V32.504L4.33301 35.0011V20.0015L8.66361 22.502Z" fill="#FFA534"/>
<path d="M43.3083 12.5018V37.5018L38.9777 40.0023L38.976 20.0016L34.6471 22.5004V42.5028L21.6553 50.0009V25.0026L25.9859 22.5021V42.5028L30.3165 40.0023V20.0016L43.3083 12.5018Z" fill="#FFA534"/>
<path d="M12.9956 9.99935L8.66504 12.4999L12.9956 15.0004V9.99935Z" fill="#FFA534"/>
<path d="M21.6558 5.00026L17.3252 7.50077L21.6558 9.99958V5.00026Z" fill="#FFA534"/>
<path d="M43.3073 12.5017L38.9767 15.0006L21.6542 5.00022L17.3236 7.50073V7.50242L21.6542 9.99955L34.6461 17.5011L30.3171 20.0016H30.3155V19.9999L12.9947 9.99955L8.66413 12.5001L25.9848 22.5021L21.6542 25.0026L0.00292969 12.5001L21.6526 0.000900269H21.6542L43.3073 12.5017Z" fill="white"/>
<path d="M17.3231 37.5018V42.5028L4.33301 35.0013L8.66361 32.5042L17.3231 37.5018Z" fill="white"/>
<path d="M25.9854 42.5027L30.316 40.0022L25.9854 37.5017V42.5027Z" fill="white"/>
<path d="M0.00292969 12.4999V37.5016L21.6542 50.0008V24.9991L0.00292969 12.4999ZM17.3236 42.5027L4.33184 35.0011V20.0015L17.3236 27.503V42.5027Z" fill="#FF6C2D"/>
<path d="M38.9781 40.0021L34.6475 37.5016V22.5003L38.9764 20.0015L38.9781 40.0021Z" fill="#FF6C2D"/>
<path d="M38.9777 15.0006L34.6471 17.5011L21.6553 9.99958V5.00026L38.9777 15.0006Z" fill="#FF6C2D"/>
<path d="M12.9951 9.99935V15.0004L25.9852 22.5019V37.5016L30.3158 40.0021V20.0014L12.9951 9.99935Z" fill="#FF6C2D"/>
<path d="M51.9346 12.6068H58.7454V14.2761H53.8527V16.7664H57.7787V18.4357H53.8527V21.1749H58.9062V22.8594H51.9346V12.6068Z" fill="white"/>
<path d="M59.4922 17.7328C59.4922 14.7159 61.6897 12.4897 64.6777 12.4897C67.6658 12.4897 69.8481 14.7159 69.8481 17.7328C69.8481 20.7497 67.637 22.9759 64.6777 22.9759C61.7184 22.9759 59.4922 20.7497 59.4922 17.7328ZM64.6625 21.2914C66.5366 21.2914 67.8994 19.783 67.8994 17.7328C67.8994 15.6826 66.5366 14.1589 64.6625 14.1589C62.7884 14.1589 61.4408 15.6826 61.4408 17.7328C61.4408 19.783 62.7884 21.2914 64.6625 21.2914Z" fill="white"/>
<path d="M70.7139 19.4174H72.5744C72.6777 20.5602 73.4378 21.2915 74.6686 21.2915C75.7674 21.2915 76.5292 20.8513 76.5292 19.9439C76.5292 17.7465 71.022 19.2701 71.022 15.3441C71.022 13.6596 72.4712 12.4881 74.5518 12.4881C76.6325 12.4881 78.1849 13.7324 78.273 15.6523H76.4276C76.3396 14.7584 75.637 14.1591 74.5535 14.1591C73.5428 14.1591 72.913 14.628 72.913 15.3458C72.913 17.6161 78.493 15.9164 78.493 19.9151C78.493 21.8197 76.9254 22.976 74.6703 22.976C72.4153 22.976 70.8188 21.5692 70.7156 19.4174H70.7139Z" fill="white"/>
<path d="M51.9346 27.3167H54.0152L58.4677 34.5524V27.3167H60.3858V37.5693H58.3052L53.8527 30.3488V37.5693H51.9346V27.3167Z" fill="white"/>
<path d="M61.4834 33.8501C61.4834 31.9015 62.6837 30.0714 65.1013 30.0714C67.5188 30.0714 68.6903 31.8727 68.6903 33.63C68.6903 33.8789 68.6751 34.099 68.6616 34.2446H63.2136C63.3457 35.4313 64.1075 36.1932 65.2502 36.1932C66.1729 36.1932 66.7739 35.8122 66.9635 35.1097H68.7208C68.4432 36.6773 67.0651 37.688 65.2502 37.688C62.8327 37.688 61.4868 35.7835 61.4868 33.8501H61.4834ZM66.8873 33.0595C66.8145 32.1216 66.1695 31.419 65.0996 31.419C64.0889 31.419 63.4438 31.9455 63.2542 33.0595H66.8873Z" fill="white"/>
<path d="M72.4822 27.9618V30.188H74.5324V31.6965H72.4822V34.9182C72.4822 35.6648 72.8784 36.0457 73.5522 36.0457H74.5341V37.5694H73.3473C71.7356 37.5694 70.6826 36.6315 70.6826 34.991V31.6948H69.2334V30.1863H70.6826V27.9601H72.4839L72.4822 27.9618Z" fill="white"/>
<path d="M74.9277 30.188H76.729L78.0919 35.123L79.5411 30.188H81.1968L82.6324 35.123L83.9952 30.188H85.7966L83.4383 37.5693H81.8418L80.3621 32.6038L78.8825 37.5693H77.286L74.9277 30.188Z" fill="white"/>
<path d="M86 33.8789C86 31.6814 87.6117 30.0714 89.8667 30.0714C92.1218 30.0714 93.7182 31.6831 93.7182 33.8789C93.7182 36.0746 92.1065 37.6863 89.8667 37.6863C87.6269 37.6863 86 36.0746 86 33.8789ZM89.8667 36.1339C91.0823 36.1339 91.9034 35.2112 91.9034 33.8789C91.9034 32.5465 91.0823 31.6238 89.8667 31.6238C88.6512 31.6238 87.8166 32.5465 87.8166 33.8789C87.8166 35.2112 88.6359 36.1339 89.8667 36.1339Z" fill="white"/>
<path d="M96.4576 34.0835V37.5693H94.6562V30.188H96.4576V31.4916C96.8232 30.5537 97.3955 30.188 98.3469 30.188H99.2103V31.6964H98.054C96.8977 31.6964 96.4576 32.6783 96.4576 34.0835Z" fill="white"/>
<path d="M100.147 27.0239H101.964V32.868L104.776 30.1881H107.062L104.058 33.0729L107.31 37.5694H105.143L102.829 34.2732L101.966 35.1078V37.5677H100.149V27.0222L100.147 27.0239Z" fill="white"/>
</g>
<defs>
<clipPath id="clip0_390_3893">
<rect width="107.307" height="50" fill="white"/>
</clipPath>
</defs>
</svg>
