<svg width="32" height="33" viewBox="0 0 32 33" fill="none" xmlns="http://www.w3.org/2000/svg">
<g id="Frame">
<path id="Vector" d="M26.2744 25.7744C28.6244 23.3181 30.0119 19.8994 30.0119 16.2681C30.0119 8.47123 23.7088 2.27435 16.0182 2.27435C8.22129 2.27435 2.02441 8.57748 2.02441 16.2681C2.02441 23.9587 8.22129 30.2619 16.0182 30.2619C18.7963 30.2619 21.3588 29.515 23.4963 28.1244C24.3494 29.4056 26.3807 30.2619 28.7307 30.2619C29.1588 30.2619 30.0119 27.4837 30.0119 27.4837C28.4088 27.2681 27.0213 26.6275 26.2744 25.7744ZM8.96816 19.6837C7.04629 19.6837 5.44316 18.0806 5.44316 16.1587C5.44316 14.2369 7.04629 12.6337 8.96816 12.6337C10.89 12.6337 12.4932 14.2369 12.4932 16.1587C12.4932 18.19 10.89 19.6837 8.96816 19.6837ZM16.0182 26.7369C14.0963 26.7369 12.4932 25.1337 12.4932 23.2119C12.4932 21.29 14.0963 19.6869 16.0182 19.6869C17.94 19.6869 19.5432 21.29 19.5432 23.2119C19.5432 25.1337 17.94 26.7369 16.0182 26.7369ZM14.2025 16.2681C14.2025 15.3056 14.9494 14.5587 15.9119 14.5587C16.8744 14.5587 17.6213 15.3056 17.6213 16.2681C17.6213 17.2306 16.8744 17.9775 15.9119 17.9775C15.0557 17.9744 14.2025 17.2275 14.2025 16.2681ZM16.0182 12.74C14.0963 12.74 12.4932 11.1369 12.4932 9.21498C12.4932 7.2931 14.0963 5.68998 16.0182 5.68998C17.94 5.68998 19.5432 7.2931 19.5432 9.21498C19.5432 11.1369 17.94 12.74 16.0182 12.74ZM20.3994 16.2681C20.3994 14.3462 22.0025 12.7431 23.9244 12.7431C25.8463 12.7431 27.4494 14.3462 27.4494 16.2681C27.4494 18.19 25.8463 19.7931 23.9244 19.7931C21.9994 19.6837 20.3994 18.19 20.3994 16.2681Z" fill="url(#paint0_linear_1828_446)"/>
</g>
<defs>
<linearGradient id="paint0_linear_1828_446" x1="16.0182" y1="2.27435" x2="16.0182" y2="30.2619" gradientUnits="userSpaceOnUse">
<stop stop-color="#8DEF3D"/>
<stop offset="1" stop-color="#E3FF57"/>
</linearGradient>
</defs>
</svg>
