<svg width="33" height="33" viewBox="0 0 33 33" fill="none" xmlns="http://www.w3.org/2000/svg">
<g id="Frame" clip-path="url(#clip0_1828_430)">
<path id="Vector" d="M6.7022 16.9071C9.38944 18.5646 12.1929 20.0258 15.0906 21.2795C18.0116 22.5474 20.6412 23.5185 22.9773 24.1952C21.1844 25.6733 19.0959 26.4128 16.717 26.4128C14.0458 26.4128 11.7491 25.495 9.8313 23.6551C7.94972 21.8988 6.82718 19.478 6.7022 16.9071ZM7.38949 12.5358C7.43325 12.2796 7.54211 12.0395 7.70539 11.8389C8.28916 10.571 9.20697 9.40986 10.4588 8.35331C12.2518 6.87521 14.3382 6.13562 16.7192 6.13562C19.3904 6.13562 21.6871 7.05343 23.6049 8.89332C25.4864 10.6497 26.609 13.0705 26.734 15.6414V16.2742C26.7401 17.5523 26.5073 18.8202 26.0477 20.0127C26.0051 20.2688 25.8962 20.509 25.734 20.7096C25.3265 20.6484 24.927 20.5421 24.543 20.3926C21.8563 19.6115 19.2224 18.6594 16.6573 17.5421C13.1077 16.0213 10.0213 14.3532 7.3927 12.5368H7.38949V12.5358ZM27.6102 18.112C31.323 20.4364 33.0124 22.1674 32.6795 23.3072C32.4287 24.0255 31.513 24.3851 29.926 24.3851C26.4629 24.3851 21.6423 23.034 15.4652 20.3297C11.0842 18.3852 7.45353 16.3276 4.57416 14.1515C1.69479 11.9755 0.423732 10.3394 0.755638 9.2391C1.04912 8.31169 1.96694 7.95203 3.50907 8.16334C4.97117 8.37465 6.49516 8.75458 8.08105 9.30314C7.99568 9.4312 7.70539 9.89438 7.20486 10.6991C5.65953 10.3608 4.43009 10.1911 3.51014 10.1911H3.13448C3.17717 10.2338 3.24867 10.3191 3.35433 10.4461C3.45891 10.571 3.55283 10.6777 3.63607 10.761C4.34578 11.4792 5.30628 12.2604 6.51544 13.1067C9.06076 14.9231 12.3158 16.7171 16.2805 18.4919C19.034 19.7182 21.7063 20.6893 24.2932 21.4076C26.5451 22.0404 28.4234 22.3574 29.9239 22.3574H30.3017C30.2252 22.2752 30.1519 22.1901 30.0818 22.1023C29.9926 21.9933 29.8986 21.8882 29.8001 21.7875C29.0904 21.0693 28.2345 20.351 27.2345 19.6317C27.4405 19.0415 27.5685 18.5335 27.6102 18.112Z" fill="url(#paint0_linear_1828_430)"/>
</g>
<defs>
<linearGradient id="paint0_linear_1828_430" x1="16.7123" y1="6.13562" x2="16.7123" y2="26.4128" gradientUnits="userSpaceOnUse">
<stop stop-color="#8DEF3D"/>
<stop offset="1" stop-color="#E3FF57"/>
</linearGradient>
<clipPath id="clip0_1828_430">
<rect width="32" height="32" fill="white" transform="translate(0.704102 0.274353)"/>
</clipPath>
</defs>
</svg>
