<svg width="33" height="33" viewBox="0 0 33 33" fill="none" xmlns="http://www.w3.org/2000/svg">
<g id="Frame">
<path id="Vector" d="M25.13 10.8636C23.6234 10.8636 22.2665 11.4918 21.3006 12.5015L17.4084 10.0893C17.4084 10.089 17.4087 10.0883 17.4087 10.088L17.5212 9.7649C17.6928 9.21927 17.7837 8.63927 17.7837 8.0374C17.7806 4.85177 15.1984 2.2699 12.0131 2.2699C8.82777 2.2699 6.24559 4.85177 6.24559 8.0374C6.24559 9.72833 6.97402 11.2508 8.13371 12.3043L5.63309 16.4124C5.78684 16.4355 5.93652 16.4708 6.08121 16.5174L5.86059 16.4574L5.63309 16.4152C5.50152 16.3965 5.36746 16.3871 5.23277 16.3871C3.69184 16.3871 2.44434 17.6343 2.44434 19.1755C2.44434 20.7165 3.69184 21.964 5.23277 21.964C5.78277 21.964 6.29402 21.8058 6.72527 21.5321L6.90496 21.4077L12.9106 24.8899L12.8468 25.1602C12.7918 25.4333 12.7637 25.7152 12.7637 26.0061C12.7637 28.3571 14.6675 30.2605 17.0184 30.2605C19.3693 30.2605 21.2728 28.3568 21.2728 26.0061L21.264 25.7308C21.2118 24.9118 20.9287 24.1574 20.4756 23.5271L20.385 23.409L20.3453 23.3577L20.3243 23.3296L20.3481 23.3583L20.4759 23.5271L22.6796 20.8543L22.9587 20.9905C23.6206 21.2893 24.3565 21.4546 25.1306 21.4546C28.0565 21.4546 30.4259 19.0849 30.4259 16.1593C30.4256 13.233 28.0562 10.8636 25.13 10.8636ZM7.37746 20.958L7.23902 21.1105L7.23527 21.1158L7.23496 21.1161L7.23184 21.1202L7.16309 21.1843L7.23496 21.1161L7.23902 21.1105L7.38246 20.9493L7.37746 20.958ZM7.51027 20.7846L7.49121 20.8077L7.51809 20.7715L7.51027 20.7846ZM7.6384 20.5852L7.63121 20.5955L7.64746 20.5665L7.6384 20.5852ZM7.73402 20.408L7.7234 20.4249L7.7434 20.3874L7.73402 20.408ZM7.82371 20.2061L7.79934 20.2605L7.82965 20.1905L7.82371 20.2061ZM7.89777 19.9961L7.86371 20.0911L7.89996 19.9849L7.89777 19.9961ZM7.96215 19.7449L7.95809 19.7574L7.95465 19.779L7.9184 19.9161L7.95809 19.7574L7.9734 19.6711L7.96215 19.7449ZM19.4825 22.538L19.3856 22.4727L19.235 22.3746L19.0178 22.2496L19.0371 22.2599L19.235 22.3746L19.2771 22.3999L19.3856 22.4727L19.4471 22.513V22.5121L19.4825 22.538L19.5068 22.5546L19.6471 22.663L19.4825 22.538ZM19.9118 22.8883L19.6853 22.6921L19.725 22.7236L19.9118 22.8883L19.9318 22.9061L20.1243 23.1002L19.9118 22.8883ZM20.2128 23.1965L20.3068 23.3077L20.3078 23.3086L20.3228 23.3283L20.2128 23.1965ZM18.7875 22.1358L18.5534 22.0368C18.0778 21.8524 17.5596 21.7515 17.0184 21.7515C15.8431 21.7515 14.7803 22.2265 14.0081 22.9986L7.99965 19.5165L7.99715 19.5358L7.99465 19.5552L7.97684 19.6486L7.99965 19.5161L8.01527 19.3471L8.02152 19.1755C8.02152 18.5721 7.82777 18.0127 7.50277 17.553L10.0025 13.444L10.0068 13.4455C10.6321 13.6768 11.3103 13.8049 12.0168 13.8049C13.6918 13.8049 15.2012 13.0896 16.2546 11.9493L20.1475 14.3615L20.0537 14.6461C19.9109 15.1261 19.8346 15.6327 19.8346 16.159C19.8346 17.3052 20.1971 18.3646 20.8162 19.2315L20.9912 19.463L18.7875 22.1358ZM21.6546 20.1549L21.6418 20.1436L21.6865 20.1811L21.6546 20.1549Z" fill="url(#paint0_linear_1828_428)"/>
</g>
<defs>
<linearGradient id="paint0_linear_1828_428" x1="16.4351" y1="2.2699" x2="16.4351" y2="30.2605" gradientUnits="userSpaceOnUse">
<stop stop-color="#8DEF3D"/>
<stop offset="1" stop-color="#E3FF57"/>
</linearGradient>
</defs>
</svg>
