<svg width="33" height="33" viewBox="0 0 33 33" fill="none" xmlns="http://www.w3.org/2000/svg">
<g id="Frame">
<path id="Vector" d="M16.5509 24.4084H16.1358C16.126 24.4084 16.1163 24.4061 16.1075 24.4017C16.0987 24.3972 16.0911 24.3908 16.0853 24.3829C16.0795 24.3749 16.0756 24.3657 16.074 24.356C16.0724 24.3463 16.0731 24.3364 16.0761 24.327L16.1164 24.1999C16.025 24.0744 16.0526 23.8985 16.1781 23.8071C16.3036 23.7157 16.4795 23.7432 16.5709 23.8688C16.5949 23.9017 16.6114 23.9394 16.6194 23.9793C16.6274 24.0193 16.6267 24.0605 16.6173 24.1001C16.6141 24.117 16.5978 24.1286 16.5809 24.1254C16.564 24.1223 16.5525 24.106 16.5556 24.0891L16.5565 24.0854C16.5606 24.0682 16.5628 24.0506 16.5628 24.0331C16.5628 23.912 16.4648 23.814 16.3437 23.814C16.2225 23.814 16.1246 23.912 16.1246 24.0331C16.1246 24.0841 16.1421 24.1333 16.1746 24.1727C16.1828 24.1812 16.1853 24.194 16.1809 24.2049L16.1361 24.3461H16.5512L16.5199 24.2522C16.48 24.2841 16.4324 24.3047 16.3818 24.3119C16.3313 24.3191 16.2797 24.3127 16.2326 24.2932C16.2287 24.2918 16.2252 24.2896 16.2222 24.2868C16.2192 24.284 16.2167 24.2806 16.215 24.2768C16.2134 24.2731 16.2124 24.269 16.2123 24.2649C16.2122 24.2608 16.2129 24.2567 16.2144 24.2528C16.2207 24.2366 16.2385 24.2284 16.2548 24.2347C16.2554 24.235 16.2563 24.2353 16.257 24.2356C16.3349 24.2675 16.4244 24.2528 16.488 24.1971C16.4961 24.1896 16.5108 24.1733 16.5108 24.1733C16.5224 24.1605 16.5421 24.1592 16.555 24.1708C16.559 24.1746 16.5622 24.1796 16.564 24.1849L16.6094 24.328C16.612 24.3358 16.6129 24.344 16.6123 24.3522C16.6116 24.3604 16.6093 24.3683 16.6056 24.3756C16.6018 24.3829 16.5967 24.3894 16.5904 24.3947C16.5841 24.4 16.5769 24.404 16.569 24.4065C16.5628 24.4084 16.5562 24.4097 16.5496 24.4097L16.5509 24.4084ZM16.4373 24.0328C16.4373 23.9808 16.3953 23.9389 16.3434 23.9389C16.3261 23.9389 16.3121 23.953 16.3121 23.9702C16.3121 23.9874 16.3261 24.0015 16.3434 24.0015C16.3606 24.0015 16.3747 24.0156 16.3747 24.0328C16.3747 24.05 16.3606 24.0641 16.3434 24.0641C16.3261 24.0641 16.3121 24.05 16.3121 24.0328C16.3121 24.0156 16.298 24.0015 16.2808 24.0015C16.2635 24.0015 16.2495 24.0156 16.2495 24.0328C16.2495 24.0847 16.2914 24.1267 16.3434 24.1267C16.3953 24.1267 16.4373 24.0847 16.4373 24.0328Z" fill="white"/>
<path id="Vector_2" d="M25.4457 13.3577C25.7745 13.7238 26.0224 14.1552 26.1732 14.6236C26.3239 15.092 26.3742 15.5869 26.3207 16.0761L25.6673 21.9095C25.4701 23.6908 23.9595 25.0355 22.1673 25.0245H19.6123C18.8533 24.9613 18.1455 24.6158 17.6289 24.0561C17.4126 23.8476 17.1243 23.7306 16.8239 23.7295H15.3889C15.0886 23.7308 14.8001 23.8477 14.5839 24.0561C14.0672 24.6157 13.3595 24.9613 12.6004 25.0245H10.022C8.2298 25.0355 6.71918 23.6908 6.52199 21.9095L5.86855 16.0761C5.65605 14.1549 7.04105 12.4249 8.9623 12.2124C9.0973 12.1974 9.23293 12.1902 9.36855 12.1911H22.8201C23.8223 12.1861 24.7779 12.6111 25.4457 13.3577ZM13.7789 9.85767H18.4454C19.0898 9.85767 19.612 9.33517 19.612 8.69111C19.612 8.04704 19.0901 7.52423 18.4457 7.52423H13.7789C13.1345 7.52423 12.6123 8.04673 12.6123 8.69079C12.6123 9.33486 13.1345 9.85767 13.7789 9.85767ZM28.9457 15.6908C28.3014 15.6908 27.7792 16.2133 27.7792 16.8574V21.5242C27.7792 22.1686 28.3014 22.6908 28.9457 22.6908C29.5901 22.6908 30.1123 22.1683 30.1123 21.5242V16.8577C30.1123 16.2133 29.5901 15.6908 28.9457 15.6908ZM3.27887 15.6908C2.63449 15.6908 2.1123 16.2133 2.1123 16.8574V21.5242C2.1123 22.1686 2.63449 22.6908 3.27887 22.6908C3.92324 22.6908 4.44543 22.1683 4.44543 21.5242V16.8577C4.44574 16.2133 3.92324 15.6908 3.27887 15.6908Z" fill="url(#paint0_linear_1828_437)"/>
</g>
<defs>
<linearGradient id="paint0_linear_1828_437" x1="16.1123" y1="7.52423" x2="16.1123" y2="25.0246" gradientUnits="userSpaceOnUse">
<stop stop-color="#8DEF3D"/>
<stop offset="1" stop-color="#E3FF57"/>
</linearGradient>
</defs>
</svg>
