<svg width="33" height="33" viewBox="0 0 33 33" fill="none" xmlns="http://www.w3.org/2000/svg">
<g id="Frame">
<path id="Vector" d="M16.8166 9.18037V11.6404L10.0566 11.6424C9.82059 11.9464 9.64859 12.0544 9.54659 12.3544L9.49459 12.5604L9.48259 12.6144L8.61659 14.9424L8.29259 16.2384C8.36059 17.1184 9.34059 17.8284 10.2326 17.9264L10.4366 17.9364H16.8166V17.9564H29.1666L29.0866 17.9704C29.3466 18.4884 29.5146 19.0644 29.5646 19.7184L29.5786 20.1204L29.9466 24.3524C29.9466 24.4764 29.9366 24.6004 29.9226 24.7264L29.9386 24.8444L29.9466 24.9644V30.0564C29.9466 30.7164 29.4646 31.2604 28.8366 31.3564L28.6446 31.3684H26.6606C26.3478 31.3673 26.0458 31.2537 25.8097 31.0485C25.5736 30.8432 25.4192 30.56 25.3746 30.2504L25.3606 30.0564V28.4204H8.29659V30.0564C8.29659 30.7164 7.81659 31.2604 7.19059 31.3564L6.99859 31.3684H5.01259C4.69977 31.3673 4.39779 31.2537 4.16171 31.0485C3.92563 30.8432 3.7712 30.56 3.72659 30.2504L3.71259 30.0564V24.9664C3.71259 24.8844 3.72259 24.8024 3.73659 24.7264L3.71859 24.5384L3.71259 24.3524L4.07859 20.1204C4.07859 19.4364 4.20259 18.8324 4.42459 18.2924L4.57059 17.9764L3.57859 17.8044C3.41036 17.8036 3.24753 17.7449 3.11749 17.6382C2.98745 17.5315 2.89814 17.3832 2.86459 17.2184L2.85059 17.0704V16.4304C2.85059 16.0744 3.10059 15.7804 3.43259 15.7104L3.57859 15.6964H6.19859C6.28459 15.6964 6.36859 15.7144 6.44659 15.7444L6.55859 15.8004L7.74259 12.2004C8.04659 10.6004 9.14259 9.33637 10.9426 9.19437L11.2906 9.18037H16.8166ZM9.22259 22.0344C8.96292 22.0354 8.70601 22.0876 8.46655 22.188C8.22708 22.2884 8.00974 22.435 7.82697 22.6195C7.6442 22.8039 7.49957 23.0226 7.40136 23.263C7.30314 23.5033 7.25327 23.7607 7.25459 24.0204C7.25459 25.1204 8.13459 26.0084 9.22259 26.0084C9.48251 26.0073 9.73968 25.9551 9.97939 25.8546C10.2191 25.7541 10.4367 25.6073 10.6196 25.4227C10.8026 25.238 10.9473 25.0192 11.0457 24.7785C11.144 24.5379 11.1939 24.2803 11.1926 24.0204C11.1926 22.9204 10.3126 22.0344 9.22259 22.0344ZM24.4346 22.0344C24.1748 22.0354 23.9178 22.0876 23.6782 22.188C23.4387 22.2884 23.2212 22.4349 23.0383 22.6194C22.8553 22.8038 22.7105 23.0224 22.6121 23.2628C22.5137 23.5032 22.4635 23.7606 22.4646 24.0204C22.4625 24.5452 22.6688 25.0493 23.0381 25.4221C23.4075 25.7949 23.9098 26.0057 24.4346 26.0084C24.6943 26.0071 24.9513 25.9546 25.1908 25.854C25.4303 25.7534 25.6476 25.6066 25.8303 25.422C26.0131 25.2374 26.1577 25.0186 26.2559 24.7781C26.354 24.5376 26.4039 24.2801 26.4026 24.0204C26.4026 22.9204 25.5226 22.0344 24.4346 22.0344ZM19.6346 22.2904H14.1086C13.9763 22.2906 13.8479 22.3356 13.7444 22.418C13.6409 22.5004 13.5684 22.6155 13.5386 22.7444L13.5226 22.8804V24.5404C13.5226 24.8224 13.7166 25.0564 13.9746 25.1164L14.1086 25.1324H19.6366C19.9146 25.1324 20.1466 24.9384 20.2066 24.6784L20.2226 24.5424V22.8804C20.2228 22.803 20.2078 22.7263 20.1784 22.6547C20.149 22.5832 20.1057 22.5181 20.0511 22.4633C19.9964 22.4085 19.9315 22.365 19.8601 22.3353C19.7886 22.3056 19.712 22.2904 19.6346 22.2904ZM20.7006 10.5064C20.949 10.5033 21.1953 10.5513 21.4244 10.6473C21.6535 10.7432 21.8605 10.8852 22.0326 11.0644C22.2019 11.2383 22.3381 11.4416 22.4346 11.6644C22.5346 11.8924 22.5846 12.1344 22.5846 12.3904C22.5867 12.6441 22.5356 12.8956 22.4346 13.1284C22.2404 13.5743 21.8845 13.9302 21.4386 14.1244C21.2058 14.2254 20.9544 14.2765 20.7006 14.2744C20.4508 14.2756 20.2034 14.2245 19.9746 14.1244C19.7518 14.0279 19.5485 13.8917 19.3746 13.7224C19.198 13.5484 19.0578 13.341 18.962 13.1123C18.8662 12.8837 18.8168 12.6383 18.8166 12.3904C18.8166 12.1344 18.8666 11.8924 18.9666 11.6644C19.1628 11.2129 19.5231 10.8526 19.9746 10.6564C20.2034 10.5562 20.4508 10.5051 20.7006 10.5064ZM19.5966 6.70237C20.4895 6.70237 21.3737 6.87845 22.1985 7.22053C23.0234 7.56261 23.7726 8.06397 24.4035 8.69594C25.0344 9.32791 25.5344 10.0781 25.875 10.9035C26.2156 11.7289 26.3902 12.6134 26.3886 13.5064H25.3446C25.0006 13.5064 24.6726 13.5024 24.3606 13.4944C24.3589 12.5578 24.0823 11.6423 23.565 10.8615C23.0477 10.0807 22.3124 9.46902 21.4506 9.10237C20.8645 8.85313 20.2335 8.72653 19.5966 8.73037V6.70237ZM19.6086 3.07837C20.5686 3.07837 21.4926 3.20237 22.3806 3.45037C24.1215 3.9254 25.7066 4.85041 26.9766 6.13237C28.2468 7.41044 29.1681 8.99281 29.6526 10.7284C29.9006 11.6124 30.0246 12.5344 30.0246 13.4944H28.8966C28.7686 13.4944 28.6506 13.4924 28.5426 13.4884C28.4166 13.4841 28.2906 13.4821 28.1646 13.4824C28.1667 11.989 27.7765 10.5213 27.0331 9.22614C26.2897 7.93097 25.2191 6.85378 23.9286 6.10237C23.2879 5.73069 22.6023 5.44236 21.8886 5.24437C21.1502 5.03896 20.387 4.936 19.6206 4.93837V4.55437L19.6146 3.96037L19.6106 3.66837L19.6086 3.07837Z" fill="url(#paint0_linear_1828_440)"/>
</g>
<defs>
<linearGradient id="paint0_linear_1828_440" x1="16.4376" y1="3.07837" x2="16.4376" y2="31.3684" gradientUnits="userSpaceOnUse">
<stop stop-color="#8DEF3D"/>
<stop offset="1" stop-color="#E3FF57"/>
</linearGradient>
</defs>
</svg>
