<svg width="33" height="33" viewBox="0 0 33 33" fill="none" xmlns="http://www.w3.org/2000/svg">
<g id="Frame">
<path id="Vector" d="M30.7602 20.9843C29.6097 24.4801 27.2098 27.4284 24.0202 29.2643C20.8336 31.1107 17.0773 31.7154 13.4722 30.9623C16.5482 30.5023 19.8382 29.3703 23.0202 27.5323C26.1182 25.7443 28.6902 23.5323 30.6122 21.1703L30.7622 20.9843H30.7602ZM31.0562 12.5543C31.3126 13.5558 31.4641 14.5814 31.5082 15.6143C29.2022 18.8883 25.6802 22.0723 21.3202 24.5883C16.9602 27.1063 12.4402 28.5663 8.45219 28.9223C7.57874 28.3672 6.76566 27.7223 6.02619 26.9983C10.1102 27.1303 15.2862 25.7623 20.3202 22.8563C25.0862 20.1043 28.7222 16.5523 30.7342 13.1243L31.0542 12.5543H31.0562ZM28.9002 7.80229C29.3204 8.41797 29.6947 9.06371 30.0202 9.73429C27.6262 13.2203 23.5762 16.8203 18.5202 19.7383C13.4662 22.6583 8.32619 24.3663 4.10819 24.6983C3.6891 24.0799 3.3161 23.4315 2.99219 22.7583C6.93619 22.6523 12.2402 21.0543 17.5202 18.0063C22.5282 15.1143 26.4162 11.5523 28.5642 8.32629L28.9002 7.80229ZM23.5362 3.01429C24.2062 3.36829 24.8522 3.77429 25.4682 4.23029C24.8962 7.87429 21.2242 12.1723 15.9202 15.2343C10.6162 18.2983 5.05419 19.3283 1.61419 18.0003C1.5285 17.2435 1.49975 16.4814 1.52819 15.7203C3.92419 17.3543 9.47419 16.6483 14.9202 13.5023C20.1482 10.4843 23.4802 6.26029 23.5462 3.36829L23.5362 3.01429ZM18.2002 1.36829C18.8882 1.44629 19.5682 1.57029 20.2362 1.74229C20.2542 4.60429 17.4342 8.12629 13.2202 10.5583C9.00819 12.9903 4.54819 13.6743 2.07619 12.2303C2.26219 11.5623 2.49619 10.9103 2.77019 10.2743C4.21419 11.5483 8.23819 11.1243 12.2202 8.82629C16.1402 6.56429 18.5062 3.35629 18.2182 1.45829L18.1982 1.36829H18.2002ZM14.1002 2.08229C14.5142 2.80029 12.9122 4.50229 10.5202 5.88229C8.12819 7.26229 5.85419 7.80029 5.44019 7.08229C5.19619 6.65829 5.65419 5.89029 6.56619 5.04829C7.32301 4.37953 8.14514 3.78856 9.02019 3.28429L9.52219 3.00429C10.2413 2.62541 10.9897 2.30504 11.7602 2.04629C12.9522 1.67429 13.8542 1.65629 14.1002 2.08229Z" fill="url(#paint0_linear_1828_442)"/>
</g>
<defs>
<linearGradient id="paint0_linear_1828_442" x1="16.5129" y1="1.36829" x2="16.5129" y2="31.2781" gradientUnits="userSpaceOnUse">
<stop stop-color="#8DEF3D"/>
<stop offset="1" stop-color="#E3FF57"/>
</linearGradient>
</defs>
</svg>
