<svg width="33" height="33" viewBox="0 0 33 33" fill="none" xmlns="http://www.w3.org/2000/svg">
<g id="Frame">
<path id="Vector" d="M21.5576 30.9411H8.22428C7.51704 30.9411 6.83876 30.6601 6.33867 30.16C5.83857 29.6599 5.55762 28.9816 5.55762 28.2744V4.27439C5.55762 3.56715 5.83857 2.88887 6.33867 2.38878C6.83876 1.88868 7.51704 1.60773 8.22428 1.60773H21.5576C22.2649 1.60773 22.9431 1.88868 23.4432 2.38878C23.9433 2.88887 24.2243 3.56715 24.2243 4.27439V7.91173C23.4235 7.38415 22.5102 7.0517 21.5576 6.94106V5.60773C21.5472 5.24294 21.4084 4.89352 21.1656 4.62106C21.0403 4.50261 20.8923 4.41082 20.7305 4.35123C20.5687 4.29165 20.3965 4.26551 20.2243 4.27439H9.55762C9.38178 4.2717 9.20718 4.30434 9.0442 4.37039C8.88121 4.43644 8.73315 4.53455 8.6088 4.65891C8.48444 4.78326 8.38633 4.93132 8.32028 5.09431C8.25423 5.25729 8.22158 5.43189 8.22428 5.60773V24.2744C8.2214 24.4503 8.25392 24.625 8.3199 24.788C8.38589 24.9511 8.48399 25.0992 8.60838 25.2236C8.73277 25.348 8.88091 25.4461 9.04398 25.5121C9.20705 25.5781 9.38173 25.6106 9.55762 25.6077H20.2243C20.4002 25.6106 20.5748 25.5781 20.7379 25.5121C20.901 25.4461 21.0491 25.348 21.1735 25.2236C21.2979 25.0992 21.396 24.9511 21.462 24.788C21.528 24.625 21.5605 24.4503 21.5576 24.2744V22.8077C21.7085 22.762 21.8621 22.7259 22.0176 22.6997C22.3252 22.6613 22.6221 22.5621 22.8909 22.4077L24.2243 22.8077V28.2744C24.2243 28.9816 23.9433 29.6599 23.4432 30.16C22.9431 30.6601 22.2649 30.9411 21.5576 30.9411ZM18.8909 24.2744H10.891C10.6594 24.2661 10.4321 24.2089 10.2243 24.1064C10.0097 24.0007 9.83152 23.8333 9.71273 23.6257C9.59394 23.418 9.53993 23.1796 9.55762 22.9411V16.2744C10.2488 15.0949 11.1015 14.0178 12.091 13.0744C13.2243 11.9764 14.4267 10.9521 15.6909 10.0077C16.9642 8.93666 18.5613 8.326 20.2243 8.27439C21.1024 8.26494 21.9735 8.43091 22.7867 8.7626C23.5998 9.09428 24.3385 9.58499 24.9594 10.2059C25.5804 10.8269 26.0711 11.5656 26.4027 12.3787C26.7344 13.1918 26.9004 14.063 26.8909 14.9411C26.9782 16.5139 26.4824 18.0636 25.4983 19.2936C24.5143 20.5237 23.1112 21.3476 21.5576 21.6077C21.4669 21.6289 21.3752 21.6458 21.2829 21.6584C20.7869 21.7357 20.2243 21.8251 20.2243 22.9451C20.2259 23.1204 20.1925 23.2943 20.126 23.4566C20.0595 23.6189 19.9613 23.7662 19.8371 23.8901C19.7129 24.0139 19.5653 24.1116 19.4028 24.1776C19.2403 24.2436 19.0663 24.2765 18.8909 24.2744ZM20.2243 10.9411C19.1634 10.9411 18.146 11.3625 17.3959 12.1126C16.6457 12.8628 16.2243 13.8802 16.2243 14.9411C16.2243 15.4664 16.3277 15.9865 16.5288 16.4718C16.7298 16.9571 17.0244 17.3981 17.3959 17.7695C18.146 18.5196 19.1634 18.9411 20.2243 18.9411C21.2851 18.9411 22.3026 18.5196 23.0527 17.7695C23.8029 17.0193 24.2243 16.0019 24.2243 14.9411C24.2243 13.8802 23.8029 12.8628 23.0527 12.1126C22.3026 11.3625 21.2851 10.9411 20.2243 10.9411Z" fill="url(#paint0_linear_1828_433)"/>
<path id="Vector_2" d="M29.5568 22.941L24.4648 21.797L24.5608 21.6637C26.2162 20.5957 27.4192 18.9544 27.9395 17.0544L29.5568 22.941Z" fill="url(#paint1_linear_1828_433)"/>
<path id="Vector_3" d="M17.5586 14.941C17.5586 15.6483 17.8395 16.3265 18.3396 16.8266C18.8397 17.3267 19.518 17.6077 20.2253 17.6077C20.9325 17.6077 21.6108 17.3267 22.1109 16.8266C22.611 16.3265 22.8919 15.6483 22.8919 14.941C22.8919 14.2338 22.611 13.5555 22.1109 13.0554C21.6108 12.5553 20.9325 12.2744 20.2253 12.2744C19.518 12.2744 18.8397 12.5553 18.3396 13.0554C17.8395 13.5555 17.5586 14.2338 17.5586 14.941Z" fill="url(#paint2_linear_1828_433)"/>
</g>
<defs>
<linearGradient id="paint0_linear_1828_433" x1="16.2292" y1="1.60773" x2="16.2292" y2="30.9411" gradientUnits="userSpaceOnUse">
<stop stop-color="#8DEF3D"/>
<stop offset="1" stop-color="#E3FF57"/>
</linearGradient>
<linearGradient id="paint1_linear_1828_433" x1="27.0108" y1="17.0544" x2="27.0108" y2="22.941" gradientUnits="userSpaceOnUse">
<stop stop-color="#8DEF3D"/>
<stop offset="1" stop-color="#E3FF57"/>
</linearGradient>
<linearGradient id="paint2_linear_1828_433" x1="20.2253" y1="12.2744" x2="20.2253" y2="17.6077" gradientUnits="userSpaceOnUse">
<stop stop-color="#8DEF3D"/>
<stop offset="1" stop-color="#E3FF57"/>
</linearGradient>
</defs>
</svg>
