<svg width="33" height="33" viewBox="0 0 33 33" fill="none" xmlns="http://www.w3.org/2000/svg">
<g id="Frame">
<path id="Vector" d="M11.9874 24.6421H10.5911C10.3489 24.6421 10.1511 24.8396 10.1511 25.0821V26.4784C10.1511 26.7206 10.3486 26.9184 10.5911 26.9184H11.9874C12.2296 26.9184 12.4274 26.7209 12.4274 26.4784V25.0821C12.4274 24.8396 12.2299 24.6421 11.9874 24.6421ZM11.9874 14.109H10.5911C10.3489 14.109 10.1511 14.3065 10.1511 14.549V15.9453C10.1511 16.1875 10.3486 16.3853 10.5911 16.3853H11.9874C12.2296 16.3853 12.4274 16.1878 12.4274 15.9453V14.549C12.4274 14.3065 12.2299 14.109 11.9874 14.109ZM11.9874 17.6221H10.5911C10.3489 17.6221 10.1511 17.8196 10.1511 18.0618V19.4518C10.1511 19.694 10.3486 19.8918 10.5911 19.8918H11.9874C12.2296 19.8918 12.4274 19.6943 12.4274 19.4518V18.0556C12.4274 17.8134 12.2299 17.6218 11.9874 17.6221ZM11.9874 21.1287H10.5911C10.3489 21.1287 10.1511 21.3265 10.1511 21.5687V22.965C10.1511 23.2071 10.3486 23.405 10.5911 23.405H11.9874C12.2296 23.405 12.4274 23.2075 12.4274 22.965V21.5687C12.4274 21.3265 12.2299 21.1287 11.9874 21.1287ZM11.9874 10.5956H10.5911C10.3489 10.5956 10.1511 10.7934 10.1511 11.0356V12.4318C10.1511 12.674 10.3486 12.8718 10.5911 12.8718H11.9874C12.2296 12.8718 12.4274 12.6743 12.4274 12.4318V11.0356C12.4274 10.7934 12.2299 10.5956 11.9874 10.5956ZM28.6796 29.2071H5.17145C4.92926 29.2071 4.73145 29.0093 4.73145 28.7671V27.339C4.73145 27.0968 4.92895 26.899 5.17145 26.899H6.49113V9.09246C6.49113 8.59527 6.78426 8.14871 7.24363 7.95121L15.0286 3.4434C15.4111 3.27746 15.8511 3.31589 16.2018 3.54527C16.5524 3.77464 16.7564 4.16371 16.7564 4.57808V26.8921H18.1655V6.58496C18.1655 6.13871 18.4014 5.73058 18.7839 5.51371C19.1664 5.29058 19.6446 5.29714 20.0274 5.52027L26.7474 9.43496C27.1299 9.65808 27.3596 10.0662 27.3596 10.5062V26.9053H28.6858C28.928 26.9053 29.1258 27.1028 29.1258 27.345V28.7668C29.1196 29.0093 28.9218 29.2071 28.6796 29.2071ZM23.4193 17.7575H22.023C21.7808 17.7575 21.5833 17.955 21.5833 18.1975V19.5875C21.5833 19.8296 21.7808 20.0275 22.023 20.0275H23.4193C23.6614 20.0275 23.8593 19.8296 23.8593 19.5875V18.1912C23.8593 17.9487 23.6618 17.7575 23.4193 17.7575ZM23.4193 10.7312H22.023C21.7808 10.7312 21.5833 10.9287 21.5833 11.1712V12.5675C21.5833 12.8096 21.7808 13.0075 22.023 13.0075H23.4193C23.6614 13.0075 23.8593 12.81 23.8593 12.5675V11.1712C23.8593 10.9287 23.6618 10.7312 23.4193 10.7312ZM23.4193 21.2643H22.023C21.7808 21.2643 21.5833 21.4618 21.5833 21.7043V23.1006C21.5833 23.3428 21.7808 23.5406 22.023 23.5406H23.4193C23.6614 23.5406 23.8593 23.3431 23.8593 23.1006V21.7043C23.8593 21.4618 23.6618 21.2643 23.4193 21.2643ZM23.4193 24.7775H22.023C21.7808 24.7775 21.5833 24.975 21.5833 25.2175V26.6137C21.5833 26.8559 21.7808 27.0537 22.023 27.0537H23.4193C23.6614 27.0537 23.8593 26.8559 23.8593 26.6137V25.2175C23.8593 24.975 23.6618 24.7775 23.4193 24.7775ZM23.4193 14.2443H22.023C21.7808 14.2443 21.5833 14.4418 21.5833 14.684V16.0803C21.5833 16.3225 21.7808 16.5203 22.023 16.5203H23.4193C23.6614 16.5203 23.8593 16.3225 23.8593 16.0803V14.684C23.8593 14.4421 23.6618 14.2443 23.4193 14.2443Z" fill="url(#paint0_linear_1828_444)"/>
</g>
<defs>
<linearGradient id="paint0_linear_1828_444" x1="16.9286" y1="3.34143" x2="16.9286" y2="29.2071" gradientUnits="userSpaceOnUse">
<stop stop-color="#8DEF3D"/>
<stop offset="1" stop-color="#E3FF57"/>
</linearGradient>
</defs>
</svg>
