<svg width="33" height="33" viewBox="0 0 33 33" fill="none" xmlns="http://www.w3.org/2000/svg">
<g id="Frame">
<path id="Vector" d="M17.0714 24.4084H16.6563C16.6465 24.4084 16.6368 24.4061 16.628 24.4017C16.6193 24.3972 16.6116 24.3908 16.6058 24.3829C16.6 24.3749 16.5961 24.3657 16.5945 24.356C16.5929 24.3463 16.5936 24.3364 16.5966 24.327L16.6369 24.1999C16.5455 24.0744 16.5731 23.8985 16.6986 23.8071C16.8241 23.7157 17 23.7432 17.0914 23.8688C17.1154 23.9017 17.1319 23.9394 17.1399 23.9793C17.1479 24.0193 17.1472 24.0605 17.1378 24.1001C17.1346 24.117 17.1184 24.1286 17.1014 24.1254C17.0845 24.1223 17.073 24.106 17.0761 24.0891L17.077 24.0854C17.0811 24.0682 17.0833 24.0506 17.0833 24.0331C17.0833 23.912 16.9853 23.814 16.8642 23.814C16.743 23.814 16.6451 23.912 16.6451 24.0331C16.6451 24.0841 16.6626 24.1333 16.6952 24.1727C16.7033 24.1812 16.7058 24.194 16.7014 24.2049L16.6567 24.3461H17.0717L17.0404 24.2522C17.0005 24.2841 16.9529 24.3047 16.9023 24.3119C16.8518 24.3191 16.8003 24.3127 16.7531 24.2932C16.7492 24.2918 16.7457 24.2896 16.7427 24.2868C16.7397 24.284 16.7372 24.2806 16.7356 24.2768C16.7339 24.2731 16.7329 24.269 16.7328 24.2649C16.7327 24.2608 16.7334 24.2567 16.7349 24.2528C16.7412 24.2366 16.759 24.2284 16.7753 24.2347C16.7759 24.235 16.7769 24.2353 16.7775 24.2356C16.8554 24.2675 16.9449 24.2528 17.0085 24.1971C17.0166 24.1896 17.0313 24.1733 17.0313 24.1733C17.0429 24.1605 17.0626 24.1592 17.0755 24.1708C17.0795 24.1746 17.0827 24.1796 17.0845 24.1849L17.1299 24.328C17.1325 24.3358 17.1334 24.344 17.1328 24.3522C17.1321 24.3604 17.1298 24.3683 17.1261 24.3756C17.1223 24.3829 17.1172 24.3894 17.1109 24.3947C17.1046 24.4 17.0974 24.404 17.0896 24.4065C17.0833 24.4084 17.0767 24.4097 17.0701 24.4097L17.0714 24.4084ZM16.9578 24.0328C16.9578 23.9808 16.9158 23.9389 16.8639 23.9389C16.8467 23.9389 16.8326 23.953 16.8326 23.9702C16.8326 23.9874 16.8467 24.0015 16.8639 24.0015C16.8811 24.0015 16.8952 24.0156 16.8952 24.0328C16.8952 24.05 16.8811 24.0641 16.8639 24.0641C16.8467 24.0641 16.8326 24.05 16.8326 24.0328C16.8326 24.0156 16.8185 24.0015 16.8013 24.0015C16.7841 24.0015 16.77 24.0156 16.77 24.0328C16.77 24.0847 16.8119 24.1267 16.8639 24.1267C16.9158 24.1267 16.9578 24.0847 16.9578 24.0328Z" fill="url(#paint0_linear_1828_449)"/>
<path id="Vector_2" d="M29.2457 11.4069C29.2457 5.92469 24.2213 1.48025 18.0226 1.48025C15.1009 1.45172 12.2699 2.49409 10.0644 4.41047C8.78169 5.35435 7.79218 6.64185 7.21016 8.12424C6.83019 9.11193 6.61024 10.1539 6.55861 11.2109C6.53994 12.4247 7.13327 13.6131 6.61061 14.7949C6.24705 15.6216 5.30216 16.3207 4.69461 16.9798C4.69461 16.9798 2.99327 18.1118 6.2395 18.2665C6.33105 18.2709 6.74172 20.2109 6.84394 20.6549C6.7722 20.7518 6.73609 20.8705 6.74172 20.9909C6.74172 21.3629 7.21061 21.6665 7.78705 21.6665H8.1395C7.37816 21.77 6.82839 22.0665 6.82839 22.4798C6.82839 22.7642 7.18972 23.1394 7.72972 23.3642C7.72972 23.3642 7.06305 25.45 8.0515 25.9256C8.26405 26.0072 8.49598 26.0242 8.71816 25.9745C10.1199 26.0509 12.6293 25.9514 14.0239 25.9514C14.0239 25.926 14.7573 29.9247 14.7573 29.9247H27.3604C27.3604 29.9447 26.1488 20.8851 26.1488 20.8851C28.3666 17.7091 29.1346 14.866 29.1764 12.49C29.2208 12.1309 29.2439 11.7691 29.2444 11.4069H29.2457ZM22.6044 9.72424C22.1726 9.7232 21.75 9.59899 21.3863 9.3662C21.0226 9.13342 20.7328 8.80171 20.5511 8.41002L18.8488 9.3958C19.109 9.92943 19.2242 10.5221 19.183 11.1143C19.1418 11.7065 18.9457 12.2775 18.6142 12.77L21.8071 14.6198C21.9949 14.4348 22.241 14.3207 22.5035 14.2966C22.766 14.2726 23.0288 14.3402 23.2471 14.488C23.4654 14.6358 23.6257 14.8546 23.701 15.1072C23.7762 15.3599 23.7616 15.6308 23.6597 15.8739C23.5577 16.117 23.3748 16.3173 23.1418 16.4408C22.9089 16.5642 22.6405 16.6033 22.382 16.5512C22.1236 16.4991 21.8912 16.3591 21.7243 16.155C21.5575 15.951 21.4664 15.6954 21.4666 15.4318C21.4724 15.3249 21.4937 15.2193 21.5297 15.1185L18.2488 13.218C17.7632 13.7308 17.1309 14.0807 16.4385 14.2199C15.7461 14.3591 15.0277 14.2806 14.3816 13.9953C13.7356 13.71 13.1937 13.2319 12.8301 12.6264C12.4666 12.021 12.2993 11.3179 12.3511 10.6136C12.403 9.90925 12.6714 9.23823 13.1197 8.69253C13.568 8.14682 14.1741 7.75316 14.8549 7.56554C15.5357 7.37791 16.2579 7.40551 16.9225 7.64455C17.587 7.88359 18.1613 8.32236 18.5666 8.90069L20.3706 7.85624C20.2872 7.3968 20.3474 6.92283 20.543 6.49881C20.7385 6.07478 21.0599 5.72129 21.4635 5.48642C21.8671 5.25155 22.3332 5.1467 22.7985 5.18615C23.2638 5.22559 23.7056 5.40741 24.0639 5.70686C24.4222 6.00632 24.6795 6.40888 24.8009 6.85977C24.9222 7.31066 24.9018 7.788 24.7422 8.22685C24.5827 8.6657 24.2919 9.04475 23.9093 9.31243C23.5267 9.58012 23.0709 9.72344 22.6039 9.72291V9.72424H22.6044Z" fill="url(#paint1_linear_1828_449)"/>
</g>
<defs>
<linearGradient id="paint0_linear_1828_449" x1="16.8642" y1="23.7532" x2="16.8642" y2="24.4097" gradientUnits="userSpaceOnUse">
<stop stop-color="#8DEF3D"/>
<stop offset="1" stop-color="#E3FF57"/>
</linearGradient>
<linearGradient id="paint1_linear_1828_449" x1="16.7474" y1="1.47968" x2="16.7474" y2="29.9247" gradientUnits="userSpaceOnUse">
<stop stop-color="#8DEF3D"/>
<stop offset="1" stop-color="#E3FF57"/>
</linearGradient>
</defs>
</svg>
